<?xml version="1.0" encoding="utf-8"?>
<!-- Generator: Adobe Illustrator 21.0.0, SVG Export Plug-In . SVG Version: 6.00 Build 0)  -->
<svg version="1.1" id="Layer_1" xmlns="http://www.w3.org/2000/svg" xmlns:xlink="http://www.w3.org/1999/xlink" x="0px" y="0px"
	 width="376px" height="47px" viewBox="0 0 376 47" style="enable-background:new 0 0 376 47;" xml:space="preserve">
<style type="text/css">
	.st0{fill:#FFFFFF;}
	.st1{fill:#CECECE;}
</style>
<g>
	<polygon class="st0" points="24.7,2.2 34.1,8.3 34.1,44.8 24.7,44.8 	"/>
	<path class="st0" d="M34.8,28.5v16.1h11.4V32.2L34.8,28.5z M39.7,41.1l-3.5-1v-3l3.5,1.3V41.1z M39.7,35.8l-3.5-1v-3l3.5,1.3V35.8z
		 M44,42.4l-3.5-1v-3l3.5,1.3V42.4z M44,37.1l-3.5-1v-3l3.5,1.3L44,37.1L44,37.1z"/>
	<path class="st0" d="M12.1,9.5v24.2l-1.7,1.1v-8.1l-1,0.4v-8l-7.6,3.4v7.8l-0.7,0.3v14.2h22.6V2.1L12.1,9.5z M2.5,23.9l2.6-1.2v3.1
		L2.5,27V23.9z M2.7,29l2.6-1.2v3.1L2.7,32V29z M5.3,40.1l-2.6,1.1v-3.1L5.3,37V40.1z M5.3,35.4l-2.6,1.1v-3.1l2.6-1.2V35.4z
		 M5.7,22.4l2.6-1.2v3.1l-2.6,1.1L5.7,22.4z M5.9,27.5l2.6-1.2v3.1l-2.6,1.1L5.9,27.5z M8.8,38.6l-2.6,1.1v-3.1l2.6-1.2V38.6z
		 M8.8,33.9L6.2,35V32l2.6-1.2V33.9z M17,34.4l-3.6,2.2v-3.3l3.6-2.3V34.4z M17,28.9l-3.6,2.2v-3.3l3.6-2.3V28.9z M17,23.3l-3.6,2.2
		v-3.3l3.6-2.3V23.3z M17,17.7l-3.6,2.2v-3.3l3.6-2.3V17.7z M17,12.1l-3.6,2.2V11L17,8.7V12.1z M22.3,31.1l-4.1,2.6v-3.4l4.1-2.7
		V31.1z M22.3,25.5l-4.1,2.6v-3.4l4.1-2.7V25.5z M22.3,20l-4.1,2.6v-3.4l4.1-2.7V20z M22.3,14.4L18.2,17v-3.4l4.1-2.7V14.4z
		 M22.3,8.8l-4.1,2.6V8l4.1-2.7V8.8z"/>
</g>
<g>
	<g>
		<path class="st0" d="M69.6,32.9c-0.9,0-1.6,0.7-1.6,1.6v1.1c0,0.9,0.7,1.6,1.6,1.6s1.6-0.7,1.6-1.6v-1.1
			C71.2,33.6,70.5,32.9,69.6,32.9z"/>
		<path class="st0" d="M70.1,46.2C82.7,46.2,93,35.9,93,23.3S82.7,0.4,70.1,0.4S47.2,10.7,47.2,23.3S57.5,46.2,70.1,46.2z M70.1,3.7
			c10.8,0,19.6,8.8,19.6,19.6s-8.8,19.6-19.6,19.6s-19.6-8.8-19.6-19.6S59.3,3.7,70.1,3.7z"/>
		<path class="st0" d="M63,19.2C63,19.2,63,19.2,63,19.2c0.9,0,1.6-0.7,1.6-1.6c0,0,0-1.3,0.7-2.6c0.8-1.6,2.3-2.5,4.4-2.5
			c2,0,3.5,0.5,4.3,1.6c0.7,0.9,0.9,2.1,0.5,3.4c-0.4,1.6-1.8,3-3.1,4.4c-1.6,1.7-3.4,3.4-3.4,5.7c0,0.9,0.7,1.6,1.6,1.6
			s1.6-0.7,1.6-1.6c0-1,1.2-2.2,2.4-3.4c1.6-1.6,3.3-3.4,4-5.9c0.6-2.3,0.2-4.5-1.1-6.2c-1-1.3-3-2.9-6.9-2.9
			c-4.3,0-6.3,2.3-7.3,4.3c-1,2-1,3.9-1,4.1C61.4,18.5,62.1,19.2,63,19.2z"/>
	</g>
</g>
<path class="st0" d="M180.7,21h-3.3v-8.4c0-6.2-5.9-11.2-13.2-11.2s-13.2,5-13.2,11.2V21h-3.3c-1.8,0-3.3,1.3-3.3,2.8v19.5
	c0,1.5,1.5,2.8,3.3,2.8h32.9c1.8,0,3.3-1.3,3.3-2.8V23.8C184,22.3,182.5,21,180.7,21z M165.9,34.6v3.2c0,0.8-0.7,1.4-1.6,1.4
	s-1.6-0.6-1.6-1.4v-3.2c-1-0.5-1.6-1.4-1.6-2.4c0-1.5,1.5-2.8,3.3-2.8s3.3,1.3,3.3,2.8C167.5,33.2,166.9,34.1,165.9,34.6z M157.7,21
	v-8.4c0-3.1,3-5.6,6.6-5.6s6.6,2.5,6.6,5.6V21H157.7z"/>
<g>
	<path class="st0" d="M219.9,9V4h-4.3c-0.6-1.6-2.1-2.6-3.9-2.6c-1.8,0-3.3,1-3.9,2.6h-4.6V9H219.9z"/>
	<path class="st0" d="M222.7,4v5v2.3v0.4h-22.2v-0.1V9V4H195v42.1h33.2V4H222.7z M211.7,40.6h-11.1V38h11.1V40.6z M211.7,30h-11.1
		v-2.6h11.1V30z M211.7,19.5h-11.1V17h11.1V19.5z M218.1,42.9l-2.8-2.7l1.9-1.8l0.9,0.9l2.7-2.6l1.9,1.8L218.1,42.9z M218.1,32.3
		l-2.8-2.7l1.9-1.8l0.9,0.9l2.7-2.6l1.9,1.8L218.1,32.3z M218.1,21.8l-2.8-2.7l1.9-1.8l0.9,0.9l2.7-2.6l1.9,1.8L218.1,21.8z"/>
</g>
<g>
	<path class="st0" d="M244,24.3c0-4.7,2.2-8.9,5.7-11.6c-5.9,2.1-10.8,6.3-13.8,11.6c3.1,5.3,8,9.5,13.8,11.6
		C246.2,33.2,244,29,244,24.3z"/>
	<path class="st0" d="M258.7,12.7c-6.4,0-11.7,5.2-11.7,11.7S252.2,36,258.7,36c6.4,0,11.7-5.2,11.7-11.7S265.1,12.7,258.7,12.7z
		 M258.7,27.8c-1.9,0-3.5-1.6-3.5-3.5s1.6-3.5,3.5-3.5c1.9,0,3.5,1.6,3.5,3.5S260.6,27.8,258.7,27.8z"/>
	<path class="st0" d="M267.7,12.7c3.5,2.7,5.7,6.9,5.7,11.6s-2.2,8.9-5.7,11.6c5.9-2.1,10.8-6.3,13.8-11.6
		C278.4,19,273.5,14.8,267.7,12.7z"/>
</g>
<g id="envelope">
	<g>
		<path class="st0" d="M116.5,30.8c0.1,0.2,0.3,0.2,0.5,0.2c0.2,0,0.4-0.1,0.5-0.2L137.7,8c-0.1,0-0.3-0.2-0.4-0.2h-41
			c-0.2,0-0.3,0.1-0.5,0.2c0,0,0,0.1,0.1,0.1L116.5,30.8z"/>
		<path class="st0" d="M118.5,31.9c-0.4,0.5-0.9,0.7-1.5,0.7c-0.6,0-1.1-0.2-1.5-0.7L94.9,9.3c0,0,0.3,0,0.3,0
			c0,0.1,0.3,0.3,0.3,0.4v26.9c0,0.9,0,1.7,0.8,1.7h41c0.8,0,2.3-0.8,2.3-1.7V9.6c0-0.2-0.5-0.3-0.5-0.4L118.5,31.9z"/>
	</g>
</g>
<g id="Слой_1">
</g>
<g>
	<g>
		<path class="st0" d="M311.2,40.4c0,0.6-0.5,1.1-1.1,1.1h-8.6c-0.6,0-1.1-0.5-1.1-1.1c0-0.6,0.5-1.1,1.1-1.1h8.6
			C310.7,39.3,311.2,39.8,311.2,40.4z M310.1,42h-8.6c-0.7,0-1.3,0.7-1,1.4c0.1,0.4,0.6,0.7,1.1,0.7h0c0.6,0,1.2,0.4,1.5,0.9l0,0
			c0.4,0.7,1.1,1.2,2,1.2h1.6c0.8,0,1.6-0.5,2-1.2l0,0c0.3-0.6,0.8-0.9,1.5-0.9h0c0.5,0,0.9-0.3,1.1-0.7
			C311.4,42.7,310.8,42,310.1,42z M305.8,7.6c0.6,0,1.1-0.5,1.1-1.1V2.2c0-0.6-0.5-1.1-1.1-1.1c-0.6,0-1.1,0.5-1.1,1.1v4.3
			C304.8,7.1,305.2,7.6,305.8,7.6z M294.4,11.7c0.2,0.2,0.5,0.3,0.8,0.3c0.3,0,0.6-0.1,0.8-0.3c0.4-0.4,0.4-1.1,0-1.5l-3-3
			c-0.4-0.4-1.1-0.4-1.5,0c-0.4,0.4-0.4,1.1,0,1.5L294.4,11.7z M291.9,21.6c0-0.6-0.5-1.1-1.1-1.1h-4.3c-0.6,0-1.1,0.5-1.1,1.1
			c0,0.6,0.5,1.1,1.1,1.1h4.3C291.4,22.6,291.9,22.1,291.9,21.6z M294.4,31.4l-3,3c-0.4,0.4-0.4,1.1,0,1.5c0.2,0.2,0.5,0.3,0.8,0.3
			c0.3,0,0.6-0.1,0.8-0.3l3-3c0.4-0.4,0.4-1.1,0-1.5C295.5,31,294.9,31,294.4,31.4z M317.2,31.4c-0.4-0.4-1.1-0.4-1.5,0
			c-0.4,0.4-0.4,1.1,0,1.5l3,3c0.2,0.2,0.5,0.3,0.8,0.3s0.5-0.1,0.8-0.3c0.4-0.4,0.4-1.1,0-1.5L317.2,31.4z M325.2,20.5h-4.3
			c-0.6,0-1.1,0.5-1.1,1.1s0.5,1.1,1.1,1.1h4.3c0.6,0,1.1-0.5,1.1-1.1C326.3,21,325.8,20.5,325.2,20.5z M316.5,12
			c0.3,0,0.5-0.1,0.8-0.3l3-3c0.4-0.4,0.4-1.1,0-1.5s-1.1-0.4-1.5,0l-3,3c-0.4,0.4-0.4,1.1,0,1.5C315.9,11.9,316.2,12,316.5,12z
			 M311.2,37.7c0,0.6-0.5,1.1-1.1,1.1h-8.6c-0.6,0-1.1-0.5-1.1-1.1c0-0.6,0.4-1,1-1.1c-0.7-6-6.9-7.4-6.9-14.5
			c0-6.2,5.1-11.3,11.3-11.3s11.3,5.1,11.3,11.3c0,7.1-6.3,8.5-6.9,14.5C310.8,36.6,311.2,37.1,311.2,37.7z M303.4,13.8
			c-0.2-0.4-0.6-0.6-1-0.4c-2.7,1.1-4.8,3.5-5.6,6.4c-0.1,0.4,0.1,0.9,0.6,1c0.1,0,0.1,0,0.2,0c0.4,0,0.7-0.2,0.8-0.6
			c0.6-2.4,2.3-4.3,4.6-5.3C303.3,14.7,303.5,14.2,303.4,13.8z"/>
	</g>
</g>
<g>
	<g>
		<path class="st0" d="M362.2,18c0-0.9-0.7-1.6-1.6-1.6c-0.8,0-1.6,0.5-1.6,1.3l0,5.4c0,0.3-0.2,0.6-0.5,0.6c-0.3,0-0.5-0.2-0.5-0.5
			v-9.3c0-0.9-0.7-1.6-1.6-1.6c-0.8,0-1.6,0.6-1.6,1.4l0,9.3c0,0.3-0.2,0.5-0.5,0.5c-0.3,0-0.5-0.2-0.5-0.5l0-12.4
			c0-0.4-0.2-0.9-0.5-1.2c-0.3-0.3-0.7-0.5-1.2-0.5c-0.9,0-1.6,0.7-1.6,1.6l0,12.4c0,0.1-0.1,0.3-0.1,0.3c-0.1,0.1-0.2,0.1-0.3,0.1
			c-0.3,0-0.5-0.2-0.5-0.5l0-6.7c0-1.2,0-2.2,0-2.3v0c0-0.9-0.8-1.4-1.6-1.4c-0.9,0-1.6,0.7-1.6,1.6v13.6c0,0.2-0.2,0.5-0.5,0.5
			c-0.2,0-0.5-0.1-0.7-0.4l-1.6-1.6c-0.4-0.4-0.9-0.6-1.4-0.6c-0.5,0-0.9,0.2-1.2,0.5c-0.7,0.7-0.7,1.8-0.1,2.7l0,0
			c0.1,0.1,1.3,2,3.4,4c2,1.8,5.3,3.9,9.5,3.9c7.4,0,8.5-4.8,8.5-7.7L362.2,18z"/>
		<path class="st0" d="M368.6,7.3c-4.3-4.3-10.1-6.7-16.2-6.7S340.6,3,336.3,7.3s-6.7,10.1-6.7,16.2s2.4,11.8,6.7,16.2
			c4.3,4.3,10.1,6.7,16.2,6.7s11.8-2.4,16.2-6.7c4.3-4.3,6.7-10.1,6.7-16.2S372.9,11.6,368.6,7.3z M352.4,43.5
			c-11.1,0-20.1-9-20.1-20.1c0-11.1,9-20.1,20.1-20.1c11.1,0,20.1,9,20.1,20.1S363.5,43.5,352.4,43.5z"/>
	</g>
	<g>
	</g>
	<g>
	</g>
	<g>
	</g>
	<g>
	</g>
	<g>
	</g>
	<g>
	</g>
	<g>
	</g>
	<g>
	</g>
	<g>
	</g>
	<g>
	</g>
	<g>
	</g>
	<g>
	</g>
	<g>
	</g>
	<g>
	</g>
	<g>
	</g>
</g>
<rect x="351.6" y="3.6" transform="matrix(-0.8252 -0.5648 0.5648 -0.8252 630.5856 242.4151)" class="st1" width="2.4" height="40.1"/>
<rect x="351.2" y="3.4" transform="matrix(0.8252 -0.5648 0.5648 0.8252 48.3501 203.109)" class="st1" width="2.4" height="40.1"/>
</svg>
