<?xml version="1.0" encoding="utf-8"?>
<!-- Generator: Adobe Illustrator 23.0.4, SVG Export Plug-In . SVG Version: 6.00 Build 0)  -->
<svg version="1.1" id="Layer_1" xmlns="http://www.w3.org/2000/svg" xmlns:xlink="http://www.w3.org/1999/xlink" x="0px" y="0px"
	 width="198px" height="22px" viewBox="0 0 198 22" enable-background="new 0 0 198 22" xml:space="preserve">
<path fill="#333332" d="M15.5,10.8c1-1.1,1.6-2.5,1.6-4.1c0-3.4-2.8-6.2-6.2-6.2S4.8,3.3,4.8,6.7s2.8,6.2,6.2,6.2
	c1.2,0,2.3-0.4,3.3-0.9c3.4,1.3,5.7,4.3,6,7.9H1.7c0.2-2.4,1.3-4.6,3.2-6.2c0.3-0.3,0.4-0.8,0.1-1.1c-0.3-0.3-0.8-0.4-1.1-0.1
	c-2.4,2.1-3.7,5-3.7,8.2c0,0.4,0.3,0.8,0.8,0.8H21c0.4,0,0.8-0.3,0.8-0.8C21.8,16.4,19.3,12.6,15.5,10.8z M6.3,6.7
	c0-2.6,2.1-4.6,4.6-4.6s4.6,2.1,4.6,4.6s-2.1,4.6-4.6,4.6S6.3,9.2,6.3,6.7z"/>
<path fill="#333332" d="M43.7,8.5l-7.4-1.1L33,0.8l-3.3,6.7l-7.4,1.1l5.3,5.2l-1.2,7.4l6.6-3.5l6.6,3.5l-1.2-7.4L43.7,8.5z M33,15.6
	l-4.3,2.2l0.8-4.7l-3.5-3.4L30.9,9L33,4.6L35.1,9l4.8,0.7l-3.5,3.4l0.8,4.8L33,15.6z"/>
<g>
	<rect x="53.6" y="10.6" fill="#333332" width="2.7" height="2.7"/>
	<rect x="57.9" y="10.6" fill="#333332" width="2.7" height="2.7"/>
	<rect x="49.3" y="14.8" fill="#333332" width="2.7" height="2.7"/>
	<rect x="53.6" y="14.8" fill="#333332" width="2.7" height="2.7"/>
	<rect x="57.9" y="14.8" fill="#333332" width="2.7" height="2.7"/>
	<path fill="#333332" d="M50.8,5.5L50.8,5.5c-0.7,0-1.2-0.6-1.2-1.2V1.5c0-0.7,0.6-1.2,1.2-1.2l0,0c0.7,0,1.2,0.6,1.2,1.2v2.8
		C52,5,51.4,5.5,50.8,5.5z"/>
	<path fill="#333332" d="M62.4,2.9H61v1.7c0,1-0.8,1.9-1.9,1.9h-0.5c-1,0-1.9-0.8-1.9-1.9V2.9H53v1.7c0,1-0.8,1.9-1.9,1.9h-0.5
		c-1,0-1.9-0.8-1.9-1.9V2.9h-1.1c-1.1,0-2.1,1-2.1,2.1v14.8c0,1.2,0.9,2.1,2.1,2.1h14.7c1.1,0,2.1-1,2.1-2.1V5
		C64.5,3.9,63.5,2.9,62.4,2.9z M62,17.8c0,0.7-0.6,1.3-1.3,1.3H49.4c-0.7,0-1.3-0.6-1.3-1.3v-7.5c0-0.7,0.6-1.4,1.3-1.4h11.4
		c0.7,0,1.3,0.6,1.3,1.4V17.8z"/>
	<path fill="#333332" d="M58.9,5.5L58.9,5.5c-0.7,0-1.2-0.6-1.2-1.2V1.5c0-0.7,0.6-1.2,1.2-1.2l0,0c0.7,0,1.2,0.6,1.2,1.2v2.8
		C60.1,5,59.6,5.5,58.9,5.5z"/>
</g>
<path fill="#333332" d="M85.6,11.4c-0.9,0-1.3,0.6-1.5,1.3c-0.5,2.4-2.8,6.1-7.4,6.1c-4.1,0-7.4-3.3-7.4-7.4S72.6,4,76.7,4
	c1.7,0,3.2,0.6,4.4,1.5h-1.5c-0.8,0-1.5,0.7-1.5,1.5s0.7,1.5,1.5,1.5h4.5c0.8,0,1.5-0.7,1.5-1.5V2.5C85.6,1.7,85,1,84.1,1
	c-0.8,0-1.5,0.7-1.5,1.5v0.4C81,1.7,78.9,1,76.7,1C71,1,66.3,5.7,66.3,11.4S71,21.8,76.7,21.8c7.4,0,10.4-7.1,10.4-8.8
	C87.1,11.9,86.3,11.4,85.6,11.4z"/>
<path fill="#333332" d="M129.3,4.9h-2.9V2.3c0-1-0.8-1.8-1.8-1.8h-7c-1,0-1.8,0.8-1.8,1.8v2.6H113c-0.6,0-1.1,0.5-1.1,1.1
	c0,0.6,0.5,1.1,1.1,1.1h0.7v12.8c0,1,0.8,1.8,1.8,1.8h11.4c1,0,1.8-0.8,1.8-1.8V7.1h0.7c0.6,0,1.1-0.5,1.1-1.1
	C130.4,5.4,129.9,4.9,129.3,4.9z M124.3,4.9h-6.2V3.7c0-0.5,0.4-1,1-1h4.2c0.5,0,1,0.4,1,1L124.3,4.9L124.3,4.9z M118.1,8v10.6
	c0,0.5-0.4,0.9-0.9,0.9c-0.5,0-0.9-0.4-0.9-0.9V8c0-0.5,0.4-0.9,0.9-0.9S118.1,7.5,118.1,8z M122.1,8v10.6c0,0.5-0.4,0.9-0.9,0.9
	c-0.5,0-0.9-0.4-0.9-0.9V8c0-0.5,0.4-0.9,0.9-0.9C121.7,7.1,122.1,7.5,122.1,8z M126,8v10.6c0,0.5-0.4,0.9-0.9,0.9
	c-0.5,0-0.9-0.4-0.9-0.9V8c0-0.5,0.4-0.9,0.9-0.9C125.6,7.1,126,7.5,126,8z"/>
<g>
	<path fill="#333332" d="M99.2,1.4v1.1c0.7,0.1,1.4,0.2,1.9,0.5s1,0.6,1.4,1c0.3,0.4,0.5,0.7,0.7,1.1c0.2,0.4,0.3,0.7,0.3,1
		c0,0.3-0.1,0.6-0.4,0.9c-0.3,0.3-0.6,0.4-0.9,0.4c-0.7,0-1.1-0.4-1.3-1.1c-0.2-0.9-0.8-1.4-1.6-1.7v4.3c0.9,0.2,1.5,0.4,2,0.6
		c0.5,0.2,1,0.5,1.4,0.8c0.4,0.4,0.8,0.8,1,1.4c0.2,0.5,0.3,1.1,0.3,1.7c0,0.8-0.2,1.5-0.6,2.2c-0.4,0.7-0.9,1.2-1.6,1.7
		c-0.7,0.4-1.6,0.7-2.5,0.8v2.6c0,0.4,0,0.7-0.1,0.9c-0.1,0.2-0.3,0.3-0.5,0.3c-0.2,0-0.4-0.1-0.5-0.2s-0.1-0.4-0.1-0.7v-2.8
		c-0.8-0.1-1.5-0.3-2.1-0.6c-0.6-0.3-1.1-0.6-1.5-1.1c-0.4-0.4-0.7-0.9-0.9-1.3c-0.2-0.5-0.3-0.9-0.3-1.4c0-0.3,0.1-0.6,0.4-0.9
		s0.6-0.4,1-0.4c0.3,0,0.6,0.1,0.8,0.2c0.2,0.1,0.4,0.3,0.4,0.6c0.2,0.6,0.3,1,0.5,1.3c0.1,0.3,0.3,0.6,0.6,0.8
		c0.3,0.2,0.6,0.4,1.1,0.6v-4.8c-0.9-0.3-1.7-0.5-2.3-0.8s-1.1-0.8-1.5-1.3c-0.4-0.6-0.6-1.3-0.6-2.2c0-1.2,0.4-2.1,1.1-2.9
		c0.8-0.8,1.8-1.2,3.3-1.3V1.4c0-0.6,0.2-0.9,0.6-0.9C99,0.5,99.2,0.8,99.2,1.4z M97.9,8.5V4.5c-0.6,0.2-1,0.4-1.3,0.7
		c-0.3,0.3-0.5,0.7-0.5,1.3c0,0.5,0.2,1,0.5,1.2C96.8,8,97.3,8.2,97.9,8.5z M99.2,11.5V16c0.7-0.1,1.2-0.4,1.6-0.8
		c0.4-0.4,0.6-0.9,0.6-1.5c0-0.6-0.2-1.1-0.6-1.4S99.9,11.7,99.2,11.5z"/>
</g>
<g>
	<path fill="#333332" d="M138.5,3.3h2.3L138.3,19H136l-2.4-15.8h2.3l1.2,8.7l0.1,0.7h0.1l0.1-0.7L138.5,3.3z"/>
	<path fill="#333332" d="M141.8,3.3h2.3V19h-2.3V3.3z"/>
	<path fill="#333332" d="M145.8,3.3h2.3c1,0,2,0.3,2.8,1s1.3,1.9,1.3,3.7s-0.5,3-1.3,3.7c-0.8,0.7-1.8,1-2.8,1V19h-2.3V3.3z
		 M148.1,10.4c0.7,0,1.2-0.1,1.4-0.5c0.3-0.3,0.3-0.9,0.3-1.8c0-0.9-0.1-1.5-0.3-1.9c-0.3-0.4-0.7-0.6-1.4-0.6V10.4z"/>
</g>
<path fill="#333332" d="M174,15.4l-2.2-1.3l1.9-1.1c0.4-0.2,0.5-0.7,0.3-1c-0.2-0.4-0.7-0.5-1-0.3l-2.6,1.5l-3.9-2.3l3.9-2.3
	l2.6,1.5c0.1,0.1,0.2,0.1,0.4,0.1c0.3,0,0.5-0.1,0.6-0.4c0.2-0.4,0.1-0.8-0.3-1l-1.9-1.1l2.2-1.3c0.4-0.2,0.5-0.7,0.3-1
	c-0.2-0.4-0.7-0.5-1-0.3l-2.2,1.3l0-2.2c0-0.4-0.3-0.7-0.7-0.7c-0.4,0-0.7,0.3-0.7,0.7l0,3l-3.9,2.3V5.1l2.6-1.5
	c0.4-0.2,0.5-0.6,0.3-1c-0.2-0.4-0.6-0.5-1-0.3l-1.9,1.1V0.9c0-0.4-0.3-0.7-0.7-0.7c-0.4,0-0.7,0.3-0.7,0.7v2.5l-1.9-1.1
	c-0.4-0.2-0.8-0.1-1,0.3c-0.2,0.4-0.1,0.8,0.3,1l2.6,1.5v4.6l-3.9-2.3l0-3c0-0.4-0.3-0.7-0.7-0.7c0,0,0,0,0,0
	c-0.4,0-0.7,0.3-0.7,0.7l0,2.2l-2.2-1.3c-0.4-0.2-0.8-0.1-1,0.3c-0.2,0.4-0.1,0.8,0.3,1l2.2,1.3L156.2,9c-0.4,0.2-0.5,0.7-0.3,1
	c0.1,0.2,0.4,0.4,0.6,0.4c0.1,0,0.3,0,0.4-0.1l2.6-1.5l3.9,2.3l-3.9,2.3l-2.6-1.5c-0.4-0.2-0.8-0.1-1,0.3c-0.2,0.4-0.1,0.8,0.3,1
	l1.9,1.1l-2.2,1.3c-0.4,0.2-0.5,0.7-0.3,1c0.1,0.2,0.4,0.4,0.6,0.4c0.1,0,0.3,0,0.4-0.1l2.2-1.3l0,2.2c0,0.4,0.3,0.7,0.7,0.7
	c0,0,0,0,0,0c0.4,0,0.7-0.3,0.7-0.7l0-3l3.9-2.3v4.6l-2.6,1.5c-0.4,0.2-0.5,0.6-0.3,1c0.1,0.2,0.4,0.4,0.6,0.4c0.1,0,0.2,0,0.4-0.1
	l1.9-1.1V21c0,0.4,0.3,0.7,0.7,0.7c0.4,0,0.7-0.3,0.7-0.7v-2.5l1.9,1.1c0.1,0.1,0.2,0.1,0.4,0.1c0.3,0,0.5-0.1,0.6-0.4
	c0.2-0.4,0.1-0.8-0.3-1l-2.6-1.5v-4.6l3.9,2.3l0,3c0,0.4,0.3,0.7,0.7,0.7c0,0,0,0,0,0c0.4,0,0.7-0.3,0.7-0.7l0-2.2l2.2,1.3
	c0.1,0.1,0.2,0.1,0.4,0.1c0.3,0,0.5-0.1,0.6-0.4C174.5,16,174.4,15.6,174,15.4z"/>
<g>
	<g>
		<g>
			<path fill="#333332" d="M192.7,19.2v-3.4c0-1.2-0.5-2.3-1.4-3l-2-1.7l2-1.7c0.9-0.8,1.4-1.9,1.4-3V2.8c0.5-0.2,0.9-0.7,0.9-1.3
				c0-0.7-0.6-1.3-1.3-1.3h-10.8c-0.7,0-1.3,0.6-1.3,1.3c0,0.6,0.4,1.1,0.9,1.3v3.4c0,1.2,0.5,2.3,1.4,3l2,1.7l-2,1.7
				c-0.9,0.8-1.4,1.9-1.4,3v3.4c-0.5,0.2-0.9,0.7-0.9,1.3c0,0.7,0.6,1.3,1.3,1.3h10.8c0.7,0,1.3-0.6,1.3-1.3
				C193.6,19.8,193.3,19.3,192.7,19.2z M191.8,19.1H182v-3.3c0-0.9,0.4-1.8,1.1-2.4l2.4-2.1c0.1-0.1,0.2-0.2,0.2-0.3
				s-0.1-0.3-0.2-0.3L183,8.6C182.4,8,182,7.1,182,6.2V2.9h9.9v3.3c0,0.9-0.4,1.8-1.1,2.4l-2.4,2.1c-0.1,0.1-0.2,0.2-0.2,0.3
				c0,0.1,0.1,0.3,0.2,0.3l2.4,2.1c0.7,0.6,1.1,1.5,1.1,2.4V19.1L191.8,19.1z"/>
		</g>
	</g>
	<g>
		<g>
			<path fill="#333332" d="M190.8,17.4l-3.6-4.5c-0.2-0.2-0.5-0.2-0.7,0l-3.6,4.5c-0.1,0.1-0.1,0.3-0.1,0.5c0.1,0.2,0.2,0.3,0.4,0.3
				h7.2c0.2,0,0.3-0.1,0.4-0.3C191,17.8,190.9,17.6,190.8,17.4z"/>
		</g>
	</g>
	<g>
		<g>
			<path fill="#333332" d="M189.1,7.7c-0.1-0.2-0.2-0.3-0.4-0.3h-3.6c-0.2,0-0.3,0.1-0.4,0.3c-0.1,0.2,0,0.4,0.1,0.5l1.8,1.8
				c0.1,0.1,0.2,0.1,0.3,0.1s0.2,0,0.3-0.1l1.8-1.8C189.1,8,189.2,7.8,189.1,7.7z"/>
		</g>
	</g>
	<g>
	</g>
	<g>
	</g>
	<g>
	</g>
	<g>
	</g>
	<g>
	</g>
	<g>
	</g>
	<g>
	</g>
	<g>
	</g>
	<g>
	</g>
	<g>
	</g>
	<g>
	</g>
	<g>
	</g>
	<g>
	</g>
	<g>
	</g>
	<g>
	</g>
</g>
</svg>
