<?xml version="1.0" encoding="utf-8"?>
<!-- Generator: Adobe Illustrator 18.0.0, SVG Export Plug-In . SVG Version: 6.00 Build 0)  -->
<!DOCTYPE svg PUBLIC "-//W3C//DTD SVG 1.1//EN" "http://www.w3.org/Graphics/SVG/1.1/DTD/svg11.dtd">
<svg version="1.1" id="Layer_1" xmlns="http://www.w3.org/2000/svg" xmlns:xlink="http://www.w3.org/1999/xlink" x="0px" y="0px"
	 width="470px" height="47px" viewBox="0 0 470 47" enable-background="new 0 0 470 47" xml:space="preserve">
<path fill="none" d="M3,4h38.6v38.6H3V4z"/>
<path fill="#FFFFFF" d="M7.1,24.8h13.1V8.4H7.1V24.8z M7.1,37.8h13.1V28H7.1V37.8z M23.4,37.8h13.1V21.5H23.4V37.8z M23.4,8.4v9.8
	h13.1V8.4H23.4z"/>
<g id="Livello_98">
	<path fill="#FFFFFF" d="M59.4,28.8C52.8,29,47.5,34.1,47,40.6h6.2l0,0c0.3-4.2,2.2-8.1,5.2-11C58.8,29.3,59.1,29.1,59.4,28.8
		 M61.9,15.8c0-0.9,0.1-1.8,0.2-2.7c-0.7-0.5-1.6-0.7-2.4-0.7c-3.3,0-5.9,3.7-5.9,8.2c0,4.4,2.5,8,5.6,8.2c1.4-1.1,3-2,4.6-2.6
		c0.4-0.5,0.7-1.1,0.9-1.8C63.1,22.4,61.9,19.3,61.9,15.8 M78,15.7c0-5.7-3.3-10.4-7.5-10.4C66.4,5.4,63,10,63,15.7
		c0,5.1,2.7,9.4,6.2,10.2c-7.9,0.6-14.3,7-14.9,14.9h32.2c-0.6-7.9-6.9-14.3-14.9-14.9C75.3,25.1,78,20.9,78,15.7 M87.2,20.9
		c0-4.5-2.6-8.2-5.9-8.2c-0.9,0-1.7,0.3-2.4,0.7c0.2,0.9,0.2,1.8,0.2,2.7c0,3.5-1.2,6.6-3,8.6c0.2,0.6,0.5,1.2,0.9,1.8
		c1.7,0.6,3.2,1.5,4.6,2.6C84.7,28.9,87.2,25.3,87.2,20.9 M94,40.9c-0.5-6.5-5.8-11.6-12.4-11.8c0.3,0.3,0.6,0.5,0.9,0.8
		c3.1,2.9,4.9,6.8,5.2,11l0,0L94,40.9L94,40.9z"/>
</g>
<g id="Livello_1_1_">
</g>
<g id="layer1" transform="translate(0,-540.36218)">
	<g id="g4305">
		<g id="g4345" transform="translate(28,-40.00001)">
			<g id="text2994">
				<g id="g3830" transform="translate(0,15.24359)">
					<g id="g3838">
						<g id="g3785">
							<path id="path3812" fill="#FFFFFF" d="M90.2,573.3c-5.3,0-6.6,1.4-6.6,1.4l-1.4,3.4l-0.4,0.4h-2c0-0.5-1.3-0.9-2.8-0.9
								c-1.6,0-2.8,0.4-2.8,0.9c-2.7,0-4.6,1-5.5,2.3c-0.9,1.4-2.1,6-2.1,11.4c0,6.5,1.3,11.8,2.8,11.8h13.4
								c-3.2-2.3-5.4-6.1-5.4-10.4c0-7.1,5.7-12.8,12.8-12.8s12.8,5.7,12.8,12.8c0,4.3-2.1,8.1-5.4,10.4h12c1.6,0,2.8-5.3,2.8-11.8
								c0-5.4-1.2-10-2.1-11.4c-0.9-1.4-2.8-2.3-5.6-2.3h-6.2l-0.4-0.4l-1.4-3.4C96.8,574.8,95.5,573.3,90.2,573.3z M102.6,580.9
								h5.2l0.5,0.5v1.9l-0.5,0.5h-5.2l-0.5-0.5v-1.9L102.6,580.9z M90.2,581.9c-1.9,0-3.8,0.5-5.4,1.3c0,0,0,0,0,0
								c-0.1,0-0.2,0.1-0.2,0.1c0,0,0,0,0,0c-0.3,0.2-0.7,0.4-1,0.6c0,0,0,0,0,0c-0.1,0.1-0.2,0.1-0.2,0.2c0,0,0,0,0,0
								c-0.1,0.1-0.2,0.2-0.4,0.3c0,0-0.1,0-0.1,0.1c0,0,0,0,0,0c-0.1,0.1-0.1,0.1-0.2,0.2c0,0-0.1,0.1-0.1,0.1c0,0-0.1,0.1-0.1,0.1
								c0,0,0,0,0,0c-0.1,0.1-0.1,0.1-0.2,0.2c0,0,0,0,0,0c-0.1,0.1-0.1,0.1-0.2,0.2c0,0,0,0,0,0c-0.2,0.2-0.4,0.4-0.6,0.6
								c0,0,0,0,0,0c-1.9,2.1-3.1,4.9-3.1,7.9c0,3,1.1,5.7,2.9,7.7c0.1,0.1,0.1,0.1,0.2,0.2c0.2,0.3,0.5,0.5,0.7,0.7
								c0,0,0.1,0.1,0.1,0.1c0,0,0,0,0.1,0.1c0.1,0.1,0.1,0.1,0.2,0.2c0,0,0,0,0.1,0.1c0,0,0,0,0,0c0,0,0,0,0.1,0
								c0.1,0,0.1,0.1,0.2,0.1c0.1,0.1,0.1,0.1,0.2,0.1c0,0,0,0,0,0c0,0,0.1,0.1,0.1,0.1c0.1,0.1,0.2,0.1,0.3,0.2c0,0,0,0,0,0
								c0.1,0.1,0.2,0.1,0.3,0.2c0.1,0.1,0.2,0.1,0.3,0.2c0.1,0.1,0.2,0.1,0.3,0.2c1.7,0.9,3.6,1.4,5.6,1.4c2,0,3.9-0.5,5.6-1.4
								c0.1-0.1,0.2-0.1,0.3-0.2c0.1-0.1,0.2-0.1,0.3-0.2c0.1-0.1,0.2-0.1,0.3-0.2c0,0,0,0,0,0c0.1-0.1,0.2-0.1,0.3-0.2
								c0,0,0.1-0.1,0.1-0.1c0,0,0,0,0,0c0.1,0,0.1-0.1,0.2-0.1c0.1,0,0.1-0.1,0.2-0.1c0.1,0,0.1-0.1,0.2-0.1
								c0.1-0.1,0.1-0.1,0.2-0.2c0,0,0,0,0.1-0.1c0,0,0.1-0.1,0.1-0.1c0.1-0.1,0.2-0.2,0.3-0.3c0.1-0.1,0.1-0.1,0.2-0.2
								c0.1-0.1,0.1-0.1,0.2-0.2c0.1-0.1,0.1-0.1,0.2-0.2c0.1-0.1,0.2-0.3,0.4-0.4c0.1-0.1,0.2-0.3,0.3-0.5c0.4-0.6,0.8-1.3,1.1-2
								c0-0.1,0.1-0.2,0.1-0.3c0.6-1.4,0.9-3,0.9-4.6c0-3.1-1.2-5.8-3.1-7.9c0,0,0,0,0,0c-0.1-0.1-0.3-0.3-0.4-0.4
								c-0.2-0.2-0.4-0.3-0.5-0.5c-0.1-0.1-0.2-0.2-0.3-0.2c0,0,0,0,0,0c-0.1-0.1-0.3-0.2-0.4-0.3c0,0,0,0-0.1,0c0,0,0,0,0,0
								c-0.1-0.1-0.2-0.1-0.2-0.2c-0.4-0.3-0.8-0.5-1.2-0.7c-0.1,0-0.2-0.1-0.3-0.1C93.9,582.3,92.1,581.9,90.2,581.9z M90.2,586.1
								c4.2,0,7.6,3.4,7.6,7.6s-3.4,7.6-7.6,7.6s-7.6-3.4-7.6-7.6S86,586.1,90.2,586.1z"/>
						</g>
					</g>
				</g>
				<g id="layer1-4" transform="translate(539.77941,-13.359245)">
					<g id="layer1-5" transform="translate(-573.14286,170.28574)">
					</g>
				</g>
			</g>
		</g>
	</g>
</g>
<path fill="#FFFFFF" d="M180.2,14.6c-0.7-1.2-1.7-2.4-2.8-3.6c-1.1-1.1-2.4-2.1-3.6-2.8L176,6c0,0,3.2,0,4.8,1.6
	c1.6,1.6,1.6,4.8,1.6,4.8L180.2,14.6z M161.6,33.2h-6.4v-6.4l0.8-0.8c1.3,0.6,2.6,1.5,3.8,2.6c1.2,1.2,2,2.5,2.6,3.8L161.6,33.2z
	 M178.4,16.4l-14.2,14.2c-0.7-1.2-1.7-2.4-2.8-3.6c-1.1-1.1-2.4-2.1-3.6-2.8L172,10c1.3,0.6,2.6,1.5,3.8,2.6
	C176.9,13.8,177.8,15.1,178.4,16.4z M152,10.8v25.6h25.6V25.2l4.8-4.9V38c0,1.8-1.4,3.2-3.2,3.2h-28.8c-1.8,0-3.2-1.4-3.2-3.2V9.2
	c0-1.8,1.4-3.2,3.2-3.2H168l-4.8,4.8H152z"/>
<g>
	<path fill="#FFFFFF" d="M211.1,30.8c3.9,0,7-3.2,7-7V13.2c0-3.9-3.2-7-7-7c-3.9,0-7,3.2-7,7v10.6C204,27.6,207.2,30.8,211.1,30.8z"
		/>
	<path fill="#FFFFFF" d="M223.4,23.7v-3.5c0-1-0.8-1.8-1.8-1.8c-1,0-1.8,0.8-1.8,1.8v3.5c0,4.9-3.9,8.8-8.8,8.8s-8.8-3.9-8.8-8.8
		v-3.5c0-1-0.8-1.8-1.8-1.8c-1,0-1.8,0.8-1.8,1.8v3.5c0,6.2,4.6,11.3,10.6,12.2v1.9H204c-1,0-1.8,0.8-1.8,1.8s0.8,1.8,1.8,1.8h14.1
		c1,0,1.8-0.8,1.8-1.8s-0.8-1.8-1.8-1.8h-5.3v-1.9C218.8,35,223.4,29.9,223.4,23.7z"/>
</g>
<path fill="#FFFFFF" d="M245.2,23.6c3.7,0,7.2,1.4,9.8,4.1c2.6,2.6,4.1,6.1,4.1,9.9h5.7c0-10.8-8.8-19.7-19.6-19.7V23.6z
	 M245.2,13.4c13.2,0,23.9,10.8,23.9,24.1h5.7c0-16.4-13.3-29.8-29.7-29.8V13.4z M253.1,33.5c0,2.2-1.8,4-4,4c-2.2,0-4-1.8-4-4
	c0-2.2,1.8-4,4-4C251.3,29.6,253.1,31.3,253.1,33.5z"/>
<g id="g3261" transform="translate(-240.43605,-240.43605)">
	<path id="path3263" fill="none" stroke="#FFFFFF" stroke-width="5" d="M546.6,280.5c-9.2,0-16.6-7.4-16.6-16.6
		c0-9.2,7.4-16.6,16.6-16.6c9.2,0,16.6,7.4,16.6,16.6C563.2,273.1,555.8,280.5,546.6,280.5z"/>
	<path id="path3265" fill="none" stroke="#FFFFFF" stroke-width="5" d="M507.4,224.8"/>
</g>
<path id="path3267" fill="#FFFFFF" d="M304,10.7v2.8c-1.1,0-6.1,1.4-6.1,6c0,4.1,3.6,5.2,6.1,5.5l0,4.6c-1.8-0.5-2.2-1.9-2.4-3.1h-4
	c0.2,4.6,4.3,6.7,6.5,7v2.8h3.8v-2.8c3-0.2,6.6-2.8,6.6-6.4c0-4.1-3.6-5.3-6.6-5.6v-4.2c1.2,0.1,2.1,1.3,2.2,2.5h4
	c0-4.1-3.7-6.2-6.3-6.4v-2.8H304z M304,17.3v3.5C301.3,20.8,301.3,17.8,304,17.3z M307.9,25.6c3.3,0.1,3.7,3.4,0,4L307.9,25.6z"/>
<path id="path3277" fill="#FFFFFF" d="M307.9,29.5l0-4"/>
<g id="miu">
	<g id="Artboard-1" transform="translate(-251.000000, -335.000000)">
		<g id="slice" transform="translate(215.000000, 119.000000)">
		</g>
		<path id="common-email-envelope-mail-glyph" fill="#FFFFFF" d="M624.3,374.4h-41.9l0,0l14.9-14.9l6,4.6l6-4.6L624.3,374.4z
			 M625.8,373v-26l0,0L611,358.2L625.8,373z M581,373v-26l14.7,11.3L581,373L581,373z M625.8,344.4v-2.6H581v2.6l22.4,17.2
			L625.8,344.4z"/>
	</g>
</g>
<g>
	<g>
		<path fill="#FFFFFF" d="M419.4,29.6c-1-0.6-1.5-2.5-1.1-4.3c0,0,0,0,0-1.7c0-1.8,0-1.9,0-1.9c-0.4-1.9,0.1-3.8,1.1-4.4
			c1-0.6,1-2.4,0.1-4l-1-1.8c-0.9-1.6-2.5-2.5-3.5-2c-1,0.6-3.1,0.1-4.5-1.1l-3.2-1.8c-1.8-0.7-3.2-2.3-3.2-3.4s-1.6-2.1-3.4-2.1h-2
			c-1.9,0-3.4,0.9-3.4,2.1c0,1.1-1.4,2.6-3.2,3.3l-3.4,1.8c-1.5,1.2-3.5,1.7-4.4,1.2c-1-0.5-2.5,0.4-3.5,2l-1,1.8
			c-0.9,1.6-0.9,3.4,0,4c0.9,0.5,1.4,2.5,0.9,4.3c0,0,0,0.2,0,2c0,1.8,0,1.8,0,1.8c0.4,1.9,0,3.8-1,4.3c-0.9,0.5-0.9,2.3,0,3.9
			l1,1.8c0.9,1.6,2.5,2.6,3.4,2c0.9-0.5,2.9,0,4.4,1.2l3.5,2c1.8,0.7,3.2,2.2,3.2,3.3c0,1.1,1.6,2,3.4,2h2c1.9,0,3.4-0.9,3.4-2
			s1.4-2.6,3.2-3.3l3.4-2c1.5-1.2,3.5-1.7,4.4-1.2c1,0.5,2.5-0.3,3.5-2l1-1.8C420.4,32,420.3,30.2,419.4,29.6z M399.3,35.6
			c-6.8,0-12.2-5.5-12.2-12.2s5.5-12.2,12.2-12.2c6.8,0,12.2,5.5,12.2,12.2C411.5,30.2,406.1,35.6,399.3,35.6z"/>
	</g>
	<g>
		<circle fill="#FFFFFF" cx="399.4" cy="23.3" r="5.1"/>
	</g>
</g>
<g>
	<path fill="#FFFFFF" d="M445.2,0.4c-7.4,0-13.9,3.5-18.2,8.8c0.7-0.1,1.4-0.1,2.2,0l27.9,5.6c3,0.6,4.9,3.5,4.3,6.4l-2.7,13.5
		c-0.6,3-3.5,4.9-6.4,4.3l-27.9-5.6c0,0,0,0,0,0c3.7,7.8,11.7,13.2,20.9,13.2c12.8,0,23.1-10.4,23.1-23.1S457.9,0.4,445.2,0.4z"/>
	<path fill="#FFFFFF" d="M435.4,29.7l12.3-3.3c0.8-0.2,1-1.2,0.4-1.7L438,16.9c-0.6-0.4-1.4-0.1-1.6,0.6l-2.2,11.1
		C434.1,29.3,434.7,29.9,435.4,29.7z"/>
</g>
</svg>
