<?xml version="1.0" encoding="utf-8"?>
<!-- Generator: Adobe Illustrator 21.1.0, SVG Export Plug-In . SVG Version: 6.00 Build 0)  -->
<svg version="1.1" id="Layer_1" xmlns="http://www.w3.org/2000/svg" xmlns:xlink="http://www.w3.org/1999/xlink" x="0px" y="0px"
	 width="30px" height="30px" viewBox="0 0 30 30" enable-background="new 0 0 30 30" xml:space="preserve">
<path fill="none" stroke="#E13274" stroke-width="2" stroke-miterlimit="10" d="M23.483,28.904H5.222c-2.2,0-4-1.8-4-4V6.76
	c0-2.2,1.8-4,4-4h18.261c2.2,0,4,1.8,4,4v18.144C27.483,27.104,25.683,28.904,23.483,28.904z"/>
<g>
	<g>
		<g id="Small_Icons_1_">
			<g id="Artboard_4_1_">
				<path id="Rectangle_63_1_" fill="#FFFFFF" d="M26.098,0.634l3.708,3.109c0.222,0.188,0.263,0.537,0.071,0.766L13.943,23.497
					c-0.126,0.151-0.3,0.214-0.47,0.192c-0.119-0.005-0.237-0.049-0.335-0.131L2.641,14.749c-0.234-0.194-0.274-0.548-0.081-0.778
					l3.1-3.695c0.188-0.223,0.544-0.255,0.782-0.055l6.395,5.366L25.331,0.696C25.537,0.453,25.868,0.44,26.098,0.634z"/>
			</g>
		</g>
	</g>
	<g>
	</g>
	<g>
	</g>
	<g>
	</g>
	<g>
	</g>
	<g>
	</g>
	<g>
	</g>
	<g>
	</g>
	<g>
	</g>
	<g>
	</g>
	<g>
	</g>
	<g>
	</g>
	<g>
	</g>
	<g>
	</g>
	<g>
	</g>
	<g>
	</g>
</g>
</svg>
