<?xml version="1.0" encoding="utf-8"?>
<!-- Generator: Adobe Illustrator 22.1.0, SVG Export Plug-In . SVG Version: 6.00 Build 0)  -->
<svg version="1.1" id="Layer_1" xmlns="http://www.w3.org/2000/svg" xmlns:xlink="http://www.w3.org/1999/xlink" x="0px" y="0px"
	 width="30px" height="30px" viewBox="0 0 30 30" style="enable-background:new 0 0 30 30;" xml:space="preserve">
<style type="text/css">
	.st0{fill:#FFFFFF;}
</style>
<path class="st0" d="M25.9,29.9H4c-2.2,0-4-1.8-4-4V4c0-2.2,1.8-4,4-4h21.9c2.2,0,4,1.8,4,4v21.9C29.9,28.1,28.1,29.9,25.9,29.9z"/>
<g>
	<g>
		<g>
			<path d="M25.5,7.8c-0.4-0.4-1.1-0.4-1.5,0L11.3,20.5l-4.9-4.9c-0.4-0.4-1.1-0.4-1.5,0c-0.4,0.4-0.4,1.1,0,1.5l5.6,5.6
				c0.4,0.4,1.1,0.4,1.5,0L25.5,9.3C25.9,8.9,25.9,8.2,25.5,7.8z"/>
		</g>
	</g>
	<g>
	</g>
	<g>
	</g>
	<g>
	</g>
	<g>
	</g>
	<g>
	</g>
	<g>
	</g>
	<g>
	</g>
	<g>
	</g>
	<g>
	</g>
	<g>
	</g>
	<g>
	</g>
	<g>
	</g>
	<g>
	</g>
	<g>
	</g>
	<g>
	</g>
</g>
</svg>
