<?xml version="1.0" encoding="utf-8"?>
<!-- Generator: Adobe Illustrator 18.0.0, SVG Export Plug-In . SVG Version: 6.00 Build 0)  -->
<!DOCTYPE svg PUBLIC "-//W3C//DTD SVG 1.1//EN" "http://www.w3.org/Graphics/SVG/1.1/DTD/svg11.dtd">
<svg version="1.1" id="Layer_1" xmlns="http://www.w3.org/2000/svg" xmlns:xlink="http://www.w3.org/1999/xlink" x="0px" y="0px"
	 width="32px" height="32px" viewBox="0 0 32 32" enable-background="new 0 0 32 32" xml:space="preserve">
<circle fill="none" stroke="#E13274" stroke-width="2" stroke-miterlimit="10" cx="15.9" cy="15.9" r="14.9"/>
<circle fill="#999999" cx="16" cy="16" r="12.8"/>
<g>
	<path fill="none" d="M6,5.8H26v19.9H6V5.8z M6,5.8H26v19.9H6V5.8z M6,5.8H26v19.9H6V5.8z M6,5.8H26v19.9H6V5.8z"/>
	<path d="M16,11.6c2.3,0,4.1,1.9,4.1,4.1c0,0.5-0.1,1-0.3,1.5l2.4,2.4c1.3-1,2.2-2.4,2.9-3.9c-1.4-3.6-5-6.2-9.1-6.2
		c-1.2,0-2.3,0.2-3.3,0.6l1.8,1.8C15,11.7,15.5,11.6,16,11.6z M7.7,9.3l1.9,1.9l0.4,0.4c-1.4,1.1-2.5,2.5-3.1,4.1
		c1.4,3.6,5,6.2,9.1,6.2c1.3,0,2.5-0.2,3.6-0.7l0.4,0.4l2.4,2.4l1.1-1.1L8.8,8.2C8.8,8.2,7.7,9.3,7.7,9.3z M12.3,13.9l1.3,1.3
		c0,0.2-0.1,0.4-0.1,0.5c0,1.4,1.1,2.5,2.5,2.5c0.2,0,0.4,0,0.5-0.1l1.3,1.3c-0.6,0.3-1.2,0.4-1.8,0.4c-2.3,0-4.1-1.9-4.1-4.1
		C11.9,15.1,12,14.4,12.3,13.9z M15.9,13.2l2.6,2.6l0-0.1c0-1.4-1.1-2.5-2.5-2.5C16,13.2,15.9,13.2,15.9,13.2z"/>
</g>
</svg>
