<?xml version="1.0" encoding="utf-8"?>
<!-- Generator: Adobe Illustrator 18.0.0, SVG Export Plug-In . SVG Version: 6.00 Build 0)  -->
<!DOCTYPE svg PUBLIC "-//W3C//DTD SVG 1.1//EN" "http://www.w3.org/Graphics/SVG/1.1/DTD/svg11.dtd">
<svg version="1.1" id="Layer_1" xmlns="http://www.w3.org/2000/svg" xmlns:xlink="http://www.w3.org/1999/xlink" x="0px" y="0px"
	 width="32px" height="32px" viewBox="0 0 32 32" enable-background="new 0 0 32 32" xml:space="preserve">
<circle fill="none" stroke="#6EE580" stroke-width="2" stroke-miterlimit="10" cx="15.9" cy="15.9" r="14.9"/>
<circle fill="#999999" cx="16" cy="16" r="12.8"/>
<g>
	<g>
		<g>
			<path d="M16,22.3c-0.7,0.7-1.9,0.7-2.7,0l-4.1-4.1c-0.7-0.7-0.7-1.9,0-2.7c0.7-0.7,1.9-0.7,2.7,0l2.5,2.5c0.2,0.2,0.5,0.2,0.7,0
				l6.7-6.7c0.7-0.7,1.9-0.7,2.7,0c0.4,0.4,0.6,0.8,0.6,1.3c0,0.5-0.2,1-0.6,1.3L16,22.3z"/>
		</g>
	</g>
</g>
</svg>
