<?xml version="1.0" encoding="utf-8"?>
<!-- Generator: Adobe Illustrator 18.0.0, SVG Export Plug-In . SVG Version: 6.00 Build 0)  -->
<!DOCTYPE svg PUBLIC "-//W3C//DTD SVG 1.1//EN" "http://www.w3.org/Graphics/SVG/1.1/DTD/svg11.dtd">
<svg version="1.1" id="Layer_1" xmlns="http://www.w3.org/2000/svg" xmlns:xlink="http://www.w3.org/1999/xlink" x="0px" y="0px"
	 width="32px" height="32px" viewBox="0 0 32 32" enable-background="new 0 0 32 32" xml:space="preserve">
<circle fill="none" stroke="#E13274" stroke-width="2" stroke-miterlimit="10" cx="15.9" cy="15.9" r="14.9"/>
<circle fill="#E13274" cx="16" cy="16" r="12.8"/>
<g>
	<path d="M16.6,19.4h-1c-0.2,0-0.3,0-0.4-0.1c0,0-0.1-0.2-0.1-0.5c0-0.4-0.4-2.4-1.1-6c-0.5-2.8-0.8-4.3-0.8-4.6
		c0-0.6,0.3-1.1,0.8-1.5c0.5-0.4,1.2-0.6,2.2-0.6c0.9,0,1.6,0.2,2,0.7c0.5,0.4,0.7,1,0.7,1.5c0,0.4-0.4,2.5-1.1,6.2
		c-0.5,2.4-0.7,3.8-0.8,4.2c0,0.3,0,0.5-0.1,0.6S16.8,19.4,16.6,19.4z M16,20.7c0.8,0,1.4,0.2,1.9,0.7c0.5,0.5,0.7,1,0.7,1.7
		c0,0.6-0.3,1.2-0.8,1.7c-0.5,0.5-1.1,0.8-1.9,0.8c-0.7,0-1.3-0.2-1.8-0.7c-0.5-0.4-0.7-1-0.7-1.7c0-0.7,0.2-1.2,0.7-1.7
		C14.6,21,15.2,20.7,16,20.7z"/>
</g>
</svg>
