<?xml version="1.0" encoding="utf-8"?>
<!-- Generator: Adobe Illustrator 18.0.0, SVG Export Plug-In . SVG Version: 6.00 Build 0)  -->
<!DOCTYPE svg PUBLIC "-//W3C//DTD SVG 1.1//EN" "http://www.w3.org/Graphics/SVG/1.1/DTD/svg11.dtd">
<svg version="1.1" id="Layer_1" xmlns="http://www.w3.org/2000/svg" xmlns:xlink="http://www.w3.org/1999/xlink" x="0px" y="0px"
	 width="32px" height="32px" viewBox="0 0 32 32" enable-background="new 0 0 32 32" xml:space="preserve">
<circle fill="none" stroke="#E13274" stroke-width="2" stroke-miterlimit="10" cx="15.9" cy="15.9" r="14.9"/>
<circle fill="#999999" cx="16" cy="16" r="12.8"/>
<g>
	<path d="M16.6,22l0.5-2.2l1.1-4.8c0.2-0.9-0.3-1.7-1-1.9l-0.1,0c-0.1,0-0.2,0-0.3,0l0,0c0,0,0,0-0.1,0c-0.4,0-1.1,0.5-1.1,0.5
		c-1.3,1-3,2.3-2.7,2.9c0.4,0.9,2.3-1.5,1.8,0.5l-0.5,2.2l-1.1,4.8c-0.2,0.9,0.2,1.7,1,1.9l0.1,0c0.1,0,0.2,0,0.3,0l0,0
		c0,0,0,0,0.1,0c0.4,0,1.1-0.5,1.1-0.5c1.3-1,3-2.2,2.7-2.9C18,21.6,16.2,24.1,16.6,22z"/>
	<circle cx="17" cy="9.4" r="2"/>
</g>
</svg>
