<?xml version="1.0" encoding="utf-8"?>
<!-- Generator: Adobe Illustrator 18.0.0, SVG Export Plug-In . SVG Version: 6.00 Build 0)  -->
<!DOCTYPE svg PUBLIC "-//W3C//DTD SVG 1.1//EN" "http://www.w3.org/Graphics/SVG/1.1/DTD/svg11.dtd">
<svg version="1.1" id="Layer_1" xmlns="http://www.w3.org/2000/svg" xmlns:xlink="http://www.w3.org/1999/xlink" x="0px" y="0px"
	 width="32px" height="32px" viewBox="0 0 32 32" enable-background="new 0 0 32 32" xml:space="preserve">
<circle fill="none" stroke="#E13274" stroke-width="2" stroke-miterlimit="10" cx="15.9" cy="15.9" r="14.9"/>
<circle fill="#999999" cx="16" cy="16" r="12.8"/>
<g>
	<g>
		<g id="Layer_1_1_">
			<g>
				<path d="M15.9,5.4c-0.7,0-1.3,0.6-1.3,1.3v7.9c-0.6,0.4-1,1.1-1,1.9c0,1.3,1,2.3,2.3,2.3c0.3,0,0.7-0.1,1-0.2l4.5,2.6
					c0.2,0.1,0.4,0.2,0.6,0.2c0.4,0,0.9-0.2,1.1-0.6c0.4-0.6,0.1-1.4-0.5-1.8l-4.5-2.6c-0.1-0.7-0.4-1.3-1-1.7V6.7
					C17.2,6,16.6,5.4,15.9,5.4z M15.9,17.4c-0.5,0-1-0.4-1-1c0-0.5,0.4-1,1-1s1,0.4,1,1C16.8,17,16.4,17.4,15.9,17.4z"/>
			</g>
		</g>
	</g>
</g>
</svg>
