<?xml version="1.0" encoding="utf-8"?>
<!-- Generator: Adobe Illustrator 22.1.0, SVG Export Plug-In . SVG Version: 6.00 Build 0)  -->
<svg version="1.1" id="Layer_1" xmlns="http://www.w3.org/2000/svg" xmlns:xlink="http://www.w3.org/1999/xlink" x="0px" y="0px"
	 width="1320.3px" height="120px" viewBox="0 0 1320.3 120" enable-background="new 0 0 1320.3 120" xml:space="preserve">
<g>
	<g>
		<path fill="#E13274" d="M118.8,50.5c-1.4-7.7-7-13.6-14-15.7c1.7-7.1-0.6-14.9-6.6-19.9s-14-5.9-20.8-3c-3.3-6.5-10-11-17.8-11
			c-7.8,0-14.6,4.5-17.8,11C35.1,9,27,9.9,21,14.9s-8.3,12.8-6.6,19.9c-7,2.1-12.6,8-14,15.7S2.4,65.6,8.3,70
			c-4,6.1-4.5,14.2-0.6,21c3.9,6.8,11.2,10.4,18.5,9.9c0.8,7.3,5.7,13.8,13,16.5c7.3,2.7,15.2,0.8,20.5-4.3c5.3,5,13.2,6.9,20.5,4.3
			c7.3-2.7,12.2-9.2,13-16.5c7.3,0.4,14.6-3.2,18.5-9.9c3.9-6.8,3.4-14.9-0.6-21C116.9,65.6,120.1,58.2,118.8,50.5z M59.6,94.8
			c-19.4,0-35.1-15.7-35.1-35.1s15.7-35.1,35.1-35.1s35.1,15.7,35.1,35.1S79,94.8,59.6,94.8z"/>
		<path fill="#E13274" d="M59.8,24C40,24,23.9,40.1,23.9,59.9S40,95.8,59.8,95.8c19.8,0,35.9-16.1,35.9-35.9S79.6,24,59.8,24z"/>
	</g>
</g>
<circle fill="#FFFFFF" cx="59.6" cy="60.9" r="49.1"/>
<polygon fill="#E13274" points="60.1,30.1 69.3,48.8 90,51.8 75,66.4 78.6,87 60.1,77.3 41.6,87 45.1,66.4 30.1,51.8 50.8,48.8 "/>
<g>
	<g>
		<path fill="#E13274" d="M239.4,50.5c-1.4-7.7-7-13.6-14-15.7c1.7-7.1-0.6-14.9-6.6-20c-6-5-14.1-5.9-20.8-3
			C194.7,5.3,188,0.8,180.1,0.8c-7.8,0-14.6,4.5-17.9,11.1c-6.7-2.9-14.8-2-20.8,3s-8.3,12.8-6.6,20c-7,2.1-12.6,8-14,15.7
			s1.9,15.2,7.8,19.5c-4,6.1-4.5,14.2-0.6,21c3.9,6.8,11.2,10.4,18.5,10c0.8,7.3,5.7,13.8,13,16.5c7.4,2.7,15.3,0.8,20.6-4.3
			c5.3,5,13.2,7,20.6,4.3c7.4-2.7,12.2-9.2,13-16.5c7.3,0.4,14.6-3.2,18.5-10c3.9-6.8,3.4-14.9-0.6-21
			C237.5,65.7,240.8,58.2,239.4,50.5z M180.1,94.9c-19.4,0-35.1-15.7-35.1-35.1s15.7-35.1,35.1-35.1s35.1,15.7,35.1,35.1
			S199.6,94.9,180.1,94.9z"/>
		<path fill="#E13274" d="M180.3,23.9c-19.9,0-36,16.1-36,36s16.1,36,36,36c19.9,0,36-16.1,36-36S200.2,23.9,180.3,23.9z"/>
	</g>
</g>
<circle fill="#FFFFFF" cx="180.1" cy="61" r="49.2"/>
<g>
	<path fill="#E13274" d="M185.3,70.1c0-1.6-0.4-2.8-1.3-3.7c-0.9-0.9-2.5-1.8-4.8-2.7c-4.3-1.4-7.5-3.1-9.5-5
		c-2.1-1.9-3.1-4.6-3.1-8.1c0-3.2,1-5.8,3.1-7.9c2.1-2,4.9-3.2,8.4-3.6v-6.1h4.5v6.2c3.4,0.5,6.1,1.8,8,4c1.9,2.2,2.9,5,2.8,8.6
		l-0.1,0.1h-8.1c0-2.1-0.5-3.7-1.4-4.8s-2.3-1.7-3.9-1.7c-1.8,0-3.1,0.5-3.9,1.4s-1.2,2.2-1.2,3.8c0,1.5,0.4,2.6,1.3,3.5
		c0.8,0.9,2.5,1.8,4.9,2.8c4.2,1.4,7.4,3,9.5,5c2.1,2,3.1,4.7,3.1,8.2c0,3.3-1,5.9-3.1,7.9s-4.9,3.2-8.4,3.5v5.6h-4.5v-5.6
		c-3.6-0.3-6.6-1.5-9-3.6s-3.5-5.2-3.4-9.2l0.1-0.2h8.1c0,2.4,0.6,4.2,1.8,5.2c1.2,1,2.7,1.6,4.6,1.6c1.9,0,3.3-0.5,4.2-1.4
		S185.3,71.7,185.3,70.1z"/>
</g>
<g>
	<g>
		<path fill="#E13274" d="M359.7,50.5c-1.4-7.7-7-13.6-14-15.7c1.7-7.1-0.6-14.9-6.6-20c-6-5-14.1-5.9-20.8-3
			C315,5.3,308.3,0.8,300.4,0.8c-7.8,0-14.6,4.5-17.9,11.1c-6.7-2.9-14.8-2-20.8,3c-6,5-8.3,12.8-6.6,20c-7,2.1-12.6,8-14,15.7
			c-1.4,7.7,1.9,15.2,7.8,19.5c-4,6.1-4.5,14.2-0.6,21c3.9,6.8,11.2,10.4,18.5,10c0.8,7.3,5.7,13.8,13,16.5
			c7.4,2.7,15.3,0.8,20.6-4.3c5.3,5,13.2,7,20.6,4.3c7.4-2.7,12.2-9.2,13-16.5c7.3,0.4,14.6-3.2,18.5-10c3.9-6.8,3.4-14.9-0.6-21
			C357.8,65.7,361.1,58.2,359.7,50.5z M300.4,94.9c-19.4,0-35.1-15.7-35.1-35.1s15.7-35.1,35.1-35.1s35.1,15.7,35.1,35.1
			S319.8,94.9,300.4,94.9z"/>
		<path fill="#E13274" d="M300.6,23.9c-19.9,0-36,16.1-36,36s16.1,36,36,36c19.9,0,36-16.1,36-36S320.5,23.9,300.6,23.9z"/>
	</g>
</g>
<circle fill="#FFFFFF" cx="300.4" cy="61" r="49.2"/>
<g>
	<path fill="#E13274" d="M307.4,88.8h-9.8V51.8c-3.6,3.3-7.8,5.8-12.7,7.4v-8.9c2.6-0.8,5.3-2.4,8.3-4.8s5.1-5.1,6.2-8.2h8V88.8z"/>
</g>
<g>
	<g>
		<path fill="#E13274" d="M719.2,50.5c-1.4-7.7-7-13.6-14-15.7c1.7-7.1-0.6-14.9-6.6-20s-14.1-5.9-20.8-3
			c-3.3-6.6-10.1-11.1-17.9-11.1c-7.8,0-14.6,4.5-17.9,11.1c-6.7-2.9-14.8-2-20.8,3s-8.3,12.8-6.6,20c-7,2.1-12.6,8-14,15.7
			c-1.4,7.7,1.9,15.2,7.8,19.5c-4,6.1-4.5,14.2-0.6,21c3.9,6.8,11.2,10.4,18.5,10c0.8,7.3,5.7,13.8,13,16.5
			c7.4,2.7,15.3,0.8,20.6-4.3c5.3,5,13.2,7,20.6,4.3c7.4-2.7,12.2-9.2,13-16.5c7.3,0.4,14.6-3.2,18.5-10c3.9-6.8,3.4-14.9-0.6-21
			C717.3,65.7,720.6,58.2,719.2,50.5z M659.9,94.9c-19.4,0-35.1-15.7-35.1-35.1s15.7-35.1,35.1-35.1s35.1,15.7,35.1,35.1
			S679.3,94.9,659.9,94.9z"/>
		<path fill="#E13274" d="M660.1,23.9c-19.9,0-36,16.1-36,36s16.1,36,36,36c19.9,0,36-16.1,36-36S680,23.9,660.1,23.9z"/>
	</g>
</g>
<circle fill="#FFFFFF" cx="659.9" cy="61" r="49.2"/>
<g>
	<g>
		<path fill="#E13274" d="M839.7,50.5c-1.4-7.7-7-13.6-14-15.7c1.7-7.1-0.6-14.9-6.6-20s-14.1-5.9-20.8-3
			C795,5.3,788.3,0.8,780.4,0.8c-7.8,0-14.6,4.5-17.9,11.1c-6.7-2.9-14.8-2-20.8,3s-8.3,12.8-6.6,20c-7,2.1-12.6,8-14,15.7
			c-1.4,7.7,1.9,15.2,7.8,19.5c-4,6.1-4.5,14.2-0.6,21c3.9,6.8,11.2,10.4,18.5,10c0.8,7.3,5.7,13.8,13,16.5
			c7.4,2.7,15.3,0.8,20.6-4.3c5.3,5,13.2,7,20.6,4.3c7.4-2.7,12.2-9.2,13-16.5c7.3,0.4,14.6-3.2,18.5-10c3.9-6.8,3.4-14.9-0.6-21
			C837.8,65.7,841.1,58.2,839.7,50.5z M780.4,94.9c-19.4,0-35.1-15.7-35.1-35.1s15.7-35.1,35.1-35.1s35.1,15.7,35.1,35.1
			S799.8,94.9,780.4,94.9z"/>
		<path fill="#E13274" d="M780.6,23.9c-19.9,0-36,16.1-36,36s16.1,36,36,36c19.9,0,36-16.1,36-36S800.5,23.9,780.6,23.9z"/>
	</g>
</g>
<circle fill="#FFFFFF" cx="780.4" cy="61" r="49.2"/>
<g>
	<g>
		<path fill="#E0C292" d="M478.2,50.9c-1.3-7.6-6.8-13.3-13.7-15.4c1.7-7-0.6-14.6-6.5-19.6s-13.8-5.8-20.4-3
			c-3.2-6.4-9.9-10.8-17.5-10.8c-7.7,0-14.3,4.4-17.5,10.8c-6.6-2.9-14.5-2-20.4,3c-5.9,4.9-8.1,12.6-6.5,19.6
			c-6.9,2.1-12.4,7.8-13.7,15.4c-1.3,7.6,1.9,14.9,7.6,19.1c-4,6-4.5,14-0.6,20.6c3.8,6.6,11,10.2,18.1,9.8
			c0.8,7.1,5.6,13.6,12.8,16.2c7.2,2.6,15,0.7,20.2-4.2c5.2,4.9,13,6.8,20.2,4.2c7.2-2.6,11.9-9,12.8-16.2
			c7.2,0.4,14.3-3.1,18.1-9.8c3.8-6.6,3.3-14.6-0.6-20.6C476.3,65.8,479.5,58.5,478.2,50.9z M420.1,94.4c-19,0-34.4-15.4-34.4-34.4
			s15.4-34.4,34.4-34.4S454.5,41,454.5,60S439.1,94.4,420.1,94.4z"/>
		<path fill="#E0C292" d="M420.3,24.9c-19.5,0-35.3,15.8-35.3,35.3s15.8,35.3,35.3,35.3c19.5,0,35.3-15.8,35.3-35.3
			S439.7,24.9,420.3,24.9z"/>
	</g>
</g>
<circle fill="#FFFFFF" cx="420.1" cy="61.2" r="48.2"/>
<text transform="matrix(1 0 0 1 382.7285 70.3203)" display="none" fill="#E13274" font-family="'Roboto-Bold'" font-size="28.5857px">GOLD</text>
<g>
	<g>
		<path fill="#C6C6C6" d="M598.2,50.9c-1.3-7.6-6.8-13.3-13.7-15.4c1.7-7-0.6-14.6-6.5-19.6c-5.9-4.9-13.8-5.8-20.4-3
			c-3.2-6.4-9.9-10.8-17.5-10.8c-7.7,0-14.3,4.4-17.5,10.8c-6.6-2.9-14.5-2-20.4,3c-5.9,4.9-8.1,12.6-6.5,19.6
			c-6.9,2.1-12.4,7.8-13.7,15.4c-1.3,7.6,1.9,14.9,7.6,19.1c-4,6-4.5,14-0.6,20.6c3.8,6.6,11,10.2,18.1,9.8
			c0.8,7.1,5.6,13.6,12.8,16.2c7.2,2.6,15,0.7,20.2-4.2c5.2,4.9,13,6.8,20.2,4.2c7.2-2.6,11.9-9,12.8-16.2
			c7.2,0.4,14.3-3.1,18.1-9.8c3.8-6.6,3.3-14.6-0.6-20.6C596.3,65.8,599.5,58.5,598.2,50.9z M540.1,94.4c-19,0-34.4-15.4-34.4-34.4
			s15.4-34.4,34.4-34.4S574.5,41,574.5,60S559.1,94.4,540.1,94.4z"/>
		<path fill="#C6C6C6" d="M540.3,24.9c-19.5,0-35.3,15.8-35.3,35.3s15.8,35.3,35.3,35.3c19.5,0,35.3-15.8,35.3-35.3
			S559.7,24.9,540.3,24.9z"/>
	</g>
</g>
<circle fill="#FFFFFF" cx="540.1" cy="61.2" r="48.2"/>
<text transform="matrix(1 0 0 1 382.7285 70.3203)" display="none" fill="#E13274" font-family="'Roboto-Bold'" font-size="28.5857px">GOLD</text>
<text transform="matrix(1 0 0 1 501.1201 69.8965)" fill="#AAAAAA" font-family="'Roboto-Bold'" font-size="26.686px">BASIC</text>
<g>
	<path fill="#E13274" d="M638,64.9c0-0.7-0.3-1.3-0.8-1.8c-0.5-0.5-1.4-0.9-2.7-1.3c-2.2-0.7-3.9-1.5-5.1-2.4
		c-1.2-0.9-1.7-2.2-1.7-3.7c0-1.6,0.7-2.9,2-3.9s3-1.5,5-1.5c2.1,0,3.9,0.5,5.2,1.6c1.3,1.1,1.9,2.5,1.9,4.2l0,0.1h-3.8
		c0-1-0.3-1.7-0.9-2.2c-0.6-0.5-1.4-0.8-2.5-0.8c-1,0-1.7,0.2-2.2,0.7c-0.5,0.5-0.8,1-0.8,1.8c0,0.7,0.3,1.2,0.8,1.6
		c0.6,0.4,1.5,0.9,2.9,1.3c2.1,0.6,3.7,1.4,4.9,2.4s1.7,2.2,1.7,3.8c0,1.7-0.6,3-1.9,3.9c-1.3,1-3,1.4-5.1,1.4
		c-2.1,0-3.9-0.5-5.4-1.6c-1.5-1-2.2-2.6-2.2-4.6l0-0.1h3.8c0,1.1,0.3,2,1,2.5c0.7,0.5,1.6,0.8,2.7,0.8c1,0,1.8-0.2,2.4-0.7
		C637.7,66.2,638,65.6,638,64.9z"/>
	<path fill="#E13274" d="M658.2,53.6h-5.5v16.3h-3.9V53.6h-5.4v-3h14.8V53.6z"/>
	<path fill="#E13274" d="M668.9,65.7h-6.3l-1.3,4.2h-4l6.5-19.3h4l6.5,19.3h-4L668.9,65.7z M663.6,62.7h4.4l-2.1-6.8h-0.1
		L663.6,62.7z"/>
	<path fill="#E13274" d="M680,62.2v7.7h-3.9V50.6h6.7c2.2,0,3.9,0.5,5.2,1.5c1.2,1,1.9,2.4,1.9,4.2c0,1-0.3,1.8-0.8,2.6
		c-0.5,0.7-1.3,1.3-2.3,1.7c1.1,0.3,2,0.9,2.5,1.7c0.5,0.8,0.8,1.8,0.8,2.9v1.4c0,0.5,0.1,1.1,0.2,1.7c0.1,0.6,0.4,1,0.8,1.3v0.3h-4
		c-0.4-0.3-0.6-0.8-0.7-1.4s-0.2-1.3-0.2-1.9v-1.4c0-1-0.3-1.7-0.8-2.2s-1.3-0.8-2.2-0.8H680z M680,59.2h2.7c1.1,0,1.9-0.2,2.4-0.7
		c0.5-0.5,0.8-1.1,0.8-2c0-0.9-0.3-1.6-0.8-2.1s-1.3-0.8-2.4-0.8H680V59.2z"/>
</g>
<g>
	<g>
		<path fill="#E13274" d="M959.2,50.5c-1.4-7.7-7-13.6-14-15.7c1.7-7.1-0.6-14.9-6.6-20s-14.1-5.9-20.8-3
			c-3.3-6.6-10.1-11.1-17.9-11.1c-7.8,0-14.6,4.5-17.9,11.1c-6.7-2.9-14.8-2-20.8,3s-8.3,12.8-6.6,20c-7,2.1-12.6,8-14,15.7
			c-1.4,7.7,1.9,15.2,7.8,19.5c-4,6.1-4.5,14.2-0.6,21c3.9,6.8,11.2,10.4,18.5,10c0.8,7.3,5.7,13.8,13,16.5
			c7.4,2.7,15.3,0.8,20.6-4.3c5.3,5,13.2,7,20.6,4.3c7.4-2.7,12.2-9.2,13-16.5c7.3,0.4,14.6-3.2,18.5-10c3.9-6.8,3.4-14.9-0.6-21
			C957.3,65.7,960.6,58.2,959.2,50.5z M899.9,94.9c-19.4,0-35.1-15.7-35.1-35.1s15.7-35.1,35.1-35.1s35.1,15.7,35.1,35.1
			S919.4,94.9,899.9,94.9z"/>
		<path fill="#E13274" d="M900.1,23.9c-19.9,0-36,16.1-36,36s16.1,36,36,36c19.9,0,36-16.1,36-36S920,23.9,900.1,23.9z"/>
	</g>
</g>
<circle fill="#FFFFFF" cx="899.9" cy="61" r="49.2"/>
<g>
	<g>
		<path fill="#E13274" d="M780.4,30.6c-17.5,0-31.6,14.2-31.6,31.6c0,7.6,2.7,14.6,7.2,20.1c0.7-5.5,6.2-10.2,14-12.4
			c2.8,2.6,6.5,4.2,10.5,4.2c3.9,0,7.5-1.5,10.3-4.1c7.8,2.4,13.2,7.4,13.4,13.1c4.9-5.6,7.9-12.9,7.9-20.9
			C812.1,44.8,797.9,30.6,780.4,30.6z M780.4,70.4c-2,0-3.9-0.6-5.6-1.5c-4.1-2.3-6.9-7.1-6.9-12.5c0-7.7,5.6-14.1,12.5-14.1
			c6.9,0,12.5,6.3,12.5,14.1c0,5.6-2.9,10.4-7.1,12.6C784.2,69.8,782.4,70.4,780.4,70.4z"/>
	</g>
</g>
<text transform="matrix(1 0 0 1 875.2444 80.2587)" fill="#E13274" font-family="'LeagueGothic-Regular'" font-size="55.1384px">VIP</text>
<text transform="matrix(1 0 0 1 394.7207 74.1748)" fill="#E0C292" font-family="'Roboto-Bold'" font-size="32.3854px">VIP</text>
<g>
	<g>
		<path fill="#E13274" d="M1079.3,51c-1.4-7.7-7-13.6-14-15.7c1.7-7.1-0.6-14.9-6.6-20s-14.1-5.9-20.8-3
			c-3.3-6.6-10.1-11.1-17.9-11.1c-7.8,0-14.6,4.5-17.9,11.1c-6.7-2.9-14.8-2-20.8,3c-6,5-8.3,12.8-6.6,20c-7,2.1-12.6,8-14,15.7
			c-1.4,7.7,1.9,15.2,7.8,19.5c-4,6.1-4.5,14.2-0.6,21c3.9,6.8,11.2,10.4,18.5,10c0.8,7.3,5.7,13.8,13,16.5
			c7.4,2.7,15.3,0.8,20.6-4.3c5.3,5,13.2,7,20.6,4.3c7.4-2.7,12.2-9.2,13-16.5c7.3,0.4,14.6-3.2,18.5-10c3.9-6.8,3.4-14.9-0.6-21
			C1077.4,66.1,1080.6,58.7,1079.3,51z M1020,95.3c-19.4,0-35.1-15.7-35.1-35.1s15.7-35.1,35.1-35.1s35.1,15.7,35.1,35.1
			S1039.4,95.3,1020,95.3z"/>
		<path fill="#E13274" d="M1020.2,24.4c-19.9,0-36,16.1-36,36s16.1,36,36,36c19.9,0,36-16.1,36-36S1040.1,24.4,1020.2,24.4z"/>
	</g>
</g>
<circle fill="#FFFFFF" cx="1020" cy="61.4" r="49.2"/>
<g>
	<g>
		<path fill="#E13274" d="M1199.5,51c-1.4-7.7-7-13.6-14-15.7c1.7-7.1-0.6-14.9-6.6-20s-14.1-5.9-20.8-3
			c-3.3-6.6-10.1-11.1-17.9-11.1c-7.8,0-14.6,4.5-17.9,11.1c-6.7-2.9-14.8-2-20.8,3s-8.3,12.8-6.6,20c-7,2.1-12.6,8-14,15.7
			c-1.4,7.7,1.9,15.2,7.8,19.5c-4,6.1-4.5,14.2-0.6,21c3.9,6.8,11.2,10.4,18.5,10c0.8,7.3,5.7,13.8,13,16.5
			c7.4,2.7,15.3,0.8,20.6-4.3c5.3,5,13.2,7,20.6,4.3c7.4-2.7,12.2-9.2,13-16.5c7.3,0.4,14.6-3.2,18.5-10c3.9-6.8,3.4-14.9-0.6-21
			C1197.6,66.1,1200.9,58.7,1199.5,51z M1140.2,95.3c-19.4,0-35.1-15.7-35.1-35.1s15.7-35.1,35.1-35.1c19.4,0,35.1,15.7,35.1,35.1
			S1159.7,95.3,1140.2,95.3z"/>
		<path fill="#E13274" d="M1140.4,24.4c-19.9,0-36,16.1-36,36s16.1,36,36,36c19.9,0,36-16.1,36-36S1160.3,24.4,1140.4,24.4z"/>
	</g>
</g>
<circle fill="#FFFFFF" cx="1140.2" cy="61.4" r="49.2"/>
<g>
	<path fill="#E13274" d="M1140.4,29.2c-6.6,0-12,5.7-12,12.6v20.7c0,7,5.3,12.7,12,12.7s12-5.7,12-12.7V41.9
		C1152.3,34.9,1147,29.2,1140.4,29.2z"/>
	<path fill="#E13274" d="M1157.3,53.5v9.7c0,4.3-1.5,8.4-4.4,11.6c-2.9,3.1-7.1,5-11.3,5.3l-1.2,0.1l-1.3-0.1
		c-4.3-0.3-8.1-2.2-11-5.4c-3-3.2-4.6-7.2-4.6-11.5v-9.7h-2.4v9.7c0,10.2,8.2,18.6,18.3,19.3v7.4h-11.2v2.4h24.4v-2.4h-10.9v-7.4
		c10-0.7,18.2-9.1,18.2-19.3v-9.7H1157.3z"/>
</g>
<g>
	<path fill="#E13274" d="M1041.2,61.6l-30.1-20.8c-0.3-0.2-0.7-0.2-1.1-0.1c-0.3,0.2-0.6,0.5-0.6,0.9v41.5c0,0.4,0.2,0.7,0.6,0.9
		c0.2,0.1,0.3,0.1,0.5,0.1c0.2,0,0.4-0.1,0.6-0.2l30.1-20.8c0.3-0.2,0.4-0.5,0.4-0.9C1041.7,62.1,1041.5,61.8,1041.2,61.6z"/>
</g>
<g>
	<g>
		<path fill="#E13274" d="M1319.4,50.6c-1.4-7.7-7-13.6-14-15.7c1.7-7.1-0.6-14.9-6.6-20s-14.1-5.9-20.8-3
			c-3.3-6.6-10.1-11.1-17.9-11.1c-7.8,0-14.6,4.5-17.9,11.1c-6.7-2.9-14.8-2-20.8,3c-6,5-8.3,12.8-6.6,20c-7,2.1-12.6,8-14,15.7
			s1.9,15.2,7.8,19.5c-4,6.1-4.5,14.2-0.6,21c3.9,6.8,11.2,10.4,18.5,10c0.8,7.3,5.7,13.8,13,16.5c7.4,2.7,15.3,0.8,20.6-4.3
			c5.3,5,13.2,7,20.6,4.3c7.4-2.7,12.2-9.2,13-16.5c7.3,0.4,14.6-3.2,18.5-10c3.9-6.8,3.4-14.9-0.6-21
			C1317.5,65.8,1320.8,58.3,1319.4,50.6z M1260.2,95c-19.4,0-35.1-15.7-35.1-35.1s15.7-35.1,35.1-35.1s35.1,15.7,35.1,35.1
			S1279.6,95,1260.2,95z"/>
		<path fill="#E13274" d="M1260.3,24.1c-19.9,0-36,16.1-36,36s16.1,36,36,36c19.9,0,36-16.1,36-36S1280.2,24.1,1260.3,24.1z"/>
	</g>
</g>
<circle fill="#FFFFFF" cx="1260.2" cy="61.1" r="49.2"/>
<g>
	<g>
		<polygon fill="#E13274" points="1232.1,56.1 1257.2,87.2 1245.9,56.1 		"/>
		<polygon fill="#E13274" points="1248.1,56.1 1260.2,89.3 1272.6,56.1 		"/>
		<polygon fill="#E13274" points="1262.9,88.1 1288.7,56.1 1274.9,56.1 		"/>
		<polygon fill="#E13274" points="1278.9,39.3 1262.6,39.3 1273.8,53 		"/>
		<polygon fill="#E13274" points="1271.9,54 1260.4,39.9 1249,54 		"/>
		<polygon fill="#E13274" points="1258.2,39.3 1241.9,39.3 1247,53.1 		"/>
		<polygon fill="#E13274" points="1240.2,40.6 1231.8,54 1245.1,54 		"/>
		<polygon fill="#E13274" points="1289,54 1280.6,40.6 1275.6,54 		"/>
	</g>
	<g>
	</g>
	<g>
	</g>
	<g>
	</g>
	<g>
	</g>
	<g>
	</g>
	<g>
	</g>
	<g>
	</g>
	<g>
	</g>
	<g>
	</g>
	<g>
	</g>
	<g>
	</g>
	<g>
	</g>
	<g>
	</g>
	<g>
	</g>
	<g>
	</g>
</g>
</svg>
