<?xml version="1.0" encoding="utf-8"?>
<!-- Generator: Adobe Illustrator 23.0.4, SVG Export Plug-In . SVG Version: 6.00 Build 0)  -->
<svg version="1.1" id="Layer_1" xmlns="http://www.w3.org/2000/svg" xmlns:xlink="http://www.w3.org/1999/xlink" x="0px" y="0px"
	 width="56px" height="56px" viewBox="0 0 56 56" style="enable-background:new 0 0 56 56;" xml:space="preserve">
<style type="text/css">
	.st0{fill:#E13274;}
</style>
<g>
	<g>
		<g>
			<path class="st0" d="M53.9,41.3L48,35.4c-1.4-1.4-3.2-2-5-1.8c-1.5,0.2-2.9,1-3.7,2.2L37.2,39c-2.5-0.5-8.8-2.2-13.5-6.9
				c-4.6-4.6-6.4-11-6.9-13.5l3.2-2.1c1.3-0.8,2.1-2.2,2.2-3.7c0.2-1.8-0.5-3.6-1.8-5L14.6,2C12.8,0.2,10.1-0.4,8,0.6
				C4,2.5,1.4,6.3,0.5,11.3c-0.8,4.6-0.1,10,2,15.4c2.2,5.8,5.9,11.4,10.7,16.1c4.8,4.8,10.3,8.5,16.1,10.7c4,1.5,7.9,2.3,11.5,2.3
				c1.4,0,2.7-0.1,4-0.3c5.1-0.9,8.9-3.6,10.7-7.6C56.3,45.8,55.8,43.2,53.9,41.3z M52.3,46.5c-1.8,3.8-5.5,5.2-8.3,5.7
				c-8.7,1.5-20-3-28.6-11.7C6.8,31.9,2.2,20.6,3.8,11.9c0.5-2.8,1.9-6.5,5.7-8.3c0.2-0.1,0.5-0.2,0.8-0.2c0.7,0,1.4,0.3,2,0.9
				l5.9,5.9c0.6,0.6,1,1.5,0.9,2.2c0,0.4-0.2,0.9-0.7,1.3l-4.2,2.7c-0.5,0.4-0.8,1-0.7,1.6c0.1,0.4,1.4,9.8,8,16.4
				c6.6,6.6,16,8,16.4,8c0.6,0.1,1.3-0.2,1.6-0.7l2.7-4.2c0.4-0.5,0.9-0.7,1.3-0.7c0.8-0.1,1.6,0.2,2.2,0.9l5.9,5.9
				C52.4,44.5,52.7,45.7,52.3,46.5z"/>
		</g>
	</g>
	<g>
		<g>
			<path class="st0" d="M44.8,0.1c-1.5,0-2.9,0.5-4.1,1.4c-1.2-0.9-2.6-1.4-4.1-1.4C33,0.1,30,3.3,30,7.3c0,1.2,0.3,2.3,0.8,3.3
				c3.2,6.6,8.9,9.9,9.2,10c0.3,0.1,0.5,0.2,0.8,0.2c0.3,0,0.6-0.1,0.8-0.2c0.2-0.1,6-3.5,9.2-10c0.5-1,0.8-2.2,0.8-3.3
				C51.6,3.3,48.5,0.1,44.8,0.1z M47.8,9.1c-2.1,4.2-5.5,7-7,8.1c-1.6-1.1-4.9-3.8-7-8.1c-0.3-0.6-0.4-1.2-0.4-1.8
				c0-2.1,1.5-3.8,3.4-3.8c1.1,0,2,0.5,2.7,1.5c0.3,0.5,0.8,0.7,1.4,0.7c0.6,0,1.1-0.3,1.4-0.7c0.6-0.9,1.6-1.5,2.7-1.5
				c1.9,0,3.4,1.7,3.4,3.8C48.2,7.9,48.1,8.5,47.8,9.1z"/>
		</g>
	</g>
	<g>
	</g>
	<g>
	</g>
	<g>
	</g>
	<g>
	</g>
	<g>
	</g>
	<g>
	</g>
	<g>
	</g>
	<g>
	</g>
	<g>
	</g>
	<g>
	</g>
	<g>
	</g>
	<g>
	</g>
	<g>
	</g>
	<g>
	</g>
	<g>
	</g>
</g>
</svg>
