<?xml version="1.0" encoding="utf-8"?>
<!-- Generator: Adobe Illustrator 23.0.4, SVG Export Plug-In . SVG Version: 6.00 Build 0)  -->
<svg version="1.1" xmlns="http://www.w3.org/2000/svg" xmlns:xlink="http://www.w3.org/1999/xlink" x="0px" y="0px" width="93px"
	 height="23px" viewBox="0 0 93 23" style="enable-background:new 0 0 93 23;" xml:space="preserve">
<style type="text/css">
	.st0{fill:#016FD0;}
	.st1{fill:#FFFFFF;}
	.st2{fill:#231F20;}
	.st3{fill:#FF5F00;}
	.st4{fill:#EB001B;}
	.st5{fill:#F79E1B;}
	.st6{fill:#1A1F71;}
</style>
<g id="Layer_2">
	<rect x="0" y="0" class="st0" width="31" height="23"/>
</g>
<g id="Layer_2_copy">
	<rect x="31" y="0" class="st1" width="31" height="23"/>
</g>
<g id="Layer_2_copy_2">
	<rect x="62" y="0" class="st1" width="31" height="23"/>
</g>
<g id="Layer_1">
	<g id="mastercard">
		<path class="st2" d="M69.8,21.2v-1.3c0-0.4-0.3-0.8-0.7-0.8c0,0-0.1,0-0.1,0c-0.3,0-0.5,0.1-0.7,0.4c-0.2-0.2-0.4-0.4-0.7-0.4
			c-0.2,0-0.5,0.1-0.6,0.3v-0.2h-0.4v2.1H67v-1.1c0-0.3,0.2-0.5,0.4-0.5c0,0,0.1,0,0.1,0c0.3,0,0.4,0.2,0.4,0.5v1.1h0.5v-1.1
			c0-0.3,0.2-0.5,0.4-0.5c0,0,0,0,0.1,0c0.3,0,0.5,0.2,0.5,0.5v1.1L69.8,21.2z M76.5,19.2h-0.7v-0.6h-0.5v0.6h-0.4v0.4h0.4v0.9
			c0,0.5,0.2,0.7,0.7,0.7c0.2,0,0.4,0,0.5-0.2l-0.1-0.4c-0.1,0.1-0.3,0.1-0.4,0.1c-0.2,0-0.3-0.2-0.3-0.4v-0.9h0.7L76.5,19.2
			L76.5,19.2z M80.3,19.1c-0.2,0-0.4,0.1-0.5,0.3v-0.2h-0.4v2.1h0.4v-1.1c0-0.4,0.2-0.5,0.4-0.5c0.1,0,0.2,0,0.3,0l0.2-0.4
			C80.5,19.1,80.4,19.1,80.3,19.1L80.3,19.1z M74.5,19.3c-0.2-0.2-0.5-0.2-0.8-0.2c-0.5,0-0.9,0.2-0.9,0.7c0,0.4,0.2,0.5,0.7,0.6
			l0.2,0c0.2,0,0.4,0.1,0.4,0.2c0,0.2-0.2,0.2-0.5,0.2c-0.2,0-0.5-0.1-0.7-0.2L72.7,21c0.3,0.2,0.6,0.3,0.9,0.3
			c0.6,0,0.9-0.3,0.9-0.7c0-0.4-0.3-0.5-0.7-0.6l-0.2,0c-0.2,0-0.4-0.1-0.4-0.2c0-0.2,0.2-0.2,0.4-0.2s0.4,0.1,0.6,0.2L74.5,19.3z
			 M86.5,19.1c-0.2,0-0.4,0.1-0.5,0.3v-0.2h-0.4v2.1H86v-1.1c0-0.4,0.2-0.5,0.4-0.5c0.1,0,0.2,0,0.3,0l0.2-0.4
			C86.7,19.1,86.6,19.1,86.5,19.1L86.5,19.1z M80.7,20.2c0,0.6,0.4,1.1,1,1.1c0,0,0.1,0,0.1,0c0.3,0,0.5-0.1,0.7-0.2l-0.2-0.4
			c-0.2,0.1-0.4,0.2-0.5,0.2c-0.4,0-0.6-0.4-0.6-0.7c0-0.3,0.3-0.6,0.6-0.6c0.2,0,0.4,0.1,0.5,0.2l0.2-0.4c-0.2-0.2-0.5-0.3-0.7-0.2
			C81.3,19.1,80.8,19.6,80.7,20.2C80.7,20.1,80.7,20.2,80.7,20.2L80.7,20.2z M84.9,20.2v-1h-0.4v0.2c-0.2-0.2-0.4-0.3-0.7-0.3
			c-0.6,0-1.1,0.5-1,1.1c0,0.5,0.5,1,1,1c0.2,0,0.5-0.1,0.7-0.3v0.2h0.4V20.2z M83.3,20.2c0-0.4,0.3-0.6,0.7-0.6
			c0.4,0,0.6,0.3,0.6,0.7c0,0.3-0.3,0.6-0.6,0.6C83.6,20.9,83.3,20.6,83.3,20.2L83.3,20.2z M77.9,19.1c-0.6,0-1.1,0.5-1,1.1
			c0,0.5,0.5,1,1.1,1c0.3,0,0.6-0.1,0.9-0.3l-0.2-0.3c-0.2,0.1-0.4,0.2-0.6,0.2c-0.3,0-0.6-0.2-0.6-0.5h1.5c0,0,0-0.1,0-0.2
			C78.9,19.5,78.4,19.1,77.9,19.1L77.9,19.1z M77.9,19.5c0.3,0,0.5,0.2,0.5,0.5h-1.1C77.3,19.7,77.6,19.5,77.9,19.5L77.9,19.5z
			 M89.1,20.2v-1.8h-0.4v1.1c-0.2-0.2-0.4-0.3-0.7-0.3c-0.6,0-1.1,0.5-1,1.1c0,0.5,0.5,1,1,1c0.2,0,0.5-0.1,0.7-0.3v0.2h0.4V20.2z
			 M89.8,20.9C89.9,20.9,89.9,20.9,89.8,20.9c0.1,0,0.1,0,0.2,0c0,0,0,0,0,0.1c0,0,0,0.1,0,0.2c0,0,0,0,0,0.1c0,0,0,0-0.1,0
			s0,0-0.1,0c-0.1,0-0.2,0-0.2-0.1c0,0,0-0.1,0-0.2c0,0,0,0,0-0.1C89.7,20.9,89.7,20.9,89.8,20.9C89.8,20.9,89.8,20.9,89.8,20.9
			L89.8,20.9z M89.8,21.3C89.9,21.3,89.9,21.3,89.8,21.3l0.1,0c0.1-0.1,0.1-0.2,0-0.2l0,0c0,0,0,0-0.1,0c0,0,0,0-0.1,0c0,0,0,0,0,0
			c-0.1,0.1-0.1,0.2,0,0.2L89.8,21.3C89.8,21.3,89.8,21.3,89.8,21.3L89.8,21.3z M89.9,21C89.9,21,89.9,21,89.9,21L89.9,21L89.9,21
			L89.9,21l0.1,0.2h0L89.9,21L89.9,21l0,0.2h0V21L89.9,21L89.9,21z M89.8,21.1L89.8,21.1L89.8,21.1C89.8,21.1,89.8,21.1,89.8,21.1
			L89.8,21.1L89.8,21.1C89.9,21.1,89.9,21.1,89.8,21.1L89.8,21.1L89.8,21.1z M87.4,20.2c0-0.4,0.3-0.6,0.7-0.6
			c0.4,0,0.6,0.3,0.6,0.7c0,0.3-0.3,0.6-0.6,0.6S87.4,20.6,87.4,20.2L87.4,20.2z M72.3,20.2v-1h-0.4v0.2c-0.2-0.2-0.4-0.3-0.7-0.3
			c-0.6,0-1.1,0.5-1,1.1c0,0.5,0.5,1,1,1c0.2,0,0.5-0.1,0.7-0.3v0.2h0.4V20.2z M70.6,20.2c0-0.4,0.3-0.6,0.7-0.6
			c0.4,0,0.6,0.3,0.6,0.7c0,0.3-0.3,0.6-0.6,0.6S70.6,20.6,70.6,20.2C70.6,20.2,70.6,20.2,70.6,20.2L70.6,20.2z"/>
		<g>
			<rect x="74.3" y="3.4" class="st3" width="6.8" height="12.2"/>
			<path class="st4" d="M74.8,9.6c0-2.4,1.1-4.6,3-6.1c-3.4-2.7-8.2-2.1-10.9,1.3c-2.7,3.4-2.1,8.2,1.3,10.9c2.8,2.2,6.8,2.2,9.6,0
				C75.9,14.2,74.8,12,74.8,9.6z"/>
			<path class="st5" d="M90.3,9.6c0,4.3-3.5,7.8-7.8,7.8c-1.7,0-3.4-0.6-4.8-1.6c3.4-2.7,4-7.5,1.3-10.9c-0.4-0.5-0.8-0.9-1.3-1.3
				c3.4-2.6,8.2-2.1,10.9,1.3C89.7,6.1,90.3,7.8,90.3,9.6L90.3,9.6z"/>
			<path class="st5" d="M89.6,14.4v-0.2h0.1v0h-0.3v0h0.1L89.6,14.4L89.6,14.4z M90.1,14.4V14H90l-0.1,0.2l-0.1-0.2h-0.1v0.3h0v-0.2
				l0.1,0.2h0l0.1-0.2L90.1,14.4L90.1,14.4L90.1,14.4z"/>
		</g>
	</g>
	<g id="visa">
		<g>
			<g>
				<polygon class="st6" points="44.7,15.7 42.3,15.7 43.8,6.7 46.2,6.7 				"/>
				<path class="st6" d="M40.3,6.7l-2.2,6.2l-0.3-1.3l0,0l-0.8-4c0,0-0.1-0.8-1.1-0.8h-3.7l0,0.2c0,0,1.2,0.2,2.5,1l2.1,7.8h2.5
					l3.8-9L40.3,6.7L40.3,6.7z"/>
				<path class="st6" d="M59,15.7h2.2l-1.9-9h-1.9c-0.9,0-1.1,0.7-1.1,0.7l-3.6,8.3h2.5l0.5-1.3h3L59,15.7z M56.4,12.5l1.2-3.4
					l0.7,3.4H56.4z"/>
				<path class="st6" d="M52.9,8.9l0.3-1.9c0,0-1-0.4-2.1-0.4c-1.2,0-4,0.5-4,3c0,2.3,3.3,2.4,3.3,3.6s-2.9,1-3.9,0.2l-0.3,2
					c0,0,1,0.5,2.7,0.5c1.6,0,4.1-0.9,4.1-3.1c0-2.3-3.3-2.6-3.3-3.6C49.6,8.2,51.9,8.3,52.9,8.9z"/>
			</g>
		</g>
	</g>
	<g>
		<g>
			<path class="st0" d="M26.4,0.4H4.3v22.2h22.1"/>
			<path id="path3082" class="st1" d="M8.6,15.5V12h3.7l0.4,0.5l0.4-0.5h13.4v3.2c0,0-0.4,0.2-0.8,0.2h-7.4l-0.4-0.6v0.6h-1.5v-0.9
				c0,0-0.2,0.1-0.6,0.1h-0.5v0.8H13L12.6,15l-0.4,0.5H8.6z"/>
			<path id="path3080" class="st1" d="M4.3,9.4l0.8-1.9h1.4L7,8.5V7.5h1.8l0.3,0.8l0.3-0.8h8v0.4c0,0,0.4-0.4,1.1-0.4h2.6l0.5,1.1
				V7.4H23l0.4,0.6V7.4H25v3.5h-1.5l-0.4-0.6v0.6h-2.2l-0.2-0.6h-0.6l-0.2,0.6h-1.5c-0.6,0-1-0.4-1-0.4v0.4h-2.2l-0.4-0.6v0.6H6.3
				l-0.2-0.6H5.5l-0.2,0.6h-1V9.4z"/>
			<path id="path3046" class="st0" d="M5.4,7.9l-1.1,2.6H5L5.2,10h1.2l0.2,0.5h0.8L6.3,7.9H5.4L5.4,7.9z M5.8,8.5l0.4,0.9H5.4
				L5.8,8.5z"/>
			<path id="path3048" class="st0" d="M7.5,10.5V7.9h1l0.6,1.7l0.6-1.7h1v2.6h-0.6V8.6l-0.7,1.9H8.8L8.1,8.6v1.9L7.5,10.5L7.5,10.5z
				"/>
			<path id="path3050" class="st0" d="M11.2,10.5V7.9h2.1v0.6h-1.5v0.4h1.4v0.6h-1.4v0.5h1.5v0.6L11.2,10.5z"/>
			<path id="path3052" class="st0" d="M13.7,7.9v2.6h0.6V9.5h0.3l0.8,0.9h0.8l-0.9-1c0.4,0,0.7-0.3,0.7-0.8c0-0.6-0.4-0.8-0.9-0.8
				L13.7,7.9L13.7,7.9z M14.3,8.5h0.8c0.2,0,0.3,0.1,0.3,0.3c0,0.2-0.2,0.3-0.3,0.3h-0.8L14.3,8.5L14.3,8.5z"/>
			<path id="path3054" class="st0" d="M16.9,10.5h-0.7V7.9h0.7V10.5z"/>
			<path id="path3056" class="st0" d="M18.5,10.5h-0.1c-0.7,0-1.1-0.6-1.1-1.3c0-0.8,0.4-1.3,1.3-1.3h0.7v0.6h-0.8
				c-0.4,0-0.6,0.3-0.6,0.7c0,0.5,0.3,0.7,0.7,0.7h0.2L18.5,10.5z"/>
			<path id="path3058" class="st0" d="M19.9,7.9l-1.1,2.6h0.7l0.2-0.5H21l0.2,0.5h0.8l-1.1-2.6H19.9L19.9,7.9z M20.3,8.5l0.4,0.9H20
				L20.3,8.5L20.3,8.5z"/>
			<path id="path3060" class="st0" d="M22,10.5V7.9h0.8l1.1,1.6V7.9h0.6v2.6h-0.8l-1.1-1.7v1.7L22,10.5L22,10.5z"/>
			<path id="path3062" class="st0" d="M9,15.1v-2.6h2.1V13H9.7v0.4h1.4V14H9.7v0.5h1.5v0.6H9z"/>
			<path id="path3064" class="st0" d="M19.4,15.1v-2.6h2.1V13h-1.5v0.4h1.4V14h-1.4v0.5h1.5v0.6H19.4z"/>
			<path id="path3066" class="st0" d="M11.2,15.1l1-1.3l-1.1-1.3H12l0.6,0.8l0.6-0.8h0.8l-1,1.3l1,1.3h-0.8l-0.6-0.8L12,15.1
				L11.2,15.1z"/>
			<path id="path3068" class="st0" d="M14.1,12.5v2.6h0.7v-0.8h0.7c0.6,0,1-0.3,1-0.9c0-0.5-0.4-0.9-0.9-0.9L14.1,12.5L14.1,12.5z
				 M14.8,13h0.7c0.2,0,0.3,0.1,0.3,0.3c0,0.2-0.1,0.3-0.3,0.3h-0.7L14.8,13L14.8,13z"/>
			<path id="path3072" class="st0" d="M16.8,12.5v2.6h0.6v-0.9h0.3l0.8,0.9h0.8l-0.9-1c0.4,0,0.7-0.3,0.7-0.8c0-0.6-0.4-0.8-0.9-0.8
				H16.8L16.8,12.5z M17.5,13h0.8c0.2,0,0.3,0.1,0.3,0.3c0,0.2-0.2,0.3-0.3,0.3h-0.8L17.5,13L17.5,13z"/>
			<path id="path3074" class="st0" d="M21.9,15.1v-0.6h1.3c0.2,0,0.3-0.1,0.3-0.2c0-0.1-0.1-0.2-0.3-0.2h-0.6
				c-0.5,0-0.8-0.3-0.8-0.8c0-0.4,0.3-0.8,1-0.8h1.3L23.8,13h-1.1c-0.2,0-0.3,0.1-0.3,0.2c0,0.1,0.1,0.2,0.2,0.2h0.6
				c0.6,0,0.8,0.3,0.8,0.8c0,0.5-0.3,0.8-0.8,0.8H21.9z"/>
			<path id="path3076" class="st0" d="M24.3,15.1v-0.6h1.3c0.2,0,0.3-0.1,0.3-0.2c0-0.1-0.1-0.2-0.3-0.2H25c-0.5,0-0.8-0.3-0.8-0.8
				c0-0.4,0.3-0.8,1-0.8h1.3L26.2,13h-1.1c-0.2,0-0.3,0.1-0.3,0.2c0,0.1,0.1,0.2,0.2,0.2h0.6c0.6,0,0.8,0.3,0.8,0.8
				c0,0.5-0.3,0.8-0.8,0.8H24.3z"/>
		</g>
	</g>
</g>
</svg>
