<?xml version="1.0" encoding="utf-8"?>
<!-- Generator: Adobe Illustrator 23.0.4, SVG Export Plug-In . SVG Version: 6.00 Build 0)  -->
<svg version="1.1" id="Layer_1" xmlns="http://www.w3.org/2000/svg" xmlns:xlink="http://www.w3.org/1999/xlink" x="0px" y="0px"
	 width="1008px" height="48px" viewBox="0 0 1008 48" style="enable-background:new 0 0 1008 48;" xml:space="preserve">
<style type="text/css">
	.st0{fill:none;}
	.st1{fill:#FFFFFF;}
	.st2{fill:#66FF99;}
	.st3{fill:none;stroke:#FFFFFF;stroke-width:4;stroke-miterlimit:10;}
	.st4{fill:#E13274;}
	.st5{fill:#C1961E;}
	.st6{fill:#F2CD66;}
</style>
<g id="background">
	<rect x="1.7" class="st0" width="46.3" height="46.3"/>
</g>
<g id="mailbox">
	<polygon class="st1" points="1,26 1,40.5 47.2,40.5 47.2,26 41.5,26 41.5,34.7 6.8,34.7 6.8,26 	"/>
	<path class="st1" d="M9.6,5.8v23.1h28.9V5.8H9.6z M32.8,8.7l-8.7,7.9l-8.7-7.9H32.8z M12.5,26V10.2l11.6,10l11.6-10.1V26H12.5z"/>
</g>
<g>
	<g>
		<path class="st1" d="M71.9,9C56.7,9,48.9,24.4,48.9,24.4s5.9,15.4,23.1,15.4C87.5,39.7,95,24.4,95,24.4S87.4,9,71.9,9z M72,34
			c-5.6,0-9.6-4.2-9.6-9.6c0-5.4,4-9.6,9.6-9.6s9.6,4.2,9.6,9.6C81.6,29.8,77.5,34,72,34z M72,18.6c-3.2,0-5.8,2.7-5.8,5.8
			c0,3.1,2.6,5.8,5.8,5.8s5.8-2.7,5.8-5.8C77.7,21.3,75.2,18.6,72,18.6z"/>
	</g>
</g>
<g id="background_1_">
	<rect x="103" y="1" class="st0" width="46.4" height="46.4"/>
</g>
<g id="user_x5F_profile">
	<g>
		<path class="st1" d="M108.8,41.6H132v-8.7c0,0,0-2.9-2.9-2.9c-1.4,0-17.4,0-17.4,0s-2.9,0-2.9,2.9
			C108.8,34.3,108.8,41.6,108.8,41.6z"/>
	</g>
	<g>
		<circle class="st1" cx="120.4" cy="21.3" r="5.8"/>
	</g>
	<path class="st1" d="M129.7,1H103v46.4h34.8V9.1L129.7,1z M129.1,4.5l5.2,5.2h-5.2V4.5z M105.9,44.5V3.9h20.3v8.7h8.7v31.9H105.9z"
		/>
</g>
<path class="st1" d="M186.3,10.2H184v34.4h2.3c2.5,0,4.6-2.1,4.6-4.6V14.8C190.9,12.3,188.8,10.2,186.3,10.2z M145,14.8v25.2
	c0,2.5,2.1,4.6,4.6,4.6h2.3V10.2h-2.3C147.1,10.2,145,12.3,145,14.8z M175.7,5.4c-1.6-0.7-4.1-2.1-7.8-2.1s-6.2,1.4-7.8,2.1v4.8h-5
	v34.4h25.7V10.2h-5V5.4z M173,10.2h-10.1V7.2c1.2-0.5,3-1.1,5-1.1s3.8,0.5,5,1.1V10.2z"/>
<g>
	<path class="st1" d="M211.8,32.3c0-1.4-0.4-2.6-1.1-3.5c-0.7-0.9-2-1.8-3.7-2.6c-2.8-1-4.8-2.2-6.2-3.7c-1.3-1.5-2-3.5-2-6.1
		c0-2.4,0.7-4.4,2-6c1.3-1.5,3.1-2.5,5.4-2.7V3h2.9v4.8c2.2,0.3,4,1.4,5.2,3.1c1.3,1.7,1.9,4,1.9,6.8h-4.5c0-1.9-0.4-3.5-1.1-4.7
		c-0.7-1.2-1.8-1.8-3.1-1.8c-1.4,0-2.4,0.5-3.1,1.4c-0.7,1-1,2.2-1,3.8c0,1.5,0.3,2.6,1,3.5c0.7,0.9,2,1.8,3.8,2.6
		c2.7,1,4.8,2.3,6.1,3.7c1.3,1.5,2,3.5,2,6c0,2.5-0.7,4.5-2,6c-1.4,1.5-3.2,2.4-5.6,2.7v4.3h-2.9V41c-2.3-0.3-4.3-1.2-5.8-2.8
		c-1.5-1.6-2.2-3.9-2.2-7.1l0.1-0.1h4.4c0,2.3,0.5,4,1.4,5s2.1,1.5,3.5,1.5c1.5,0,2.6-0.5,3.4-1.4C211.4,35.1,211.8,33.9,211.8,32.3
		z"/>
	<path class="st1" d="M230.5,32.3c0-1.4-0.4-2.6-1.1-3.5c-0.7-0.9-2-1.8-3.7-2.6c-2.8-1-4.8-2.2-6.2-3.7c-1.3-1.5-2-3.5-2-6.1
		c0-2.4,0.7-4.4,2-6c1.3-1.5,3.1-2.5,5.4-2.7V3h2.9v4.8c2.2,0.3,4,1.4,5.2,3.1c1.3,1.7,1.9,4,1.9,6.8h-4.5c0-1.9-0.4-3.5-1.1-4.7
		c-0.7-1.2-1.8-1.8-3.1-1.8c-1.4,0-2.4,0.5-3.1,1.4c-0.7,1-1,2.2-1,3.8c0,1.5,0.3,2.6,1,3.5c0.7,0.9,2,1.8,3.8,2.6
		c2.7,1,4.8,2.3,6.1,3.7c1.3,1.5,2,3.5,2,6c0,2.5-0.7,4.5-2,6c-1.4,1.5-3.2,2.4-5.6,2.7v4.3h-2.9V41c-2.3-0.3-4.3-1.2-5.8-2.8
		c-1.5-1.6-2.2-3.9-2.2-7.1l0.1-0.1h4.4c0,2.3,0.5,4,1.4,5s2.1,1.5,3.5,1.5c1.5,0,2.6-0.5,3.4-1.4C230.1,35.1,230.5,33.9,230.5,32.3
		z"/>
</g>
<path class="st1" d="M263.8,24.9c-4.1,0-7.5-3.4-7.5-7.5c0-4.2,3.3-7.5,7.5-7.5s7.5,3.4,7.5,7.5C271.3,21.5,267.9,24.9,263.8,24.9
	 M263.8,0.8c-9.1,0-16.5,7.5-16.5,16.6c0,8.7,7.5,19.9,12.5,25.3c1.9,2,4,4.8,4,4.8s2.3-2.8,4.3-4.9c5-5.2,12.2-15.7,12.2-25.3
	C280.3,8.3,272.9,0.8,263.8,0.8"/>
<g>
	<path class="st2" d="M296.1,42.6c0,1.1,0.7,1.9,1.9,1.9h33.6c1.1,0,1.9-0.7,1.9-1.9v-1.9h-37.3V42.6z"/>
	<path class="st2" d="M296.1,14.7c-4.1,0-7.5,3.4-7.5,7.5s3.4,7.5,7.5,7.5h2.4c3.2,5.6,9.3,9.3,16.2,9.3c10.3,0,18.6-8.4,18.6-18.6
		v-5.6H296.1z M296.1,25.9c-2.1,0-3.7-1.7-3.7-3.7s1.7-3.7,3.7-3.7v1.9c0,1.9,0.4,3.9,0.9,5.6H296.1z M329.7,20.3
		c0,8.2-6.7,14.9-14.9,14.9c-8.2,0-14.9-6.7-14.9-14.9v-1.9h29.8V20.3z"/>
	<path class="st2" d="M309.7,4.6c0,0,0.4-0.6-0.2-0.9c-0.4-0.4-1.1,0-1.1,0c-1.5,1.5-1.3,3.7,0.2,5.2c0.9,0.9,0.9,1.9,0.2,2.6
		c0,0-0.4,0.7,0.2,1.1s1.3,0,1.3,0c1.5-1.5,1.5-3.7-0.4-5.2C308.8,6.8,308.8,5.5,309.7,4.6z"/>
	<path class="st2" d="M315.3,4.6c0,0,0.4-0.6-0.2-0.9c-0.4-0.4-1.1,0-1.1,0c-1.5,1.5-1.3,3.7,0.2,5.2c0.9,0.9,0.9,1.9,0.2,2.6
		c0,0-0.4,0.7,0.2,1.1c0.6,0.4,1.3,0,1.3,0c1.5-1.5,1.5-3.7-0.4-5.2C314.4,6.8,314.4,5.5,315.3,4.6z"/>
	<path class="st2" d="M320.9,4.6c0,0,0.4-0.6-0.2-0.9c-0.4-0.4-1.1,0-1.1,0c-1.5,1.5-1.3,3.7,0.2,5.2c0.9,0.9,0.9,1.9,0.2,2.6
		c0,0-0.4,0.7,0.2,1.1c0.6,0.4,1.3,0,1.3,0c1.5-1.5,1.5-3.7-0.4-5.2C320,6.8,320,5.5,320.9,4.6z"/>
</g>
<g>
	<path class="st1" d="M379.3,19.4h-5.3v-4.7c0-7.7-6.3-14-14-14s-14,6.3-14,14v4.7h-5.3c-1,0-1.8,0.8-1.8,1.8s0.8,1.8,1.8,1.8h36.8
		v21h-35V28.1c0-1-0.8-1.8-1.8-1.8s-1.8,0.8-1.8,1.8v17.5c0,1,0.8,1.8,1.8,1.8h38.5c1,0,1.8-0.8,1.8-1.8V21.1
		C381.1,20.1,380.3,19.4,379.3,19.4z M349.5,14.7c0-5.8,4.7-10.5,10.5-10.5s10.5,4.7,10.5,10.5v4.7h-21V14.7z"/>
	<path class="st1" d="M367.1,33.4c0-3.9-3.1-7-7-7c-3.9,0-7,3.1-7,7s3.1,7,7,7C363.9,40.4,367.1,37.2,367.1,33.4z M356.5,33.4
		c0-1.9,1.6-3.5,3.5-3.5s3.5,1.6,3.5,3.5c0,1.9-1.6,3.5-3.5,3.5S356.5,35.3,356.5,33.4z"/>
</g>
<path class="st1" d="M385.7,25.2c5.4,0,10.4,2.1,14.2,5.9c3.8,3.8,5.9,8.9,5.9,14.3h8.3c0-15.7-12.8-28.5-28.4-28.5V25.2z
	 M385.7,10.5c19.2,0,34.8,15.7,34.8,35h8.3c0-23.9-19.3-43.3-43.1-43.3L385.7,10.5z M397.2,39.7c0,3.2-2.6,5.7-5.7,5.7
	s-5.7-2.6-5.7-5.7c0-3.2,2.6-5.7,5.7-5.7C394.6,33.9,397.2,36.5,397.2,39.7z"/>
<g id="_x35__favorite_star">
	<polygon class="st3" points="455.6,6.2 461.5,18.2 474.8,20.2 465.2,29.6 467.5,42.8 455.6,36.6 443.7,42.8 445.9,29.6 436.3,20.2 
		449.6,18.2 	"/>
</g>
<g id="Livello_98">
	<path class="st1" d="M493.7,29.2c-6.2,0.1-11.3,4.4-11.7,9.7h5.9l0,0c0.3-3.4,2-6.6,5-9C493.2,29.6,493.4,29.4,493.7,29.2
		 M496.1,18.5c0-0.8,0.1-1.5,0.2-2.2c-0.7-0.4-1.5-0.6-2.3-0.6c-3.1,0-5.6,3-5.6,6.7c0,3.6,2.3,6.5,5.3,6.7c1.3-0.9,2.8-1.6,4.4-2.2
		c0.3-0.4,0.6-0.9,0.8-1.4C497.2,23.9,496.1,21.4,496.1,18.5 M511.4,18.4c0-4.7-3.2-8.5-7.1-8.5c-3.9,0-7.1,3.8-7.1,8.5
		c0,4.2,2.5,7.7,5.9,8.4c-7.5,0.5-13.5,5.7-14.1,12.2h30.5c-0.5-6.5-6.5-11.7-14.1-12.2C508.8,26.2,511.4,22.7,511.4,18.4
		 M520.1,22.7c0-3.7-2.5-6.7-5.6-6.7c-0.8,0-1.6,0.2-2.3,0.6c0.2,0.7,0.2,1.4,0.2,2.2c0,2.9-1.1,5.4-2.9,7c0.2,0.5,0.5,1,0.8,1.4
		c1.6,0.5,3.1,1.2,4.4,2.2C517.8,29.2,520.1,26.3,520.1,22.7 M526.6,39.1c-0.4-5.3-5.5-9.6-11.7-9.7c0.3,0.2,0.6,0.4,0.9,0.7
		c2.9,2.4,4.7,5.6,5,9l0,0L526.6,39.1L526.6,39.1z"/>
</g>
<g id="Livello_1_1_">
</g>
<g id="miu">
</g>
<circle class="st1" cx="536.1" cy="28" r="1.6"/>
<g>
	<path class="st1" d="M560.1,47.4c0,0,4.2,0,4.2-4.2V4.9c0-4.2-4.2-4.2-4.2-4.2h-14.8c0,0-4.2,0-4.2,4.2v38.2c0,4.2,4.2,4.2,4.2,4.2
		H560.1z M552.6,45.6c-1.2,0-2.1-0.9-2.1-2.1c0-1.2,0.9-2.1,2.1-2.1c1.2,0,2.1,0.9,2.1,2.1C554.8,44.6,553.8,45.6,552.6,45.6z
		 M549.5,3.3c0-0.3,0.1-0.5,0.3-0.5h5.8c0.2,0,0.3,0.2,0.3,0.5v0.1c0,0.3-0.1,0.5-0.3,0.5h-5.8c-0.2,0-0.3-0.2-0.3-0.5V3.3z
		 M543.1,6h19.1v33.9h-19.1V6z"/>
</g>
<g>
	<g id="do-not-disturb">
		<path class="st1" d="M600,0.8c-12.8,0-23.3,10.5-23.3,23.3s10.5,23.3,23.3,23.3s23.3-10.5,23.3-23.3S612.8,0.8,600,0.8z
			 M581.4,24.1c0-10.2,8.4-18.6,18.6-18.6c4.2,0,8.1,1.4,11.4,4l-26,26C582.8,32.2,581.4,28.2,581.4,24.1z M600,42.7
			c-4.2,0-8.1-1.4-11.4-4l26-26c2.6,3.3,4,7.2,4,11.4C618.6,34.3,610.2,42.7,600,42.7z"/>
	</g>
</g>
<g>
	<path class="st1" d="M671.2,10.2c-1.7,0.7-3.5,1.2-5.4,1.5c1.9-1.2,3.4-3,4.1-5.2c-1.8,1.1-3.8,1.8-5.9,2.3
		c-1.7-1.8-4.1-2.9-6.8-2.9c-5.1,0-9.3,4.2-9.3,9.3c0,0.7,0.1,1.4,0.2,2.1c-7.7-0.4-14.6-4.1-19.2-9.7c-0.8,1.4-1.3,3-1.3,4.7
		c0,3.2,1.6,6.1,4.1,7.8c-1.5,0-3-0.5-4.2-1.2c0,0,0,0.1,0,0.1c0,4.5,3.2,8.3,7.5,9.1c-0.8,0.2-1.6,0.3-2.5,0.3
		c-0.6,0-1.2-0.1-1.8-0.2c1.2,3.7,4.6,6.4,8.7,6.5c-3.2,2.5-7.2,4-11.6,4c-0.8,0-1.5,0-2.2-0.1c4.1,2.6,9,4.2,14.3,4.2
		c17.1,0,26.5-14.2,26.5-26.5c0-0.4,0-0.8,0-1.2C668.4,13.7,670,12.1,671.2,10.2z"/>
</g>
<g>
	<g>
		<path class="st1" d="M717,17.6c1.3-1,2.3-0.4,2.3,1.2V45c0,1.6-1,2.1-2.3,1.2l-7-5.2c-1.3-1-2.3-3.1-2.3-4.7v-8.7
			c0-1.6,1-3.7,2.3-4.7L717,17.6z M678.6,4.3c-3.2,0-5.8,2.6-5.8,5.8c0,3.2,2.6,5.8,5.8,5.8c3.2,0,5.8-2.6,5.8-5.8
			C684.4,6.9,681.8,4.3,678.6,4.3z M696,1.4c-4,0-7.3,3.3-7.3,7.3s3.3,7.3,7.3,7.3c4,0,7.3-3.3,7.3-7.3S700,1.4,696,1.4z
			 M684.4,24.6h20.4v17.5c0,1.6-1.3,2.9-2.9,2.9h-26.2c-1.6,0-2.9-1.3-2.9-2.9V21.7c0-1.6,1.3-2.9,2.9-2.9h26.2
			c1.6,0,2.9,1.3,2.9,2.9h-20.4V24.6z M684.4,36.3c0-1.6-1.3-2.9-2.9-2.9c-1.6,0-2.9,1.3-2.9,2.9c0,1.6,1.3,2.9,2.9,2.9
			C683.1,39.2,684.4,37.9,684.4,36.3z"/>
	</g>
</g>
<g>
	<g>
		<path class="st4" d="M745.1,2.5l5.9,13.9l15.1,1.3c1,0.1,1.5,1.4,0.7,2.1l-11.4,9.9l3.4,14.7c0.2,1-0.9,1.8-1.8,1.3L744,37.9
			l-12.9,7.8c-0.9,0.5-2-0.3-1.8-1.3l3.4-14.7l-11.4-9.9c-0.8-0.7-0.4-2,0.7-2.1l15.1-1.3l5.9-13.9C743.3,1.5,744.7,1.5,745.1,2.5z"
			/>
	</g>
</g>
<g>
	<polygon class="st5" points="784.5,29.3 784.5,48 792,43.2 799.5,48 799.5,29.3 	"/>
	<polygon class="st6" points="808.9,17.9 806,21.7 806.6,26.3 802.3,28.2 800.5,32.5 795.8,31.9 792,34.8 788.2,31.9 783.5,32.5 
		781.7,28.2 777.4,26.3 778,21.7 775.1,17.9 778,14.1 777.4,9.4 781.7,7.6 783.5,3.3 788.2,3.9 792,1 795.8,3.9 800.5,3.3 
		802.3,7.6 806.6,9.4 806,14.1 	"/>
	<circle class="st5" cx="792" cy="17.9" r="10.3"/>
</g>
<g>
	<g>
		<path class="st4" d="M861.6,20.7c-0.5-2.7-2.5-4.8-5-5.6c0.6-2.5-0.2-5.3-2.3-7.1c-2.1-1.8-5-2.1-7.4-1.1
			c-1.2-2.3-3.6-3.9-6.4-3.9c-2.8,0-5.2,1.6-6.4,3.9c-2.4-1-5.3-0.7-7.4,1.1s-3,4.6-2.3,7.1c-2.5,0.7-4.5,2.8-5,5.6
			c-0.5,2.7,0.7,5.4,2.8,7c-1.4,2.2-1.6,5.1-0.2,7.5c1.4,2.4,4,3.7,6.6,3.5c0.3,2.6,2,4.9,4.6,5.9c2.6,1,5.4,0.3,7.3-1.5
			c1.9,1.8,4.7,2.5,7.3,1.5c2.6-1,4.3-3.3,4.6-5.9c2.6,0.2,5.2-1.1,6.6-3.5c1.4-2.4,1.2-5.3-0.2-7.5
			C860.9,26.1,862.1,23.5,861.6,20.7z M840.5,36.6c-6.9,0-12.5-5.6-12.5-12.5s5.6-12.5,12.5-12.5S853,17.1,853,24
			S847.4,36.6,840.5,36.6z"/>
		<path class="st4" d="M840.5,11.3c-7.1,0-12.8,5.7-12.8,12.8s5.7,12.8,12.8,12.8c7.1,0,12.8-5.7,12.8-12.8S847.6,11.3,840.5,11.3z"
			/>
	</g>
</g>
<circle class="st1" cx="840.5" cy="24.5" r="17.5"/>
<g>
	<path class="st4" d="M843,34.4h-3.5V21.2c-1.3,1.2-2.8,2.1-4.5,2.6v-3.2c0.9-0.3,1.9-0.9,3-1.7c1.1-0.8,1.8-1.8,2.2-2.9h2.8V34.4z"
		/>
</g>
<g>
	<g>
		<g>
			<path class="st1" d="M875.9,34.6h18.3c0.5,0,1-0.2,1.3-0.6c0.3-0.4,0.4-0.9,0.3-1.4l-0.7-3.8c-0.2-1-1.1-2-2.1-2.2l-0.6-0.1v-6.8
				c0-6.3-3.3-8.7-7.4-8.7c-4.1,0-7.4,2.4-7.4,8.7v6.8l-0.6,0.1c-1,0.2-1.9,1.2-2.1,2.2l-0.7,3.8c-0.1,0.5,0,1,0.3,1.4
				C874.9,34.4,875.4,34.6,875.9,34.6z M880,20.2c0.1,0,0.2,0,0.3,0v-0.9h5.7l0.5-2.9v3h3.4v0.7c0.1-0.1,0.2-0.1,0.3,0
				c0.3,0.1,0.5,0.7,0.3,1.3c-0.1,0.6-0.9,1-1.2,1c-0.3,1.1-1.1,2.2-2,3c-0.1,0.1-0.2,0.2-0.4,0.3c-0.1,0.1-0.3,0.2-0.4,0.3l3,0.6
				l-1.6,1.8l-2,2.3l-0.5-2.3l-0.1-0.3l0.7-0.7l-0.9-0.9l-0.2-0.2l-0.2,0.2l-0.9,0.9l0.7,0.7l-0.1,0.3l-0.5,2.2l-1.9-2.2l-1.6-1.8
				l2.9-0.6c-0.1-0.1-0.3-0.2-0.4-0.3c-0.1-0.1-0.2-0.2-0.4-0.3c-0.9-0.8-1.6-1.9-1.9-3c-0.3,0.1-1-0.3-1.2-1
				C879.5,20.9,879.7,20.3,880,20.2z M875.7,29c0.1-0.7,0.8-1.4,1.5-1.6l0.5-0.1l2.1-0.4l1.5,1.7l3.7,4.2c0.1,0.1,0.2,0.1,0.3,0.1
				l0,0c0.1,0,0.2,0,0.3-0.1l3.6-4.2l1.4-1.7l2.1,0.4l0.5,0.1c0.7,0.1,1.4,0.9,1.5,1.6l0.7,3.8c0.1,0.3,0,0.6-0.2,0.8
				c-0.2,0.2-0.4,0.3-0.7,0.3h-3.6v-1.9c0-0.2-0.2-0.4-0.4-0.4c-0.2,0-0.4,0.2-0.4,0.4v1.9h-9.6v-1.9c0-0.2-0.2-0.4-0.4-0.4
				c-0.2,0-0.4,0.2-0.4,0.4v1.9h-3.6c-0.3,0-0.6-0.1-0.7-0.3c-0.2-0.2-0.2-0.5-0.2-0.8L875.7,29z M871.7,0.6v6.2h-6.2v40.8h38.8
				v-6.2h6.2V0.6H871.7z M901.2,36.6h-32.5V9.9h32.5V36.6z M907.4,38.3h-3.1V6.8h-29.4V3.7h32.5V38.3z"/>
		</g>
	</g>
</g>
<g>
	<g>
		<path class="st1" d="M940,26.8c0.3,0.4,0.4,0.9,0.4,1.5c0,0.7-0.2,1.3-0.6,1.8c-0.4,0.5-0.9,0.8-1.4,1c-0.6,0.1-1.3,0.2-2.1,0.2
			l-1.4,0c-0.5,0-0.8,0-0.9-0.1c-0.1-0.1-0.2-0.1-0.2-0.3c0-0.1,0-0.5-0.1-1.1l0.1-4.3l2.6,0c1.1,0,2,0.1,2.5,0.3
			C939.3,26.1,939.7,26.4,940,26.8z M938.6,18.1c-0.5-0.2-1.4-0.3-2.6-0.3l-2.2,0l-0.1,4.8l2.2,0c1.1,0,2-0.1,2.5-0.3
			c0.5-0.2,1-0.5,1.2-0.8c0.3-0.4,0.4-0.8,0.4-1.3c0-0.5-0.1-1-0.4-1.3C939.5,18.5,939.1,18.3,938.6,18.1z M958.2,20.7
			c2.1,12.3-6.1,23.9-18.4,26c-12.3,2.1-23.9-6.1-26-18.4c-2.1-12.3,6.1-23.9,18.4-26C944.5,0.2,956.1,8.5,958.2,20.7z M944.1,17.1
			c-0.5-0.8-1.3-1.3-2.2-1.8c-0.4-0.2-0.8-0.3-1.3-0.4l0.1-3.5l-3.3-0.1l-0.1,3.3l-2.1,0l0.1-3.2l-3.3-0.1l-0.1,3.3l-5.1-0.1l0,2.7
			l0.8,0c0.5,0,0.9,0.1,1.1,0.2c0.2,0.1,0.3,0.2,0.4,0.4c0.1,0.2,0.1,0.5,0.1,1.1l-0.2,11c0,0.6,0,0.9-0.1,1.1
			c-0.1,0.2-0.2,0.3-0.4,0.4c-0.2,0.1-0.5,0.1-1.1,0.1l-0.8,0l0,2.7l5.1,0.1l0,3.3l3.3,0l0-3.3l1.9,0c0.1,0,0.2,0,0.2,0l0,3.3l3.3,0
			l0.1-3.5c0.6-0.1,1-0.2,1.5-0.4c1.2-0.4,2.1-1.1,2.7-2c0.6-0.9,1-1.8,1-2.9c0-0.9-0.2-1.7-0.6-2.4c-0.4-0.7-1-1.3-1.7-1.7
			c-0.5-0.3-1.2-0.6-2.1-0.8c0.9-0.3,1.6-0.6,2.1-1.1c0.5-0.4,0.9-1,1.2-1.5c0.3-0.6,0.4-1.2,0.4-1.9
			C944.9,18.7,944.6,17.8,944.1,17.1z"/>
	</g>
</g>
<g>
	<g>
		<path class="st1" d="M1003,40l-3.3-5.5c-1.5-2.6-2.3-5.5-2.3-8.5v-4.9c0-6.1-4.1-11.3-9.7-13V4.6c0-2.1-1.7-3.9-3.9-3.9
			c-2.1,0-3.9,1.7-3.9,3.9v3.5c-5.6,1.7-9.7,6.9-9.7,13v4.9c0,3-0.8,5.9-2.3,8.5l-3.3,5.5c-0.2,0.3-0.2,0.7,0,1s0.5,0.5,0.8,0.5
			h36.8c0.3,0,0.7-0.2,0.8-0.5C1003.2,40.6,1003.2,40.3,1003,40z"/>
	</g>
</g>
<g>
	<g>
		<path class="st1" d="M977.6,43.4c1.1,2.3,3.4,3.9,6.1,3.9s5-1.6,6.1-3.9H977.6z"/>
	</g>
</g>
</svg>
