<?xml version="1.0" encoding="utf-8"?>
<!-- Generator: Adobe Illustrator 18.0.0, SVG Export Plug-In . SVG Version: 6.00 Build 0)  -->
<!DOCTYPE svg PUBLIC "-//W3C//DTD SVG 1.1//EN" "http://www.w3.org/Graphics/SVG/1.1/DTD/svg11.dtd">
<svg version="1.1" id="Layer_1" xmlns="http://www.w3.org/2000/svg" xmlns:xlink="http://www.w3.org/1999/xlink" x="0px" y="0px"
	 width="160px" height="20px" viewBox="0 0 160 20" enable-background="new 0 0 160 20" xml:space="preserve">
<path fill="#676767" d="M19.8,10c0-5.4-4.4-9.8-9.8-9.8c-2.5,0-4.9,1-6.8,2.7C3,3.2,3,3.6,3.2,3.8C3.4,4,3.8,4,4,3.8
	c1.6-1.5,3.7-2.4,6-2.4c4.8,0,8.6,3.9,8.6,8.6c0,2.2-0.8,4.2-2.3,5.8c-1.6,1.8-4,2.8-6.4,2.8c-2.3,0-4.5-0.9-6.2-2.6
	c0,0,0-0.1,0-0.1c0,0,0-0.1,0-0.1c0,0,0-0.1,0-0.1c0,0,0-0.1,0-0.1c0-0.1,0-0.1,0.1-0.2c0,0,0,0,0-0.1c0.1-0.2,0.1-0.3,0.2-0.4
	c0,0,0,0,0-0.1c0-0.1,0-0.1,0.1-0.1c0,0,0-0.1,0-0.1c0,0,0-0.1,0.1-0.1c0,0,0-0.1,0.1-0.1c0,0,0-0.1,0.1-0.1c0,0,0-0.1,0.1-0.1
	c0,0,0.1-0.1,0.1-0.1c0,0,0-0.1,0.1-0.1c0,0,0.1-0.1,0.1-0.1c0,0,0-0.1,0.1-0.1c0,0,0.1-0.1,0.1-0.1c0,0,0-0.1,0.1-0.1
	c0,0,0.1-0.1,0.1-0.1c0,0,0-0.1,0.1-0.1c0,0,0.1-0.1,0.1-0.1c0,0,0.1-0.1,0.1-0.1c0,0,0.1-0.1,0.1-0.1c0,0,0.1,0,0.1-0.1
	c0,0,0.1-0.1,0.1-0.1c0,0,0.1,0,0.1-0.1c0,0,0.1-0.1,0.1-0.1c0,0,0.1,0,0.1-0.1c0,0,0.1-0.1,0.1-0.1c0,0,0.1,0,0.1-0.1
	c0,0,0.1,0,0.1-0.1c0,0,0.1,0,0.1-0.1c0,0,0.1,0,0.1-0.1c0,0,0.1,0,0.1-0.1c0,0,0.1,0,0.1-0.1c0,0,0.1,0,0.1-0.1c0,0,0.1,0,0.1-0.1
	c0,0,0.1,0,0.1,0c0,0,0.1,0,0.1-0.1c0,0,0.1,0,0.1,0c0,0,0.1,0,0.1,0c0,0,0.1,0,0.1,0c0,0,0.1,0,0.1,0c0,0,0.1,0,0.1,0
	c0,0,0.1,0,0.1,0c0,0,0.1,0,0.1,0c0,0,0.1,0,0.1,0c0,0,0.1,0,0.1,0c0,0,0.1,0,0.1,0c0,0,0.1,0,0.1,0c0,0,0.1,0,0.1,0
	c0,0,0.1,0,0.1,0c0,0,0.1,0,0.1,0c0,0,0.1,0,0.1,0c0.1,0,0.1,0,0.2,0c0,0,0.1,0,0.1,0c0.1,0,0.2,0,0.2,0h1.4c1.7,0,3.3,0.7,4.3,2
	c0.2,0.2,0.6,0.3,0.8,0.1c0.2-0.2,0.3-0.6,0.1-0.8c-0.9-1.1-2.1-1.9-3.5-2.2c0.8-0.7,1.3-1.7,1.3-2.8c0-2-1.7-3.7-3.7-3.7
	S6.3,6,6.3,8.1c0,1.1,0.5,2.1,1.3,2.8c0,0,0,0-0.1,0c-0.1,0-0.2,0-0.2,0.1c0,0,0,0,0,0C7.1,10.9,7,11,7,11c0,0-0.1,0-0.1,0
	c-0.1,0-0.1,0-0.2,0.1c0,0-0.1,0-0.1,0c-0.1,0-0.1,0-0.2,0.1c0,0-0.1,0-0.1,0c0,0-0.1,0-0.1,0.1c0,0-0.1,0-0.1,0.1
	c0,0-0.1,0.1-0.1,0.1c0,0-0.1,0-0.1,0.1c-0.1,0-0.1,0.1-0.2,0.1c0,0-0.1,0-0.1,0.1c-0.1,0-0.1,0.1-0.2,0.1c0,0,0,0,0,0
	c-0.1,0.1-0.1,0.1-0.2,0.2c0,0,0,0-0.1,0c-0.1,0-0.1,0.1-0.2,0.1c0,0-0.1,0-0.1,0.1c0,0-0.1,0.1-0.1,0.1c0,0-0.1,0-0.1,0.1
	c0,0-0.1,0.1-0.1,0.1c0,0-0.1,0.1-0.1,0.1c0,0-0.1,0.1-0.1,0.1c0,0,0,0.1-0.1,0.1c0,0-0.1,0.1-0.1,0.1c0,0,0,0-0.1,0.1
	c0,0.1-0.1,0.1-0.1,0.2c0,0,0,0,0,0.1c-0.1,0.1-0.1,0.1-0.2,0.2c0,0,0,0,0,0.1c0,0.1-0.1,0.1-0.1,0.2c0,0,0,0.1-0.1,0.1
	c0,0-0.1,0.1-0.1,0.1c0,0,0,0.1-0.1,0.1c0,0-0.1,0.1-0.1,0.1c0,0,0,0.1-0.1,0.1c0,0-0.1,0.1-0.1,0.1c0,0,0,0.1,0,0.1
	c0,0.1,0,0.1-0.1,0.2c0,0,0,0.1,0,0.1C3,14.8,3,14.9,3,14.9c0,0,0,0,0,0.1c0,0,0,0,0,0c-1-1.4-1.6-3.2-1.6-5c0-0.3-0.3-0.6-0.6-0.6
	S0.2,9.7,0.2,10c0,2.5,0.9,4.8,2.6,6.6c1.9,2,4.5,3.2,7.2,3.2c2.7,0,5.4-1.2,7.2-3.2c0,0,0,0,0,0C18.9,14.8,19.8,12.5,19.8,10z
	 M10,5.5c1.4,0,2.5,1.1,2.5,2.5s-1.1,2.5-2.5,2.5S7.5,9.5,7.5,8.1S8.6,5.5,10,5.5z"/>
<g>
	<g>
		<g id="Layer_8_1_">
			<path fill="#676767" d="M24.2,0.4c0.2-0.1,0.3-0.1,0.5-0.1c0.2,0,0.3,0,0.5,0.1l12,8.8c0.3,0.2,0.5,0.5,0.5,0.9
				c0,0.4-0.2,0.7-0.5,0.9l-12,8.8c-0.3,0.2-0.7,0.2-1,0c-0.3-0.2-0.5-0.5-0.5-0.9V1.2C23.7,0.9,23.9,0.5,24.2,0.4z"/>
		</g>
	</g>
	<g>
	</g>
	<g>
	</g>
	<g>
	</g>
	<g>
	</g>
	<g>
	</g>
	<g>
	</g>
	<g>
	</g>
	<g>
	</g>
	<g>
	</g>
	<g>
	</g>
	<g>
	</g>
	<g>
	</g>
	<g>
	</g>
	<g>
	</g>
	<g>
	</g>
</g>
<g>
	<g>
		<path fill="#676767" d="M55.8,12.8c-1,0-2,0.4-2.6,1.2l-5.6-2.7c0.1-0.4,0.2-0.8,0.2-1.2c0-0.4-0.1-0.8-0.2-1.2l5.6-2.7
			c0.6,0.7,1.6,1.2,2.6,1.2c2,0,3.5-1.6,3.5-3.5c0-2-1.6-3.5-3.5-3.5c-2,0-3.5,1.6-3.5,3.5c0,0.2,0,0.4,0,0.5l-6,2.9
			c-0.6-0.4-1.3-0.7-2.1-0.7c-2,0-3.5,1.6-3.5,3.5c0,2,1.6,3.5,3.5,3.5c0.8,0,1.5-0.3,2.1-0.7l6,2.9c0,0.2,0,0.4,0,0.5
			c0,2,1.6,3.5,3.5,3.5c2,0,3.5-1.6,3.5-3.5C59.3,14.4,57.7,12.8,55.8,12.8z"/>
	</g>
	<g>
	</g>
	<g>
	</g>
	<g>
	</g>
	<g>
	</g>
	<g>
	</g>
	<g>
	</g>
	<g>
	</g>
	<g>
	</g>
	<g>
	</g>
	<g>
	</g>
	<g>
	</g>
	<g>
	</g>
	<g>
	</g>
	<g>
	</g>
	<g>
	</g>
</g>
<g>
	<g>
		<path fill="#676767" d="M64.7,12.4L63.6,19c0,0.3,0.1,0.5,0.3,0.7c0.2,0.1,0.5,0.1,0.7,0l5.4-4.1l5.4,4.1c0.1,0.1,0.2,0.1,0.4,0.1
			c0.1,0,0.2,0,0.3-0.1c0.2-0.1,0.3-0.4,0.3-0.7l-1.1-6.6l4.4-4.1c0.2-0.2,0.3-0.4,0.2-0.7c-0.1-0.2-0.3-0.4-0.5-0.5l-6.6-1.1
			l-2.2-5.5c-0.1-0.2-0.3-0.4-0.6-0.4c-0.3,0-0.5,0.2-0.6,0.4l-2.2,5.5l-6.6,1.1c-0.2,0-0.4,0.2-0.5,0.5c-0.1,0.2,0,0.5,0.2,0.7
			C60.3,8.3,64.7,12.4,64.7,12.4z M67.8,7.3c0.2,0,0.4-0.2,0.5-0.4L70,2.6l1.7,4.4c0.1,0.2,0.3,0.4,0.5,0.4l5.6,0.9l-3.6,3.4
			C74.1,11.8,74,12,74,12.3l0.9,5.4l-4.5-3.5c-0.1-0.1-0.2-0.1-0.4-0.1c-0.1,0-0.3,0-0.4,0.1l-4.5,3.5l0.9-5.4c0-0.2,0-0.5-0.2-0.6
			l-3.6-3.4C62.2,8.3,67.8,7.3,67.8,7.3z"/>
	</g>
</g>
<path fill="#E13274" d="M99.9,10c0-5.4-4.4-9.8-9.8-9.8c-2.5,0-4.9,1-6.8,2.7c-0.2,0.2-0.2,0.6,0,0.8c0.2,0.2,0.6,0.2,0.8,0
	c1.6-1.5,3.7-2.4,6-2.4c4.8,0,8.6,3.9,8.6,8.6c0,2.2-0.8,4.2-2.3,5.8c-1.6,1.8-4,2.8-6.4,2.8c-2.3,0-4.5-0.9-6.2-2.6
	c0,0,0-0.1,0-0.1c0,0,0-0.1,0-0.1c0,0,0-0.1,0-0.1c0,0,0-0.1,0-0.1c0-0.1,0-0.1,0.1-0.2c0,0,0,0,0-0.1c0.1-0.2,0.1-0.3,0.2-0.4
	c0,0,0,0,0-0.1c0-0.1,0-0.1,0.1-0.1c0,0,0-0.1,0-0.1c0,0,0-0.1,0.1-0.1c0,0,0-0.1,0.1-0.1c0,0,0-0.1,0.1-0.1c0,0,0-0.1,0.1-0.1
	c0,0,0.1-0.1,0.1-0.1c0,0,0-0.1,0.1-0.1c0,0,0.1-0.1,0.1-0.1c0,0,0-0.1,0.1-0.1c0,0,0.1-0.1,0.1-0.1c0,0,0-0.1,0.1-0.1
	c0,0,0.1-0.1,0.1-0.1c0,0,0-0.1,0.1-0.1c0,0,0.1-0.1,0.1-0.1c0,0,0.1-0.1,0.1-0.1c0,0,0.1-0.1,0.1-0.1c0,0,0.1,0,0.1-0.1
	c0,0,0.1-0.1,0.1-0.1c0,0,0.1,0,0.1-0.1c0,0,0.1-0.1,0.1-0.1c0,0,0.1,0,0.1-0.1c0,0,0.1-0.1,0.1-0.1c0,0,0.1,0,0.1-0.1
	c0,0,0.1,0,0.1-0.1c0,0,0.1,0,0.1-0.1c0,0,0.1,0,0.1-0.1c0,0,0.1,0,0.1-0.1c0,0,0.1,0,0.1-0.1c0,0,0.1,0,0.1-0.1c0,0,0.1,0,0.1-0.1
	c0,0,0.1,0,0.1,0c0,0,0.1,0,0.1-0.1c0,0,0.1,0,0.1,0c0,0,0.1,0,0.1,0c0,0,0.1,0,0.1,0c0,0,0.1,0,0.1,0c0,0,0.1,0,0.1,0
	c0,0,0.1,0,0.1,0c0,0,0.1,0,0.1,0c0,0,0.1,0,0.1,0c0,0,0.1,0,0.1,0c0,0,0.1,0,0.1,0c0,0,0.1,0,0.1,0c0,0,0.1,0,0.1,0
	c0,0,0.1,0,0.1,0c0,0,0.1,0,0.1,0c0,0,0.1,0,0.1,0c0.1,0,0.1,0,0.2,0c0,0,0.1,0,0.1,0c0.1,0,0.2,0,0.2,0h1.4c1.7,0,3.3,0.7,4.3,2
	c0.2,0.2,0.6,0.3,0.8,0.1c0.2-0.2,0.3-0.6,0.1-0.8c-0.9-1.1-2.1-1.9-3.5-2.2c0.8-0.7,1.3-1.7,1.3-2.8c0-2-1.7-3.7-3.7-3.7
	S86.4,6,86.4,8.1c0,1.1,0.5,2.1,1.3,2.8c0,0,0,0-0.1,0c-0.1,0-0.2,0-0.2,0.1c0,0,0,0,0,0c-0.1,0-0.2,0.1-0.3,0.1c0,0-0.1,0-0.1,0
	c-0.1,0-0.1,0-0.2,0.1c0,0-0.1,0-0.1,0c-0.1,0-0.1,0-0.2,0.1c0,0-0.1,0-0.1,0c0,0-0.1,0-0.1,0.1c0,0-0.1,0-0.1,0.1
	c0,0-0.1,0.1-0.1,0.1c0,0-0.1,0-0.1,0.1c-0.1,0-0.1,0.1-0.2,0.1c0,0-0.1,0-0.1,0.1c-0.1,0-0.1,0.1-0.2,0.1c0,0,0,0,0,0
	c-0.1,0.1-0.1,0.1-0.2,0.2c0,0,0,0-0.1,0c-0.1,0-0.1,0.1-0.2,0.1c0,0-0.1,0-0.1,0.1c0,0-0.1,0.1-0.1,0.1c0,0-0.1,0-0.1,0.1
	c0,0-0.1,0.1-0.1,0.1c0,0-0.1,0.1-0.1,0.1c0,0-0.1,0.1-0.1,0.1c0,0,0,0.1-0.1,0.1c0,0-0.1,0.1-0.1,0.1c0,0,0,0-0.1,0.1
	c0,0.1-0.1,0.1-0.1,0.2c0,0,0,0,0,0.1c-0.1,0.1-0.1,0.1-0.2,0.2c0,0,0,0,0,0.1c0,0.1-0.1,0.1-0.1,0.2c0,0,0,0.1-0.1,0.1
	c0,0-0.1,0.1-0.1,0.1c0,0,0,0.1-0.1,0.1c0,0-0.1,0.1-0.1,0.1c0,0,0,0.1-0.1,0.1c0,0-0.1,0.1-0.1,0.1c0,0,0,0.1,0,0.1
	c0,0.1,0,0.1-0.1,0.2c0,0,0,0.1,0,0.1c0,0.1-0.1,0.1-0.1,0.2c0,0,0,0,0,0.1c0,0,0,0,0,0c-1-1.4-1.6-3.2-1.6-5c0-0.3-0.3-0.6-0.6-0.6
	s-0.6,0.3-0.6,0.6c0,2.5,0.9,4.8,2.6,6.6c1.9,2,4.5,3.2,7.2,3.2c2.7,0,5.4-1.2,7.2-3.2c0,0,0,0,0,0C99,14.8,99.9,12.5,99.9,10z
	 M90.1,5.5c1.4,0,2.5,1.1,2.5,2.5s-1.1,2.5-2.5,2.5s-2.5-1.1-2.5-2.5S88.7,5.5,90.1,5.5z"/>
<g>
	<g>
		<g id="Layer_8_2_">
			<path fill="#E13274" d="M104.3,0.4c0.2-0.1,0.3-0.1,0.5-0.1c0.2,0,0.3,0,0.5,0.1l12,8.8c0.3,0.2,0.5,0.5,0.5,0.9
				c0,0.4-0.2,0.7-0.5,0.9l-12,8.8c-0.3,0.2-0.7,0.2-1,0c-0.3-0.2-0.5-0.5-0.5-0.9V1.2C103.8,0.9,104,0.5,104.3,0.4z"/>
		</g>
	</g>
	<g>
	</g>
	<g>
	</g>
	<g>
	</g>
	<g>
	</g>
	<g>
	</g>
	<g>
	</g>
	<g>
	</g>
	<g>
	</g>
	<g>
	</g>
	<g>
	</g>
	<g>
	</g>
	<g>
	</g>
	<g>
	</g>
	<g>
	</g>
	<g>
	</g>
</g>
<g>
	<g>
		<path fill="#E13274" d="M135.9,12.8c-1,0-2,0.4-2.6,1.2l-5.6-2.7c0.1-0.4,0.2-0.8,0.2-1.2c0-0.4-0.1-0.8-0.2-1.2l5.6-2.7
			c0.6,0.7,1.6,1.2,2.6,1.2c2,0,3.5-1.6,3.5-3.5c0-2-1.6-3.5-3.5-3.5c-2,0-3.5,1.6-3.5,3.5c0,0.2,0,0.4,0,0.5l-6,2.9
			c-0.6-0.4-1.3-0.7-2.1-0.7c-2,0-3.5,1.6-3.5,3.5c0,2,1.6,3.5,3.5,3.5c0.8,0,1.5-0.3,2.1-0.7l6,2.9c0,0.2,0,0.4,0,0.5
			c0,2,1.6,3.5,3.5,3.5c2,0,3.5-1.6,3.5-3.5C139.4,14.4,137.8,12.8,135.9,12.8z"/>
	</g>
	<g>
	</g>
	<g>
	</g>
	<g>
	</g>
	<g>
	</g>
	<g>
	</g>
	<g>
	</g>
	<g>
	</g>
	<g>
	</g>
	<g>
	</g>
	<g>
	</g>
	<g>
	</g>
	<g>
	</g>
	<g>
	</g>
	<g>
	</g>
	<g>
	</g>
</g>
<g>
	<g>
		<path fill="#E13274" d="M144.8,12.4l-1.1,6.6c0,0.3,0.1,0.5,0.3,0.7c0.2,0.1,0.5,0.1,0.7,0l5.4-4.1l5.4,4.1
			c0.1,0.1,0.2,0.1,0.4,0.1c0.1,0,0.2,0,0.3-0.1c0.2-0.1,0.3-0.4,0.3-0.7l-1.1-6.6l4.4-4.1c0.2-0.2,0.3-0.4,0.2-0.7
			c-0.1-0.2-0.3-0.4-0.5-0.5l-6.6-1.1l-2.2-5.5c-0.1-0.2-0.3-0.4-0.6-0.4c-0.3,0-0.5,0.2-0.6,0.4l-2.2,5.5l-6.6,1.1
			c-0.2,0-0.4,0.2-0.5,0.5c-0.1,0.2,0,0.5,0.2,0.7C140.4,8.3,144.8,12.4,144.8,12.4z M147.9,7.3c0.2,0,0.4-0.2,0.5-0.4l1.7-4.4
			l1.7,4.4c0.1,0.2,0.3,0.4,0.5,0.4l5.6,0.9l-3.6,3.4c-0.2,0.2-0.2,0.4-0.2,0.6l0.9,5.4l-4.5-3.5c-0.1-0.1-0.2-0.1-0.4-0.1
			c-0.1,0-0.3,0-0.4,0.1l-4.5,3.5l0.9-5.4c0-0.2,0-0.5-0.2-0.6l-3.6-3.4C142.3,8.3,147.9,7.3,147.9,7.3z"/>
	</g>
</g>
</svg>
