<?xml version="1.0" encoding="utf-8"?>
<!-- Generator: Adobe Illustrator 22.1.0, SVG Export Plug-In . SVG Version: 6.00 Build 0)  -->
<svg version="1.1" id="Layer_1" xmlns="http://www.w3.org/2000/svg" xmlns:xlink="http://www.w3.org/1999/xlink" x="0px" y="0px"
	 width="210px" height="26.5px" viewBox="0 0 210 26.5" style="enable-background:new 0 0 210 26.5;" xml:space="preserve">
<style type="text/css">
	.st0{fill:#E33175;}
</style>
<g>
	<path class="st0" d="M2.6,23.6h5.4V4.5H3.9V3.4c1.9-0.3,3.4-0.8,4.5-1.4h1.3v21.7h5v1.4H2.6V23.6z"/>
	<path class="st0" d="M18.7,13.4c0-7.7,2.5-11.9,6.9-11.9s6.9,4.2,6.9,11.9c0,7.7-2.5,12.1-6.9,12.1S18.7,21.1,18.7,13.4z
		 M30.8,13.4c0-7.1-2.1-10.5-5.3-10.5c-3.2,0-5.3,3.5-5.3,10.5c0,7.1,2.1,10.7,5.3,10.7C28.8,24.1,30.8,20.5,30.8,13.4z"/>
	<path class="st0" d="M42.2,13.8h-6.7v-1.4h6.7V5.2h1.5v7.3h6.7v1.4h-6.7v7.3h-1.5V13.8z"/>
	<path class="st0" d="M53.1,24c7.6-7.7,11.4-12,11.4-16c0-2.9-1.6-5.1-5-5.1c-2.1,0-4,1.3-5.4,3l-1-1c1.7-1.9,3.8-3.4,6.6-3.4
		c4.1,0,6.5,2.6,6.5,6.5c0,4.6-4.2,9-10.6,15.8c1.3-0.1,2.6-0.2,3.9-0.2h7.9v1.4H53.1V24z"/>
</g>
<g>
	<path class="st0" d="M72.6,23.7C80,16.1,83.8,11.9,83.8,7.9c0-2.9-1.5-5.1-5-5.1c-2.1,0-3.9,1.3-5.3,3l-1-1C74.2,3,76.2,1.5,79,1.5
		c4.1,0,6.4,2.5,6.4,6.4c0,4.5-4.1,8.9-10.4,15.6c1.2-0.1,2.6-0.2,3.8-0.2h7.8v1.4h-14V23.7z"/>
	<path class="st0" d="M89.9,13.3c0-7.6,2.5-11.7,6.8-11.7c4.3,0,6.8,4.2,6.8,11.7c0,7.6-2.5,11.9-6.8,11.9
		C92.3,25.2,89.9,20.8,89.9,13.3z M101.9,13.3c0-6.9-2-10.4-5.2-10.4c-3.1,0-5.2,3.4-5.2,10.4s2.1,10.5,5.2,10.5
		C99.9,23.8,101.9,20.2,101.9,13.3z"/>
	<path class="st0" d="M113,13.6h-6.6v-1.4h6.6V5.1h1.5v7.2h6.6v1.4h-6.6v7.2H113V13.6z"/>
	<path class="st0" d="M123.2,22.1l0.9-1.1c1.4,1.4,3.1,2.8,6.2,2.8c3,0,5.7-2.5,5.7-6.1s-2.2-5.9-5.6-5.9c-1.7,0-2.9,0.6-4.2,1.5
		l-1.1-0.7L125.9,2h10.5v1.4h-9.1l-0.7,8.2c1.2-0.7,2.4-1.2,4.1-1.2c3.8,0,6.9,2.2,6.9,7.2c0,4.8-3.6,7.6-7.3,7.6
		C126.8,25.2,124.7,23.6,123.2,22.1z"/>
</g>
<g>
	<path class="st0" d="M142.5,21.7l0.9-1.1c1.3,1.5,3.1,2.9,6.2,2.9c3,0,5.2-2,5.2-5c0-3.1-2.2-5.2-7.8-5.2V12c5.2,0,7-2.2,7-4.9
		c0-2.5-1.8-4.2-4.5-4.2c-2.1,0-3.9,1.1-5.2,2.5l-0.9-1.1c1.5-1.5,3.5-2.7,6.1-2.7c3.5,0,6.2,2,6.2,5.4c0,3-1.8,4.7-4.3,5.6v0.1
		c2.8,0.6,5.1,2.7,5.1,5.8c0,3.9-3,6.4-6.9,6.4C146,24.9,143.9,23.3,142.5,21.7z"/>
	<path class="st0" d="M160,13.2c0-7.5,2.4-11.6,6.7-11.6s6.7,4.1,6.7,11.6c0,7.5-2.4,11.7-6.7,11.7S160,20.7,160,13.2z M171.8,13.2
		c0-6.9-2-10.2-5.1-10.2c-3.1,0-5.1,3.4-5.1,10.2s2,10.4,5.1,10.4C169.8,23.6,171.8,20,171.8,13.2z"/>
	<path class="st0" d="M182.8,13.6h-6.5v-1.3h6.5V5.1h1.4v7.1h6.5v1.3h-6.5v7.1h-1.4V13.6z"/>
	<path class="st0" d="M205.4,3.4h-11.8V2h13.8v0.9c-5.4,7.1-6.7,12.8-7.1,21.6h-1.7C198.9,15.4,200.8,9.7,205.4,3.4z"/>
</g>
</svg>
