<?xml version="1.0" encoding="utf-8"?>
<!-- Generator: Adobe Illustrator 22.1.0, SVG Export Plug-In . SVG Version: 6.00 Build 0)  -->
<svg version="1.1" id="Layer_1" xmlns="http://www.w3.org/2000/svg" xmlns:xlink="http://www.w3.org/1999/xlink" x="0px" y="0px"
	 width="400px" height="70px" viewBox="0 0 400 70" style="enable-background:new 0 0 400 70;" xml:space="preserve">
<style type="text/css">
	.st0{fill:#E33175;}
</style>
<g>
	<path class="st0" d="M194.6,2.6h15.1c20,0,29.5,12.6,29.5,32.2c0,19.7-9.5,32.7-29.4,32.7h-15.2V2.6z M209.2,63.8
		c17.7,0,25.2-11.9,25.2-28.9c0-16.9-7.6-28.4-25.2-28.4h-10.1v57.3H209.2z"/>
	<path class="st0" d="M254.1,2.6h35.6v3.9h-31.1v24.6h26v3.9h-26v28.6h32.1v3.9h-36.6V2.6z"/>
	<path class="st0" d="M319,2.6h4.5l22.9,65h-4.7l-7.6-22.3h-25.7l-7.7,22.3h-4.5L319,2.6z M309.7,41.5h23.1l-4.1-12.1
		c-2.7-7.7-4.9-14.5-7.2-22.5h-0.4c-2.3,8-4.5,14.8-7.2,22.5L309.7,41.5z"/>
	<path class="st0" d="M356.8,2.6h4.5v61h30v3.9h-34.5V2.6z"/>
</g>
<g>
	<path class="st0" d="M11.1,3.8h14.5v24.8h22.2V3.8h14.6v64.3H47.8V41.3H25.6v26.8H11.1V3.8z"/>
</g>
<g>
	<path class="st0" d="M131.9,16h-17.7V3.8h49.9V16h-17.7v52.1h-14.6V16z"/>
</g>
<g>
	<g>
		<path class="st0" d="M114.5,41.4c-0.7-9.6-5.2-15.6-9.1-20.9c-3.6-4.9-6.8-9.1-6.8-15.4c0-0.5-0.3-1-0.7-1.2
			c-0.4-0.2-1-0.2-1.4,0.1c-5.9,4.2-10.8,11.4-12.6,18.2c-1.2,4.7-1.4,10.1-1.4,13.6c-5.5-1.2-6.7-9.3-6.7-9.4
			c-0.1-0.4-0.3-0.8-0.7-1c-0.4-0.2-0.8-0.2-1.2,0c-0.3,0.1-7,3.6-7.4,17.2c0,0.5,0,0.9,0,1.4C66.5,57.2,77.3,68,90.6,68
			c0,0,0,0,0.1,0c0,0,0,0,0,0c13.2,0,24-10.8,24-24.1C114.7,43.2,114.5,41.4,114.5,41.4z M90.6,65.3c-4.4,0-8-3.8-8-8.6
			c0-0.2,0-0.3,0-0.5c0.1-2,0.4-3.3,0.8-4.2c0.8,1.7,2.2,3.2,4.4,3.2c0.7,0,1.3-0.6,1.3-1.3c0-1.9,0-4.1,0.5-6.1
			c0.4-1.8,1.4-3.6,2.7-5.1c0.6,1.9,1.7,3.5,2.8,5.1c1.5,2.2,3.1,4.5,3.4,8.4c0,0.2,0,0.5,0,0.7C98.6,61.5,95,65.3,90.6,65.3z"/>
	</g>
</g>
</svg>
