<?xml version="1.0" encoding="utf-8"?>
<!-- Generator: Adobe Illustrator 23.0.1, SVG Export Plug-In . SVG Version: 6.00 Build 0)  -->
<svg version="1.1" id="Layer_1" xmlns="http://www.w3.org/2000/svg" xmlns:xlink="http://www.w3.org/1999/xlink" x="0px" y="0px"
	 width="270.055px" height="30px" viewBox="0 0 270.055 30" enable-background="new 0 0 270.055 30" xml:space="preserve">
<g>
	<polygon fill="#FFFFFF" points="30.38,11.023 43.359,27.135 37.472,11.023 	"/>
	<polygon fill="#FFFFFF" points="38.629,11.023 44.901,28.189 51.296,11.023 	"/>
	<polygon fill="#FFFFFF" points="46.298,27.551 59.611,11.023 52.455,11.023 	"/>
	<polygon fill="#FFFFFF" points="54.533,2.333 46.137,2.333 51.894,9.418 	"/>
	<polygon fill="#FFFFFF" points="50.915,9.937 44.996,2.652 39.077,9.937 	"/>
	<polygon fill="#FFFFFF" points="43.855,2.333 35.453,2.333 38.06,9.466 	"/>
	<polygon fill="#FFFFFF" points="34.548,3.021 30.226,9.937 37.075,9.937 	"/>
	<polygon fill="#FFFFFF" points="59.766,9.937 55.439,3.014 52.86,9.937 	"/>
</g>
<path fill="#FFFFFF" d="M63.933,0.605v28.743l22.543-14.371L63.933,0.605z"/>
<g>
	<g>
		<path fill="#FFFFFF" d="M146.113,17.454c-0.337-4.389-2.381-7.14-4.184-9.567c-1.669-2.247-3.111-4.188-3.111-7.05
			c0-0.23-0.129-0.44-0.333-0.545c-0.205-0.106-0.451-0.089-0.637,0.047c-2.708,1.938-4.967,5.203-5.756,8.319
			c-0.548,2.169-0.62,4.608-0.631,6.218c-2.501-0.534-3.067-4.274-3.073-4.315c-0.028-0.194-0.147-0.363-0.319-0.455
			c-0.174-0.091-0.379-0.098-0.556-0.01c-0.131,0.063-3.218,1.632-3.398,7.896c-0.013,0.208-0.013,0.417-0.013,0.626
			c0,6.085,4.951,11.036,11.037,11.036c0.008,0.001,0.017,0.002,0.025,0c0.002,0,0.005,0,0.008,0
			c6.07-0.017,11.004-4.962,11.004-11.036C146.176,18.31,146.113,17.454,146.113,17.454z M135.139,28.426
			c-2.029,0-3.679-1.758-3.679-3.919c0-0.074-0.001-0.148,0.005-0.239c0.025-0.911,0.198-1.533,0.387-1.947
			c0.356,0.764,0.992,1.466,2.024,1.466c0.339,0,0.613-0.274,0.613-0.613c0-0.873,0.018-1.88,0.235-2.789
			c0.193-0.806,0.656-1.663,1.241-2.351c0.26,0.892,0.768,1.614,1.264,2.319c0.71,1.008,1.443,2.051,1.572,3.828
			c0.008,0.105,0.016,0.211,0.016,0.325C138.818,26.668,137.168,28.426,135.139,28.426z"/>
	</g>
</g>
<g>
	<g>
		<g id="star_1_">
			<polygon fill="#FFFFFF" points="14.947,23.443 24.098,28.961 21.677,18.553 29.754,11.554 19.106,10.64 14.947,0.828 
				10.788,10.64 0.14,11.554 8.217,18.553 5.796,28.961 			"/>
		</g>
	</g>
</g>
<g>
	<path fill="#FFFFFF" d="M180.254,4.876h3.235l1.617,9.185c0.415,2.145,0.685,4.139,1.1,6.314h0.083
		c0.394-2.176,0.684-4.17,1.078-6.314l1.597-9.185h3.11l-4.064,19.698h-3.67L180.254,4.876z"/>
	<path fill="#FFFFFF" d="M193.524,4.876h3.048v19.698h-3.048V4.876z"/>
	<path fill="#FFFFFF" d="M199.765,4.876h4.646c2.965,0,5.37,1.571,5.37,6.344c0,4.623-2.426,6.677-5.288,6.677h-1.68v6.677h-3.048
		V4.876z M204.306,14.362c1.68,0,2.489-1.087,2.489-3.142c0-2.054-0.913-2.81-2.572-2.81h-1.41v5.952H204.306z"/>
</g>
<path fill="#FFFFFF" d="M168.867,17.894c0.683,0.512,1.259,1.195,1.643,1.984c-0.512-0.341-1.131-0.533-1.814-0.533
	c-1.707,0-3.115,1.302-3.222,3.008c-0.107-1.664-1.515-3.008-3.222-3.008c-0.683,0-1.28,0.213-1.814,0.533
	c0.384-0.789,0.939-1.472,1.643-1.984c-1.43,0.725-2.518,2.027-2.923,3.606c-0.107,0.981,0.043,1.643,0.64,2.475h11.287
	c0.619-0.875,0.725-1.152,0.661-2.475C171.363,19.92,170.275,18.619,168.867,17.894z M165.432,12.943
	c0.704,0,1.024-1.024,1.28-1.024c-0.277,0-0.704-0.597-0.896-0.597c-0.085,0-0.32,0.021-0.363,0.213
	c-0.043-0.149-0.256-0.213-0.363-0.213c-0.277,0-0.661,0.597-0.917,0.597C164.45,11.962,164.642,12.965,165.432,12.943z
	 M171.214,14.458c-1.92-1.707-1.75-4.843-1.75-4.843c0.021-1.323-0.811-5.099-3.393-4.523c-2.518-1.323-6.358,1.75-5.996,6.145
	c0,0-0.107,2.262-1.664,4.31c-0.64,0.811-2.987,2.134-2.987,2.134s0.448,1.323,2.838,1.899v-1.024c0-1.195,0.405-2.966,1.536-2.966
	c2.198,0,2.71,1.472,3.307,0.619c0,0,0.747-0.875,0.747-2.283h0.021c-1.067-0.896-1.899-2.603-1.814-2.624
	c0.725-0.064,3.905-2.624,4.31-4.182c-0.043,0.427,1.558,2.134,2.262,2.539c0.085,1.28-0.405,3.179-2.006,4.331
	c0.021,1.366,0.747,2.24,0.747,2.24c0.597,0.853,1.109-0.619,3.307-0.619c1.131,0,1.536,1.771,1.536,2.966v1.067
	c0.811-0.277,1.664-1.643,2.198-3.008C174.436,16.656,172.75,15.845,171.214,14.458z"/>
<path fill="none" stroke="#FFFFFF" stroke-miterlimit="10" d="M170.969,29.317h-12.341c-2.2,0-4-1.8-4-4V4.709c0-2.2,1.8-4,4-4
	h12.341c2.2,0,4,1.8,4,4v20.608C174.969,27.517,173.169,29.317,170.969,29.317z"/>
<g>
	<g>
		<path fill="#FFFFFF" d="M224.922,19.751c3.17,0,5.754-2.584,5.754-5.754V6.191c0-3.17-2.584-5.754-5.754-5.754
			c-3.17,0-5.754,2.584-5.754,5.754v7.806C219.168,17.173,221.752,19.751,224.922,19.751z M220.633,6.191
			c0-2.363,1.926-4.289,4.289-4.289s4.289,1.926,4.289,4.289v7.806c0,2.363-1.926,4.289-4.289,4.289s-4.289-1.926-4.289-4.289V6.191
			L220.633,6.191z"/>
		<path fill="#FFFFFF" d="M215.884,13.267c-0.407,0-0.736,0.329-0.736,0.736c0,5.138,3.99,9.367,9.038,9.738v4.588h-3.822
			c-0.407,0-0.736,0.329-0.736,0.736s0.329,0.736,0.736,0.736h9.11c0.407,0,0.736-0.329,0.736-0.736s-0.329-0.736-0.736-0.736
			h-3.822V23.74c5.048-0.377,9.038-4.6,9.038-9.738c0-0.407-0.329-0.736-0.736-0.736c-0.407,0-0.736,0.329-0.736,0.736
			c0,4.582-3.726,8.308-8.308,8.308s-8.308-3.726-8.308-8.308C216.614,13.596,216.291,13.267,215.884,13.267z"/>
	</g>
</g>
<g>
	<g>
		<path fill="#FFFFFF" d="M90.745,16.711c0.001,0.043,0.041,0.066,0.076,0.066c0.029,0.001,0.061-0.017,0.068-0.053
			c0.001-0.005,0.002-0.009,0.003-0.015c0.016-0.083,0.045-0.165,0.056-0.254c0.011-0.089,0.012-0.18,0.013-0.267
			c0.024-0.177,0.049-0.355,0.079-0.53c0.026-0.086,0.056-0.171,0.088-0.256c0.163-0.439,0.404-0.858,0.73-1.194
			c0.147-0.153,0.321-0.271,0.487-0.404c0.15-0.12,0.288-0.252,0.413-0.396c0.02-0.022,0.04-0.046,0.059-0.07
			c0.002,0.057,0.005,0.114,0.009,0.171c0.03,0.431,0.093,0.853,0.093,1.28c0,0.037,0,0.076-0.002,0.113
			c-0.138,0.206-0.315,0.384-0.531,0.534c-0.371,0.258-0.798,0.428-1.202,0.633c-0.004,0.001-0.007,0.003-0.011,0.006
			c-0.021,0.01-0.032,0.032-0.032,0.051c0,0.032,0.023,0.064,0.06,0.064c0.005,0,0.01,0,0.015-0.001
			c0.004-0.001,0.007-0.002,0.011-0.003c0.344-0.081,0.702-0.097,1.047-0.192c0.18-0.05,0.35-0.129,0.509-0.226
			c-0.093,0.315-0.238,0.614-0.448,0.871c-0.01,0.012-0.02,0.023-0.029,0.035c-0.305,0.36-0.708,0.63-1.06,0.947
			c-0.011,0.01-0.016,0.022-0.016,0.035c0,0.026,0.023,0.047,0.05,0.047c0.01,0.001,0.021-0.003,0.03-0.01
			c0.344-0.252,0.696-0.498,0.994-0.808l0.001-0.001c0,0,0.001,0,0.002-0.002c0.037-0.038,0.073-0.077,0.107-0.117
			c0.016-0.018,0.032-0.037,0.047-0.056c0.23-0.271,0.428-0.566,0.584-0.886c-0.108,0.472-0.327,0.918-0.542,1.357
			c-0.004,0.009-0.007,0.019-0.007,0.029c0,0.032,0.024,0.062,0.058,0.062c0.009,0,0.02-0.003,0.029-0.008
			c0.007-0.003,0.014-0.006,0.02-0.01c0.219-0.122,0.349-0.369,0.469-0.571c0.1-0.169,0.203-0.336,0.303-0.506
			c-0.035,0.14-0.069,0.279-0.106,0.417c-0.082,0.304-0.198,0.592-0.339,0.874c-0.253,0.507-0.56,1.008-0.979,1.392
			c-0.002,0.002-0.005,0.005-0.009,0.008c-0.014,0.013-0.021,0.029-0.021,0.045c0,0.035,0.029,0.066,0.066,0.066
			c0.01,0,0.019-0.003,0.028-0.007c0.005-0.002,0.009-0.004,0.012-0.006c0.716-0.367,1.132-1.027,1.461-1.724
			c-0.043,0.176-0.085,0.352-0.137,0.525c-0.112,0.377-0.262,0.742-0.477,1.072c-0.002,0.004-0.004,0.007-0.006,0.01
			c-0.007,0.011-0.01,0.023-0.01,0.033c0.001,0.036,0.031,0.064,0.066,0.064c0.015,0,0.03-0.006,0.042-0.017
			c0.003-0.003,0.006-0.006,0.009-0.008c0.066-0.063,0.13-0.127,0.193-0.193c-0.025,0.104-0.043,0.21-0.049,0.318
			c-0.001,0.016-0.001,0.032-0.001,0.049c0,0.116,0.025,0.234,0.086,0.335c0.063,0.104,0.157,0.159,0.261,0.189
			c0.001,0.001,0.003,0.001,0.004,0.001c0.078,0.029,0.156,0.044,0.237,0.044c0.024,0,0.048-0.001,0.073-0.004
			c0.234-0.023,0.446-0.143,0.634-0.272c0.443-0.304,0.83-0.704,1.212-1.075c0.478-0.467,0.942-0.948,1.413-1.422
			c0.073-0.073,0.146-0.147,0.219-0.22c0.159,0.191,0.296,0.39,0.388,0.628c0.075,0.196,0.108,0.396,0.108,0.595
			c0.001,0.352-0.103,0.704-0.259,1.029c-0.137,0.285-0.314,0.55-0.501,0.807c-0.118,0.164-0.24,0.328-0.366,0.489
			c-0.345,0.296-0.593,0.71-0.776,1.117c-0.19,0.419-0.274,0.888-0.284,1.346c-0.001,0.019-0.001,0.038-0.001,0.058
			c0,0.425,0.101,0.848,0.317,1.216c0.278,0.473,0.737,0.796,1.223,1.023c0.322,0.15,0.66,0.271,1.008,0.342
			c0.94,0.342,1.923,0.585,2.896,0.77c0.685,0.13,1.377,0.225,2.071,0.294c0.327,0.032,0.652,0.054,0.978,0.089
			c0.773,0.084,1.547,0.166,2.324,0.192c0.196,0.007,0.395,0.012,0.597,0.012c0.589,0,1.193-0.047,1.74-0.247
			c0.262-0.096,0.518-0.242,0.678-0.481c0.08-0.12,0.116-0.25,0.116-0.381c0-0.149-0.047-0.299-0.127-0.436
			c-0.191-0.323-0.513-0.562-0.815-0.767c-0.357-0.241-0.741-0.442-1.13-0.626c-0.96-0.455-1.982-0.749-2.99-1.072
			c-0.149-0.048-0.297-0.095-0.446-0.141c0.573-0.504,1.111-1.042,1.665-1.566c0.582-0.553,1.161-1.111,1.685-1.721
			c0.178,0.154,0.335,0.337,0.481,0.519c0.414,0.517,0.729,1.109,1.153,1.622c0.43,0.518,1.078,0.845,1.669,1.131
			c0.663,0.321,1.352,0.58,2.011,0.905c0.302,0.149,0.603,0.296,0.914,0.43c0.286,0.124,0.573,0.245,0.853,0.381
			c0.02,0.173-0.004,0.358,0.046,0.536c0.049,0.171,0.153,0.327,0.296,0.434c0.09,0.067,0.191,0.11,0.295,0.134
			c0.002,0.001,0.005,0.002,0.008,0.002c0.014,0.004,0.028,0.007,0.042,0.009c0.006,0.001,0.012,0.002,0.018,0.003
			c0.039,0.007,0.077,0.011,0.116,0.013c0.02,0.001,0.04,0.002,0.061,0.002c0.134-0.001,0.303-0.024,0.414-0.106
			c0.076-0.023,0.15-0.047,0.222-0.065c0.112-0.029,0.224-0.047,0.339-0.047c0.006,0,0.012,0,0.016,0
			c0.016,0.002,0.031,0.004,0.047,0.007c0.092,0.015,0.179,0.038,0.262,0.066c0.056,0.025,0.11,0.055,0.168,0.084
			c0.011,0.005,0.024,0.008,0.035,0.008c0.006,0,0.012,0,0.018-0.002c0.168,0.079,0.329,0.173,0.499,0.261
			c0.21,0.108,0.427,0.171,0.651,0.171c0.107,0,0.215-0.014,0.326-0.044c0.281-0.078,0.527-0.243,0.795-0.345
			c0.009,0.006,0.02,0.008,0.031,0.008c0.004,0,0.008,0,0.011,0v-0.001c0.135-0.024,0.436-0.093,0.441-0.296
			c0-0.015-0.001-0.03-0.005-0.046c-0.044-0.182-0.278-0.227-0.421-0.244c-0.053-0.006-0.105-0.008-0.156-0.008
			c-0.148,0-0.293,0.018-0.438,0.018c-0.077,0-0.154-0.005-0.231-0.019c-0.26-0.05-0.492-0.183-0.716-0.322
			c-0.241-0.151-0.476-0.313-0.74-0.428c-0.256-0.111-0.525-0.19-0.792-0.267c-0.385-0.111-0.79-0.21-1.155-0.382
			c-0.491-0.411-0.983-0.821-1.46-1.248c-0.268-0.24-0.525-0.494-0.802-0.727c-0.273-0.229-0.526-0.488-0.782-0.738
			c-0.509-0.497-1.006-1.006-1.494-1.524c-0.239-0.254-0.478-0.499-0.698-0.77c-0.105-0.129-0.207-0.26-0.309-0.392
			c-0.097-0.124-0.189-0.292-0.326-0.385c-0.057-0.04-0.103-0.111-0.152-0.168c-0.049-0.058-0.1-0.115-0.151-0.171
			c-0.099-0.11-0.204-0.217-0.313-0.319c-0.027-0.025-0.054-0.051-0.082-0.075c-0.059-0.121-0.152-0.225-0.28-0.292
			c-0.072-0.039-0.148-0.064-0.227-0.081c-0.026-0.012-0.054-0.023-0.083-0.031c-0.01-0.004-0.02-0.004-0.029-0.004
			c-0.018,0-0.034,0.005-0.047,0.014c-0.032-0.002-0.065-0.004-0.098-0.004c-0.182,0-0.365,0.031-0.529,0.066
			c-0.757,0.157-1.479,0.506-2.158,0.863c-0.192,0.101-0.373,0.224-0.556,0.337c-0.25,0.154-0.501,0.307-0.752,0.46
			c-0.486,0.298-0.97,0.6-1.448,0.913c-0.331,0.217-0.658,0.441-0.987,0.663c0.015-0.32,0.064-0.642,0.108-0.961
			c0.078-0.553,0.143-1.102,0.173-1.66c0.019-0.331,0.036-0.667,0.036-1.003c0-0.154-0.004-0.309-0.013-0.462
			c0.04-0.032,0.078-0.065,0.115-0.102c0.002,0.001,0.004,0.001,0.006,0.001c0.013,0,0.027-0.005,0.037-0.016
			c0.221-0.231,0.357-0.572,0.432-0.876c0.03-0.121,0.048-0.247,0.048-0.372c0-0.026-0.001-0.051-0.003-0.077
			c0.002-0.004,0.003-0.008,0.004-0.012c0.017-0.067,0.024-0.137,0.024-0.207c0-0.248-0.094-0.502-0.222-0.703
			c-0.17-0.264-0.42-0.462-0.674-0.637c-0.324-0.223-0.671-0.406-0.972-0.656c-0.038-0.032-0.076-0.065-0.113-0.098
			c-0.06-0.145-0.149-0.285-0.224-0.415c-0.095-0.165-0.199-0.325-0.327-0.468c-0.277-0.309-0.674-0.425-1.02-0.619
			c0-0.001,0-0.001,0,0c-0.002-0.002-0.004-0.004-0.005-0.005c0.14-0.355,0.323-0.694,0.495-1.035
			c0.206-0.407,0.402-0.825,0.512-1.272c0.057-0.233,0.086-0.47,0.086-0.706c0-0.254-0.032-0.508-0.096-0.757
			c-0.158-0.622-0.541-1.102-1.069-1.451c-0.042-0.027-0.083-0.054-0.125-0.08c-0.195-0.247-0.424-0.462-0.696-0.617
			c-0.274-0.653-1.046-0.906-1.727-0.906c-0.082,0-0.162,0.004-0.24,0.011c-0.406,0.037-0.816,0.162-1.142,0.414
			c-0.355,0.273-0.617,0.641-0.792,1.05c-0.207,0.483-0.302,1.003-0.345,1.529c-0.289,0.717-0.417,1.503-0.467,2.27
			c-0.021,0.054-0.048,0.108-0.063,0.144c-0.046,0.107-0.095,0.213-0.143,0.32c-0.15,0.336-0.311,0.667-0.489,0.989
			c-0.312,0.565-0.79,1.04-1.002,1.668c-0.002,0.007-0.004,0.014-0.004,0.021c0.001,0.035,0.032,0.056,0.061,0.056
			c0.018,0.001,0.038-0.007,0.052-0.025c0.002-0.002,0.005-0.006,0.007-0.009c0.147-0.192,0.235-0.422,0.373-0.616
			c0.16-0.225,0.331-0.444,0.507-0.657c0.19-0.231,0.386-0.46,0.555-0.709c-0.031,0.106-0.063,0.211-0.098,0.315
			c-0.099,0.288-0.247,0.558-0.37,0.839c-0.254,0.584-0.422,1.2-0.581,1.814c0,0.002-0.001,0.005-0.002,0.009
			c-0.001,0.005-0.002,0.009-0.002,0.014c0.001,0.034,0.03,0.058,0.06,0.059c0.017,0,0.034-0.01,0.043-0.028
			c0.002-0.004,0.003-0.007,0.005-0.01c0.279-0.558,0.507-1.146,0.82-1.683c0.118-0.204,0.265-0.385,0.424-0.558
			c-0.066,0.142-0.125,0.286-0.179,0.426c-0.112,0.286-0.204,0.574-0.281,0.871c-0.085,0.333-0.184,0.653-0.386,0.932
			c-0.179,0.247-0.409,0.455-0.615,0.682c-0.199,0.219-0.353,0.456-0.466,0.73c-0.195,0.474-0.29,0.981-0.36,1.488
			c-0.023,0.162-0.043,0.323-0.063,0.483c-0.011,0.084-0.021,0.168-0.032,0.252c-0.001,0.01-0.002,0.019-0.003,0.029
			C90.745,16.705,90.745,16.708,90.745,16.711z M98.129,14.365c0-0.001,0-0.001,0-0.001v-0.001v-0.001
			c0.001,0,0.001-0.001,0.001-0.001s0,0,0-0.001c0-0.001,0-0.002,0.001-0.004c0,0.001,0,0.003-0.001,0.004c0,0,0,0,0,0
			C98.132,14.362,98.129,14.369,98.129,14.365z M97.59,4.657c0.03,0.017,0.06,0.034,0.089,0.052
			c0.002,0.001,0.005,0.003,0.007,0.005C97.654,4.695,97.622,4.677,97.59,4.657z M95.298,16.727c0.004-0.03,0.009-0.058,0.014-0.085
			c0.03-0.143,0.061-0.287,0.093-0.43c0.068-0.304,0.139-0.607,0.207-0.911c0.029-0.126,0.057-0.252,0.087-0.377
			c0.034-0.044,0.071-0.086,0.109-0.127c0.017,0.022,0.035,0.044,0.052,0.065c0.223,0.265,0.418,0.554,0.618,0.839
			c0.026,0.038,0.054,0.077,0.081,0.115c-0.199,0.137-0.395,0.278-0.589,0.42C95.746,16.4,95.522,16.563,95.298,16.727z
			 M93.342,18.19c-0.032,0.091-0.065,0.182-0.096,0.273c-0.013,0.015-0.027,0.029-0.04,0.043
			C93.256,18.403,93.301,18.297,93.342,18.19z M92.957,15.655c0.03-0.021,0.059-0.043,0.088-0.065
			c-0.054,0.135-0.116,0.267-0.185,0.395C92.898,15.878,92.93,15.768,92.957,15.655z"/>
	</g>
</g>
<g>
	<g>
		<g>
			<path fill="#FFFFFF" d="M266.7,23.459c-0.487-0.487-1.136-0.714-1.775-0.677l-1.713-1.713c0.695-0.888,1.269-1.862,1.713-2.911
				c0.67-1.589,1.012-3.274,1.012-5.009s-0.341-3.423-1.012-5.009c-0.649-1.533-1.577-2.908-2.759-4.091
				c-1.183-1.183-2.557-2.111-4.091-2.759c-1.589-0.67-3.274-1.012-5.009-1.012c-1.735,0-3.423,0.341-5.009,1.012
				c-1.533,0.646-2.908,1.574-4.091,2.756c-1.182,1.183-2.111,2.557-2.759,4.091c-0.67,1.589-1.012,3.274-1.012,5.009
				c0,1.735,0.341,3.423,1.012,5.009c0.649,1.533,1.577,2.908,2.759,4.091c1.183,1.183,2.557,2.111,4.091,2.759
				c1.589,0.67,3.274,1.012,5.009,1.012c1.735,0,3.423-0.341,5.009-1.012c1.061-0.45,2.048-1.03,2.945-1.741l1.71,1.71
				c-0.034,0.639,0.189,1.288,0.677,1.775l2.43,2.43c0.453,0.453,1.049,0.683,1.645,0.683c0.596,0,1.192-0.227,1.645-0.683
				c0.909-0.909,0.909-2.384,0-3.293L266.7,23.459z M260.995,18.85c-0.307,0.422-0.649,0.826-1.024,1.201
				c-0.366,0.366-0.757,0.698-1.167,0.996c-1.657,1.21-3.65,1.862-5.742,1.862c-2.61,0-5.062-1.015-6.906-2.862
				c-1.844-1.844-2.862-4.299-2.862-6.906s1.015-5.062,2.862-6.906c1.844-1.844,4.299-2.862,6.906-2.862
				c2.607,0,5.062,1.015,6.906,2.862c1.844,1.844,2.862,4.299,2.862,6.906C262.833,15.221,262.19,17.198,260.995,18.85z"/>
			<g>
				<path fill="#FFFFFF" d="M256.038,15.803c0.545,0.409,1.004,0.953,1.311,1.583c-0.409-0.272-0.902-0.426-1.447-0.426
					c-1.362,0-2.485,1.038-2.571,2.4c-0.085-1.328-1.209-2.4-2.571-2.4c-0.545,0-1.021,0.17-1.447,0.426
					c0.306-0.63,0.749-1.175,1.311-1.583c-1.141,0.579-2.009,1.617-2.332,2.877c-0.085,0.783,0.034,1.311,0.511,1.975h9.005
					c0.494-0.698,0.579-0.919,0.528-1.975C258.03,17.42,257.162,16.382,256.038,15.803z M253.298,11.853
					c0.562,0,0.817-0.817,1.021-0.817c-0.221,0-0.562-0.477-0.715-0.477c-0.068,0-0.255,0.017-0.289,0.17
					c-0.034-0.119-0.204-0.17-0.289-0.17c-0.221,0-0.528,0.477-0.732,0.477C252.514,11.07,252.668,11.87,253.298,11.853z
					 M257.911,13.062c-1.532-1.362-1.396-3.864-1.396-3.864c0.017-1.055-0.647-4.069-2.707-3.609
					c-2.009-1.055-5.073,1.396-4.784,4.903c0,0-0.085,1.804-1.328,3.439c-0.511,0.647-2.383,1.702-2.383,1.702
					s0.357,1.055,2.264,1.515v-0.817c0-0.953,0.323-2.366,1.226-2.366c1.753,0,2.162,1.175,2.639,0.494c0,0,0.596-0.698,0.596-1.822
					h0.017c-0.851-0.715-1.515-2.077-1.447-2.094c0.579-0.051,3.115-2.094,3.439-3.337c-0.034,0.34,1.243,1.702,1.804,2.026
					c0.068,1.021-0.323,2.537-1.6,3.456c0.017,1.09,0.596,1.787,0.596,1.787c0.477,0.681,0.885-0.494,2.639-0.494
					c0.902,0,1.226,1.413,1.226,2.366v0.851c0.647-0.221,1.328-1.311,1.753-2.4C260.482,14.815,259.137,14.169,257.911,13.062z"/>
			</g>
		</g>
	</g>
	<g>
	</g>
	<g>
	</g>
	<g>
	</g>
	<g>
	</g>
	<g>
	</g>
	<g>
	</g>
	<g>
	</g>
	<g>
	</g>
	<g>
	</g>
	<g>
	</g>
	<g>
	</g>
	<g>
	</g>
	<g>
	</g>
	<g>
	</g>
	<g>
	</g>
</g>
</svg>
