<?xml version="1.0" encoding="utf-8"?>
<!-- Generator: Adobe Illustrator 21.0.0, SVG Export Plug-In . SVG Version: 6.00 Build 0)  -->
<svg version="1.1" id="Layer_1" xmlns="http://www.w3.org/2000/svg" xmlns:xlink="http://www.w3.org/1999/xlink" x="0px" y="0px"
	 width="118.4px" height="35px" viewBox="0 0 118.4 35" style="enable-background:new 0 0 118.4 35;" xml:space="preserve">
<style type="text/css">
	.st0{fill:#211D19;}
</style>
<g>
	<g>
		<path class="st0" d="M20.7,19.8c0.2,0.3,0.2,0.7,0.1,1.2c-0.1,0.5-0.3,0.9-0.7,1.3c-0.4,0.3-0.8,0.5-1.2,0.5s-1,0-1.6-0.1
			l-1.1-0.2c-0.4-0.1-0.6-0.1-0.7-0.2c-0.1-0.1-0.1-0.1-0.1-0.2c0-0.1,0-0.4,0.1-0.8l0.6-3.3l2,0.4c0.9,0.2,1.5,0.4,1.9,0.6
			C20.3,19.2,20.6,19.5,20.7,19.8z M20.8,12.9c-0.4-0.2-1-0.4-2-0.6l-1.7-0.3l-0.7,3.7l1.7,0.3c0.9,0.2,1.5,0.2,2,0.1
			c0.4-0.1,0.8-0.2,1.1-0.5c0.3-0.2,0.4-0.6,0.5-1c0.1-0.4,0-0.8-0.1-1.1C21.5,13.4,21.2,13.1,20.8,12.9z M35.5,17.5
			C35.5,27.2,27.7,35,18,35S0.5,27.2,0.5,17.5C0.5,7.8,8.4,0,18,0C27.7,0,35.5,7.8,35.5,17.5z M25.2,12.9c-0.3-0.6-0.8-1.2-1.5-1.6
			c-0.3-0.2-0.6-0.3-1-0.5l0.5-2.7l-2.6-0.5l-0.5,2.5l-1.6-0.3l0.5-2.5l-2.6-0.5L16,9.3l-3.9-0.7l-0.4,2.1l0.6,0.1
			c0.4,0.1,0.7,0.2,0.8,0.3c0.1,0.1,0.2,0.2,0.2,0.3s0,0.4-0.1,0.9l-1.6,8.4c-0.1,0.4-0.2,0.7-0.2,0.8c-0.1,0.1-0.2,0.2-0.4,0.2
			c-0.2,0.1-0.4,0-0.8,0l-0.6-0.1l-0.4,2.1l3.9,0.7l-0.5,2.5l2.6,0.5l0.5-2.5l1.5,0.3c0.1,0,0.1,0,0.2,0L17,27.7l2.6,0.5l0.5-2.7
			c0.4,0,0.8,0,1.2-0.1c0.9-0.2,1.7-0.6,2.3-1.2c0.6-0.6,1-1.3,1.1-2.1c0.1-0.7,0.1-1.3-0.1-1.9c-0.2-0.6-0.6-1.1-1.1-1.5
			c-0.3-0.3-0.8-0.6-1.5-0.9c0.7-0.1,1.3-0.3,1.7-0.6c0.5-0.3,0.9-0.6,1.1-1c0.3-0.4,0.5-0.9,0.6-1.4C25.6,14.2,25.5,13.5,25.2,12.9
			z M42.5,1.2l-2.6,13.2c-0.2,0.8-0.3,1.6-0.3,2.4c0,2.3,1.5,3.6,4.6,3.6c5.9,0,8.6-4.8,8.6-9.1c0-2.3-1.2-4.5-3.9-4.5
			c-1.6,0-3.1,0.7-4,1.8h-0.1l1.5-7.4L42.5,1.2L42.5,1.2z M43.9,13.6c0.5-2.3,1.8-3.7,3.2-3.7c1.2,0,1.7,1,1.7,2.2
			c0,2.3-1.6,5.4-3.8,5.4c-0.9,0-1.4-0.5-1.5-1.4c0-0.6,0.1-1,0.1-1.4L43.9,13.6z M57.7,20.2l2.5-13h-3.8l-2.5,13H57.7z M58.7,5.5
			C60,5.5,61,4.7,61,3.4c0-1.1-0.8-1.9-1.9-1.9c-1.2,0-2.2,0.9-2.2,2.2C56.9,4.8,57.7,5.5,58.7,5.5z M64.4,4.4l-0.5,2.7h-1.7
			L61.7,10h1.7l-1,5.2c-0.2,1-0.3,1.7-0.3,2.4c0,1.6,1.1,2.8,3.4,2.8c0.8,0,1.8-0.1,2.3-0.3l0.5-3c-0.4,0.1-0.7,0.1-1.1,0.1
			c-0.8,0-1.1-0.4-1.1-1.1c0-0.4,0.1-1.1,0.2-1.7l0.9-4.4h2.8l0.6-2.9h-2.8l0.7-3.6L64.4,4.4z M79.7,16.8c-0.7,0.3-1.5,0.5-2.6,0.5
			c-1.4,0-2.6-0.9-2.6-2.7c0-2.5,1.7-4.8,4.4-4.8c0.8,0,1.3,0.1,1.8,0.3l0.9-2.9c-0.6-0.2-1.5-0.5-2.6-0.5c-5,0-8.5,3.6-8.5,8.3
			c0,3.4,2.3,5.3,5.5,5.3c1.5,0,2.9-0.3,3.7-0.7L79.7,16.8z M89.6,6.8c-4.6,0-7.8,3.7-7.8,8.2c0,3.2,2.2,5.4,5.5,5.4
			c4.5,0,7.8-3.5,7.8-8.3C95.1,9.2,93.1,6.8,89.6,6.8z M89.1,9.7c1.5,0,2.1,1.3,2.1,2.5c0,2.2-1.2,5.3-3.3,5.3c-1.3,0-2.1-1-2.1-2.5
			C85.8,13,86.9,9.7,89.1,9.7z M100.1,20.2l2.5-13h-3.8l-2.5,13H100.1z M101.2,5.5c1.2,0,2.3-0.8,2.3-2.2c0-1.1-0.8-1.9-1.9-1.9
			c-1.2,0-2.2,0.9-2.2,2.2C99.3,4.8,100.1,5.5,101.2,5.5z M107.2,20.2l1.1-5.8c0.5-2.9,2-4.5,3.3-4.5c1,0,1.3,0.6,1.3,1.5
			c0,0.5-0.1,1-0.1,1.5l-1.4,7.2h3.8l1.4-7.6c0.1-0.6,0.2-1.6,0.2-2.2c0-2.2-1.2-3.5-3.3-3.5c-1.7,0-3.4,0.7-4.6,2.4h-0.1l0.3-2.2
			h-3.4c-0.2,1.2-0.4,2.6-0.7,4.2l-1.7,8.8L107.2,20.2L107.2,20.2L107.2,20.2z M44.4,31.2c-0.1-0.3-0.1-0.9-0.1-1.5v-2.2
			c0-1.5-0.7-2.7-2.7-2.7c-1.1,0-2,0.3-2.4,0.6l0.4,1.3c0.4-0.3,1.1-0.5,1.7-0.5c1,0,1.1,0.5,1.1,0.8v0.1c-2.2,0-3.7,0.8-3.7,2.4
			c0,1,0.8,1.9,2,1.9c0.7,0,1.4-0.3,1.8-0.8h0l0.1,0.6L44.4,31.2L44.4,31.2z M42.5,29c0,0.1,0,0.2,0,0.3c-0.1,0.4-0.5,0.7-1,0.7
			c-0.4,0-0.8-0.2-0.8-0.7c0-0.8,0.8-1,1.8-1L42.5,29L42.5,29z M50.3,29.6c-0.3,0.1-0.7,0.2-1.1,0.2c-0.9,0-1.7-0.6-1.7-1.8
			c0-1,0.7-1.7,1.7-1.7c0.5,0,0.9,0.1,1.1,0.2l0.3-1.4c-0.4-0.2-1-0.2-1.5-0.2c-2.3,0-3.6,1.5-3.6,3.3c0,2,1.3,3.2,3.3,3.2
			c0.7,0,1.4-0.1,1.7-0.3L50.3,29.6z M56,29.6c-0.3,0.1-0.7,0.2-1.1,0.2c-0.9,0-1.7-0.6-1.7-1.8c0-1,0.7-1.7,1.7-1.7
			c0.5,0,0.9,0.1,1.1,0.2l0.3-1.4c-0.4-0.2-1-0.2-1.5-0.2c-2.3,0-3.6,1.5-3.6,3.3c0,2,1.3,3.2,3.3,3.2c0.7,0,1.4-0.1,1.7-0.3
			L56,29.6z M62.6,28.7c0-0.1,0.1-0.4,0.1-0.8c0-1.5-0.8-3.1-2.8-3.1c-2.2,0-3.2,1.7-3.2,3.3c0,2,1.2,3.2,3.3,3.2
			c0.8,0,1.6-0.1,2.3-0.4l-0.3-1.3c-0.5,0.2-1.1,0.3-1.7,0.3c-0.9,0-1.7-0.4-1.8-1.2L62.6,28.7L62.6,28.7z M58.6,27.4
			c0.1-0.5,0.4-1.3,1.2-1.3c0.9,0,1.1,0.8,1.1,1.3H58.6z M63.9,33.7h1.9v-3.1h0c0.3,0.4,0.9,0.7,1.6,0.7c1.4,0,2.8-1.1,2.8-3.3
			c0-2-1.2-3.2-2.6-3.2c-0.9,0-1.6,0.3-2.1,1h0L65.5,25h-1.7c0,0.6,0.1,1.3,0.1,2.1L63.9,33.7C63.9,33.7,63.9,33.7,63.9,33.7z
			 M65.8,27.7c0-0.1,0-0.2,0-0.3c0.1-0.6,0.6-1,1.2-1c0.9,0,1.3,0.8,1.3,1.7c0,1.1-0.5,1.8-1.3,1.8c-0.6,0-1-0.4-1.1-0.9
			c0-0.1,0-0.3,0-0.4L65.8,27.7L65.8,27.7z M71.8,23.6V25H71v1.4h0.8V29c0,0.9,0.2,1.5,0.5,1.9c0.3,0.3,0.8,0.5,1.5,0.5
			c0.5,0,1-0.1,1.3-0.2l0-1.5c-0.1,0-0.3,0.1-0.6,0.1c-0.6,0-0.8-0.3-0.8-1.1v-2.3h1.4V25h-1.4v-1.8L71.8,23.6z M81.7,28.7
			c0-0.1,0.1-0.4,0.1-0.8c0-1.5-0.8-3.1-2.8-3.1c-2.2,0-3.1,1.7-3.1,3.3c0,2,1.2,3.2,3.3,3.2c0.8,0,1.6-0.1,2.3-0.4l-0.3-1.3
			c-0.5,0.2-1.1,0.3-1.7,0.3c-0.9,0-1.7-0.4-1.8-1.2L81.7,28.7L81.7,28.7z M77.6,27.4c0.1-0.5,0.4-1.3,1.2-1.3
			c0.9,0,1.1,0.8,1.1,1.3H77.6z M87,22.2v3.4h0c-0.3-0.4-0.9-0.7-1.6-0.7c-1.5,0-2.8,1.2-2.8,3.3c0,1.9,1.2,3.2,2.7,3.2
			c0.8,0,1.6-0.4,2-1.1h0l0.1,0.9H89c0-0.4-0.1-1.2-0.1-1.9v-7.2L87,22.2L87,22.2z M87,28.4c0,0.2,0,0.3-0.1,0.4
			c-0.1,0.6-0.6,0.9-1.1,0.9c-0.8,0-1.3-0.7-1.3-1.7c0-1,0.5-1.8,1.3-1.8c0.6,0,1,0.4,1.1,1c0,0.1,0,0.2,0,0.3V28.4z M93.1,31.2H95
			v-3.7c0-0.1,0-0.3,0.1-0.4c0.1-0.3,0.5-0.7,1-0.7c0.7,0,1,0.6,1,1.4v3.4H99v-3.7c0-1.9-0.9-2.7-2.2-2.7c-0.4,0-0.7,0.1-1,0.2
			c-0.3,0.2-0.6,0.4-0.8,0.6h0v-3.6h-1.9L93.1,31.2L93.1,31.2z M106.1,28.7c0-0.1,0.1-0.4,0.1-0.8c0-1.5-0.8-3.1-2.8-3.1
			c-2.2,0-3.2,1.7-3.2,3.3c0,2,1.2,3.2,3.3,3.2c0.8,0,1.6-0.1,2.3-0.4l-0.3-1.3c-0.5,0.2-1.1,0.3-1.7,0.3c-0.9,0-1.7-0.4-1.8-1.2
			L106.1,28.7L106.1,28.7z M102.1,27.4c0.1-0.5,0.4-1.3,1.2-1.3c0.9,0,1.1,0.8,1.1,1.3H102.1z M107.3,31.2h1.9v-3.2
			c0-0.2,0-0.3,0-0.4c0.1-0.6,0.6-1,1.3-1c0.2,0,0.4,0,0.5,0.1v-1.8c-0.1,0-0.2,0-0.4,0c-0.6,0-1.4,0.4-1.7,1.3H109l-0.1-1.2h-1.7
			c0,0.5,0,1.1,0,2.1V31.2L107.3,31.2z M117.6,28.7c0-0.1,0.1-0.4,0.1-0.8c0-1.5-0.8-3.1-2.8-3.1c-2.2,0-3.1,1.7-3.1,3.3
			c0,2,1.2,3.2,3.3,3.2c0.8,0,1.6-0.1,2.3-0.4l-0.3-1.3c-0.5,0.2-1.1,0.3-1.7,0.3c-0.9,0-1.7-0.4-1.8-1.2L117.6,28.7L117.6,28.7z
			 M113.6,27.4c0.1-0.5,0.4-1.3,1.2-1.3c0.9,0,1.1,0.8,1.1,1.3H113.6z"/>
	</g>
	<g>
	</g>
	<g>
	</g>
	<g>
	</g>
	<g>
	</g>
	<g>
	</g>
	<g>
	</g>
	<g>
	</g>
	<g>
	</g>
	<g>
	</g>
	<g>
	</g>
	<g>
	</g>
	<g>
	</g>
	<g>
	</g>
	<g>
	</g>
	<g>
	</g>
</g>
</svg>
