<?xml version="1.0" encoding="utf-8"?>
<!-- Generator: Adobe Illustrator 23.0.4, SVG Export Plug-In . SVG Version: 6.00 Build 0)  -->
<svg version="1.1" id="Layer_1" xmlns="http://www.w3.org/2000/svg" xmlns:xlink="http://www.w3.org/1999/xlink" x="0px" y="0px"
	 width="175px" height="35.3px" viewBox="0 0 175 35.3" style="enable-background:new 0 0 175 35.3;" xml:space="preserve">
<style type="text/css">
	.st0{fill:#211D19;}
	.st1{fill:#3D3632;}
	.st2{fill:#5E4D45;}
	.st3{fill:#4C433F;}
</style>
<g>
	<title></title>
	<g id="Page-1_2_">
		<g id="american-express_1_" transform="translate(-1.000000, 0.000000)">
			<path id="Rectangle-1_3_" class="st0" d="M54,0C51.2,0,21.4,0,4.7,0C3.3,0,1.9,1.4,1.9,2.8V31c0,2.8,1.4,4.2,4.2,4.2
				c15.7,0,45.1,0,47.9,0c2.8,0,4.2-1.4,4.2-4.2V4.2C58.2,1.4,56.8,0,54,0z"/>
			<path id="Shape_6_" class="st1" d="M6.7,12.9l-1.1-2.7l-1.1,2.7H6.7z M30.7,11.8C30.5,12,30.2,12,29.9,12H28v-1.5h2
				c0.3,0,0.6,0,0.8,0.1c0.2,0.1,0.3,0.3,0.3,0.6C31,11.5,30.9,11.7,30.7,11.8C30.7,11.8,30.9,11.7,30.7,11.8L30.7,11.8L30.7,11.8z
				 M44.5,12.9l-1.1-2.7l-1.1,2.7H44.5L44.5,12.9L44.5,12.9L44.5,12.9z M18.8,15.8h-1.6v-5.2l-2.3,5.2h-1.4l-2.3-5.2v5.2H7.9
				l-0.6-1.5H3.9l-0.6,1.5H1.6l2.9-6.7h2.4l2.7,6.3V9.1h2.6l2.1,4.5l1.9-4.5h2.7L18.8,15.8L18.8,15.8L18.8,15.8L18.8,15.8z
				 M25.3,15.8H20V9.1h5.3v1.4h-3.7v1.2h3.6v1.4h-3.6v1.3h3.7V15.8L25.3,15.8L25.3,15.8L25.3,15.8z M32.8,10.9
				c0,1.1-0.7,1.6-1.1,1.8c0.3,0.1,0.6,0.4,0.8,0.6c0.2,0.3,0.3,0.6,0.3,1.2v1.3h-1.6V15c0-0.4,0-1-0.3-1.3
				c-0.2-0.2-0.6-0.3-1.2-0.3H28v2.4h-1.6V9.1h3.7c0.8,0,1.4,0,1.9,0.3C32.5,9.7,32.8,10.2,32.8,10.9C32.8,10.9,32.8,10.2,32.8,10.9
				L32.8,10.9L32.8,10.9z M35.3,15.8h-1.6V9.1h1.6V15.8L35.3,15.8L35.3,15.8L35.3,15.8z M54.2,15.8H52l-3-5v5h-3.2l-0.6-1.5h-3.3
				l-0.6,1.5h-1.9c-0.8,0-1.8-0.2-2.3-0.7c-0.6-0.6-0.9-1.3-0.9-2.5c0-1,0.2-1.9,0.9-2.6c0.5-0.5,1.3-0.8,2.4-0.8H41v1.4h-1.5
				c-0.6,0-0.9,0.1-1.2,0.4c-0.3,0.3-0.5,0.8-0.5,1.5s0.1,1.2,0.4,1.6c0.2,0.3,0.7,0.3,1.1,0.3H40l2.2-5.2h2.4l2.7,6.3V9.1h2.4
				l2.8,4.6V9.1h1.6L54.2,15.8L54.2,15.8L54.2,15.8L54.2,15.8z M1.6,17.1h2.7l0.6-1.5h1.4l0.6,1.5h5.4V16l0.5,1.1h2.8l0.5-1.2V17
				h13.3v-2.4h0.3c0.2,0,0.2,0,0.2,0.3V17h6.9v-0.6c0.6,0.3,1.4,0.6,2.6,0.6h2.9l0.6-1.5h1.4l0.6,1.5h5.6v-1.4l0.8,1.4h4.5V7.8h-4.4
				v1.1l-0.6-1.1H46v1.1l-0.6-1.1h-6.1c-1,0-1.9,0.1-2.7,0.5V7.8h-4.2v0.5c-0.5-0.4-1.1-0.5-1.8-0.5H15.2l-1,2.4l-1.1-2.4H8.2v1.1
				L7.7,7.8H3.5l-1.9,4.4V17.1L1.6,17.1z M58.3,22h-2.9c-0.3,0-0.5,0-0.6,0.1c-0.2,0.1-0.2,0.3-0.2,0.5c0,0.3,0.1,0.4,0.3,0.5
				s0.3,0.1,0.6,0.1h0.9c0.9,0,1.5,0.2,1.8,0.5c0.1,0.1,0.1,0.1,0.1,0.2C58.3,23.9,58.3,22,58.3,22z M58.3,26.4
				c-0.4,0.6-1.1,0.9-2.2,0.9H53v-1.4h3.1c0.3,0,0.5,0,0.6-0.2c0.1-0.1,0.2-0.3,0.2-0.4c0-0.2-0.1-0.3-0.2-0.4
				c-0.1-0.1-0.3-0.1-0.6-0.1c-1.5-0.1-3.4,0-3.4-2.1c0-1,0.6-2,2.3-2h3.2v-1.3h-2.9c-0.9,0-1.5,0.2-2,0.5v-0.5H49
				c-0.7,0-1.5,0.2-1.9,0.5v-0.5h-7.8v0.5c-0.6-0.4-1.7-0.5-2.1-0.5H32v0.5c-0.5-0.5-1.6-0.5-2.2-0.5H24l-1.3,1.4l-1.2-1.4h-8.6v9.3
				h8.4l1.4-1.4l1.3,1.4h5.2v-2.2h0.5c0.7,0,1.5,0,2.2-0.3v2.5h4.3v-2.4h0.2c0.3,0,0.3,0,0.3,0.3v2.2h13c0.8,0,1.7-0.2,2.2-0.6v0.6
				H56c0.9,0,1.7-0.1,2.3-0.4L58.3,26.4L58.3,26.4L58.3,26.4L58.3,26.4z M51.9,23.7c0.3,0.3,0.5,0.7,0.5,1.4c0,1.4-0.9,2.1-2.5,2.1
				h-3.1v-1.4h3.1c0.3,0,0.5,0,0.7-0.2c0.1-0.1,0.2-0.3,0.2-0.4c0-0.2-0.1-0.3-0.2-0.4c-0.1-0.1-0.3-0.1-0.6-0.1
				c-1.5-0.1-3.4,0-3.4-2.1c0-1,0.6-2,2.3-2h3.2V22h-2.9c-0.3,0-0.5,0-0.6,0.1c-0.2,0.1-0.2,0.3-0.2,0.5c0,0.3,0.1,0.4,0.3,0.5
				s0.3,0.1,0.6,0.1h0.9C50.9,23.2,51.5,23.4,51.9,23.7C51.9,23.7,51.5,23.4,51.9,23.7L51.9,23.7L51.9,23.7z M37.5,23.3
				c-0.2,0.1-0.5,0.1-0.8,0.1h-1.9v-1.5h2c0.3,0,0.6,0,0.8,0.1s0.3,0.3,0.3,0.6C37.9,23,37.7,23.2,37.5,23.3
				C37.5,23.3,37.7,23.2,37.5,23.3L37.5,23.3L37.5,23.3z M38.5,24.1c0.4,0.1,0.6,0.4,0.8,0.6c0.2,0.3,0.3,0.6,0.3,1.2v1.3H38v-0.8
				c0-0.4,0-1-0.3-1.3c-0.2-0.2-0.6-0.3-1.2-0.3h-1.7v2.4h-1.6v-6.7h3.7c0.8,0,1.4,0,1.9,0.3s0.8,0.7,0.8,1.5
				C39.6,23.4,38.9,24,38.5,24.1C38.5,24.1,38.9,24,38.5,24.1L38.5,24.1L38.5,24.1z M40.5,20.6h5.3V22h-3.7v1.2h3.6v1.4h-3.6v1.3
				h3.7v1.4h-5.3V20.6L40.5,20.6L40.5,20.6L40.5,20.6z M29.7,23.6h-2.1v-1.7h2.1c0.6,0,1,0.2,1,0.8C30.7,23.3,30.4,23.6,29.7,23.6
				L29.7,23.6L29.7,23.6L29.7,23.6z M26.1,26.6l-2.4-2.7l2.4-2.6V26.6L26.1,26.6L26.1,26.6L26.1,26.6z M19.8,25.8h-3.9v-1.3h3.5
				v-1.4h-3.5v-1.2h4l1.7,1.9L19.8,25.8L19.8,25.8L19.8,25.8L19.8,25.8z M32.5,22.8c0,1.9-1.4,2.2-2.8,2.2h-2v2.2h-3.1l-2-2.2
				l-2,2.2h-6.3v-6.7h6.4l2,2.2l2-2.2h5.1C31,20.6,32.5,20.9,32.5,22.8C32.5,22.8,32.5,20.9,32.5,22.8L32.5,22.8L32.5,22.8z"/>
		</g>
	</g>
</g>
<g>
	<g>
		<path class="st0" d="M172.6,0.5h-52.7c-0.7,0.2-1.2,0.8-1.2,1.5v31.9c0,0.7,0.5,1.3,1.2,1.5h52.7c0.7-0.2,1.2-0.8,1.2-1.5V2
			C173.8,1.3,173.3,0.7,172.6,0.5z"/>
	</g>
	<g>
		<rect x="140.8" y="7.5" class="st2" width="11.4" height="20.5"/>
		<path class="st1" d="M141.5,17.8c0-4,1.8-7.8,5-10.2c-5.7-4.5-13.8-3.5-18.3,2.2c-4.5,5.7-3.5,13.8,2.2,18.3
			c4.7,3.7,11.4,3.7,16.1,0C143.4,25.5,141.5,21.8,141.5,17.8z"/>
		<path class="st3" d="M167.6,17.8c0,7.2-5.9,13-13,13c-2.9,0-5.7-1-8-2.8c5.7-4.5,6.6-12.6,2.2-18.3c-0.7-0.8-1.4-1.6-2.2-2.2
			c5.7-4.4,13.8-3.5,18.3,2.2C166.6,12,167.6,14.9,167.6,17.8L167.6,17.8z"/>
	</g>
</g>
<g>
	<title></title>
	<g id="Page-1_3_">
		<g id="Visa_1_">
			<rect id="Rectangle-20_1_" x="59.9" y="3.2" class="st1" width="56.3" height="28.1"/>
			<path id="Rectangle-1_5_" class="st1" d="M112,0.1c-2.8,0-32.6,0-49.3,0c-1.4,0-2.8,1.4-2.8,2.8v4.2h56.3c0,0,0,6.5,0-2.8
				C116.2,1.5,114.8,0.1,112,0.1z"/>
			<path id="Rectangle-1_4_" class="st1" d="M59.9,28.2c0,0,0,0,0,2.8s1.4,4.2,4.2,4.2c15.7,0,45,0,47.9,0s4.2-1.4,4.2-4.2v-2.8
				H59.9z"/>
		</g>
		<g id="visa">
			<g>
				<g>
					<polygon class="st0" points="84.6,24.5 80.7,24.5 83.1,10 86.9,10 					"/>
					<path class="st0" d="M77.5,10l-3.6,10l-0.4-2.1l0,0l-1.3-6.5c0,0-0.2-1.3-1.8-1.3h-6l-0.1,0.2c0,0,1.9,0.4,4,1.7l3.3,12.5h4
						l6-14.4L77.5,10L77.5,10z"/>
					<path class="st0" d="M107.5,24.5h3.5L108,10.1h-3.1c-1.4,0-1.7,1.1-1.7,1.1l-5.7,13.3h4l0.8-2.1h4.9L107.5,24.5z M103.3,19.4
						l2-5.4l1.1,5.4H103.3z"/>
					<path class="st0" d="M97.8,13.5l0.5-3.1c0,0-1.7-0.6-3.4-0.6c-1.9,0-6.4,0.8-6.4,4.8c0,3.7,5.2,3.8,5.2,5.7s-4.7,1.6-6.3,0.4
						l-0.6,3.2c0,0,1.7,0.8,4.3,0.8c2.6,0,6.5-1.4,6.5-5c0-3.7-5.3-4.1-5.3-5.7C92.4,12.4,96.1,12.6,97.8,13.5z"/>
				</g>
			</g>
		</g>
	</g>
</g>
</svg>
