<?xml version="1.0" encoding="utf-8"?>
<!-- Generator: Adobe Illustrator 18.0.0, SVG Export Plug-In . SVG Version: 6.00 Build 0)  -->
<!DOCTYPE svg PUBLIC "-//W3C//DTD SVG 1.1//EN" "http://www.w3.org/Graphics/SVG/1.1/DTD/svg11.dtd">
<svg version="1.1" id="Layer_1" xmlns="http://www.w3.org/2000/svg" xmlns:xlink="http://www.w3.org/1999/xlink" x="0px" y="0px"
	 width="15px" height="15px" viewBox="0 0 15 15" enable-background="new 0 0 15 15" xml:space="preserve">
<path fill="#FFFFFF" d="M13.4,6.4c-0.3,0-0.5-0.3-0.6-0.5l-0.4-0.9c-0.1-0.2-0.1-0.6,0.1-0.8l0.6-0.8c0.2-0.2,0.1-0.5,0-0.7L12.4,2
	c-0.2-0.2-0.5-0.2-0.7,0l-0.8,0.6c-0.2,0.2-0.6,0.2-0.8,0.1L9.2,2.2C8.9,2.1,8.7,1.9,8.6,1.6l-0.1-1c0-0.3-0.3-0.5-0.5-0.5
	c0,0-0.2,0-0.5,0c-0.3,0-0.5,0-0.5,0c-0.3,0-0.5,0.3-0.5,0.5l-0.1,1c0,0.3-0.3,0.5-0.5,0.6L4.9,2.6C4.7,2.7,4.4,2.7,4.2,2.5L3.3,1.9
	C3.1,1.8,2.8,1.8,2.6,2L2,2.6c-0.2,0.2-0.2,0.5,0,0.7l0.6,0.8c0.2,0.2,0.2,0.6,0.1,0.8L2.2,5.8C2.1,6.1,1.9,6.3,1.6,6.4l-1,0.1
	C0.4,6.5,0.1,6.8,0.1,7c0,0,0,0.2,0,0.5s0,0.5,0,0.5c0,0.3,0.3,0.5,0.5,0.5l1,0.1c0.3,0,0.5,0.3,0.6,0.5l0.4,0.9
	c0.1,0.2,0.1,0.6-0.1,0.8l-0.6,0.8c-0.2,0.2-0.2,0.5-0.1,0.6c0.1,0.1,0.4,0.5,0.4,0.5s0.1,0.1,0.2,0.2c0.1,0.1,0.6,0.3,0.8,0.1
	l0.8-0.6c0.2-0.2,0.6-0.2,0.8-0.1l0.9,0.4c0.2,0.1,0.5,0.3,0.5,0.6l0.1,1c0,0.3,0.3,0.5,0.5,0.5c0,0,0.2,0,0.5,0c0.3,0,0.5,0,0.5,0
	c0.3,0,0.5-0.3,0.5-0.5l0.1-1c0-0.3,0.3-0.5,0.5-0.6l0.9-0.4c0.2-0.1,0.6-0.1,0.8,0.1l0.8,0.6c0.2,0.2,0.5,0.1,0.7,0l0.7-0.7
	c0.2-0.2,0.2-0.5,0-0.7l-0.6-0.8c-0.2-0.2-0.2-0.6-0.1-0.8l0.4-0.9c0.1-0.2,0.3-0.5,0.6-0.5l1-0.1c0.3,0,0.5-0.3,0.5-0.5
	c0,0,0-0.2,0-0.5c0-0.3,0-0.5,0-0.5c0-0.3-0.3-0.5-0.5-0.5L13.4,6.4z M7.5,9.4c-1,0-1.9-0.8-1.9-1.9c0-1,0.8-1.9,1.9-1.9
	s1.9,0.8,1.9,1.9S8.5,9.4,7.5,9.4z"/>
</svg>
