<?xml version="1.0" encoding="utf-8"?>
<!-- Generator: Adobe Illustrator 18.0.0, SVG Export Plug-In . SVG Version: 6.00 Build 0)  -->
<!DOCTYPE svg PUBLIC "-//W3C//DTD SVG 1.1//EN" "http://www.w3.org/Graphics/SVG/1.1/DTD/svg11.dtd">
<svg version="1.1" id="Layer_1" xmlns="http://www.w3.org/2000/svg" xmlns:xlink="http://www.w3.org/1999/xlink" x="0px" y="0px"
	 width="20px" height="20px" viewBox="0 0 20 20" enable-background="new 0 0 20 20" xml:space="preserve">
<path fill="#FFFFFF" d="M2.3,19.3h7.1v-7.9H2.3V19.3z M18.4,5.8h-4.2c0.3-0.2,0.6-0.3,0.8-0.5c0.9-0.6,1.4-1.5,1.4-2.3
	c0-0.7-0.3-1.3-0.8-1.7c-0.5-0.4-1.1-0.6-1.7-0.6c-0.7,0-1.3,0.2-1.9,0.6c-0.8,0.6-1.5,1.4-2,2.3c0,0,0,0.1-0.1,0.1
	c-0.2-0.4-0.4-0.7-0.6-1C9,2.2,8.5,1.7,8,1.3C7.4,1,6.8,0.7,6.1,0.7C5.4,0.7,4.7,1,4.3,1.5C3.8,1.9,3.5,2.5,3.5,3.3
	c0,0.4,0.1,0.9,0.4,1.2C4.2,5,4.7,5.4,5.3,5.8H1.6c-0.5,0-0.9,0.4-0.9,0.9v3.4h8.8V5.8h1.1v4.3h8.8V6.7C19.3,6.2,18.9,5.8,18.4,5.8
	 M5.6,4.4C5.3,4.2,5.1,4,4.9,3.8C4.8,3.6,4.8,3.4,4.8,3.3c0-0.3,0.1-0.6,0.4-0.8C5.4,2.2,5.8,2,6.1,2h0c0.4,0,0.8,0.1,1.2,0.4
	c0.6,0.4,1.1,1.1,1.5,1.8C9,4.6,9.1,5,9.2,5.4C7.4,5.3,6.3,4.9,5.6,4.4 M11.7,3.5c0.3-0.5,0.7-0.8,1.1-1.1C13.1,2.2,13.5,2,13.9,2h0
	c0.3,0,0.6,0.1,0.9,0.3C15,2.5,15.1,2.8,15.1,3c0,0.3-0.2,0.7-0.8,1.2c-0.6,0.5-1.8,1-3.5,1.3C10.9,4.8,11.2,4.1,11.7,3.5
	 M10.5,19.3h7.1v-7.9h-7.1V19.3z"/>
</svg>
