<?xml version="1.0" encoding="utf-8"?>
<!-- Generator: Adobe Illustrator 22.1.0, SVG Export Plug-In . SVG Version: 6.00 Build 0)  -->
<svg version="1.1" id="Layer_1" xmlns="http://www.w3.org/2000/svg" xmlns:xlink="http://www.w3.org/1999/xlink" x="0px" y="0px"
	 width="60px" height="51.6px" viewBox="0 0 60 51.6" enable-background="new 0 0 60 51.6" xml:space="preserve">
<g>
	<g>
		<g>
			<path fill="#E13274" d="M30,16.5c-1.4,0-2.3,1.2-2.3,2.3v13.8c0,1.4,0.9,2.3,2.3,2.3c1.4,0,2.3-1.2,2.3-2.3V18.8
				C32.3,17.5,31.4,16.5,30,16.5z"/>
			<circle fill="#E13274" cx="30" cy="41.8" r="2.3"/>
			<path fill="#E13274" d="M58.5,43.2L33.7,3c-2.1-3.2-5.3-3.2-7.4,0L1.6,43.2C-1,47.6,0.9,51,5.9,51h48
				C59.2,51,61.1,47.6,58.5,43.2z M54.6,48.7H5.5c-2.5,0-3.4-1.8-2.1-3.9L28.7,3.9c0.7-1.4,2.1-1.4,3,0L57,44.8
				C58.1,46.9,57.2,48.7,54.6,48.7z"/>
		</g>
	</g>
	<g>
	</g>
	<g>
	</g>
	<g>
	</g>
	<g>
	</g>
	<g>
	</g>
	<g>
	</g>
	<g>
	</g>
	<g>
	</g>
	<g>
	</g>
	<g>
	</g>
	<g>
	</g>
	<g>
	</g>
	<g>
	</g>
	<g>
	</g>
	<g>
	</g>
</g>
</svg>
