<?xml version="1.0" encoding="utf-8"?>
<!-- Generator: Adobe Illustrator 23.0.1, SVG Export Plug-In . SVG Version: 6.00 Build 0)  -->
<svg version="1.1" id="Layer_1" xmlns="http://www.w3.org/2000/svg" xmlns:xlink="http://www.w3.org/1999/xlink" x="0px" y="0px"
	 width="210px" height="30px" viewBox="0 0 210 30" enable-background="new 0 0 210 30" xml:space="preserve">
<path fill="#6A5C58" d="M21.218,14.921c1.335-1.451,2.155-3.362,2.155-5.46c0-4.517-3.768-8.192-8.398-8.192S6.576,4.943,6.576,9.46
	s3.768,8.192,8.398,8.192c1.632,0,3.153-0.464,4.444-1.253c4.567,1.678,7.711,5.755,8.111,10.47H2.421
	c0.272-3.174,1.798-6.133,4.281-8.245c0.438-0.372,0.483-1.018,0.102-1.445c-0.38-0.426-1.044-0.471-1.481-0.099
	c-3.207,2.726-5.045,6.667-5.045,10.813c0,0.566,0.47,1.024,1.05,1.024h27.295c0.581,0,1.05-0.458,1.05-1.024
	C29.672,22.275,26.333,17.259,21.218,14.921z M8.676,9.46c0-3.389,2.825-6.144,6.299-6.144s6.299,2.756,6.299,6.144
	s-2.825,6.144-6.299,6.144S8.676,12.849,8.676,9.46z"/>
<g>
	<g>
		<g>
			<path fill="#6A5C58" d="M45.023,0.167c-6.551,0-11.884,5.333-11.884,11.884c0,0.746,0.068,1.498,0.211,2.231
				c0.006,0.044,0.031,0.174,0.081,0.398c0.18,0.802,0.448,1.591,0.796,2.343c1.28,3.014,4.096,7.645,10.274,12.605
				c0.155,0.124,0.342,0.186,0.528,0.186s0.373-0.062,0.528-0.186c6.172-4.96,8.994-9.59,10.274-12.605
				c0.348-0.752,0.615-1.535,0.796-2.343c0.05-0.224,0.075-0.354,0.081-0.398c0.137-0.733,0.211-1.485,0.211-2.231
				C56.907,5.5,51.574,0.167,45.023,0.167z M55.042,13.99c0,0.012-0.006,0.025-0.006,0.037c-0.006,0.031-0.025,0.124-0.056,0.267
				c0,0.006,0,0.006,0,0.012c-0.155,0.696-0.385,1.374-0.69,2.026c-0.006,0.006-0.006,0.019-0.012,0.025
				c-1.162,2.753-3.711,6.955-9.255,11.536c-5.544-4.581-8.092-8.782-9.255-11.536c-0.006-0.006-0.006-0.019-0.012-0.025
				c-0.298-0.646-0.528-1.33-0.69-2.026c0-0.006,0-0.006,0-0.012c-0.037-0.143-0.05-0.236-0.056-0.267
				c0-0.012-0.006-0.025-0.006-0.044c-0.124-0.64-0.186-1.287-0.186-1.939c0-5.625,4.581-10.206,10.206-10.206
				S55.229,6.42,55.229,12.044C55.229,12.703,55.167,13.356,55.042,13.99z"/>
			<path fill="#6A5C58" d="M45.023,4.636c-4.158,0-7.545,3.387-7.545,7.545s3.387,7.545,7.545,7.545s7.545-3.387,7.545-7.545
				S49.181,4.636,45.023,4.636z M45.023,18.048c-3.238,0-5.867-2.635-5.867-5.867s2.635-5.867,5.867-5.867s5.867,2.635,5.867,5.867
				S48.261,18.048,45.023,18.048z"/>
		</g>
	</g>
	<g>
	</g>
	<g>
	</g>
	<g>
	</g>
	<g>
	</g>
	<g>
	</g>
	<g>
	</g>
	<g>
	</g>
	<g>
	</g>
	<g>
	</g>
	<g>
	</g>
	<g>
	</g>
	<g>
	</g>
	<g>
	</g>
	<g>
	</g>
	<g>
	</g>
</g>
<g>
	<g>
		<path fill="#6A5C58" d="M81.21,0.222H68.278c-1.524,0-2.771,1.247-2.771,2.771V27.01c0,1.524,1.247,2.771,2.771,2.771H81.21
			c1.524,0,2.771-1.247,2.771-2.771V2.993C83.981,1.469,82.734,0.222,81.21,0.222z M71.049,1.608h7.39v0.924h-7.39V1.608z
			 M74.744,27.934c-1.02,0-1.847-0.827-1.847-1.847s0.827-1.847,1.847-1.847c1.02,0,1.847,0.827,1.847,1.847
			S75.764,27.934,74.744,27.934z M82.134,22.392h-14.78V3.917h14.78V22.392z"/>
	</g>
	<g>
	</g>
	<g>
	</g>
	<g>
	</g>
	<g>
	</g>
	<g>
	</g>
	<g>
	</g>
	<g>
	</g>
	<g>
	</g>
	<g>
	</g>
	<g>
	</g>
	<g>
	</g>
	<g>
	</g>
	<g>
	</g>
	<g>
	</g>
	<g>
	</g>
</g>
<g>
	<g>
		<g>
			<path fill="#6A5C58" d="M116.07,3.195H93.775c-1.99,0-3.608,1.705-3.608,3.803v16.063c0,2.098,1.618,3.803,3.608,3.803h22.289
				c1.99,0,3.608-1.705,3.608-3.803V7.004C119.678,4.906,118.06,3.195,116.07,3.195z M118.029,23.061
				c0,1.139-0.879,2.066-1.96,2.066H93.775c-1.081,0-1.96-0.927-1.96-2.066V7.004c0-1.139,0.879-2.066,1.96-2.066h22.289
				c1.081,0,1.96,0.927,1.96,2.066v16.057H118.029z"/>
			<path fill="#6A5C58" d="M108.774,14.83l7.216-6.822c0.336-0.322,0.366-0.869,0.061-1.229c-0.305-0.354-0.824-0.386-1.166-0.064
				l-9.951,9.415l-1.941-1.828c-0.006-0.006-0.012-0.013-0.012-0.019c-0.043-0.045-0.085-0.084-0.134-0.122l-7.9-7.452
				c-0.342-0.322-0.861-0.29-1.166,0.071c-0.305,0.36-0.275,0.907,0.067,1.229l7.301,6.88l-7.271,7.176
				c-0.33,0.328-0.348,0.875-0.037,1.229c0.165,0.18,0.385,0.277,0.604,0.277c0.201,0,0.403-0.077,0.562-0.232l7.381-7.279
				l2.002,1.886c0.159,0.148,0.354,0.219,0.549,0.219c0.195,0,0.397-0.077,0.549-0.225l2.057-1.944l7.338,7.349
				c0.159,0.161,0.366,0.238,0.568,0.238c0.22,0,0.433-0.09,0.598-0.27c0.311-0.348,0.299-0.901-0.031-1.229L108.774,14.83z"/>
		</g>
	</g>
	<g>
	</g>
	<g>
	</g>
	<g>
	</g>
	<g>
	</g>
	<g>
	</g>
	<g>
	</g>
	<g>
	</g>
	<g>
	</g>
	<g>
	</g>
	<g>
	</g>
	<g>
	</g>
	<g>
	</g>
	<g>
	</g>
	<g>
	</g>
	<g>
	</g>
</g>
<g>
	<title>essential user interface ui play button</title>
	<g>
		<path fill="#6A5C58" d="M134.974,29.121c8.117,0,14.697-6.334,14.697-14.147s-6.58-14.147-14.697-14.147
			s-14.697,6.334-14.697,14.147S126.857,29.121,134.974,29.121z M134.974,2.714c7.035,0,12.738,5.489,12.738,12.261
			s-5.703,12.261-12.738,12.261s-12.738-5.489-12.738-12.261S127.939,2.714,134.974,2.714z"/>
		<path fill="#6A5C58" d="M130.565,22.321c0.303,0.168,0.677,0.168,0.98,0l11.758-6.536c0.468-0.261,0.627-0.838,0.356-1.289
			c-0.086-0.142-0.208-0.26-0.356-0.343l-11.758-6.536c-0.469-0.26-1.068-0.106-1.338,0.345c-0.087,0.144-0.132,0.308-0.131,0.475
			V21.51C130.077,21.845,130.264,22.154,130.565,22.321z M132.035,10.061l8.818,4.914l-8.818,4.904V10.061z"/>
	</g>
</g>
<path fill="none" d="M175.961,23.652c-0.41-0.952-0.338-2.043,0.194-2.932c0.582-1.038,1.005-2.158,1.255-3.322
	c0.85-3.686-0.036-7.558-2.405-10.507c-2.441-3.078-6.157-4.868-10.085-4.859c-0.661,0.003-1.321,0.046-1.976,0.129
	c-2.907,0.413-5.58,1.825-7.56,3.994c-1.997,2.086-3.181,4.819-3.334,7.704c-0.164,4.742,1.61,8.407,5.437,11.187
	c1.714,1.279,3.739,2.078,5.865,2.314c0.573,0.063,1.148,0.095,1.724,0.097c1.258,0.025,2.508-0.199,3.68-0.657
	c0.395-0.165,0.818-0.252,1.246-0.255c0.593,0.006,1.172,0.176,1.674,0.49c0.135,0.082,0.276,0.161,0.419,0.238l0.238,0.126
	l0.123,0.147c0.618,0.226,1.275,0.326,1.932,0.293c0.342,0.001,0.684-0.023,1.023-0.07h0.053h0.053
	c0.74-0.103,1.442-0.388,2.044-0.83c0.133-0.069,0.238-0.183,0.293-0.323c-0.022-0.169-0.106-0.325-0.235-0.437
	C176.909,25.451,176.345,24.593,175.961,23.652z M159.005,16.321c-0.931,0.006-1.691-0.743-1.698-1.675
	c-0.006-0.931,0.743-1.691,1.675-1.698s1.691,0.743,1.698,1.675c0,0.012,0,0.023,0,0.035c-0.008,0.92-0.754,1.662-1.674,1.666
	V16.321z M164.935,16.321c-0.931-0.008-1.68-0.77-1.671-1.701c0.008-0.931,0.77-1.68,1.701-1.671
	c0.928,0.008,1.675,0.764,1.671,1.692c-0.01,0.933-0.768,1.685-1.701,1.686V16.321z M170.899,16.321
	c-0.931,0.005-1.69-0.746-1.695-1.677s0.746-1.69,1.677-1.695c0.931-0.005,1.69,0.746,1.695,1.677c0,0.005,0,0.01,0,0.015
	c0.002,0.928-0.749,1.683-1.677,1.686V16.321z"/>
<path fill="#6A5C58" d="M177.6,23.013c-0.207-0.45-0.178-0.974,0.076-1.399c0.67-1.191,1.157-2.476,1.446-3.812
	c2.07-8.932-4.885-17.53-14.208-17.53c-0.735,0.003-1.47,0.051-2.199,0.144c-6.686,0.877-12.167,6.774-12.425,13.378
	c-0.196,5.278,1.818,9.522,6.158,12.674c1.963,1.459,4.278,2.37,6.709,2.639c0.634,0.069,1.271,0.104,1.909,0.106
	c1.486,0.024,2.963-0.244,4.346-0.789c0.185-0.08,0.385-0.123,0.586-0.126c0.271,0.006,0.535,0.087,0.762,0.235
	c0.164,0.1,0.332,0.197,0.504,0.293c0.431,0.449,1.672,0.771,3.123,0.771c0.427,0.001,0.853-0.028,1.276-0.088
	c1.025-0.12,2.003-0.493,2.847-1.085c1.317-0.853,1.466-2.293,0.393-3.437C178.347,24.418,177.904,23.748,177.6,23.013z
	 M177.562,26.936c-0.606,0.439-1.311,0.72-2.053,0.818h-0.053h-0.053c-0.339,0.048-0.681,0.071-1.023,0.07
	c-0.657,0.033-1.314-0.067-1.932-0.293l-0.132-0.135l-0.238-0.126c-0.144-0.076-0.293-0.155-0.419-0.238
	c-0.503-0.314-1.082-0.483-1.674-0.49c-0.428,0.003-0.851,0.09-1.246,0.255c-1.168,0.457-2.414,0.68-3.669,0.657
	c-0.576-0.002-1.152-0.034-1.724-0.097c-2.126-0.236-4.151-1.034-5.865-2.314c-3.821-2.78-5.595-6.446-5.431-11.187
	c0.154-2.884,1.337-5.617,3.334-7.704c1.98-2.169,4.653-3.581,7.56-3.994c0.656-0.083,1.316-0.126,1.976-0.129
	c3.93-0.007,7.646,1.787,10.085,4.868c2.369,2.949,3.255,6.821,2.405,10.507c-0.25,1.164-0.673,2.284-1.255,3.322
	c-0.532,0.89-0.604,1.981-0.194,2.932c0.384,0.941,0.948,1.799,1.66,2.525c0.129,0.112,0.213,0.267,0.235,0.437
	C177.798,26.759,177.694,26.87,177.562,26.936z"/>
<g>
	<g>
		<g>
			<path fill="#6A5C58" d="M194.355,19.451c3.12,0,5.663-2.543,5.663-5.663V6.105c0-3.12-2.543-5.663-5.663-5.663
				c-3.12,0-5.663,2.543-5.663,5.663v7.682C188.692,16.914,191.235,19.451,194.355,19.451z M190.134,6.105
				c0-2.325,1.896-4.221,4.221-4.221s4.221,1.896,4.221,4.221v7.682c0,2.325-1.896,4.221-4.221,4.221s-4.221-1.896-4.221-4.221
				V6.105L190.134,6.105z"/>
			<path fill="#6A5C58" d="M185.46,13.07c-0.4,0-0.724,0.324-0.724,0.724c0,5.057,3.927,9.219,8.895,9.584v4.515h-3.762
				c-0.4,0-0.724,0.324-0.724,0.724s0.324,0.724,0.724,0.724h8.966c0.4,0,0.724-0.324,0.724-0.724s-0.324-0.724-0.724-0.724h-3.762
				v-4.515c4.969-0.371,8.895-4.527,8.895-9.584c0-0.4-0.324-0.724-0.724-0.724c-0.4,0-0.724,0.324-0.724,0.724
				c0,4.509-3.668,8.177-8.177,8.177c-4.509,0-8.177-3.668-8.177-8.177C186.178,13.394,185.86,13.07,185.46,13.07z"/>
		</g>
	</g>
	<g>
	</g>
	<g>
	</g>
	<g>
	</g>
	<g>
	</g>
	<g>
	</g>
	<g>
	</g>
	<g>
	</g>
	<g>
	</g>
	<g>
	</g>
	<g>
	</g>
	<g>
	</g>
	<g>
	</g>
	<g>
	</g>
	<g>
	</g>
	<g>
	</g>
</g>
</svg>
