<?xml version="1.0" encoding="utf-8"?>
<!-- Generator: Adobe Illustrator 22.1.0, SVG Export Plug-In . SVG Version: 6.00 Build 0)  -->
<svg version="1.1" id="Layer_1" xmlns="http://www.w3.org/2000/svg" xmlns:xlink="http://www.w3.org/1999/xlink" x="0px" y="0px"
	 width="20px" height="20px" viewBox="0 0 20 20" style="enable-background:new 0 0 20 20;" xml:space="preserve">
<style type="text/css">
	.st0{fill:#E13274;}
</style>
<g>
	<g>
		<path class="st0" d="M18.2,8h-2.2V6c0-3.3-2.7-6-6-6S4,2.7,4,6v2H1.8C1.3,8,1,8.3,1,8.7c0,0.4,0.3,0.7,0.7,0.7h15.7v9H2.5v-6.7
			c0-0.4-0.3-0.7-0.7-0.7S1,11.3,1,11.7v7.5c0,0.4,0.3,0.7,0.7,0.7h16.4c0.4,0,0.7-0.3,0.7-0.7V8.7C18.9,8.3,18.6,8,18.2,8z M5.5,6
			c0-2.5,2-4.5,4.5-4.5s4.5,2,4.5,4.5v2h-9V6z"/>
		<path class="st0" d="M13,14c0-1.6-1.3-3-3-3s-3,1.3-3,3s1.3,3,3,3S13,15.6,13,14z M8.5,14c0-0.8,0.7-1.5,1.5-1.5
			c0.8,0,1.5,0.7,1.5,1.5s-0.7,1.5-1.5,1.5C9.1,15.5,8.5,14.8,8.5,14z"/>
	</g>
</g>
</svg>
