<?xml version="1.0" encoding="utf-8"?>
<!-- Generator: Adobe Illustrator 18.0.0, SVG Export Plug-In . SVG Version: 6.00 Build 0)  -->
<!DOCTYPE svg PUBLIC "-//W3C//DTD SVG 1.1//EN" "http://www.w3.org/Graphics/SVG/1.1/DTD/svg11.dtd">
<svg version="1.1" id="Layer_1" xmlns="http://www.w3.org/2000/svg" xmlns:xlink="http://www.w3.org/1999/xlink" x="0px" y="0px"
	 width="100px" height="20px" viewBox="0 0 100 20" enable-background="new 0 0 100 20" xml:space="preserve">
<g id="Icons_with_numbers">
	<g id="Group" transform="translate(-336.000000, 0.000000)">
		<path id="Shape" fill="#CCCCCC" d="M348.4,10.7l6.8,5.8c-0.2,0.2-0.6,0.4-0.9,0.4h-16.5c-0.4,0-0.7-0.1-0.9-0.4l6.8-5.8l2.4,2.1
			L348.4,10.7z M346,11.4l-9.2-7.9c0.2-0.2,0.6-0.4,0.9-0.4h16.5c0.4,0,0.7,0.1,0.9,0.4L346,11.4z M355.6,15.7l-6.6-5.6l6.6-5.8
			V15.7L355.6,15.7z M336.4,15.7V4.3l6.6,5.8L336.4,15.7L336.4,15.7z"/>
	</g>
</g>
<g id="Icons_with_numbers_1_">
	<g id="Group_1_" transform="translate(-384.000000, 0.000000)">
		<path id="Shape_copy" fill="#CCCCCC" d="M415.8,14.2l6,5.1c-0.2,0.2-0.5,0.3-0.8,0.3h-14.5c-0.3,0-0.6-0.1-0.8-0.3l6-5.2l2.1,1.8
			L415.8,14.2z M413.7,14.9l-8.5-7.3l8.5-7.3l8.5,7.3L413.7,14.9z M422.2,18.7l-5.9-5l5.9-5.1V18.7L422.2,18.7z M405.2,18.7V8.7
			l5.9,5.1L405.2,18.7L405.2,18.7z"/>
	</g>
</g>
<g id="miu">
	<g id="Artboard-1" transform="translate(-899.000000, -479.000000)">
		<g id="slice" transform="translate(215.000000, 119.000000)">
		</g>
		<path id="editor-trash-delete-recycle-bin-glyph" fill="#CCCCCC" d="M941.1,480.3c0,0-0.4,0-0.4,0.9c0,0.9,0.4,0.9,0.4,0.9h15.8
			c0,0,0.4,0,0.4-0.9c0-0.9-0.4-0.9-0.4-0.9H941.1L941.1,480.3z M941.5,483h14.9l-1.8,15.8h-11.4L941.5,483z M947.7,479.5
			c-0.9,0-0.9,0.9-0.9,0.9h4.4c0,0,0-0.9-0.9-0.9H947.7L947.7,479.5z M945.9,497h0.9l-0.9-14H945L945.9,497z M952,482.9l-0.9,14h0.9
			l0.9-14H952L952,482.9z M948.5,482.9v14h0.9v-14H948.5L948.5,482.9z"/>
	</g>
</g>
<g id="Icons_with_numbers_2_">
	<g id="Group_2_" transform="translate(-96.000000, -336.000000)">
		<path id="Shape_1_" fill="#CCCCCC" d="M195.6,346.1l-7.3-6v3.6c-5.4,0-9.7,1.2-12.1,7.3c3.6-3,7.3-3.6,12.1-2.4v3.6L195.6,346.1
			L195.6,346.1z"/>
	</g>
</g>
<path id="clip_2_" fill="#CCCCCC" d="M77.9,3c-2.1-2.1-5.5-2.1-7.6,0l-8.7,8.6c-1.6,1.6-1.6,4.3,0,5.9c1.6,1.6,4.3,1.6,5.9,0
	l8.7-8.6c1.2-1.2,1.2-3,0-4.2c-1.2-1.2-3-1.2-4.2,0l-6.5,6.5c-0.2,0.2-0.2,0.6,0,0.8c0.2,0.2,0.6,0.2,0.8,0l6.5-6.5
	c0.7-0.7,1.8-0.7,2.5,0c0.7,0.7,0.7,1.8,0,2.5l-8.7,8.6c-1.2,1.2-3,1.2-4.2,0c-1.2-1.2-1.2-3,0-4.2L71.1,4c1.6-1.6,4.3-1.6,5.9,0
	c1.6,1.6,1.6,4.3,0,5.9l-6.4,6.4c-0.2,0.2-0.2,0.6,0,0.8c0.2,0.2,0.6,0.2,0.8,0l6.5-6.5C80,8.5,80,5.1,77.9,3z"/>
</svg>
