<?xml version="1.0" encoding="utf-8"?>
<!-- Generator: Adobe Illustrator 20.1.0, SVG Export Plug-In . SVG Version: 6.00 Build 0)  -->
<svg version="1.1" id="Layer_1" xmlns="http://www.w3.org/2000/svg" xmlns:xlink="http://www.w3.org/1999/xlink" x="0px" y="0px"
	 width="24px" height="24px" viewBox="0 0 24 24" enable-background="new 0 0 24 24" xml:space="preserve">
<g>
	<g>
		<path fill="#3B342D" d="M12,0C5.3,0,0,5.3,0,12s5.3,12,12,12s12-5.3,12-12S18.7,0,12,0z M18.5,12.5c0,0.3-0.2,0.5-0.5,0.5h-1
			c-0.1,0-0.2,0.1-0.3,0.2c-0.1,0.4-0.3,0.8-0.5,1.1c-0.1,0.1-0.1,0.2,0.1,0.3l0.7,0.7c0.2,0.2,0.2,0.5,0,0.8L16.3,17
			c-0.2,0.2-0.5,0.2-0.8,0l-0.7-0.7c-0.1-0.1-0.2-0.1-0.3-0.1c-0.3,0.2-0.7,0.4-1.1,0.5c-0.1,0.1-0.2,0.1-0.2,0.3v1
			c0,0.3-0.2,0.5-0.5,0.5h-1.1c-0.3,0-0.5-0.2-0.5-0.5v-1c0-0.1-0.1-0.2-0.2-0.3c-0.4-0.1-0.8-0.3-1.1-0.5c-0.1-0.1-0.2-0.1-0.3,0.1
			L8.5,17c-0.2,0.2-0.5,0.2-0.8,0L7,16.3c-0.2-0.2-0.2-0.5,0-0.8l0.7-0.7c0.1-0.1,0.1-0.2,0.1-0.3c-0.2-0.3-0.4-0.7-0.5-1.1
			c-0.1-0.1-0.1-0.2-0.3-0.2H6c-0.3,0-0.5-0.2-0.5-0.5v-1.1c0-0.3,0.2-0.5,0.5-0.5h1c0.1,0,0.2-0.1,0.3-0.2c0.1-0.4,0.3-0.8,0.5-1.1
			c0.1-0.1,0.1-0.2-0.1-0.3L7,8.5C6.8,8.3,6.8,8,7,7.7L7.7,7C8,6.8,8.3,6.8,8.5,7l0.7,0.7c0.1,0.1,0.2,0.1,0.3,0.1
			c0.3-0.2,0.7-0.4,1.1-0.5c0.1-0.1,0.2-0.1,0.2-0.3V6c0-0.3,0.2-0.5,0.5-0.5h1.1c0.3,0,0.5,0.2,0.5,0.5v1c0,0.1,0.1,0.2,0.2,0.3
			c0.4,0.1,0.8,0.3,1.1,0.5c0.1,0.1,0.2,0.1,0.3-0.1L15.5,7c0.2-0.2,0.5-0.2,0.8,0L17,7.7c0.2,0.2,0.2,0.5,0,0.8l-0.7,0.7
			c-0.1,0.1-0.1,0.2-0.1,0.3c0.2,0.3,0.4,0.7,0.5,1.1c0.1,0.1,0.1,0.2,0.3,0.2h1c0.3,0,0.5,0.2,0.5,0.5
			C18.5,11.5,18.5,12.5,18.5,12.5z"/>
		<circle fill="#3B342D" cx="12" cy="12" r="2.7"/>
	</g>
</g>
</svg>
