<?xml version="1.0" encoding="utf-8"?>
<!-- Generator: Adobe Illustrator 20.1.0, SVG Export Plug-In . SVG Version: 6.00 Build 0)  -->
<svg version="1.1" id="Layer_1" xmlns="http://www.w3.org/2000/svg" xmlns:xlink="http://www.w3.org/1999/xlink" x="0px" y="0px"
	 width="108px" height="18px" viewBox="0 0 108 18" enable-background="new 0 0 108 18" xml:space="preserve">
<g>
	<g>
		<g>
			<g>
				<path fill="#6C0D30" d="M5.8,3.5h6.5c0.2,0,0.3-0.2,0.3-0.3V0.4H5.4v2.8C5.4,3.4,5.6,3.5,5.8,3.5z"/>
				<path fill="#6C0D30" d="M17.4,4.7L13.7,1v2.2c0,0.8-0.7,1.5-1.5,1.5H5.8C4.9,4.7,4.3,4,4.3,3.2V0.4H1.9c-0.9,0-1.6,0.7-1.6,1.6
					v14.1c0,0.9,0.7,1.6,1.6,1.6H16c0.9,0,1.6-0.7,1.6-1.6V5.4C17.6,5.1,17.5,4.9,17.4,4.7z M14.9,14c0,0.5-0.4,0.9-0.9,0.9H4
					C3.4,14.9,3,14.5,3,14V9.2C3,8.7,3.4,8.3,4,8.3H14c0.5,0,0.9,0.4,0.9,0.9V14z"/>
				<path fill="#6C0D30" d="M13,9.7H5c-0.3,0-0.6,0.3-0.6,0.6c0,0.3,0.3,0.6,0.6,0.6H13c0.3,0,0.6-0.3,0.6-0.6
					C13.5,10,13.3,9.7,13,9.7z"/>
				<path fill="#6C0D30" d="M11.8,12H6.2c-0.3,0-0.6,0.3-0.6,0.6c0,0.3,0.3,0.6,0.6,0.6h5.6c0.3,0,0.6-0.3,0.6-0.6
					C12.4,12.3,12.1,12,11.8,12z"/>
			</g>
		</g>
	</g>
</g>
<g>
	<g>
		<g>
			<path fill="#6C0D30" d="M34.5,2.5c-0.1-0.1-0.2-0.2-0.4-0.2c-0.1,0-0.2,0.1-0.5,0.2c-0.2,0.1-0.5,0.3-0.8,0.4
				c-0.3,0.2-0.6,0.3-1,0.4c-0.4,0.1-0.7,0.2-1,0.2c-0.3,0-0.6-0.1-0.8-0.2c-0.7-0.4-1.4-0.6-2-0.8c-0.6-0.2-1.1-0.3-1.8-0.3
				c-1.1,0-2.3,0.4-3.7,1.1c-0.3,0.1-0.5,0.3-0.6,0.3l-0.1-1c0.3-0.3,0.5-0.6,0.5-1.1c0-0.8-0.6-1.4-1.4-1.4c-0.8,0-1.4,0.6-1.4,1.4
				c0,0.5,0.3,1,0.7,1.2L22,17c0.1,0.4,0.4,0.7,0.8,0.7c0,0,0.1,0,0.1,0c0.5-0.1,0.8-0.5,0.7-0.9l-0.8-5.7c1.4-0.7,2.6-1,3.6-1
				c0.4,0,0.9,0.1,1.3,0.2c0.4,0.1,0.8,0.3,1,0.4c0.3,0.2,0.6,0.3,1,0.4c0.4,0.1,0.7,0.2,1.1,0.2c0.9,0,2-0.3,3.3-1
				c0.2-0.1,0.3-0.2,0.4-0.2c0.1-0.1,0.1-0.2,0.1-0.3V2.9C34.6,2.7,34.6,2.6,34.5,2.5z"/>
		</g>
	</g>
</g>
<g>
	<g>
		<g>
			<path fill="#6C0D30" d="M50.8,3.6c-0.3-1.2-1.5-2.1-2.7-2.1h-1.7c0.2-0.1,0.3-0.3,0.3-0.5c0-0.3-0.3-0.6-0.6-0.6h-2.5
				c-0.3,0-0.6,0.3-0.6,0.6c0,0.2,0.1,0.4,0.3,0.5h-1.7c-1.3,0-2.4,0.9-2.7,2.1c-0.1,0.4,0.2,0.7,0.5,0.7h10.7
				C50.6,4.3,50.9,3.9,50.8,3.6z"/>
		</g>
	</g>
	<g>
		<g>
			<path fill="#6C0D30" d="M50.2,5.4H39.5c-0.3,0-0.6,0.3-0.6,0.6l0.9,11c0,0.3,0.3,0.5,0.6,0.5h8.8c0.3,0,0.5-0.2,0.6-0.5l0.9-11
				C50.8,5.7,50.6,5.4,50.2,5.4z M42.2,15.7c-0.3,0-0.6-0.2-0.6-0.5l-0.7-7.4c0-0.3,0.2-0.6,0.5-0.6c0.3,0,0.6,0.2,0.6,0.5l0.7,7.4
				C42.8,15.4,42.5,15.7,42.2,15.7z M45.4,15.2c0,0.3-0.3,0.6-0.6,0.6s-0.6-0.3-0.6-0.6V7.8c0-0.3,0.3-0.6,0.6-0.6s0.6,0.3,0.6,0.6
				V15.2z M48.8,7.8l-0.7,7.4c0,0.3-0.3,0.5-0.6,0.5c-0.3,0-0.5-0.3-0.5-0.6l0.7-7.4c0-0.3,0.3-0.5,0.6-0.5
				C48.6,7.3,48.8,7.5,48.8,7.8z"/>
		</g>
	</g>
</g>
<g>
	<g>
		<path fill="#6C0D30" d="M65.9,9L71,3.9c0.8-0.8,0.8-2.1,0-2.9c-0.8-0.8-2.1-0.8-2.9,0L63,6.1L58,1.1c-0.8-0.8-2.1-0.8-2.9,0
			c-0.8,0.8-0.8,2.1,0,2.9L60.2,9l-5.1,5.1c-0.8,0.8-0.8,2.1,0,2.9c0.4,0.4,0.9,0.6,1.4,0.6c0.5,0,1-0.2,1.4-0.6l5.1-5.1l5.1,5.1
			c0.4,0.4,0.9,0.6,1.4,0.6s1-0.2,1.4-0.6c0.8-0.8,0.8-2.1,0-2.9L65.9,9z"/>
	</g>
</g>
<g>
	<g>
		<path fill="#FFFFFF" d="M83.9,9l5.1-5.1c0.8-0.8,0.8-2.1,0-2.9c-0.8-0.8-2.1-0.8-2.9,0L81,6.1l-5.1-5.1c-0.8-0.8-2.1-0.8-2.9,0
			c-0.8,0.8-0.8,2.1,0,2.9L78.1,9l-5.1,5.1c-0.8,0.8-0.8,2.1,0,2.9c0.4,0.4,0.9,0.6,1.4,0.6c0.5,0,1-0.2,1.4-0.6l5.1-5.1l5.1,5.1
			c0.4,0.4,0.9,0.6,1.4,0.6s1-0.2,1.4-0.6c0.8-0.8,0.8-2.1,0-2.9L83.9,9z"/>
	</g>
</g>
<g id="Page-1">
	<g id="Core" transform="translate(-424.000000, -463.000000)">
		<g id="undo" transform="translate(424.000000, 464.000000)">
			<path id="Shape" fill="#6C0E30" d="M99,2.4v-3.1l-4.5,4.5L99,8.2v-4c3,0,5.4,2.4,5.4,5.4S102,15,99,15s-5.4-2.4-5.4-5.4h-1.8
				c0,3.9,3.2,7.2,7.2,7.2s7.2-3.2,7.2-7.2S102.9,2.4,99,2.4L99,2.4z"/>
		</g>
	</g>
</g>
</svg>
