<?xml version="1.0" encoding="utf-8"?>
<!-- Generator: Adobe Illustrator 20.1.0, SVG Export Plug-In . SVG Version: 6.00 Build 0)  -->
<svg version="1.1" xmlns="http://www.w3.org/2000/svg" xmlns:xlink="http://www.w3.org/1999/xlink" x="0px" y="0px" width="40px"
	 height="18px" viewBox="0 0 40 18" enable-background="new 0 0 40 18" xml:space="preserve">
<g id="Layer_1">
</g>
<g id="Layer_1_copy">
	<g>
		<g>
			<g id="XMLID_1_">
				<path id="XMLID_3_" fill="#CCCCCB" d="M10,6.6c-1.5,0-2.8,1.2-2.8,2.8s1.2,2.8,2.8,2.8s2.8-1.2,2.8-2.8
					C12.7,7.8,11.5,6.6,10,6.6z M10,8.5c-0.5,0-0.9,0.4-0.9,0.9c0,0.2-0.2,0.4-0.4,0.4c-0.2,0-0.4-0.2-0.4-0.4c0-1,0.8-1.7,1.7-1.7
					c0.2,0,0.4,0.2,0.4,0.4C10.4,8.3,10.2,8.5,10,8.5z"/>
				<path id="XMLID_2_" fill="#CCCCCB" d="M19.1,8.7C10.4-1.2,2.6,6.7,0.8,8.8c-0.2,0.3-0.3,0.7,0,1C9.3,19.8,17,12.3,19.1,10
					C19.4,9.6,19.4,9.1,19.1,8.7z M10,13.3C7.8,13.3,6,11.5,6,9.4S7.8,5.4,10,5.4s3.9,1.8,3.9,3.9S12.1,13.3,10,13.3z"/>
			</g>
		</g>
		<g>
		</g>
		<g>
		</g>
		<g>
		</g>
		<g>
		</g>
		<g>
		</g>
		<g>
		</g>
		<g>
		</g>
		<g>
		</g>
		<g>
		</g>
		<g>
		</g>
		<g>
		</g>
		<g>
		</g>
		<g>
		</g>
		<g>
		</g>
		<g>
		</g>
	</g>
	<g>
		<g>
			<g id="XMLID_4_">
				<path id="XMLID_6_" fill="#FFFFFF" d="M30,6.6c-1.5,0-2.8,1.2-2.8,2.8s1.2,2.8,2.8,2.8c1.5,0,2.8-1.2,2.8-2.8
					C32.8,7.8,31.6,6.6,30,6.6z M30,8.5c-0.5,0-0.9,0.4-0.9,0.9c0,0.2-0.2,0.4-0.4,0.4c-0.2,0-0.4-0.2-0.4-0.4c0-1,0.8-1.7,1.7-1.7
					c0.2,0,0.4,0.2,0.4,0.4C30.5,8.3,30.3,8.5,30,8.5z"/>
				<path id="XMLID_5_" fill="#FFFFFF" d="M39.1,8.7c-8.6-9.9-16.4-2.1-18.3,0.1c-0.2,0.3-0.3,0.7,0,1c8.5,9.9,16.3,2.5,18.3,0.1
					C39.5,9.6,39.5,9.1,39.1,8.7z M30,13.3c-2.2,0-3.9-1.8-3.9-3.9s1.8-3.9,3.9-3.9S34,7.2,34,9.4S32.2,13.3,30,13.3z"/>
			</g>
		</g>
		<g>
		</g>
		<g>
		</g>
		<g>
		</g>
		<g>
		</g>
		<g>
		</g>
		<g>
		</g>
		<g>
		</g>
		<g>
		</g>
		<g>
		</g>
		<g>
		</g>
		<g>
		</g>
		<g>
		</g>
		<g>
		</g>
		<g>
		</g>
		<g>
		</g>
	</g>
	<path fill="#FFFFFF" d="M23.1,16.1l0.6,0.6c0.1,0.1,0.3,0.1,0.4,0L37.9,2.9c0.1-0.1,0.1-0.3,0-0.4L37.2,2c-0.1-0.1-0.3-0.1-0.4,0
		L23.1,15.8C23,15.9,23,16,23.1,16.1z"/>
	<ellipse transform="matrix(0.4494 -0.8933 0.8933 0.4494 8.2609 31.3858)" fill="#FFFFFF" cx="29.6" cy="9" rx="2.6" ry="1.8"/>
</g>
</svg>
