<?xml version="1.0" encoding="utf-8"?>
<!-- Generator: Adobe Illustrator 20.1.0, SVG Export Plug-In . SVG Version: 6.00 Build 0)  -->
<svg version="1.1" id="Layer_1" xmlns="http://www.w3.org/2000/svg" xmlns:xlink="http://www.w3.org/1999/xlink" x="0px" y="0px"
	 width="140px" height="20px" viewBox="0 0 140 20" enable-background="new 0 0 140 20" xml:space="preserve">
<circle fill="#292625" cx="10" cy="10" r="10"/>
<circle fill="#292625" cx="29.9" cy="10" r="10"/>
<circle fill="#292625" cx="50" cy="10" r="10"/>
<circle fill="#292625" cx="70" cy="10" r="10"/>
<circle fill="#292625" cx="90" cy="10" r="10"/>
<circle fill="#292625" cx="110.1" cy="10" r="10"/>
<circle fill="#292625" cx="130" cy="10" r="10"/>
<g>
	<path fill="#E13374" d="M15.6,15.6l-3.3-3.4c0.9-1,1.3-2.3,1.3-3.6c0-3.1-2.5-5.6-5.6-5.6S2.4,5.5,2.4,8.6s2.5,5.6,5.6,5.6
		c1.2,0,2.3-0.4,3.2-1l3.3,3.5c0.1,0.1,0.3,0.2,0.5,0.2c0.2,0,0.4-0.1,0.5-0.2C15.9,16.4,15.9,15.9,15.6,15.6z M8,4.4
		c2.3,0,4.1,1.9,4.1,4.1s-1.9,4.1-4.1,4.1s-4.1-1.9-4.1-4.1S5.7,4.4,8,4.4z"/>
</g>
<g>
	<g>
		<path fill="#E13374" d="M31.5,6.1l2.7,2.7l-6.8,6.8l-2.7-2.7L31.5,6.1z M36.2,5.5L35,4.3c-0.5-0.5-1.2-0.5-1.7,0l-1.1,1.1l2.7,2.7
			l1.3-1.3C36.6,6.4,36.6,5.8,36.2,5.5z M23.4,16.6c0,0.2,0.1,0.4,0.4,0.4l3-0.7L24,13.6L23.4,16.6z"/>
	</g>
</g>
<g>
	<g>
		<g>
			<g>
				<path fill="#E13374" d="M47.6,5.8h4.8c0.1,0,0.3-0.1,0.3-0.3V3.4h-5.4v2.1C47.3,5.7,47.5,5.8,47.6,5.8z"/>
				<path fill="#E13374" d="M56.3,6.7l-2.7-2.7v1.6c0,0.6-0.5,1.1-1.1,1.1h-4.8c-0.6,0-1.1-0.5-1.1-1.1V3.4h-1.7
					c-0.7,0-1.2,0.5-1.2,1.2v10.6c0,0.7,0.5,1.2,1.2,1.2h10.6c0.7,0,1.2-0.5,1.2-1.2v-8C56.5,7,56.4,6.8,56.3,6.7z M54.5,13.7
					c0,0.4-0.3,0.7-0.7,0.7h-7.5c-0.4,0-0.7-0.3-0.7-0.7V10c0-0.4,0.3-0.7,0.7-0.7h7.5c0.4,0,0.7,0.3,0.7,0.7V13.7z"/>
				<path fill="#E13374" d="M53,10.5h-6c-0.2,0-0.4,0.2-0.4,0.4s0.2,0.4,0.4,0.4h6c0.2,0,0.4-0.2,0.4-0.4S53.2,10.5,53,10.5z"/>
				<path fill="#E13374" d="M52.1,12.2h-4.2c-0.2,0-0.4,0.2-0.4,0.4c0,0.2,0.2,0.4,0.4,0.4h4.2c0.2,0,0.4-0.2,0.4-0.4
					C52.6,12.4,52.4,12.2,52.1,12.2z"/>
			</g>
		</g>
	</g>
</g>
<g>
	<g>
		<g>
			<path fill="#E13374" d="M77.3,5.1C77.2,5,77.1,5,76.9,5c-0.1,0-0.2,0.1-0.4,0.2c-0.2,0.1-0.4,0.2-0.7,0.3
				c-0.2,0.1-0.5,0.2-0.8,0.3C74.7,5.9,74.5,6,74.2,6c-0.2,0-0.5,0-0.7-0.1c-0.6-0.3-1.2-0.5-1.6-0.7c-0.5-0.1-1-0.2-1.5-0.2
				c-0.9,0-2,0.3-3.1,0.9c-0.2,0.1-0.4,0.2-0.5,0.3l-0.1-0.8c0.3-0.2,0.4-0.5,0.4-0.9c0-0.7-0.5-1.2-1.2-1.2s-1.2,0.5-1.2,1.2
				c0,0.4,0.2,0.8,0.6,1l1.6,11.8c0,0.4,0.3,0.6,0.7,0.6c0,0,0.1,0,0.1,0c0.4-0.1,0.7-0.4,0.6-0.8l-0.6-4.7c1.2-0.6,2.2-0.9,3-0.9
				c0.4,0,0.7,0.1,1.1,0.2c0.3,0.1,0.6,0.2,0.9,0.4c0.2,0.1,0.5,0.2,0.8,0.4c0.3,0.1,0.6,0.2,0.9,0.2c0.8,0,1.7-0.3,2.7-0.9
				c0.1-0.1,0.2-0.1,0.3-0.2c0.1-0.1,0.1-0.2,0.1-0.3V5.5C77.4,5.3,77.4,5.2,77.3,5.1z"/>
		</g>
	</g>
</g>
<g>
	<g>
		<g>
			<path fill="#E13374" d="M95.9,5.1c-0.3-1.1-1.3-1.9-2.5-1.9h-1.6c0.2-0.1,0.3-0.3,0.3-0.5c0-0.3-0.2-0.5-0.5-0.5h-2.3
				c-0.3,0-0.5,0.2-0.5,0.5c0,0.2,0.1,0.4,0.3,0.5h-1.6c-1.2,0-2.2,0.8-2.5,1.9c-0.1,0.3,0.2,0.7,0.5,0.7h9.9
				C95.7,5.7,96,5.4,95.9,5.1z"/>
		</g>
	</g>
	<g>
		<g>
			<path fill="#E13374" d="M95.4,6.8h-9.9c-0.3,0-0.5,0.3-0.5,0.6l0.9,10.2c0,0.3,0.2,0.5,0.5,0.5h8.2c0.3,0,0.5-0.2,0.5-0.5
				l0.9-10.2C96,7,95.7,6.8,95.4,6.8z M88,16.3c-0.3,0-0.5-0.2-0.6-0.5L86.8,9c0-0.3,0.2-0.5,0.5-0.6c0.3,0,0.5,0.2,0.6,0.5l0.6,6.8
				C88.5,16,88.3,16.3,88,16.3z M91,15.8c0,0.3-0.2,0.5-0.5,0.5c-0.3,0-0.5-0.2-0.5-0.5V9c0-0.3,0.2-0.5,0.5-0.5S91,8.7,91,9V15.8z
				 M94.1,9l-0.6,6.8c0,0.3-0.3,0.5-0.6,0.5c-0.3,0-0.5-0.3-0.5-0.6l0.6-6.8c0-0.3,0.3-0.5,0.6-0.5C93.9,8.5,94.1,8.7,94.1,9z"/>
		</g>
	</g>
</g>
<path fill="#E13474" d="M130.2,3.9c-3.4,0-6.1,2.7-6.2,6.1h-1.9l2.8,3.1l2.8-3.1h-2.2c0.1-2.5,2.1-4.5,4.6-4.5
	c2.6,0,4.6,2.1,4.6,4.7s-2.1,4.7-4.6,4.7c-1,0-2-0.3-2.8-0.9l-1.1,1.1c1.1,0.8,2.4,1.3,3.8,1.3c3.4,0,6.2-2.8,6.2-6.2
	S133.6,3.9,130.2,3.9z"/>
<rect x="102.7" y="7.9" fill="#E13374" width="14.9" height="4.4"/>
</svg>
