<?xml version="1.0" encoding="utf-8"?>
<!-- Generator: Adobe Illustrator 20.1.0, SVG Export Plug-In . SVG Version: 6.00 Build 0)  -->
<svg version="1.1" id="Layer_1" xmlns="http://www.w3.org/2000/svg" xmlns:xlink="http://www.w3.org/1999/xlink" x="0px" y="0px"
	 width="380px" height="20px" viewBox="0 0 380 20" enable-background="new 0 0 380 20" xml:space="preserve">
<g id="Page-1">
	<g id="icon-111-search">
		<path id="search" fill="#676767" stroke="#676767" stroke-width="0.75" stroke-miterlimit="10" d="M12.2,13.9
			C11,14.7,9.6,15.2,8,15.2c-4,0-7.2-3.2-7.2-7.2S4.1,0.8,8,0.8S15.3,4,15.3,8c0,2-0.8,3.8-2.1,5.1l5.1,5.1c0.2,0.2,0.2,0.6,0,0.8
			c-0.2,0.2-0.6,0.2-0.8,0L12.2,13.9L12.2,13.9z M8,14.4c3.5,0,6.4-2.9,6.4-6.4S11.6,1.6,8,1.6S1.7,4.5,1.7,8S4.5,14.4,8,14.4
			L8,14.4z"/>
	</g>
</g>
<polygon fill="#676767" stroke="#676767" stroke-miterlimit="10" points="38.4,4.1 26.3,16.6 21.2,11 20.7,11.5 26.3,17.6 
	26.4,17.5 26.4,17.5 38.9,4.7 "/>
<g>
	
		<circle fill="none" stroke="#676767" stroke-width="1.5" stroke-linecap="round" stroke-linejoin="round" stroke-miterlimit="10" cx="49.6" cy="7.9" r="6.9"/>
	<path fill="none" stroke="#676767" stroke-width="1.5" stroke-linecap="round" stroke-linejoin="round" stroke-miterlimit="10" d="
		M51.8,2.7c1.4,0.5,2.5,1.6,3,2.9"/>
	
		<circle fill="none" stroke="#676767" stroke-width="1.5" stroke-linecap="round" stroke-linejoin="round" stroke-miterlimit="10" cx="49.6" cy="7.9" r="2.7"/>
	<path fill="none" stroke="#676767" stroke-width="1.5" stroke-linecap="round" stroke-linejoin="round" stroke-miterlimit="10" d="
		M54.2,18.7c0,0.2-0.1,0.4-0.4,0.4h-8.4c-0.2,0-0.4-0.1-0.4-0.4v-1.5c0-0.2,0.1-0.4,0.4-0.4h8.4c0.2,0,0.4,0.1,0.4,0.4V18.7z"/>
	
		<line fill="none" stroke="#676767" stroke-width="1.5" stroke-linecap="round" stroke-linejoin="round" stroke-miterlimit="10" x1="47.2" y1="16.5" x2="47.2" y2="14.7"/>
	
		<line fill="none" stroke="#676767" stroke-width="1.5" stroke-linecap="round" stroke-linejoin="round" stroke-miterlimit="10" x1="52" y1="16.5" x2="52" y2="14.7"/>
	
		<circle fill="none" stroke="#676767" stroke-width="1.5" stroke-linecap="round" stroke-linejoin="round" stroke-miterlimit="10" cx="49.6" cy="7.9" r="0.8"/>
</g>
<g>
	<path fill="#676767" stroke="#676767" stroke-width="0.5" stroke-miterlimit="10" d="M70.7,16.6l3.5-7.1l0.8,0.8l3.5-2.5l-0.4-0.5
		l-3,2.2L70,4.4l2.1-3L71.7,1l-2.5,3.4L70,5.2l-7.1,3.5l0,0.2c-0.2,3.2-0.5,6.7-2.2,8.5l-0.2,0.2l0.5,0.5l0,0l0.5,0.5l0,0l0.4,0.4
		l0.2-0.2c1.7-1.7,5.1-2,8.5-2.2L70.7,16.6z M62,18l4.4-4.4c0.4,0.2,0.8,0.1,1.1-0.2c0.4-0.4,0.4-1,0-1.4c-0.4-0.4-1-0.4-1.4,0
		c-0.3,0.3-0.4,0.8-0.2,1.1l-4.6,4.6l0,0c1.6-1.9,2-5.3,2.1-8.5l7-3.5L73.8,9l-3.5,7C67.1,16.1,63.9,16.5,62,18z"/>
	<rect x="63.1" y="18.8" fill="#676767" stroke="#676767" stroke-width="0.5" stroke-miterlimit="10" width="11.9" height="0.5"/>
</g>
<rect x="121.4" y="1.7" fill="none" width="27.1" height="27.1"/>
<polygon fill="none" stroke="#676767" stroke-width="1.2" stroke-miterlimit="10" points="89.9,1.9 92.1,7.6 98.1,7.9 93.4,11.8 
	95,17.6 89.9,14.3 84.8,17.6 86.3,11.8 81.6,7.9 87.7,7.6 "/>
<g>
	<path fill="#676767" stroke="#676767" stroke-miterlimit="10" d="M110.1,0.6c-1.9,0-3.3,1.6-3.3,3.5v6.5c0,1.9,1.5,3.5,3.3,3.5
		c1.9,0,3.3-1.6,3.3-3.5V4.1C113.5,2.2,112,0.6,110.1,0.6z M112.8,10.7c0,1.6-1.2,2.9-2.7,2.9s-2.7-1.3-2.7-2.9V4.1
		c0-1.6,1.2-2.9,2.7-2.9s2.7,1.3,2.7,2.9V10.7z"/>
	<path fill="#676767" stroke="#676767" stroke-miterlimit="10" d="M114.8,7.3v3.4c0,2.5-2.1,4.6-4.7,4.6s-4.7-2.1-4.7-4.6V7.3h-0.8
		v3.4c0,2.8,2.2,5.2,5.1,5.4v2.7h-3.1v0.8h6.8v-0.8h-2.9v-2.7c2.8-0.2,5-2.6,5-5.4V7.3H114.8z"/>
</g>
<g id="miu">
	<g id="Artboard-1" transform="translate(-431.000000, -119.000000)">
		<g id="slice" transform="translate(215.000000, 119.000000)">
		</g>
		<path id="circle-edit-pen-pencil-outline-stroke" fill="none" stroke="#676767" stroke-width="0.75" stroke-miterlimit="10" d="
			M561.2,138.2c5.1,0,9.3-4.2,9.3-9.3c0-5.1-4.2-9.3-9.3-9.3c-5.1,0-9.3,4.2-9.3,9.3C551.9,134,556.1,138.2,561.2,138.2L561.2,138.2
			z M561.2,137.4c4.7,0,8.5-3.8,8.5-8.5c0-4.7-3.8-8.5-8.5-8.5c-4.7,0-8.5,3.8-8.5,8.5C552.7,133.6,556.5,137.4,561.2,137.4
			L561.2,137.4z M562.3,125.1l-4.7,6l0,2l1.9-0.5l4.7-6l-0.6-0.5L559,132l-0.7,0.3l0.1-0.8l4.6-5.9L562.3,125.1L562.3,125.1z
			 M564.2,124c-0.3-0.3-1.1,0.1-1.1,0.1l-0.5,0.6l1.9,1.5l0.5-0.6c0,0,0.2-0.9-0.1-1.1L564.2,124L564.2,124z"/>
	</g>
</g>
<g id="miu_1_">
	<g id="Artboard-1_1_" transform="translate(-359.000000, -407.000000)">
		<g id="slice_1_" transform="translate(215.000000, 119.000000)">
		</g>
		<path id="common-logout-signout-exit-outline-stroke" fill="#676767" stroke="#676767" stroke-miterlimit="10" d="M499.6,407.6
			v18.6h12.7v-5.5h-0.8v4.6h-11v-16.9h11v4.6h0.8v-5.5H499.6z M514,413.9l0.6-0.6l3.6,3.6l-3.6,3.6l-0.6-0.6l2.6-2.6h-11v-0.8h11
			L514,413.9z"/>
	</g>
</g>
<path fill="#E13274" d="M177.7,1.9c0,0-0.6-0.4-1,0.1c-1.3,1.7-5.8,7.4-8,9.4c-1.9,1.8-3.5,0.8-4.3,0.1v0c0,0-0.4-0.4-1.3-0.1
	c0,0,0,0,0,0c-0.4,0.1-0.8,0.3-1.5,0.5c-0.9,0.3-1.2,1-1.2,1.6c0,0.2,0.1,1.2,0.7,1.9c1,1,3,2.1,5.1,2.3c2.4,0.3,3-0.8,3-0.8
	s1.5-2,2.9-4c0,0,0,0,0,0c1.2-1.7,2.6-2.6,2.6-2.6c0.1,0,0.2-0.1,0.2-0.1c0.2,0,1-0.2,1.1,0.9l0.4,6l0,0.1c0,0,0,0,0,0l0,0.1
	c0,0.2,0.1,0.4,0.4,0.4c0.3,0,0.4-0.4,0.4-0.5v-0.1c0.1-1.6,0.7-7.4,1.2-8.5C180.3,4.6,178.7,2.7,177.7,1.9z"/>
<g>
	<path fill="none" d="M177.1-2.8h25.8V23h-25.8V-2.8z"/>
	<path fill="#676767" d="M180.9,11.1h8.1V1h-8.1V11.1z M180.9,19.2h8.1v-6.1h-8.1V19.2z M191,19.2h8.1V9.1H191V19.2z M191,1v6.1h8.1
		V1H191z"/>
</g>
<g transform="translate(288 240)">
	<path fill="#676767" d="M-88-238.2v16.2h19.7v-16.2H-88z M-78.2-229.7l-7.7-7.2h15.3L-78.2-229.7z M-78.2-227.9l2.4-2.3l5.4,6.8
		H-86l5.4-6.8L-78.2-227.9L-78.2-227.9z M-69.6-224.4l-5.3-6.6l5.3-5V-224.4z M-81.5-231l-5.3,6.6V-236L-81.5-231z"/>
</g>
<g>
	<g>
		<path fill="#676767" d="M230,3.3c-6.3,0-9.5,6.8-9.5,6.8s2.4,6.8,9.5,6.8c6.4,0,9.5-6.8,9.5-6.8S236.4,3.3,230,3.3z M230,14.4
			c-2.3,0-4-1.9-4-4.3c0-2.4,1.7-4.3,4-4.3c2.3,0,4,1.9,4,4.3C234,12.6,232.3,14.4,230,14.4z M230,7.6c-1.3,0-2.4,1.2-2.4,2.6
			c0,1.4,1.1,2.6,2.4,2.6s2.4-1.2,2.4-2.6C232.4,8.8,231.3,7.6,230,7.6z"/>
	</g>
</g>
<g>
	<g id="layer1_1_" transform="translate(0,-540.36218)">
		<g id="g4305_1_">
			<g id="g4345_1_" transform="translate(28,-40.00001)">
				<g id="text2994_1_">
					<g id="g3830_1_" transform="translate(0,15.24359)">
						<g id="g3838_1_">
							<g id="g3785_1_">
								<path id="path3812_1_" fill="none" stroke="#676767" stroke-miterlimit="10" d="M242.4,567.4c-2.2,0-2.7,0.7-2.7,0.7
									l-0.6,1.7l-0.2,0.2h-0.8c0-0.3-0.5-0.5-1.1-0.5c-0.6,0-1.1,0.2-1.1,0.5c-1.1,0-1.9,0.5-2.2,1.1c-0.3,0.7-0.8,2.9-0.8,5.5
									c0,3.2,0.5,5.7,1.1,5.7h5.4c-1.3-1.1-2.2-3-2.2-5.1c0-3.4,2.3-6.2,5.2-6.2c2.8,0,5.2,2.8,5.2,6.2c0,2.1-0.9,3.9-2.2,5.1h4.8
									c0.6,0,1.1-2.6,1.1-5.7c0-2.6-0.5-4.9-0.8-5.5c-0.3-0.7-1.1-1.1-2.3-1.1h-2.5l-0.2-0.2l-0.6-1.7
									C245.1,568.1,244.6,567.4,242.4,567.4z M247.5,571.1h2.1l0.2,0.2v0.9l-0.2,0.2h-2.1l-0.2-0.2v-0.9L247.5,571.1z
									 M242.4,571.5c-0.8,0-1.5,0.2-2.2,0.6c0,0,0,0,0,0c0,0-0.1,0-0.1,0.1c0,0,0,0,0,0c-0.1,0.1-0.3,0.2-0.4,0.3c0,0,0,0,0,0
									c0,0-0.1,0-0.1,0.1c0,0,0,0,0,0c0,0-0.1,0.1-0.1,0.1c0,0,0,0,0,0c0,0,0,0,0,0c0,0-0.1,0.1-0.1,0.1c0,0,0,0,0,0c0,0,0,0,0,0
									c0,0,0,0,0,0c0,0-0.1,0.1-0.1,0.1c0,0,0,0,0,0c0,0-0.1,0.1-0.1,0.1c0,0,0,0,0,0c-0.1,0.1-0.2,0.2-0.2,0.3c0,0,0,0,0,0
									c-0.8,1-1.2,2.4-1.2,3.9c0,1.4,0.4,2.7,1.2,3.8c0,0,0.1,0.1,0.1,0.1c0.1,0.1,0.2,0.2,0.3,0.4c0,0,0,0,0,0.1c0,0,0,0,0,0
									c0,0,0.1,0.1,0.1,0.1c0,0,0,0,0,0c0,0,0,0,0,0c0,0,0,0,0,0c0,0,0,0,0.1,0.1c0,0,0.1,0,0.1,0.1c0,0,0,0,0,0c0,0,0,0,0,0
									c0,0,0.1,0.1,0.1,0.1c0,0,0,0,0,0c0,0,0.1,0.1,0.1,0.1c0,0,0.1,0.1,0.1,0.1c0,0,0.1,0.1,0.1,0.1c0.7,0.4,1.4,0.7,2.3,0.7
									c0.8,0,1.6-0.3,2.3-0.7c0,0,0.1-0.1,0.1-0.1c0,0,0.1-0.1,0.1-0.1c0,0,0.1-0.1,0.1-0.1c0,0,0,0,0,0c0,0,0.1-0.1,0.1-0.1
									c0,0,0,0,0,0c0,0,0,0,0,0c0,0,0.1,0,0.1-0.1c0,0,0,0,0.1-0.1c0,0,0,0,0.1-0.1c0,0,0.1-0.1,0.1-0.1c0,0,0,0,0,0
									c0,0,0,0,0-0.1c0-0.1,0.1-0.1,0.1-0.2c0,0,0.1-0.1,0.1-0.1c0,0,0.1-0.1,0.1-0.1c0,0,0.1-0.1,0.1-0.1
									c0.1-0.1,0.1-0.1,0.1-0.2c0-0.1,0.1-0.1,0.1-0.2c0.2-0.3,0.3-0.6,0.5-1c0,0,0-0.1,0-0.1c0.2-0.7,0.4-1.4,0.4-2.2
									c0-1.5-0.5-2.8-1.2-3.9c0,0,0,0,0,0c-0.1-0.1-0.1-0.1-0.2-0.2c-0.1-0.1-0.1-0.2-0.2-0.2c0,0-0.1-0.1-0.1-0.1c0,0,0,0,0,0
									c-0.1,0-0.1-0.1-0.2-0.1c0,0,0,0,0,0c0,0,0,0,0,0c0,0-0.1-0.1-0.1-0.1c-0.2-0.1-0.3-0.3-0.5-0.4c0,0-0.1,0-0.1-0.1
									C243.9,571.8,243.2,571.5,242.4,571.5z M242.4,573.6c1.7,0,3.1,1.6,3.1,3.7s-1.4,3.7-3.1,3.7s-3.1-1.6-3.1-3.7
									S240.7,573.6,242.4,573.6z"/>
							</g>
						</g>
					</g>
					<g id="layer1-4_1_" transform="translate(539.77941,-13.359245)">
						<g id="layer1-5_1_" transform="translate(-573.14286,170.28574)">
						</g>
					</g>
				</g>
			</g>
		</g>
	</g>
</g>
<g>
	<g id="Livello_98_1_">
		<path fill="none" stroke="#676767" stroke-miterlimit="10" d="M285.6,11.8c-2.6,0.1-4.7,2.2-4.9,4.9h2.5l0,0
			c0.1-1.7,0.9-3.4,2.1-4.6C285.3,12,285.5,11.9,285.6,11.8 M286.6,6.4c0-0.4,0-0.8,0.1-1.1c-0.3-0.2-0.6-0.3-1-0.3
			c-1.3,0-2.3,1.5-2.3,3.4c0,1.8,1,3.3,2.2,3.4c0.6-0.5,1.2-0.8,1.8-1.1c0.1-0.2,0.3-0.5,0.4-0.7C287.1,9.1,286.6,7.8,286.6,6.4
			 M293,6.3c0-2.4-1.3-4.3-3-4.3c-1.6,0-3,1.9-3,4.3c0,2.1,1.1,3.9,2.5,4.3c-3.2,0.3-5.7,2.9-5.9,6.2h12.8c-0.2-3.3-2.7-5.9-5.9-6.2
			C291.9,10.3,293,8.5,293,6.3 M296.7,8.5c0-1.9-1-3.4-2.3-3.4c-0.3,0-0.7,0.1-1,0.3c0.1,0.4,0.1,0.7,0.1,1.1c0,1.4-0.5,2.7-1.2,3.6
			c0.1,0.3,0.2,0.5,0.4,0.7c0.7,0.3,1.3,0.6,1.8,1.1C295.7,11.8,296.7,10.3,296.7,8.5 M299.4,16.8c-0.2-2.7-2.3-4.8-4.9-4.9
			c0.1,0.1,0.2,0.2,0.4,0.3c1.2,1.2,2,2.8,2.1,4.6l0,0L299.4,16.8L299.4,16.8z"/>
	</g>
	<g id="Livello_1_2_">
	</g>
</g>
<path fill="none" stroke="#676767" stroke-width="1.5" stroke-miterlimit="10" d="M318.1,9.1l-1.6-1.6V3.5c0-0.6-0.5-1.1-1.1-1.1
	h-1.1c-0.6,0-1.1,0.5-1.1,1.1v0.6L311,1.9c-0.3-0.3-0.6-0.6-1.1-0.6s-0.8,0.3-1.1,0.6l-7.1,7.1c-0.3,0.4-0.6,0.6-0.6,1.1
	c0,0.6,0.5,1.1,1.1,1.1h1.1v6.6c0,0.6,0.5,1.1,1.1,1.1h3.3v-5.5c0-0.6,0.5-1.1,1.1-1.1h2.2c0.6,0,1.1,0.5,1.1,1.1V19h3.3
	c0.6,0,1.1-0.5,1.1-1.1v-6.6h1.1c0.6,0,1.1-0.5,1.1-1.1C318.7,9.7,318.5,9.4,318.1,9.1z"/>
<g>
	<title></title>
	<desc></desc>
	<g id="TabBar-Icons_1_">
		<g id="Customers-Filled_1_">
			<path id="User_1_" fill="none" stroke="#676767" stroke-miterlimit="10" d="M250.2,9.5c2.3,0,4.1-1.9,4.1-4.1s-1.9-4.1-4.1-4.1
				S246,3,246,5.3S247.9,9.5,250.2,9.5L250.2,9.5z M259.6,18.5L259.6,18.5L259.6,18.5h-18.9c0.6-4.7,4.6-8.3,9.4-8.3
				S259,13.9,259.6,18.5L259.6,18.5z"/>
		</g>
	</g>
</g>
<g>
	<g>
		<path fill="#676767" d="M332.6,17.4c0,0.3-0.2,0.5-0.5,0.5h-3.7c-0.3,0-0.5-0.2-0.5-0.5c0-0.3,0.2-0.5,0.5-0.5h3.7
			C332.4,16.9,332.6,17.1,332.6,17.4z M332.2,18.1h-3.7c-0.3,0-0.5,0.3-0.4,0.6c0.1,0.2,0.3,0.3,0.5,0.3h0c0.3,0,0.5,0.1,0.6,0.4
			l0,0c0.2,0.3,0.5,0.5,0.8,0.5h0.7c0.4,0,0.7-0.2,0.8-0.5l0,0c0.1-0.2,0.4-0.4,0.6-0.4h0c0.2,0,0.4-0.1,0.5-0.3
			C332.7,18.4,332.5,18.1,332.2,18.1z M330.3,3.4c0.3,0,0.5-0.2,0.5-0.5V1.1c0-0.3-0.2-0.5-0.5-0.5c-0.3,0-0.5,0.2-0.5,0.5v1.8
			C329.9,3.2,330.1,3.4,330.3,3.4z M325.5,5.1c0.1,0.1,0.2,0.1,0.3,0.1c0.1,0,0.2,0,0.3-0.1c0.2-0.2,0.2-0.5,0-0.6l-1.3-1.3
			c-0.2-0.2-0.5-0.2-0.6,0c-0.2,0.2-0.2,0.5,0,0.6L325.5,5.1z M324.4,9.3c0-0.3-0.2-0.5-0.5-0.5h-1.8c-0.3,0-0.5,0.2-0.5,0.5
			c0,0.3,0.2,0.5,0.5,0.5h1.8C324.2,9.8,324.4,9.6,324.4,9.3z M325.5,13.6l-1.3,1.3c-0.2,0.2-0.2,0.5,0,0.6c0.1,0.1,0.2,0.1,0.3,0.1
			c0.1,0,0.2,0,0.3-0.1l1.3-1.3c0.2-0.2,0.2-0.5,0-0.6C325.9,13.4,325.6,13.4,325.5,13.6z M335.2,13.6c-0.2-0.2-0.5-0.2-0.6,0
			c-0.2,0.2-0.2,0.5,0,0.6l1.3,1.3c0.1,0.1,0.2,0.1,0.3,0.1s0.2,0,0.3-0.1c0.2-0.2,0.2-0.5,0-0.6L335.2,13.6z M338.6,8.9h-1.8
			c-0.3,0-0.5,0.2-0.5,0.5c0,0.3,0.2,0.5,0.5,0.5h1.8c0.3,0,0.5-0.2,0.5-0.5S338.9,8.9,338.6,8.9z M334.9,5.3c0.1,0,0.2,0,0.3-0.1
			l1.3-1.3c0.2-0.2,0.2-0.5,0-0.6s-0.5-0.2-0.6,0l-1.3,1.3c-0.2,0.2-0.2,0.5,0,0.6C334.6,5.2,334.8,5.3,334.9,5.3z M332.6,16.2
			c0,0.3-0.2,0.5-0.5,0.5h-3.7c-0.3,0-0.5-0.2-0.5-0.5c0-0.2,0.2-0.4,0.4-0.5c-0.3-2.6-3-3.2-3-6.2c0-2.7,2.2-4.8,4.8-4.8
			c2.7,0,4.8,2.2,4.8,4.8c0,3-2.7,3.6-3,6.2C332.4,15.8,332.6,16,332.6,16.2z M329.3,6c-0.1-0.2-0.3-0.3-0.4-0.2
			c-1.2,0.5-2.1,1.5-2.4,2.7c0,0.2,0.1,0.4,0.2,0.4c0,0,0.1,0,0.1,0c0.2,0,0.3-0.1,0.3-0.3c0.3-1,1-1.9,2-2.3
			C329.3,6.4,329.3,6.2,329.3,6z"/>
	</g>
</g>
<g>
	<polygon fill="#676767" points="350.6,1.4 354.4,3.8 354.4,18.6 350.6,18.6 	"/>
	<path fill="#676767" d="M354.6,12v6.5h4.6v-5.1L354.6,12z M356.6,17.1l-1.4-0.4v-1.2l1.4,0.5V17.1z M356.6,15l-1.4-0.4v-1.2
		l1.4,0.5V15z M358.4,17.7l-1.4-0.4V16l1.4,0.5V17.7z M358.4,15.5l-1.4-0.4v-1.2l1.4,0.5L358.4,15.5L358.4,15.5z"/>
	<path fill="#676767" d="M345.4,4.3v9.8l-0.7,0.4v-3.3l-0.4,0.2V8.2l-3.1,1.4v3.2l-0.3,0.1v5.8h9.2V1.3L345.4,4.3z M341.5,10.2
		l1-0.5V11l-1,0.5V10.2z M341.6,12.2l1-0.5V13l-1,0.5V12.2z M342.7,16.7l-1,0.5V16l1-0.5V16.7z M342.7,14.8l-1,0.5v-1.2l1-0.5V14.8z
		 M342.8,9.6l1-0.5v1.3l-1,0.5V9.6z M342.9,11.6l1-0.5v1.3l-1,0.5V11.6z M344.1,16.1l-1,0.5v-1.2l1-0.5V16.1z M344.1,14.2l-1,0.5
		v-1.2l1-0.5V14.2z M347.4,14.4l-1.4,0.9V14l1.4-0.9V14.4z M347.4,12.2l-1.4,0.9v-1.3l1.4-0.9V12.2z M347.4,9.9l-1.4,0.9V9.5
		l1.4-0.9V9.9z M347.4,7.6L346,8.5V7.2l1.4-0.9V7.6z M347.4,5.4L346,6.3V4.9l1.4-0.9V5.4z M349.6,13.1l-1.7,1.1v-1.4l1.7-1.1V13.1z
		 M349.6,10.8l-1.7,1.1v-1.4l1.7-1.1V10.8z M349.6,8.6l-1.7,1.1V8.2l1.7-1.1V8.6z M349.6,6.3l-1.7,1.1V6l1.7-1.1V6.3z M349.6,4
		l-1.7,1.1V3.7l1.7-1.1V4z"/>
</g>
<path fill="#676767" d="M378.2,8.4l-14.7-7.3c-0.4-0.2-0.9-0.5-1.3-0.5c-0.7,0-1.3,0.6-1.3,1.3v15.6c0,0.7,0.6,1.3,1.3,1.3
	c0.4,0,0.9-0.3,1.3-0.5l14.7-7.3c0.4-0.2,1-0.5,1-1.3S378.5,8.6,378.2,8.4z M363.5,15.5V4l11.5,5.7L363.5,15.5z"/>
</svg>
