<?xml version="1.0" encoding="utf-8"?>
<!-- Generator: Adobe Illustrator 20.1.0, SVG Export Plug-In . SVG Version: 6.00 Build 0)  -->
<svg version="1.1" id="Layer_1" xmlns="http://www.w3.org/2000/svg" xmlns:xlink="http://www.w3.org/1999/xlink" x="0px" y="0px"
	 width="24px" height="24px" viewBox="0 0 24 24" enable-background="new 0 0 24 24" xml:space="preserve">
<g>
	<g>
		<g id="Clip_1_">
			<g>
				<path fill="#FFFFFF" d="M21.3,3.4l-0.1-0.1c-2.3-2.2-6-2.2-8.3,0.1L2.3,13.9c-0.8,0.8-1.7,2.3-1.7,3.6c0,1.2,0.5,2.4,1.3,3.2
					c0.9,0.9,2,1.3,3.2,1.3h0c1.2,0,2.4-0.5,3.2-1.3l9.1-9.1c0.6-0.6,1-1.5,0.9-2.4c0-0.8-0.4-1.6-0.9-2.2c-0.6-0.6-1.4-0.9-2.3-0.9
					c-0.9,0-1.7,0.3-2.3,0.9l-7,7c-0.2,0.2-0.3,0.4-0.3,0.7c0,0.5,0.4,1,1,1c0.3,0,0.5-0.1,0.7-0.3l0,0l7-7C14.6,8.1,15,8,15.3,8
					c0.3,0,0.7,0.1,0.9,0.4c0.2,0.2,0.4,0.5,0.4,0.9c0,0.4-0.1,0.7-0.4,1l-9.1,9.1c-0.5,0.5-1.2,0.8-1.9,0.8h0
					c-0.7,0-1.4-0.3-1.9-0.8c-0.5-0.5-0.8-1.2-0.8-1.9c0-0.6,0.5-1.6,1.1-2.2L14.2,4.7c1.6-1.6,4.1-1.6,5.6,0L20,4.8
					c1.5,1.6,1.5,4.1-0.1,5.6l-8.8,8.8c-0.2,0.2-0.3,0.4-0.3,0.7c0,0.5,0.4,1,1,1c0.3,0,0.5-0.1,0.7-0.3l0,0l8.8-8.8
					C23.6,9.4,23.6,5.7,21.3,3.4z"/>
			</g>
		</g>
	</g>
	<g>
	</g>
	<g>
	</g>
	<g>
	</g>
	<g>
	</g>
	<g>
	</g>
	<g>
	</g>
	<g>
	</g>
	<g>
	</g>
	<g>
	</g>
	<g>
	</g>
	<g>
	</g>
	<g>
	</g>
	<g>
	</g>
	<g>
	</g>
	<g>
	</g>
</g>
</svg>
