<?xml version="1.0" encoding="utf-8"?>
<!-- Generator: Adobe Illustrator 22.1.0, SVG Export Plug-In . SVG Version: 6.00 Build 0)  -->
<svg version="1.1" id="Layer_1" xmlns="http://www.w3.org/2000/svg" xmlns:xlink="http://www.w3.org/1999/xlink" x="0px" y="0px"
	 width="68px" height="34px" viewBox="0 0 68 34" style="enable-background:new 0 0 68 34;" xml:space="preserve">
<style type="text/css">
	.st0{fill:#E33175;}
</style>
<g>
	<g>
		<g>
			<path class="st0" d="M65.3,13.5c0.6-0.6,0.8-1.5,0.6-2.3c-0.3-0.8-1-1.4-1.8-1.5l-7.4-1.1c-0.1,0-0.3-0.1-0.3-0.2L53,1.7
				c-0.4-0.8-1.1-1.2-2-1.2s-1.6,0.5-2,1.2l-3.3,6.7c-0.1,0.1-0.2,0.2-0.3,0.2L38,9.7c-0.8,0.1-1.5,0.7-1.8,1.5
				c-0.3,0.8,0,1.7,0.6,2.3l5.3,5.2c0.1,0.1,0.2,0.2,0.1,0.4L41,26.4c-0.1,0.8,0.2,1.7,0.9,2.2c0.7,0.5,1.6,0.6,2.3,0.2l6.6-3.5
				c0.1-0.1,0.3-0.1,0.4,0l6.6,3.5c0.3,0.2,0.7,0.3,1,0.3c0.5,0,0.9-0.1,1.3-0.4c0.7-0.5,1-1.3,0.9-2.2l-1.3-7.4
				c0-0.1,0-0.3,0.1-0.4L65.3,13.5z M58.1,19.4l1.3,7.4c0,0.2-0.1,0.4-0.2,0.4c-0.1,0-0.2,0.2-0.5,0l-6.6-3.5
				c-0.3-0.2-0.7-0.3-1-0.3c-0.4,0-0.7,0.1-1,0.3l-6.6,3.5c-0.2,0.1-0.4,0-0.5,0s-0.2-0.2-0.2-0.4l1.3-7.4c0.1-0.7-0.1-1.5-0.6-2
				l-5.3-5.2c-0.2-0.2-0.1-0.4-0.1-0.5c0-0.1,0.1-0.3,0.4-0.3l7.4-1.1c0.7-0.1,1.4-0.6,1.7-1.2l3.3-6.7c0.1-0.2,0.3-0.2,0.4-0.2
				c0.1,0,0.3,0,0.4,0.2v0l3.3,6.7c0.3,0.7,1,1.1,1.7,1.2l7.4,1.1c0.2,0,0.3,0.2,0.4,0.3c0,0.1,0.1,0.3-0.1,0.5l-5.3,5.2
				C58.2,17.9,57.9,18.7,58.1,19.4z"/>
		</g>
	</g>
	<g>
		<g>
			<path class="st0" d="M61.4,1.7c-0.4-0.3-1-0.2-1.2,0.2l-0.9,1.3c-0.3,0.4-0.2,1,0.2,1.2c0.2,0.1,0.3,0.2,0.5,0.2
				c0.3,0,0.5-0.1,0.7-0.4l0.9-1.3C61.9,2.5,61.8,2,61.4,1.7z"/>
		</g>
	</g>
	<g>
		<g>
			<path class="st0" d="M42.8,3.2l-0.9-1.3c-0.3-0.4-0.8-0.5-1.2-0.2c-0.4,0.3-0.5,0.8-0.2,1.2l0.9,1.3c0.2,0.2,0.4,0.4,0.7,0.4
				c0.2,0,0.4-0.1,0.5-0.2C43,4.1,43.1,3.6,42.8,3.2z"/>
		</g>
	</g>
	<g>
		<g>
			<path class="st0" d="M37.5,20.4c-0.2-0.5-0.7-0.7-1.1-0.6l-1.5,0.5c-0.5,0.2-0.7,0.7-0.6,1.1c0.1,0.4,0.5,0.6,0.8,0.6
				c0.1,0,0.2,0,0.3,0l1.5-0.5C37.3,21.4,37.6,20.9,37.5,20.4z"/>
		</g>
	</g>
	<g>
		<g>
			<path class="st0" d="M51.1,30.3c-0.5,0-0.9,0.4-0.9,0.9v1.6c0,0.5,0.4,0.9,0.9,0.9s0.9-0.4,0.9-0.9v-1.6
				C51.9,30.7,51.5,30.3,51.1,30.3z"/>
		</g>
	</g>
	<g>
		<g>
			<path class="st0" d="M67.3,20.3l-1.5-0.5c-0.5-0.2-1,0.1-1.1,0.6s0.1,1,0.6,1.1l1.5,0.5c0.1,0,0.2,0,0.3,0c0.4,0,0.7-0.2,0.8-0.6
				C68,21,67.8,20.5,67.3,20.3z"/>
		</g>
	</g>
	<g>
	</g>
	<g>
	</g>
	<g>
	</g>
	<g>
	</g>
	<g>
	</g>
	<g>
	</g>
	<g>
	</g>
	<g>
	</g>
	<g>
	</g>
	<g>
	</g>
	<g>
	</g>
	<g>
	</g>
	<g>
	</g>
	<g>
	</g>
	<g>
	</g>
</g>
<g>
	<g>
		<g>
			<path class="st0" d="M17,6.7c-4.9,0-8.9,4-8.9,8.9c0,3.2,1.6,6.2,4.2,8.1V30c0,0.1,0,0.1,0,0.2v0.1c0,0,0,0.1,0,0.1l2.2,3.3
				c0.1,0.2,0.3,0.3,0.5,0.3h3.7c0.2,0,0.4-0.1,0.5-0.3l2.2-3.3c0,0,0,0,0-0.1v-0.1c0-0.1,0-0.1,0-0.2v-6.4c2.6-1.9,4.2-4.9,4.2-8.1
				C25.8,10.7,21.9,6.7,17,6.7z M18.5,32.7h-3l-1.4-2h5.7L18.5,32.7z M13.6,29.4v-1.7h6.8l0,1.7H13.6z M20.7,22.8L20.7,22.8
				c-0.2,0.1-0.3,0.3-0.3,0.5v3.2h-6.8v-3.2c0-0.2-0.1-0.4-0.3-0.5c-2.4-1.6-3.9-4.3-3.9-7.2C9.5,11.3,13,8,17.2,8.2
				c4,0.1,7.3,3.4,7.4,7.4C24.6,18.5,23.1,21.2,20.7,22.8z"/>
		</g>
	</g>
	<g>
		<g>
			<path class="st0" d="M17.3,9.5c-0.3,0-0.6,0.3-0.6,0.6s0.3,0.6,0.6,0.6c2.6,0,4.7,2.1,4.7,4.7c0,0.3,0.3,0.6,0.6,0.6
				c0.3,0,0.6-0.3,0.6-0.6C23.3,12.2,20.6,9.5,17.3,9.5z"/>
		</g>
	</g>
	<g>
		<g>
			<path class="st0" d="M6.5,14.9H1.9c-0.3,0-0.6,0.3-0.6,0.6s0.3,0.6,0.6,0.6h4.5c0.3,0,0.6-0.3,0.6-0.6l0,0
				C7.1,15.2,6.8,14.9,6.5,14.9z"/>
		</g>
	</g>
	<g>
		<g>
			<path class="st0" d="M32.1,14.9h-4.5c-0.3,0-0.6,0.3-0.6,0.6s0.3,0.6,0.6,0.6h4.5c0.3,0,0.6-0.3,0.6-0.6S32.5,14.9,32.1,14.9z"/>
		</g>
	</g>
	<g>
		<g>
			<path class="st0" d="M10.1,22.6c-0.2-0.3-0.6-0.3-0.9-0.1c0,0,0,0-0.1,0.1v0l-3.2,3.2c-0.3,0.2-0.3,0.6-0.1,0.9s0.6,0.3,0.9,0.1
				c0,0,0,0,0.1-0.1l3.2-3.2C10.3,23.2,10.3,22.8,10.1,22.6z"/>
		</g>
	</g>
	<g>
		<g>
			<path class="st0" d="M28.1,4.4c-0.2-0.2-0.6-0.2-0.8,0l-3.2,3.2c-0.2,0.2-0.2,0.6,0,0.9c0.1,0.1,0.3,0.2,0.5,0.2l0,0
				c0.2,0,0.3-0.1,0.4-0.2l3.2-3.2C28.4,5,28.4,4.6,28.1,4.4z"/>
		</g>
	</g>
	<g>
		<g>
			<path class="st0" d="M28.3,25.9c0,0-0.1-0.1-0.1-0.1l-3.2-3.2c-0.2-0.3-0.6-0.3-0.9-0.1c-0.3,0.2-0.3,0.6-0.1,0.9
				c0,0,0,0,0.1,0.1l3.2,3.2c0.2,0.3,0.6,0.3,0.9,0.1S28.5,26.2,28.3,25.9z"/>
		</g>
	</g>
	<g>
		<g>
			<path class="st0" d="M10,7.6L6.8,4.4C6.5,4.2,6.1,4.2,5.9,4.5c-0.2,0.2-0.2,0.6,0,0.8l3.2,3.2C9.4,8.7,9.8,8.7,10,8.4
				C10.2,8.2,10.2,7.9,10,7.6z"/>
		</g>
	</g>
	<g>
		<g>
			<path class="st0" d="M17,0c-0.3,0-0.6,0.3-0.6,0.6v4.5c0,0.3,0.3,0.6,0.6,0.6c0,0,0,0,0,0c0.3,0,0.6-0.3,0.6-0.6V0.6
				C17.7,0.3,17.4,0,17,0z"/>
		</g>
	</g>
	<g>
	</g>
	<g>
	</g>
	<g>
	</g>
	<g>
	</g>
	<g>
	</g>
	<g>
	</g>
	<g>
	</g>
	<g>
	</g>
	<g>
	</g>
	<g>
	</g>
	<g>
	</g>
	<g>
	</g>
	<g>
	</g>
	<g>
	</g>
	<g>
	</g>
</g>
</svg>
