<?xml version="1.0" encoding="utf-8"?>
<!-- Generator: Adobe Illustrator 21.0.0, SVG Export Plug-In . SVG Version: 6.00 Build 0)  -->
<svg version="1.1" id="Layer_1" xmlns="http://www.w3.org/2000/svg" xmlns:xlink="http://www.w3.org/1999/xlink" x="0px" y="0px"
	 width="100px" height="50px" viewBox="0 0 100 50" style="enable-background:new 0 0 100 50;" xml:space="preserve">
<style type="text/css">
	.st0{fill:#FFFFFF;}
</style>
<g>
	<g>
		<path class="st0" d="M40.1,12c-1.1,0-2,0.3-2.9,0.8c-0.9-0.5-1.8-0.8-2.9-0.8c-3.2,0-5.8,2.6-5.8,5.8s2.6,5.8,5.8,5.8
			c1.1,0,2-0.3,2.9-0.8c0.9,0.5,1.8,0.8,2.9,0.8c3.2,0,5.8-2.6,5.8-5.8S43.3,12,40.1,12z M38.5,17.8c0,1.2-0.5,2.2-1.2,2.9
			c-0.8-0.7-1.2-1.8-1.2-2.9s0.5-2.2,1.2-2.9C38,15.6,38.5,16.6,38.5,17.8z M30.2,17.8c0-2.3,1.9-4.1,4.1-4.1c0.5,0,1,0.1,1.5,0.3
			c-0.9,1-1.5,2.4-1.5,3.8s0.6,2.8,1.5,3.8c-0.5,0.2-1,0.3-1.5,0.3C32.1,21.9,30.2,20,30.2,17.8z M40.1,21.9c-0.5,0-1-0.1-1.5-0.3
			c0.9-1,1.5-2.4,1.5-3.8s-0.6-2.8-1.5-3.8c0.5-0.2,1-0.3,1.5-0.3c2.3,0,4.1,1.9,4.1,4.1S42.4,21.9,40.1,21.9z"/>
		<path class="st0" d="M46.5,7H4c-1.9,0-3.5,1.6-3.5,3.5v29.3c0,1.9,1.6,3.5,3.5,3.5h42.5c1.9,0,3.5-1.6,3.5-3.5V10.5
			C50,8.6,48.4,7,46.5,7z M48.3,39.9c0,1-0.8,1.8-1.8,1.8H4c-1,0-1.8-0.8-1.8-1.8V10.5c0-1,0.8-1.8,1.8-1.8h42.5
			c1,0,1.8,0.8,1.8,1.8V39.9z"/>
		<path class="st0" d="M5.4,15.3h7.4c0.5,0,0.8-0.4,0.8-0.8c0-0.5-0.4-0.8-0.8-0.8H5.4c-0.5,0-0.8,0.4-0.8,0.8
			C4.6,14.9,5,15.3,5.4,15.3z"/>
		<path class="st0" d="M23.6,13.6h-7.4c-0.5,0-0.8,0.4-0.8,0.8c0,0.5,0.4,0.8,0.8,0.8h7.4c0.5,0,0.8-0.4,0.8-0.8
			C24.4,14,24.1,13.6,23.6,13.6z"/>
		<path class="st0" d="M5.4,19.4h0.8c0.5,0,0.8-0.4,0.8-0.8c0-0.5-0.4-0.8-0.8-0.8H5.4c-0.5,0-0.8,0.4-0.8,0.8
			C4.6,19,5,19.4,5.4,19.4z"/>
		<path class="st0" d="M9.6,17.8c-0.5,0-0.8,0.4-0.8,0.8c0,0.5,0.4,0.8,0.8,0.8h1.7c0.5,0,0.8-0.4,0.8-0.8c0-0.5-0.4-0.8-0.8-0.8
			H9.6z"/>
		<path class="st0" d="M16.2,18.6c0-0.5-0.4-0.8-0.8-0.8h-0.8c-0.5,0-0.8,0.4-0.8,0.8c0,0.5,0.4,0.8,0.8,0.8h0.8
			C15.8,19.4,16.2,19,16.2,18.6z"/>
		<path class="st0" d="M20.3,19.4c0.5,0,0.8-0.4,0.8-0.8c0-0.5-0.4-0.8-0.8-0.8h-1.6c-0.5,0-0.8,0.4-0.8,0.8c0,0.5,0.4,0.8,0.8,0.8
			H20.3z"/>
		<path class="st0" d="M23,18c-0.2,0.2-0.2,0.4-0.2,0.6c0,0.2,0.1,0.4,0.2,0.6c0.2,0.1,0.4,0.2,0.6,0.2s0.4-0.1,0.6-0.2
			c0.1-0.2,0.2-0.4,0.2-0.6s-0.1-0.4-0.2-0.6C23.9,17.7,23.3,17.7,23,18z"/>
		<path class="st0" d="M4.6,37.6h9.1V31H4.6V37.6z M6.3,32.6h5.8v3.3H6.3V32.6z"/>
		<path class="st0" d="M15.4,37.6h9.1V31h-9.1V37.6z M17,32.6h5.8v3.3H17V32.6z"/>
		<path class="st0" d="M26.1,37.6h9.1V31h-9.1V37.6z M27.7,32.6h5.8v3.3h-5.8V32.6z"/>
		<path class="st0" d="M36.8,37.6h9.1V31h-9.1V37.6z M38.5,32.6h5.8v3.3h-5.8V32.6z"/>
	</g>
	<g>
	</g>
	<g>
	</g>
	<g>
	</g>
	<g>
	</g>
	<g>
	</g>
	<g>
	</g>
	<g>
	</g>
	<g>
	</g>
	<g>
	</g>
	<g>
	</g>
	<g>
	</g>
	<g>
	</g>
	<g>
	</g>
	<g>
	</g>
	<g>
	</g>
</g>
<g>
	<g>
		<path class="st0" d="M90.2,25.8c-1.1-1.4-2.7-2.3-4.8-2.8c2.7-1.4,4-3.8,3.6-7.1c-0.1-1.2-0.4-2.3-1-3.2c-0.6-0.9-1.3-1.6-2.3-2.2
			c-1-0.5-2-1-3.1-1.2c-1.1-0.3-2.4-0.5-3.9-0.6v-7h-4.3v6.8c-0.7,0-1.9,0-3.4,0.1V1.7h-4.3v7c-0.6,0-1.5,0-2.7,0l-5.9,0v4.5h3.1
			c1.4,0,2.2,0.6,2.5,1.9V23c0.2,0,0.3,0,0.4,0h-0.4v11.1c-0.1,0.9-0.7,1.4-1.6,1.4h-3.1l-0.9,5.1h5.5c0.4,0,0.9,0,1.5,0
			c0.7,0,1.2,0,1.5,0v7h4.3v-7c0.8,0,1.9,0,3.4,0v6.9h4.3v-7c1.5-0.1,2.9-0.2,4-0.4c1.2-0.2,2.3-0.5,3.4-1c1.1-0.4,2-1,2.7-1.6
			c0.7-0.6,1.3-1.5,1.8-2.5c0.5-1,0.8-2.1,0.9-3.5C91.7,29.2,91.2,27.2,90.2,25.8z M71.1,13.5c0.1,0,0.5,0,1.1,0c0.6,0,1.1,0,1.5,0
			c0.4,0,0.9,0,1.6,0.1c0.7,0.1,1.2,0.1,1.7,0.2s1,0.2,1.5,0.5c0.6,0.2,1,0.5,1.3,0.8c0.3,0.3,0.6,0.7,0.8,1.2
			c0.2,0.5,0.3,1,0.3,1.6c0,0.5-0.1,1-0.2,1.4c-0.2,0.4-0.4,0.8-0.7,1.1c-0.3,0.3-0.7,0.5-1,0.7c-0.3,0.2-0.8,0.4-1.3,0.5
			c-0.5,0.1-1,0.2-1.4,0.3c-0.4,0.1-0.9,0.1-1.5,0.2c-0.6,0-1.1,0-1.4,0.1c-0.3,0-0.7,0-1.3,0c-0.5,0-0.9,0-1,0L71.1,13.5L71.1,13.5
			L71.1,13.5z M82.8,32.3c-0.2,0.4-0.4,0.8-0.7,1.1c-0.3,0.3-0.6,0.6-1.1,0.8c-0.5,0.2-0.9,0.4-1.3,0.6c-0.4,0.1-0.9,0.3-1.5,0.4
			c-0.6,0.1-1.1,0.2-1.6,0.2c-0.5,0-1,0.1-1.6,0.1c-0.6,0-1.1,0-1.5,0c-0.4,0-0.8,0-1.3,0c-0.5,0-0.9,0-1,0v-9.3c0.1,0,0.6,0,1.3,0
			c0.7,0,1.3,0,1.8,0c0.5,0,1.1,0,1.9,0.1c0.8,0.1,1.5,0.1,2,0.2c0.6,0.1,1.2,0.3,1.8,0.5c0.7,0.2,1.2,0.5,1.6,0.8
			c0.4,0.3,0.7,0.8,1,1.3c0.3,0.5,0.4,1.1,0.4,1.8C83,31.4,82.9,31.9,82.8,32.3z"/>
	</g>
	<g>
	</g>
	<g>
	</g>
	<g>
	</g>
	<g>
	</g>
	<g>
	</g>
	<g>
	</g>
	<g>
	</g>
	<g>
	</g>
	<g>
	</g>
	<g>
	</g>
	<g>
	</g>
	<g>
	</g>
	<g>
	</g>
	<g>
	</g>
	<g>
	</g>
</g>
</svg>
