<?xml version="1.0" encoding="utf-8"?>
<!-- Generator: Adobe Illustrator 21.0.0, SVG Export Plug-In . SVG Version: 6.00 Build 0)  -->
<svg version="1.1" xmlns="http://www.w3.org/2000/svg" xmlns:xlink="http://www.w3.org/1999/xlink" x="0px" y="0px" width="48.5px"
	 height="54.2px" viewBox="0 0 48.5 54.2" style="enable-background:new 0 0 48.5 54.2;" xml:space="preserve">
<style type="text/css">
	.st0{display:none;}
	.st1{display:inline;fill:#FFFFFF;}
	.st2{display:inline;}
	.st3{fill:#FFFFFF;}
	.st4{fill:#FCFCFC;}
	.st5{fill:#FAFAFA;}
	.st6{fill:#F7F7F7;}
	.st7{fill:#F5F4F5;}
	.st8{fill:#F2F2F2;}
	.st9{fill:#EFEFF0;}
	.st10{fill:#EDEDED;}
	.st11{fill:#EAEAEB;}
	.st12{fill:#E8E7E8;}
	.st13{fill:#E5E5E6;}
	.st14{fill:#E2E2E3;}
	.st15{fill:#E0DFE1;}
	.st16{fill:#DDDDDE;}
	.st17{fill:#DADADB;}
	.st18{fill:#D8D7D9;}
	.st19{fill:#D5D5D6;}
	.st20{fill:#D3D2D4;}
	.st21{fill:#D0CFD1;}
	.st22{fill:#CDCDCF;}
	.st23{fill:#CBCACC;}
	.st24{fill:#C8C8CA;}
	.st25{fill:#C6C5C7;}
	.st26{fill:#C3C2C5;}
	.st27{fill:#C0C0C2;}
	.st28{fill:#BEBDC0;}
	.st29{fill:#BBBABD;}
	.st30{fill:#B9B8BA;}
	.st31{fill:#B6B5B8;}
	.st32{fill:#B3B2B5;}
	.st33{fill:#B1B0B3;}
	.st34{fill:#AEADB0;}
	.st35{fill:#ABABAE;}
	.st36{fill:#A9A8AB;}
	.st37{fill:#A6A5A9;}
	.st38{fill:#A4A3A6;}
	.st39{fill:#A1A0A4;}
	.st40{fill:#9E9DA1;}
	.st41{fill:#9C9B9E;}
	.st42{fill:#99989C;}
	.st43{fill:#979599;}
	.st44{fill:#949397;}
	.st45{fill:#919094;}
	.st46{fill:#8F8E92;}
	.st47{fill:#8C8B8F;}
	.st48{fill:#8A888D;}
	.st49{fill:#666666;}
	.st50{display:inline;fill:url(#SVGID_1_);}
	.st51{display:inline;fill:none;}
	.st52{display:inline;fill:#C7B299;}
	.st53{display:none;opacity:0.3;fill:#919191;}
	.st54{display:none;fill:url(#SVGID_2_);}
	.st55{display:none;fill:url(#SVGID_3_);}
	.st56{fill:url(#SVGID_4_);}
	.st57{display:inline;fill:url(#SVGID_5_);}
	.st58{display:none;fill:url(#SVGID_6_);}
	.st59{display:inline;fill:url(#SVGID_7_);}
	.st60{display:none;fill:url(#SVGID_8_);}
	.st61{display:none;fill:url(#SVGID_9_);}
	.st62{fill:url(#SVGID_10_);}
	.st63{fill:url(#SVGID_11_);}
	.st64{fill:url(#SVGID_12_);}
	.st65{fill:url(#SVGID_13_);}
	.st66{fill:url(#SVGID_14_);}
	.st67{fill:url(#SVGID_15_);}
	.st68{fill:url(#SVGID_16_);}
</style>
<g id="Capa_6" class="st0">
	<rect class="st1" width="800" height="800"/>
</g>
<g id="Layer_3" class="st0">
	<g class="st2">
		<path class="st3" d="M117.6,55.2h573.8l0.4,519.4c0,0,12.2,84.7-54.4,149.5c-72,70.1-256,44.6-256,44.6l-263.9,1.8V55.2z"/>
		<path class="st4" d="M117.6,55.2h573.8l-1.2,519c0,0,11.9,84.1-54.5,148.5c-71.6,69.5-254,44.8-254,44.8l-264.1,3V55.2z"/>
		<path class="st5" d="M117.6,55.2h573.8l-2.8,518.6c0,0,11.6,83.5-54.7,147.5c-71.1,68.8-252.1,45-252.1,45l-264.2,4.2V55.2z"/>
		<path class="st6" d="M117.6,55.2h573.8L687,573.4c0,0,11.2,82.8-54.8,146.5C561.6,788,382,765.1,382,765.1l-264.4,5.4V55.2z"/>
		<path class="st7" d="M117.6,55.2h573.8l-6,517.8c0,0,10.9,82.2-55,145.5c-70.1,67.5-248.2,45.4-248.2,45.4l-264.6,6.6V55.2z"/>
		<path class="st8" d="M117.6,55.2h573.8l-7.6,517.4c0,0,10.6,81.6-55.1,144.5c-69.6,66.8-246.2,45.6-246.2,45.6l-264.8,7.8V55.2z"
			/>
		<path class="st9" d="M117.6,55.2h573.8l-9.2,517c0,0,10.3,80.9-55.3,143.5c-69.1,66.2-244.3,45.8-244.3,45.8l-265,9V55.2z"/>
		<path class="st10" d="M117.6,55.2h573.8l-10.8,516.6c0,0,10,80.3-55.4,142.5c-68.6,65.5-242.3,46-242.3,46l-265.2,10.3V55.2z"/>
		<path class="st11" d="M117.6,55.2h573.8l-12.5,516.2c0,0,9.7,79.7-55.6,141.5C555.2,777.8,383,759.1,383,759.1l-265.4,11.5V55.2z"
			/>
		<path class="st12" d="M117.6,55.2h573.8L677.3,571c0,0,9.4,79-55.7,140.5c-67.6,64.2-238.5,46.4-238.5,46.4l-265.5,12.7V55.2z"/>
		<path class="st13" d="M117.6,55.2h573.8l-15.7,515.4c0,0,9.1,78.4-55.9,139.5c-67.1,63.6-236.5,46.6-236.5,46.6l-265.7,13.9V55.2z
			"/>
		<path class="st14" d="M117.6,55.2h573.8l-17.3,515c0,0,8.8,77.7-56,138.5c-66.7,62.9-234.6,46.8-234.6,46.8l-265.9,15.1V55.2z"/>
		<path class="st15" d="M117.6,55.2h573.8l-18.9,514.6c0,0,8.5,77.1-56.2,137.5c-66.2,62.2-232.6,47-232.6,47l-266.1,16.3V55.2z"/>
		<path class="st16" d="M117.6,55.2h573.8l-20.5,514.2c0,0,8.1,76.3-56.3,136.5C548.8,767.3,383.9,753,383.9,753l-266.3,17.5V55.2z"
			/>
		<path class="st17" d="M117.6,55.2h573.8L669.3,569c0,0,7.8,75.7-56.5,135.5c-65.3,60.8-228.7,47.3-228.7,47.3l-266.5,18.7V55.2z"
			/>
		<path class="st18" d="M117.6,55.2h573.8l-23.7,513.4c0,0,7.4,75.1-56.6,134.5c-64.8,60.1-226.8,47.5-226.8,47.5l-266.7,19.9V55.2z
			"/>
		<path class="st19" d="M117.6,55.2h573.8l-25.4,513c0,0,7.1,74.4-56.8,133.4c-64.3,59.5-224.8,47.7-224.8,47.7l-266.9,21.1V55.2z"
			/>
		<path class="st20" d="M117.6,55.2h573.8l-27,512.6c0,0,6.8,73.8-56.9,132.4c-63.9,58.8-222.9,47.9-222.9,47.9l-267,22.3V55.2z"/>
		<path class="st21" d="M117.6,55.2h573.8l-28.6,512.3c0,0,6.5,73.1-57.1,131.4C542.4,757,384.8,747,384.8,747l-267.2,23.5V55.2z"/>
		<path class="st22" d="M117.6,55.2h573.8L661.2,567c0,0,6.2,72.5-57.2,130.4c-62.9,57.5-219,48.3-219,48.3l-267.4,24.7V55.2z"/>
		<path class="st23" d="M117.6,55.2h573.8l-31.8,511.5c0,0,5.9,71.8-57.4,129.4c-62.4,56.8-217,48.5-217,48.5l-267.6,25.9V55.2z"/>
		<path class="st24" d="M117.6,55.2h573.8L658,566.3c0,0,5.6,71.2-57.5,128.4c-61.9,56.2-215.1,48.7-215.1,48.7l-267.8,27.1V55.2z"
			/>
		<path class="st25" d="M117.6,55.2h573.8l-35,510.7c0,0,5.3,70.6-57.6,127.4c-61.4,55.5-213.1,48.9-213.1,48.9l-268,28.3V55.2z"/>
		<path class="st26" d="M117.6,55.2h573.8l-36.6,510.3c0,0,5,69.9-57.8,126.4C536,746.7,385.8,741,385.8,741l-268.2,29.5V55.2z"/>
		<path class="st27" d="M117.6,55.2h573.8l-38.3,509.9c0,0,4.7,69.3-57.9,125.4C534.8,744.7,386,739.8,386,739.8l-268.4,30.8V55.2z"
			/>
		<path class="st28" d="M117.6,55.2h573.8l-39.9,509.5c0,0,4.3,68.6-58.1,124.4c-59.9,53.5-207.3,49.5-207.3,49.5l-268.5,32V55.2z"
			/>
		<path class="st29" d="M117.6,55.2h573.8l-41.5,509.1c0,0,4,68-58.2,123.4c-59.5,52.9-205.3,49.7-205.3,49.7l-268.7,33.2V55.2z"/>
		<path class="st30" d="M117.6,55.2h573.8l-43.1,508.7c0,0,3.7,67.4-58.4,122.4c-59,52.2-203.4,49.9-203.4,49.9l-268.9,34.4V55.2z"
			/>
		<path class="st31" d="M117.6,55.2h573.8l-44.7,508.3c0,0,3.4,66.7-58.5,121.4c-58.5,51.6-201.5,50.1-201.5,50.1l-269.1,35.6V55.2z
			"/>
		<path class="st32" d="M117.6,55.2h573.8l-46.3,507.9c0,0,3.1,66.1-58.7,120.4c-58,50.9-199.5,50.3-199.5,50.3l-269.3,36.8V55.2z"
			/>
		<path class="st33" d="M117.6,55.2h573.8l-47.9,507.5c0,0,2.8,65.5-58.8,119.4c-57.5,50.3-197.6,50.5-197.6,50.5l-269.5,38V55.2z"
			/>
		<path class="st34" d="M117.6,55.2h573.8l-49.5,507.1c0,0,2.5,64.8-59,118.4c-57,49.6-195.6,50.6-195.6,50.6l-269.7,39.2V55.2z"/>
		<path class="st35" d="M117.6,55.2h573.8l-51.1,506.7c0,0,2.2,64.2-59.1,117.4c-56.5,48.9-193.7,50.8-193.7,50.8l-269.9,40.4V55.2z
			"/>
		<path class="st36" d="M117.6,55.2h573.8l-52.8,506.3c0,0,1.9,63.6-59.3,116.4c-56,48.3-191.7,51-191.7,51l-270,41.6V55.2z"/>
		<path class="st37" d="M117.6,55.2h573.8L637,561.1c0,0,1.6,62.9-59.4,115.3c-55.5,47.6-189.8,51.2-189.8,51.2l-270.2,42.8V55.2z"
			/>
		<path class="st38" d="M117.6,55.2h573.8l-56,505.6c0,0,1.3,62.3-59.6,114.3c-55,47-187.8,51.4-187.8,51.4l-270.4,44V55.2z"/>
		<path class="st39" d="M117.6,55.2h573.8l-57.6,505.2c0,0,1,61.7-59.7,113.3c-54.5,46.3-185.9,51.6-185.9,51.6l-270.6,45.2V55.2z"
			/>
		<path class="st40" d="M117.6,55.2h573.8l-59.2,504.8c0,0,0.7,61.1-59.9,112.3c-54,45.7-183.9,51.8-183.9,51.8l-270.8,46.4V55.2z"
			/>
		<path class="st41" d="M117.6,55.2h573.8l-60.8,504.4c0,0,0.4,60.4-60,111.3c-53.5,45.1-182,52-182,52l-271,47.6V55.2z"/>
		<path class="st42" d="M117.6,55.2h573.8l-62.4,504c0,0,0.2,59.9-60.2,110.3c-52.9,44.5-180,52.2-180,52.2l-271.2,48.8V55.2z"/>
		<path class="st43" d="M117.6,55.2h573.8l-64,503.6c0,0-0.1,59.3-60.3,109.3C514.6,711.9,389,720.5,389,720.5l-271.3,50V55.2z"/>
		<path class="st44" d="M117.6,55.2h573.8l-65.7,503.2c0,0-0.4,58.6-60.5,108.3c-51.9,43.2-176.1,52.6-176.1,52.6l-271.5,51.3V55.2z
			"/>
		<path class="st45" d="M117.6,55.2h573.8L624.1,558c0,0-0.7,58-60.6,107.3c-51.5,42.5-174.2,52.8-174.2,52.8l-271.7,52.5V55.2z"/>
		<path class="st46" d="M117.6,55.2h573.8l-68.9,502.4c0,0-1,57.4-60.8,106.3c-51,41.9-172.2,53-172.2,53l-271.9,53.7V55.2z"/>
		<path class="st47" d="M117.6,55.2h573.8l-70.5,502c0,0-1.3,56.7-60.9,105.3c-50.5,41.2-170.3,53.2-170.3,53.2l-272.1,54.9V55.2z"
			/>
		<path class="st48" d="M117.6,55.2h573.8l-72.1,501.6c0,0-1.6,56.1-61.1,104.3c-50,40.6-168.3,53.4-168.3,53.4l-272.3,56.1V55.2z"
			/>
		<path class="st49" d="M117.6,55.2h573.8l-73.7,501.2c0,0-1.9,55.5-61.2,103.3c-49.5,39.9-166.4,53.6-166.4,53.6l-272.5,57.3V55.2z
			"/>
	</g>
</g>
<g id="Layer_2" class="st0">
	
		<image style="display:inline;overflow:visible;" width="2396" height="2982" xlink:href="CAF00CC174D99B7B.png"  transform="matrix(0.24 0 0 0.24 117.04 53.2)">
	</image>
	<linearGradient id="SVGID_1_" gradientUnits="userSpaceOnUse" x1="546.9632" y1="676.5429" x2="610.0809" y2="792.5782">
		<stop  offset="0" style="stop-color:#FFFFFF"/>
		<stop  offset="1" style="stop-color:#F0DEBE"/>
	</linearGradient>
	<path class="st50" d="M396.7,769.1c0,0,162.6-14.7,173.1-111.3c0,0,75.6-24.9,121.4-84.6C691.3,573.2,679.8,777.3,396.7,769.1z"/>
</g>
<g id="Layer_4" class="st0">
	<path class="st51" d="M297,768.1c0,0,84.3,1.8,102.6,0.6c30.8-1.9,70.2-12.2,117.3-38.9c48.5-27.4,52-72,52-72s44-17.6,63.4-31.2
		c34.4-24.2,58-53.3,58-53.3"/>
	<path class="st52" d="M295.6,768.4c26.4,0.6,52.7,1,79.1,1c14.5,0,28.7-0.3,43-2.6c18.3-2.9,36.3-8.3,53.6-14.9
		c13.3-5.1,26.2-11.2,38.7-17.9c11.4-6.1,22.1-12.8,31.5-21.8c12.2-11.6,21.3-26.5,26.1-42.6c1.1-3.7,2-7.4,2.5-11.2
		c0.3-2,3.7-2.4,5.5-3.2c17.1-7.1,34.2-14.7,50.2-24c16.8-9.8,31.9-23.2,45.8-36.7c7-6.9,14-14,20.2-21.6c-0.5,0.6-2.3,0.1-2.8,0.7
		c-9.2,11.3-19.8,21.7-30.6,31.4c-9.6,8.7-19.8,17.1-30.7,24.1c-8.3,5.4-17.3,9.8-26.3,14.1c-8.2,4-16.6,7.7-25,11.2
		c-1,0.4-8.8,2.8-8.9,3.9c-0.9,9.4-4.5,18.8-8.6,27.2c-9.4,19-25,34.1-43.3,44.6c-26.1,15-54.5,27.3-83.9,33.8
		c-31.9,7-65.2,4.8-97.6,4.3c-11.9-0.2-23.8-0.4-35.6-0.6C297.5,767.7,296.5,768.5,295.6,768.4L295.6,768.4z"/>
</g>
<g id="Layer_1">
	<polygon class="st53" points="385,53.4 692.3,342.2 685.1,205.2 517.9,55.3 	"/>
	<linearGradient id="SVGID_2_" gradientUnits="userSpaceOnUse" x1="337.9457" y1="15.1588" x2="336.0331" y2="69.6686">
		<stop  offset="5.347590e-03" style="stop-color:#B81E22"/>
		<stop  offset="0.2353" style="stop-color:#A32D32"/>
		<stop  offset="0.5455" style="stop-color:#EE4333"/>
		<stop  offset="0.6631" style="stop-color:#CB242B"/>
		<stop  offset="0.7807" style="stop-color:#E61A4A"/>
		<stop  offset="0.9305" style="stop-color:#AC2A31"/>
	</linearGradient>
	<path class="st54" d="M341.2,26.5c0,0-33-3.5-61.2,27.1h113.2C393.2,53.6,376.1,27,341.2,26.5z"/>
	<linearGradient id="SVGID_3_" gradientUnits="userSpaceOnUse" x1="713.3134" y1="368.6075" x2="683.668" y2="368.6075">
		<stop  offset="5.347590e-03" style="stop-color:#B81E22"/>
		<stop  offset="0.2353" style="stop-color:#A32D32"/>
		<stop  offset="0.5455" style="stop-color:#EE4333"/>
		<stop  offset="0.6631" style="stop-color:#CB242B"/>
		<stop  offset="0.7807" style="stop-color:#E61A4A"/>
		<stop  offset="0.9305" style="stop-color:#AC2A31"/>
	</linearGradient>
	<path class="st55" d="M711.2,364.9c0,0,1.9,25.3-18.9,38.7l0-70C692.2,333.6,708,343.3,711.2,364.9z"/>
	
		<linearGradient id="SVGID_4_" gradientUnits="userSpaceOnUse" x1="671.4893" y1="-380.5259" x2="579.0818" y2="-327.3753" gradientTransform="matrix(1.631450e-03 -1 -1 -1.631450e-03 -346.1917 680.6199)">
		<stop  offset="0" style="stop-color:#C4C4C4"/>
		<stop  offset="0.3279" style="stop-color:#FFFFFF"/>
		<stop  offset="1" style="stop-color:#F1F1F1"/>
	</linearGradient>
	<path class="st56" d="M53.2,55.8C39.7,41.3,0.4-1-2.1-3.8c-3.1-3.4-6.6-3.9-6.6-3.9l24.4,0.1c0,0,1.9-0.3,6.1,4.1
		c3.3,3.5,24,26.6,32.4,36c2.2,2.4,3.5,6.3,3.5,8.9c0,2.5,0,23.5,0,23.5S57.9,60.9,53.2,55.8z"/>
	<path class="st53" d="M117.7,500.5v32.6c-2.3,2.2-3.5,4.9-2.6,8.6c-4.9-4.3-15.6-11.4-15.2-20.4
		C100.3,512.4,110.1,505.2,117.7,500.5z"/>
	<g class="st0">
		
			<linearGradient id="SVGID_5_" gradientUnits="userSpaceOnUse" x1="-962.0305" y1="651.8387" x2="-961.066" y2="573.2069" gradientTransform="matrix(-1 0 0 1 -727.1738 0)">
			<stop  offset="0" style="stop-color:#FFFFFF"/>
			<stop  offset="1" style="stop-color:#000000"/>
		</linearGradient>
		<path class="st57" d="M243.6,584.5c0,0,1.3,7.9-11,23.7c-6.5,8.6-11,22.5-6.5,32.6c4.1,9.1,15.7,15.2,16.4,14.5
			C229.9,636.6,248.4,594.4,243.6,584.5z"/>
	</g>
	<path class="st53" d="M241.1,578.8c-11.4-13.2-29.2-9.3-51.9-12.8c-34.5-5.4-63.1-19.6-75.6-27.7c-8.8-5.6-13.5-12.5-13.1-20.6
		c-2.6,7.2-10.7,37.5,6.4,51.2c22.2,17.8,63.9,26.2,94.2,29.8c9.4,1.1,21.8,4.3,31.5,9.5C240.3,598,249.6,588.7,241.1,578.8z"/>
	<path class="st53" d="M480.3,711.2c-1.4-7-6.3-19.8-8.3-28.5c-0.4-1.9,17.7-13,42.4-22.2c-12-6.8-29.9-10.5-43.3-11.7
		c-29.5-2.5-38.2-1.7-61-0.9c-15.2,0.5-45.3,4.6-64.4,7.9c-34.5,5.9-57.2,6.7-73.5,5c-8.5-0.8-68.1-5.3-40.1-51.9
		c-18.8,26-3.6,51.8,0.2,59.9c8.5,18.1,28.8,24,46.7,26c53.6,6.2,72.6-0.2,88.1,0.3c41.3,1.5,83,8.9,115.8,35.3
		C481.6,721.2,482.1,720.4,480.3,711.2z"/>
	
		<linearGradient id="SVGID_6_" gradientUnits="userSpaceOnUse" x1="-880.0719" y1="472.9991" x2="-839.4117" y2="517.7763" gradientTransform="matrix(-1 0 0 1 -727.1738 0)">
		<stop  offset="5.347590e-03" style="stop-color:#6B1719"/>
		<stop  offset="1.847329e-02" style="stop-color:#851419"/>
		<stop  offset="3.737523e-02" style="stop-color:#A31018"/>
		<stop  offset="5.822060e-02" style="stop-color:#BD0D18"/>
		<stop  offset="8.137266e-02" style="stop-color:#D00B17"/>
		<stop  offset="0.1081" style="stop-color:#DE0917"/>
		<stop  offset="0.1416" style="stop-color:#E60817"/>
		<stop  offset="0.2032" style="stop-color:#E80817"/>
		<stop  offset="0.3636" style="stop-color:#A32D32"/>
		<stop  offset="0.5455" style="stop-color:#EE4333"/>
		<stop  offset="0.6631" style="stop-color:#CB242B"/>
		<stop  offset="0.7807" style="stop-color:#E61A4A"/>
		<stop  offset="0.9305" style="stop-color:#AC2A31"/>
	</linearGradient>
	<path class="st58" d="M118.3,493.9v32.6c-2.3,2.2-3.5,4.9-2.6,8.6c-4.9-4.3-15.6-11.4-15.2-20.4
		C100.9,505.7,110.8,498.6,118.3,493.9z"/>
	<g class="st0">
		
			<linearGradient id="SVGID_7_" gradientUnits="userSpaceOnUse" x1="-962.0305" y1="647.1335" x2="-961.066" y2="568.5018" gradientTransform="matrix(-1 0 0 1 -727.1738 0)">
			<stop  offset="5.347590e-03" style="stop-color:#6B1719"/>
			<stop  offset="1.847329e-02" style="stop-color:#851419"/>
			<stop  offset="3.737523e-02" style="stop-color:#A31018"/>
			<stop  offset="5.822060e-02" style="stop-color:#BD0D18"/>
			<stop  offset="8.137266e-02" style="stop-color:#D00B17"/>
			<stop  offset="0.1081" style="stop-color:#DE0917"/>
			<stop  offset="0.1416" style="stop-color:#E60817"/>
			<stop  offset="0.2032" style="stop-color:#E80817"/>
			<stop  offset="0.3636" style="stop-color:#A32D32"/>
			<stop  offset="0.5455" style="stop-color:#EE4333"/>
			<stop  offset="0.6631" style="stop-color:#CB242B"/>
			<stop  offset="0.7807" style="stop-color:#E61A4A"/>
			<stop  offset="0.9305" style="stop-color:#AC2A31"/>
		</linearGradient>
		<path class="st59" d="M243.6,579.8c0,0,1.3,7.9-11,23.7c-6.5,8.6-11,22.5-6.5,32.6c4.1,9.1,15.7,15.2,16.4,14.5
			C229.9,631.9,248.4,589.7,243.6,579.8z"/>
	</g>
	
		<linearGradient id="SVGID_8_" gradientUnits="userSpaceOnUse" x1="1716.9635" y1="-81.9083" x2="1877.6775" y2="-81.9083" gradientTransform="matrix(0.9175 0.3978 -0.3978 0.9175 -1516.2722 -74.296)">
		<stop  offset="5.347590e-03" style="stop-color:#6B1719"/>
		<stop  offset="1.847329e-02" style="stop-color:#851419"/>
		<stop  offset="3.737523e-02" style="stop-color:#A31018"/>
		<stop  offset="5.822060e-02" style="stop-color:#BD0D18"/>
		<stop  offset="8.137266e-02" style="stop-color:#D00B17"/>
		<stop  offset="0.1081" style="stop-color:#DE0917"/>
		<stop  offset="0.1416" style="stop-color:#E60817"/>
		<stop  offset="0.2032" style="stop-color:#E80817"/>
		<stop  offset="0.3636" style="stop-color:#A32D32"/>
		<stop  offset="0.5455" style="stop-color:#EE4333"/>
		<stop  offset="0.6631" style="stop-color:#CB242B"/>
		<stop  offset="0.7807" style="stop-color:#E61A4A"/>
		<stop  offset="0.9305" style="stop-color:#AC2A31"/>
	</linearGradient>
	<path class="st60" d="M241.1,574.1c-11.4-13.2-29.2-9.3-51.9-12.8c-34.5-5.4-63.1-19.7-75.6-27.7c-8.8-5.6-13.5-12.5-13.1-20.6
		c-2.6,7.2-10.7,37.5,6.4,51.2c22.2,17.8,63.9,26.2,94.2,29.8c9.4,1.1,21.8,4.3,31.5,9.5C240.3,593.3,249.6,584,241.1,574.1z"/>
	
		<linearGradient id="SVGID_9_" gradientUnits="userSpaceOnUse" x1="1894.642" y1="-58.8491" x2="2123.4546" y2="-82.3832" gradientTransform="matrix(0.9175 0.3978 -0.3978 0.9175 -1516.2722 -74.296)">
		<stop  offset="5.347590e-03" style="stop-color:#6B1719"/>
		<stop  offset="1.847329e-02" style="stop-color:#851419"/>
		<stop  offset="3.737523e-02" style="stop-color:#A31018"/>
		<stop  offset="5.822060e-02" style="stop-color:#BD0D18"/>
		<stop  offset="8.137266e-02" style="stop-color:#D00B17"/>
		<stop  offset="0.1081" style="stop-color:#DE0917"/>
		<stop  offset="0.1416" style="stop-color:#E60817"/>
		<stop  offset="0.2032" style="stop-color:#E80817"/>
		<stop  offset="0.3636" style="stop-color:#A32D32"/>
		<stop  offset="0.5455" style="stop-color:#EE4333"/>
		<stop  offset="0.6631" style="stop-color:#CB242B"/>
		<stop  offset="0.7807" style="stop-color:#E61A4A"/>
		<stop  offset="0.9305" style="stop-color:#AC2A31"/>
	</linearGradient>
	<path class="st61" d="M480.3,706.5c-1.4-7-6.3-19.8-8.3-28.5c-0.4-1.9,17.7-13,42.4-22.2c-12-6.8-29.9-10.5-43.3-11.7
		c-29.5-2.5-38.2-1.7-61-0.9c-15.2,0.5-45.3,4.6-64.4,7.9c-34.5,5.9-57.2,6.7-73.5,5c-8.5-0.8-68.1-5.3-40.1-51.9
		c-18.8,26-3.6,51.8,0.2,59.9c8.5,18.1,28.8,24,46.7,26c53.6,6.2,72.6-0.2,88.1,0.3c41.3,1.5,83,8.9,115.8,35.3
		C481.6,716.5,482.1,715.7,480.3,706.5z"/>
</g>
<g id="Layer_7">
	<g>
		<linearGradient id="SVGID_10_" gradientUnits="userSpaceOnUse" x1="12.7969" y1="4.0836" x2="20.6481" y2="4.0836">
			<stop  offset="0" style="stop-color:#5F5F5F"/>
			<stop  offset="1" style="stop-color:#686868"/>
		</linearGradient>
		<path class="st62" d="M15.6,5.2l-1.8,1.7l-1-1.1L17.9,1l1.9,2c0.4,0.4,0.6,0.8,0.7,1.2s0.1,0.8,0,1.2c-0.1,0.4-0.3,0.8-0.7,1.1
			c-0.5,0.5-1.1,0.7-1.7,0.6c-0.6-0.1-1.2-0.4-1.8-1L15.6,5.2z M16.5,4.4l0.9,0.9c0.3,0.3,0.5,0.4,0.8,0.5c0.3,0,0.5-0.1,0.8-0.3
			c0.3-0.2,0.4-0.5,0.4-0.8c0-0.3-0.1-0.6-0.3-0.8l-0.9-1L16.5,4.4z"/>
		<linearGradient id="SVGID_11_" gradientUnits="userSpaceOnUse" x1="17.1318" y1="10.0828" x2="24.9576" y2="10.0828">
			<stop  offset="0" style="stop-color:#5F5F5F"/>
			<stop  offset="1" style="stop-color:#686868"/>
		</linearGradient>
		<path class="st63" d="M20.8,10.6L20,9.8l-1.9,1.7l-1-1.1l5.1-4.8l1.8,1.9c0.6,0.6,0.9,1.2,0.9,1.8c0,0.6-0.2,1.1-0.7,1.6
			c-0.4,0.3-0.7,0.5-1.1,0.6c-0.4,0.1-0.8,0-1.2-0.2l-1.1,3.1l0,0l-1.1-1.1L20.8,10.6z M20.9,9l0.8,0.9c0.2,0.3,0.5,0.4,0.8,0.4
			c0.3,0,0.5-0.1,0.8-0.3c0.2-0.2,0.4-0.5,0.4-0.7c0-0.3-0.1-0.5-0.4-0.8l-0.8-0.9L20.9,9z"/>
		<linearGradient id="SVGID_12_" gradientUnits="userSpaceOnUse" x1="21.4209" y1="14.4246" x2="29.7646" y2="14.4246">
			<stop  offset="0" style="stop-color:#5F5F5F"/>
			<stop  offset="1" style="stop-color:#686868"/>
		</linearGradient>
		<path class="st64" d="M26.5,16.1l-1.9-2l-1.4,1.3l2.2,2.4l-0.9,0.8l-3.2-3.5l5.1-4.8l3.2,3.4l-0.9,0.8l-2.2-2.4l-1.2,1.1l1.9,2
			L26.5,16.1z"/>
		<linearGradient id="SVGID_13_" gradientUnits="userSpaceOnUse" x1="25.2012" y1="19.4797" x2="35.3755" y2="19.4797">
			<stop  offset="0" style="stop-color:#5F5F5F"/>
			<stop  offset="1" style="stop-color:#686868"/>
		</linearGradient>
		<path class="st65" d="M31.6,15.8l-2.5,4.8l5-2.2l1.3,1.4l-5.1,4.8l-1-1.1l1.4-1.3l2.5-2.1L28,22.2l-0.7-0.7l2.5-4.9l-2.3,2.4
			l-1.4,1.3l-1-1.1l5.1-4.8L31.6,15.8z"/>
		<linearGradient id="SVGID_14_" gradientUnits="userSpaceOnUse" x1="31.1504" y1="23.7117" x2="37.2822" y2="23.7117">
			<stop  offset="0" style="stop-color:#5F5F5F"/>
			<stop  offset="1" style="stop-color:#686868"/>
		</linearGradient>
		<path class="st66" d="M32.1,26.6l-1-1.1l5.1-4.8l1,1.1L32.1,26.6z"/>
		<linearGradient id="SVGID_15_" gradientUnits="userSpaceOnUse" x1="33.9099" y1="26.6918" x2="41.8105" y2="26.6918">
			<stop  offset="0" style="stop-color:#5F5F5F"/>
			<stop  offset="1" style="stop-color:#686868"/>
		</linearGradient>
		<path class="st67" d="M41.8,26.7l-3.4,3.1c-0.6,0.5-1.2,0.8-1.8,0.7c-0.7,0-1.3-0.4-1.8-1c-0.6-0.6-0.8-1.2-0.9-1.9
			s0.3-1.2,0.8-1.8l3.4-3.2l1,1.1L35.7,27c-0.3,0.3-0.5,0.6-0.5,0.9c0,0.3,0.1,0.6,0.4,0.9c0.6,0.6,1.1,0.6,1.8,0l3.4-3.2L41.8,26.7
			z"/>
		<linearGradient id="SVGID_16_" gradientUnits="userSpaceOnUse" x1="37.4707" y1="32.6985" x2="47.645" y2="32.6985">
			<stop  offset="0" style="stop-color:#5F5F5F"/>
			<stop  offset="1" style="stop-color:#686868"/>
		</linearGradient>
		<path class="st68" d="M43.9,29l-2.5,4.8l5-2.2l1.3,1.4l-5.1,4.8l-1-1.1l1.4-1.3l2.5-2.1l-5.1,2.2l-0.7-0.7l2.5-4.9l-2.3,2.4
			l-1.4,1.3l-1-1.1l5.1-4.8L43.9,29z"/>
	</g>
</g>
<g id="Layer_5">
</g>
</svg>
