<?xml version="1.0" encoding="utf-8"?>
<!-- Generator: Adobe Illustrator 22.1.0, SVG Export Plug-In . SVG Version: 6.00 Build 0)  -->
<svg version="1.1" id="Layer_1" xmlns="http://www.w3.org/2000/svg" xmlns:xlink="http://www.w3.org/1999/xlink" x="0px" y="0px"
	 width="160px" height="79.7px" viewBox="0 0 160 79.7" style="enable-background:new 0 0 160 79.7;" xml:space="preserve">
<style type="text/css">
	.st0{fill:#6B625B;}
	.st1{fill:url(#SVGID_1_);}
	.st2{fill:url(#SVGID_2_);}
	.st3{fill:url(#SVGID_3_);}
	.st4{fill:url(#SVGID_4_);}
	.st5{fill:#ED118F;}
	.st6{fill:#E8E81A;stroke:#E8E81A;stroke-miterlimit:10;}
	.st7{fill:#6B625B;stroke:#6B625B;stroke-miterlimit:10;}
	.st8{fill:#1DC2DD;}
</style>
<path class="st0" d="M66.2,3.4H53.8c-5.7,0-10.3,4.6-10.3,10.3v12.4c0,5.7,4.6,10.3,10.3,10.3h12.4c5.7,0,10.3-4.6,10.3-10.3V13.7
	C76.5,8,71.9,3.4,66.2,3.4z M73.4,26.1c0,4-3.2,7.2-7.2,7.2H53.8c-4,0-7.2-3.2-7.2-7.2V13.7c0-4,3.2-7.2,7.2-7.2h12.4
	c4,0,7.2,3.2,7.2,7.2V26.1z"/>
<path class="st0" d="M60.1,10.3c-5.3,0-9.7,4.3-9.7,9.7s4.3,9.7,9.7,9.7s9.7-4.3,9.7-9.7S65.5,10.3,60.1,10.3z M60.1,26.1
	c-3.3,0-6.1-2.7-6.1-6.1c0-3.3,2.7-6.1,6.1-6.1s6.1,2.7,6.1,6.1C66.2,23.3,63.5,26.1,60.1,26.1z"/>
<circle class="st0" cx="70.5" cy="9.6" r="1.3"/>
<path class="st0" d="M66.2,3.4H53.8c-5.7,0-10.3,4.6-10.3,10.3v12.4c0,5.7,4.6,10.3,10.3,10.3h12.4c5.7,0,10.3-4.6,10.3-10.3V13.7
	C76.5,8,71.9,3.4,66.2,3.4z M73.4,26.1c0,4-3.2,7.2-7.2,7.2H53.8c-4,0-7.2-3.2-7.2-7.2V13.7c0-4,3.2-7.2,7.2-7.2h12.4
	c4,0,7.2,3.2,7.2,7.2V26.1z"/>
<linearGradient id="SVGID_1_" gradientUnits="userSpaceOnUse" x1="-45.0462" y1="-605.3991" x2="-44.2038" y2="-606.2415" gradientTransform="matrix(32 0 0 32 1488 19446)">
	<stop  offset="0" style="stop-color:#FFC107"/>
	<stop  offset="0.507" style="stop-color:#F44336"/>
	<stop  offset="0.99" style="stop-color:#9C27B0"/>
</linearGradient>
<path class="st1" d="M66.2,43.2H53.8c-5.7,0-10.3,4.6-10.3,10.3v12.4c0,5.7,4.6,10.3,10.3,10.3h12.4c5.7,0,10.3-4.6,10.3-10.3V53.6
	C76.5,47.9,71.9,43.2,66.2,43.2z M73.4,65.9c0,4-3.2,7.2-7.2,7.2H53.8c-4,0-7.2-3.2-7.2-7.2V53.6c0-4,3.2-7.2,7.2-7.2h12.4
	c4,0,7.2,3.2,7.2,7.2V65.9z"/>
<linearGradient id="SVGID_2_" gradientUnits="userSpaceOnUse" x1="-44.8352" y1="-605.6024" x2="-44.407" y2="-606.0305" gradientTransform="matrix(32 0 0 32 1488 19446)">
	<stop  offset="0" style="stop-color:#FFC107"/>
	<stop  offset="0.507" style="stop-color:#F44336"/>
	<stop  offset="0.99" style="stop-color:#9C27B0"/>
</linearGradient>
<path class="st2" d="M60.1,50.2c-5.3,0-9.7,4.3-9.7,9.7s4.3,9.7,9.7,9.7s9.7-4.3,9.7-9.7S65.5,50.2,60.1,50.2z M60.1,65.9
	c-3.3,0-6.1-2.7-6.1-6.1c0-3.3,2.7-6.1,6.1-6.1s6.1,2.7,6.1,6.1C66.2,63.2,63.5,65.9,60.1,65.9z"/>
<linearGradient id="SVGID_3_" gradientUnits="userSpaceOnUse" x1="-44.3242" y1="-606.1133" x2="-44.2671" y2="-606.1703" gradientTransform="matrix(32 0 0 32 1488 19446)">
	<stop  offset="0" style="stop-color:#FFC107"/>
	<stop  offset="0.507" style="stop-color:#F44336"/>
	<stop  offset="0.99" style="stop-color:#9C27B0"/>
</linearGradient>
<circle class="st3" cx="70.5" cy="49.5" r="1.3"/>
<linearGradient id="SVGID_4_" gradientUnits="userSpaceOnUse" x1="-45.0462" y1="-605.3991" x2="-44.2038" y2="-606.2415" gradientTransform="matrix(32 0 0 32 1488 19446)">
	<stop  offset="0" style="stop-color:#FFC107"/>
	<stop  offset="0.507" style="stop-color:#F44336"/>
	<stop  offset="0.99" style="stop-color:#9C27B0"/>
</linearGradient>
<path class="st4" d="M66.2,43.2H53.8c-5.7,0-10.3,4.6-10.3,10.3v12.4c0,5.7,4.6,10.3,10.3,10.3h12.4c5.7,0,10.3-4.6,10.3-10.3V53.6
	C76.5,47.9,71.9,43.2,66.2,43.2z M73.4,65.9c0,4-3.2,7.2-7.2,7.2H53.8c-4,0-7.2-3.2-7.2-7.2V53.6c0-4,3.2-7.2,7.2-7.2h12.4
	c4,0,7.2,3.2,7.2,7.2V65.9z"/>
<g>
	<path class="st0" d="M116.8,18.9c-0.5-8.4-7.2-15-15.6-15.6v0h-1.1H99v0c-8.4,0.5-15,7.2-15.6,15.6h0V20v1.1h0
		c0.5,8.4,7.2,15,15.6,15.6v0h1.1h1.1v0c8.4-0.5,15-7.2,15.6-15.6h0V20L116.8,18.9L116.8,18.9z M93.8,6.9c-1.1,1.4-2,3.2-2.6,5.3
		h-3.3C89.3,9.9,91.4,8.1,93.8,6.9z M86.7,14.4h3.9c-0.3,1.4-0.5,2.9-0.5,4.5h-4.4C85.7,17.3,86.1,15.8,86.7,14.4z M85.6,21.1h4.4
		c0.1,1.6,0.3,3.1,0.5,4.5h-3.9C86.1,24.2,85.7,22.7,85.6,21.1z M87.8,27.8h3.3c0.7,2.1,1.5,3.8,2.6,5.3
		C91.4,31.9,89.3,30.1,87.8,27.8z M99,34.4c-2.3-0.6-4.3-3.1-5.5-6.6H99V34.4z M99,25.6h-6.1c-0.3-1.4-0.5-2.9-0.6-4.5H99V25.6z
		 M99,18.9h-6.7c0.1-1.6,0.3-3.1,0.6-4.5H99V18.9z M99,12.2h-5.5c1.2-3.5,3.2-5.9,5.5-6.6V12.2z M112.3,12.2H109
		c-0.7-2.1-1.5-3.8-2.6-5.3C108.8,8.1,110.9,9.9,112.3,12.2z M101.2,5.6c2.3,0.6,4.3,3.1,5.5,6.6h-5.5V5.6z M101.2,14.4h6.1
		c0.3,1.4,0.5,2.9,0.6,4.5h-6.7V14.4z M101.2,21.1h6.7c-0.1,1.6-0.3,3.1-0.6,4.5h-6.1V21.1z M101.2,34.4v-6.6h5.5
		C105.5,31.3,103.5,33.8,101.2,34.4z M106.3,33.1c1.1-1.4,2-3.2,2.6-5.3h3.3C110.9,30.1,108.8,31.9,106.3,33.1z M113.5,25.6h-3.9
		c0.3-1.4,0.5-2.9,0.5-4.5h4.4C114.4,22.7,114.1,24.2,113.5,25.6z M110.1,18.9c-0.1-1.6-0.3-3.1-0.5-4.5h3.9c0.6,1.4,1,2.9,1.1,4.5
		H110.1z"/>
</g>
<g>
	<path class="st5" d="M116.3,58.8c-0.5-8.4-7.2-15-15.6-15.6v0h-1.1h-1.1v0c-8.4,0.5-15,7.2-15.6,15.6h0v1.1V61h0
		c0.5,8.4,7.2,15,15.6,15.6v0h1.1h1.1v0c8.4-0.5,15-7.2,15.6-15.6h0v-1.1L116.3,58.8L116.3,58.8z M93.3,46.8c-1.1,1.4-2,3.2-2.6,5.3
		h-3.3C88.8,49.8,90.9,47.9,93.3,46.8z M86.2,54.3h3.9c-0.3,1.4-0.5,2.9-0.5,4.5h-4.4C85.2,57.2,85.6,55.7,86.2,54.3z M85.1,61h4.4
		c0.1,1.6,0.3,3.1,0.5,4.5h-3.9C85.6,64.1,85.2,62.6,85.1,61z M87.3,67.7h3.3c0.7,2.1,1.5,3.8,2.6,5.3C90.9,71.8,88.8,70,87.3,67.7z
		 M98.5,74.2c-2.3-0.6-4.3-3.1-5.5-6.6h5.5V74.2z M98.5,65.5h-6.1c-0.3-1.4-0.5-2.9-0.6-4.5h6.7V65.5z M98.5,58.8h-6.7
		c0.1-1.6,0.3-3.1,0.6-4.5h6.1V58.8z M98.5,52.1H93c1.2-3.5,3.2-5.9,5.5-6.6V52.1z M111.8,52.1h-3.3c-0.7-2.1-1.5-3.8-2.6-5.3
		C108.3,47.9,110.4,49.8,111.8,52.1z M100.7,45.5c2.3,0.6,4.3,3.1,5.5,6.6h-5.5V45.5z M100.7,54.3h6.1c0.3,1.4,0.5,2.9,0.6,4.5h-6.7
		V54.3z M100.7,61h6.7c-0.1,1.6-0.3,3.1-0.6,4.5h-6.1V61z M100.7,74.2v-6.6h5.5C105,71.2,103,73.6,100.7,74.2z M105.8,73
		c1.1-1.4,2-3.2,2.6-5.3h3.3C110.4,70,108.3,71.8,105.8,73z M113,65.5h-3.9c0.3-1.4,0.5-2.9,0.5-4.5h4.4
		C113.9,62.6,113.6,64.1,113,65.5z M109.6,58.8c-0.1-1.6-0.3-3.1-0.5-4.5h3.9c0.6,1.4,1,2.9,1.1,4.5H109.6z"/>
</g>
<g>
	<path class="st6" d="M140.1,44.9c4.7,0,8.6,3.9,8.6,8.6c0,1.1,0,2.1,0.1,3c0,0.6,0.5,1,1.1,1c0.1,0,0.2,0,0.2,0l1.5-0.3
		c0.1,0,0.1,0,0.2,0c0.4,0,0.7,0.3,0.8,0.6c0.1,0.5-0.2,1.1-0.7,1.3l-2.2,0.9c-0.6,0.2-0.9,0.8-0.7,1.4c1.8,6.6,6.8,5.9,6.8,6.8
		c0,1.1-3.8,1.2-4.1,1.6c-0.3,0.3,0,2-0.8,2.3c-0.1,0.1-0.3,0.1-0.6,0.1c-0.6,0-1.4-0.1-2.2-0.1c-0.7,0-1.5,0.1-2.2,0.4
		c-1.8,0.8-3.5,2.4-5.7,2.4c-2.1,0-3.9-1.6-5.7-2.4c-0.7-0.3-1.4-0.4-2.2-0.4c-0.9,0-1.7,0.1-2.2,0.1c-0.2,0-0.5,0-0.6-0.1
		c-0.8-0.3-0.4-2-0.8-2.3s-4.1-0.5-4.1-1.6c0-0.9,5-0.2,6.8-6.8c0.2-0.6-0.1-1.2-0.7-1.4l-2.2-0.9c-0.5-0.2-0.8-0.7-0.7-1.3
		c0.1-0.4,0.4-0.6,0.8-0.6c0.1,0,0.1,0,0.2,0l1.5,0.3c0.1,0,0.2,0,0.2,0c0.5,0,1-0.4,1.1-1c0.1-0.9,0.1-1.9,0.1-3
		C131.5,48.8,135.4,44.9,140.1,44.9 M140.1,43.1L140.1,43.1L140.1,43.1c-1.4,0-2.8,0.3-4,0.8c-1.2,0.5-2.3,1.3-3.3,2.2
		c-1,1-1.7,2.1-2.2,3.3c-0.5,1.3-0.8,2.6-0.8,4c0,0.7,0,1.4,0,2l-0.5-0.1c-0.2,0-0.4-0.1-0.6-0.1c-0.6,0-1.2,0.2-1.6,0.6
		c-0.5,0.4-0.8,0.9-1,1.5c-0.3,1.4,0.5,2.9,1.8,3.4l1.6,0.7c-1.1,3.3-3.1,4-4.4,4.4c-0.4,0.1-0.7,0.2-1,0.4c-1.2,0.6-1.3,1.6-1.3,2
		c0,0.8,0.4,1.4,1,1.9c0.3,0.2,0.7,0.5,1.2,0.6c0.7,0.2,1.5,0.4,2.1,0.5c0,0.2,0.1,0.5,0.2,0.8c0.3,1.1,1,1.6,1.5,1.8
		c0.5,0.2,1,0.2,1.3,0.2c0.3,0,0.7,0,1-0.1c0.4,0,0.8-0.1,1.2-0.1c0.6,0,1.1,0.1,1.4,0.2c0.5,0.2,0.9,0.5,1.4,0.8
		c1.4,0.8,3,1.8,5,1.8s3.6-0.9,5-1.8c0.5-0.3,1-0.6,1.4-0.8c0.3-0.2,0.8-0.2,1.4-0.2c0.4,0,0.8,0,1.2,0.1c0.4,0,0.7,0.1,1,0.1
		c0.3,0,0.8,0,1.3-0.2c0.5-0.2,1.2-0.7,1.5-1.8c0.1-0.3,0.1-0.5,0.2-0.8c0.6-0.1,1.4-0.3,2.1-0.5c0.5-0.2,0.9-0.4,1.2-0.6
		c0.7-0.5,1-1.2,1-1.9c0-0.4-0.1-1.4-1.3-2c-0.3-0.1-0.6-0.2-1-0.4c-1.3-0.4-3.3-1.1-4.4-4.4l1.6-0.7c1.4-0.5,2.2-2,1.8-3.4
		c-0.1-0.6-0.5-1.1-1-1.5c-0.5-0.4-1.1-0.6-1.6-0.6c-0.2,0-0.4,0-0.6,0.1l-0.5,0.1c0-0.6,0-1.3,0-2c0-1.4-0.3-2.8-0.8-4
		c-0.5-1.2-1.3-2.4-2.2-3.3c-1-1-2.1-1.7-3.3-2.2C142.8,43.3,141.5,43.1,140.1,43.1L140.1,43.1z"/>
	<g>
	</g>
	<g>
	</g>
	<g>
	</g>
	<g>
	</g>
	<g>
	</g>
	<g>
	</g>
	<g>
	</g>
	<g>
	</g>
	<g>
	</g>
	<g>
	</g>
	<g>
	</g>
	<g>
	</g>
	<g>
	</g>
	<g>
	</g>
	<g>
	</g>
</g>
<g>
	<path class="st7" d="M140.3,4.6c4.8,0,8.7,4,8.7,8.7c0,1.1,0,2.1,0.1,3.1c0,0.6,0.5,1,1.1,1c0.1,0,0.2,0,0.2,0l1.5-0.3
		c0.1,0,0.1,0,0.2,0c0.4,0,0.7,0.3,0.8,0.6c0.1,0.5-0.2,1.1-0.7,1.3l-2.3,0.9c-0.6,0.2-0.9,0.9-0.7,1.4c1.8,6.7,6.9,6,6.9,6.9
		c0,1.1-3.8,1.3-4.2,1.6c-0.3,0.3,0,2-0.8,2.3c-0.1,0.1-0.4,0.1-0.6,0.1c-0.6,0-1.4-0.1-2.3-0.1c-0.8,0-1.5,0.1-2.2,0.4
		c-1.8,0.8-3.6,2.4-5.8,2.4c-2.2,0-3.9-1.6-5.8-2.4c-0.7-0.3-1.5-0.4-2.2-0.4c-0.9,0-1.7,0.1-2.3,0.1c-0.3,0-0.5,0-0.6-0.1
		c-0.8-0.3-0.4-2-0.8-2.3c-0.3-0.3-4.2-0.5-4.2-1.6c0-0.9,5.1-0.2,6.9-6.9c0.2-0.6-0.1-1.2-0.7-1.4l-2.3-0.9
		c-0.5-0.2-0.8-0.7-0.7-1.3c0.1-0.4,0.4-0.6,0.8-0.6c0.1,0,0.1,0,0.2,0l1.5,0.3c0.1,0,0.2,0,0.2,0c0.6,0,1-0.4,1.1-1
		c0.1-0.9,0.1-2,0.1-3.1C131.6,8.6,135.5,4.6,140.3,4.6 M140.3,2.8L140.3,2.8L140.3,2.8c-1.4,0-2.8,0.3-4.1,0.8
		c-1.3,0.5-2.4,1.3-3.4,2.3c-1,1-1.7,2.1-2.3,3.4c-0.6,1.3-0.8,2.7-0.8,4.1c0,0.7,0,1.4,0,2l-0.6-0.1c-0.2,0-0.4-0.1-0.6-0.1
		c-0.6,0-1.2,0.2-1.7,0.6c-0.5,0.4-0.8,0.9-1,1.5c-0.3,1.5,0.5,2.9,1.9,3.4l1.7,0.7c-1.1,3.4-3.1,4-4.5,4.5c-0.4,0.1-0.7,0.2-1,0.4
		c-1.2,0.6-1.3,1.6-1.3,2c0,0.8,0.4,1.5,1,2c0.3,0.3,0.7,0.5,1.2,0.6c0.7,0.2,1.5,0.4,2.2,0.5c0,0.2,0.1,0.5,0.2,0.8
		c0.3,1.1,1,1.6,1.5,1.8c0.5,0.2,1,0.2,1.3,0.2c0.3,0,0.7,0,1.1-0.1c0.4,0,0.8-0.1,1.2-0.1c0.6,0,1.1,0.1,1.4,0.2
		c0.5,0.2,0.9,0.5,1.5,0.8c1.4,0.8,3.1,1.8,5.1,1.8s3.7-1,5.1-1.8c0.5-0.3,1-0.6,1.5-0.8c0.3-0.2,0.8-0.2,1.4-0.2
		c0.4,0,0.8,0,1.2,0.1c0.4,0,0.7,0.1,1.1,0.1c0.3,0,0.8,0,1.3-0.2c0.5-0.2,1.2-0.7,1.5-1.8c0.1-0.3,0.1-0.5,0.2-0.8
		c0.7-0.1,1.5-0.3,2.2-0.5c0.5-0.2,0.9-0.4,1.2-0.6c0.7-0.5,1-1.2,1-2c0-0.4-0.1-1.4-1.3-2c-0.3-0.1-0.6-0.2-1-0.4
		c-1.4-0.4-3.4-1.1-4.5-4.5l1.7-0.7c1.4-0.5,2.2-2,1.9-3.4c-0.1-0.6-0.5-1.2-1-1.5c-0.5-0.4-1.1-0.6-1.7-0.6c-0.2,0-0.4,0-0.6,0.1
		l-0.6,0.1c0-0.6,0-1.3,0-2c0-1.4-0.3-2.8-0.8-4.1c-0.5-1.3-1.3-2.4-2.3-3.4c-1-1-2.1-1.7-3.4-2.3C143.1,3,141.7,2.8,140.3,2.8
		L140.3,2.8z"/>
	<g>
	</g>
	<g>
	</g>
	<g>
	</g>
	<g>
	</g>
	<g>
	</g>
	<g>
	</g>
	<g>
	</g>
	<g>
	</g>
	<g>
	</g>
	<g>
	</g>
	<g>
	</g>
	<g>
	</g>
	<g>
	</g>
	<g>
	</g>
	<g>
	</g>
</g>
<g>
	<g>
		<g id="twitter_1_">
			<g>
				<path class="st0" d="M39.6,7.4c-0.3-0.2-0.7-0.2-1,0c-0.2,0.2-0.5,0.3-0.9,0.4c1.2-1.5,1.2-2.5,1.2-2.7c0-0.3-0.2-0.6-0.5-0.7
					c-0.3-0.1-0.6-0.1-0.9,0.1c-1.6,1.2-3.3,1.4-4.3,1.5c-1.6-1.5-3.6-2.3-5.7-2.3c-4.7,0-8.5,3.8-8.5,8.4c0,0.3,0,0.7,0.1,1
					C11.3,12.9,5,5.6,4.9,5.5C4.8,5.3,4.5,5.1,4.2,5.2c-0.3,0-0.5,0.2-0.7,0.4c-2,3.4-1.2,6.6,0.2,8.8c-0.3-0.1-0.6-0.1-0.8,0
					c-0.3,0.1-0.5,0.5-0.5,0.8c-0.1,3.6,1.6,5.7,3.2,6.9c-0.1,0-0.2,0.1-0.3,0.2C5,22.6,5,22.9,5.1,23.2c1.1,3.7,3.8,5,5.7,5.6
					c-2.2,1.5-4.8,1.9-6.8,1.9c-1.3,0-2.2-0.2-2.2-0.2c-0.4-0.1-0.8,0.1-1,0.5c-0.2,0.4,0,0.8,0.3,1.1c4.1,3.1,9,3.7,12.4,3.7
					c2.7,0,4.6-0.4,4.6-0.4c17.4-4.1,18.1-19.7,18.1-22.6c3.3-3,3.8-4.2,3.9-4.5C40.1,8,39.9,7.6,39.6,7.4z M34.6,11.8
					c-0.2,0.2-0.3,0.4-0.3,0.7c0,0.2,1,17-16.7,21.1c0,0-1.8,0.4-4.3,0.4c-2.3,0-5.4-0.3-8.3-1.6c2.7-0.2,6-1,8.3-3.6
					c0.2-0.3,0.3-0.6,0.2-1c-0.1-0.3-0.5-0.5-0.8-0.5c-0.2,0-3.7,0-5.4-3.3c0.8,0,1.6-0.1,2.1-0.3c0.4-0.2,0.6-0.5,0.5-0.9
					c0-0.4-0.3-0.7-0.7-0.8c-0.2,0-4.2-1-5-5.2c0.6,0.2,1.4,0.4,2.1,0.3C6.7,17,7,16.8,7.1,16.4c0.1-0.3,0-0.7-0.3-0.9
					c-0.2-0.2-4-3.5-2.4-7.9c2.2,2.3,8.3,7.6,15.7,7.2c0.3,0,0.5-0.1,0.7-0.4c0.2-0.2,0.2-0.5,0.1-0.7c-0.1-0.5-0.2-1.1-0.2-1.7
					c0-3.7,3-6.7,6.7-6.7c1.8,0,3.5,0.7,4.8,2c0.2,0.2,0.4,0.3,0.6,0.3l0.1,0c0.7,0,1.7-0.1,2.9-0.5c-0.4,0.4-0.9,0.8-1.5,1.3
					c-0.3,0.2-0.4,0.7-0.3,1c0.1,0.4,0.5,0.6,0.9,0.6c0.1,0,0.8-0.1,1.6-0.2C36,10.4,35.4,11,34.6,11.8z"/>
			</g>
		</g>
	</g>
	<g>
	</g>
	<g>
	</g>
	<g>
	</g>
	<g>
	</g>
	<g>
	</g>
	<g>
	</g>
	<g>
	</g>
	<g>
	</g>
	<g>
	</g>
	<g>
	</g>
	<g>
	</g>
	<g>
	</g>
	<g>
	</g>
	<g>
	</g>
	<g>
	</g>
</g>
<g>
	<g>
		<g id="twitter_2_">
			<g>
				<path class="st8" d="M39.5,47.4c-0.3-0.2-0.7-0.2-1,0c-0.2,0.2-0.5,0.3-0.9,0.4c1.2-1.5,1.2-2.5,1.2-2.7c0-0.3-0.2-0.6-0.5-0.7
					c-0.3-0.1-0.6-0.1-0.9,0.1c-1.6,1.2-3.3,1.4-4.3,1.5c-1.6-1.5-3.6-2.3-5.7-2.3c-4.7,0-8.5,3.8-8.5,8.4c0,0.3,0,0.7,0.1,1
					c-7.8-0.2-14.1-7.5-14.1-7.6c-0.2-0.2-0.5-0.3-0.8-0.3c-0.3,0-0.5,0.2-0.7,0.4c-2,3.4-1.2,6.6,0.2,8.8c-0.3-0.1-0.6-0.1-0.8,0
					c-0.3,0.1-0.5,0.5-0.5,0.8c-0.1,3.6,1.6,5.7,3.2,6.9c-0.1,0-0.2,0.1-0.3,0.2c-0.2,0.2-0.3,0.6-0.2,0.9c1.1,3.7,3.8,5,5.7,5.6
					c-2.2,1.5-4.8,1.9-6.8,1.9c-1.3,0-2.2-0.2-2.2-0.2c-0.4-0.1-0.8,0.1-1,0.5c-0.2,0.4,0,0.8,0.3,1.1c4.1,3.1,9,3.7,12.4,3.7
					c2.7,0,4.6-0.4,4.6-0.4C35.3,71.3,36,55.7,36,52.8c3.3-3,3.8-4.2,3.9-4.5C39.9,48,39.8,47.6,39.5,47.4z M34.5,51.8
					c-0.2,0.2-0.3,0.4-0.3,0.7c0,0.2,1,17-16.7,21.1c0,0-1.8,0.4-4.3,0.4c-2.3,0-5.4-0.3-8.3-1.6c2.7-0.2,6-1,8.3-3.6
					c0.2-0.3,0.3-0.6,0.2-1c-0.1-0.3-0.5-0.5-0.8-0.5c-0.2,0-3.7,0-5.4-3.3c0.8,0,1.6-0.1,2.1-0.3c0.4-0.2,0.6-0.5,0.5-0.9
					S9.5,62.1,9.1,62c-0.2,0-4.2-1-5-5.2c0.6,0.2,1.4,0.4,2.1,0.3C6.6,57,6.9,56.8,7,56.4c0.1-0.3,0-0.7-0.3-0.9
					c-0.2-0.2-4-3.5-2.4-7.9c2.2,2.3,8.3,7.6,15.7,7.2c0.3,0,0.5-0.1,0.7-0.4c0.2-0.2,0.2-0.5,0.1-0.7c-0.1-0.5-0.2-1.1-0.2-1.7
					c0-3.7,3-6.7,6.7-6.7c1.8,0,3.5,0.7,4.8,2c0.2,0.2,0.4,0.3,0.6,0.3l0.1,0c0.7,0,1.7-0.1,2.9-0.5c-0.4,0.4-0.9,0.8-1.5,1.3
					c-0.3,0.2-0.4,0.7-0.3,1c0.1,0.4,0.5,0.6,0.9,0.6c0.1,0,0.8-0.1,1.6-0.2C35.9,50.4,35.3,51,34.5,51.8z"/>
			</g>
		</g>
	</g>
	<g>
	</g>
	<g>
	</g>
	<g>
	</g>
	<g>
	</g>
	<g>
	</g>
	<g>
	</g>
	<g>
	</g>
	<g>
	</g>
	<g>
	</g>
	<g>
	</g>
	<g>
	</g>
	<g>
	</g>
	<g>
	</g>
	<g>
	</g>
	<g>
	</g>
</g>
</svg>
