<?xml version="1.0" encoding="utf-8"?>
<!-- Generator: Adobe Illustrator 21.1.0, SVG Export Plug-In . SVG Version: 6.00 Build 0)  -->
<svg version="1.1" id="Layer_1" xmlns="http://www.w3.org/2000/svg" xmlns:xlink="http://www.w3.org/1999/xlink" x="0px" y="0px"
	 width="75px" height="25px" viewBox="0 0 75 25" style="enable-background:new 0 0 75 25;" xml:space="preserve">
<style type="text/css">
	.st0{fill:#FFFFFF;}
</style>
<g>
	<g>
		<path class="st0" d="M18.5,0l-3.2,0c-3.6,0-6,2.4-6,6.2V9H6C5.7,9,5.5,9.2,5.5,9.5v4.1c0,0.3,0.2,0.5,0.5,0.5h3.3v10.4
			c0,0.3,0.2,0.5,0.5,0.5H14c0.3,0,0.5-0.2,0.5-0.5V14.1h3.8c0.3,0,0.5-0.2,0.5-0.5l0-4.1c0-0.1-0.1-0.3-0.1-0.4
			C18.6,9,18.5,9,18.4,9h-3.8V6.6c0-1.2,0.3-1.7,1.8-1.7l2.2,0c0.3,0,0.5-0.2,0.5-0.5V0.5C19,0.2,18.8,0,18.5,0z"/>
	</g>
	<g>
	</g>
	<g>
	</g>
	<g>
	</g>
	<g>
	</g>
	<g>
	</g>
	<g>
	</g>
	<g>
	</g>
	<g>
	</g>
	<g>
	</g>
	<g>
	</g>
	<g>
	</g>
	<g>
	</g>
	<g>
	</g>
	<g>
	</g>
	<g>
	</g>
</g>
<g>
	<g>
		<g>
			<path class="st0" d="M50,4.4c-0.9,0.4-1.9,0.7-2.9,0.8c1.1-0.6,1.9-1.6,2.3-2.8c-1,0.6-2.1,1-3.3,1.2c-0.9-1-2.3-1.6-3.7-1.6
				c-2.8,0-5.1,2.3-5.1,5.1c0,0.4,0,0.8,0.1,1.2c-4.3-0.2-8-2.3-10.6-5.4C26.3,3.7,26,4.6,26,5.5c0,1.8,0.9,3.3,2.3,4.3
				c-0.8,0-1.6-0.3-2.3-0.6v0.1c0,2.5,1.8,4.6,4.1,5c-0.4,0.1-0.9,0.2-1.4,0.2c-0.3,0-0.7,0-1-0.1c0.7,2,2.5,3.5,4.8,3.6
				c-1.8,1.4-4,2.2-6.4,2.2c-0.4,0-0.8,0-1.2-0.1c2.3,1.5,5,2.3,7.9,2.3c9.4,0,14.6-7.8,14.6-14.6l0-0.7C48.4,6.3,49.3,5.4,50,4.4z"
				/>
		</g>
	</g>
	<g>
	</g>
	<g>
	</g>
	<g>
	</g>
	<g>
	</g>
	<g>
	</g>
	<g>
	</g>
	<g>
	</g>
	<g>
	</g>
	<g>
	</g>
	<g>
	</g>
	<g>
	</g>
	<g>
	</g>
	<g>
	</g>
	<g>
	</g>
	<g>
	</g>
</g>
<g>
	<g>
		<g id="google-plus_1_">
			<path class="st0" d="M71.4,10.6V7.4h-2.1v3.1h-3.1v2.1h3.1v3.1h2.1v-3.1h3.1v-2.1H71.4z M63.4,14.1l-1.1-0.8
				c-0.4-0.3-0.8-0.7-0.8-1.5c0-0.7,0.5-1.4,1-1.7c1.4-1,2.7-2.2,2.7-4.5c0-2.2-1.4-3.4-2.1-4.1h1.8l1.3-1.5h-6.5
				c-4.6,0-6.9,2.9-6.9,6.1c0,2.4,1.9,5,5.2,5h0.8c-0.1,0.3-0.4,0.8-0.4,1.4c0,1,0.4,1.5,0.9,2.1c-1.5,0.1-4.2,0.4-6.2,1.7
				c-1.9,1.1-2.4,2.7-2.4,3.9c0,2.4,2.2,4.7,6.9,4.7c5.6,0,8.4-3.1,8.4-6.2C66,16.5,64.9,15.4,63.4,14.1z M55.5,4.6
				c0-2.3,1.4-3.3,2.8-3.3c2.7,0,4.2,3.7,4.2,5.7c0,2.7-2.2,3.2-3,3.2C56.8,10.3,55.5,7,55.5,4.6z M59.2,23.4
				c-3.4,0-5.6-1.6-5.6-3.9c0-2.3,2.1-3,2.7-3.3c1.4-0.4,3.1-0.5,3.4-0.5c0.3,0,0.5,0,0.7,0c2.5,1.8,3.6,2.5,3.6,4.2
				C64,21.9,62,23.4,59.2,23.4z"/>
		</g>
	</g>
	<g>
	</g>
	<g>
	</g>
	<g>
	</g>
	<g>
	</g>
	<g>
	</g>
	<g>
	</g>
	<g>
	</g>
	<g>
	</g>
	<g>
	</g>
	<g>
	</g>
	<g>
	</g>
	<g>
	</g>
	<g>
	</g>
	<g>
	</g>
	<g>
	</g>
</g>
</svg>
