<?xml version="1.0" encoding="utf-8"?>
<!-- Generator: Adobe Illustrator 21.1.0, SVG Export Plug-In . SVG Version: 6.00 Build 0)  -->
<svg version="1.1" xmlns="http://www.w3.org/2000/svg" xmlns:xlink="http://www.w3.org/1999/xlink" x="0px" y="0px" width="300px"
	 height="50px" viewBox="0 0 300 50" style="enable-background:new 0 0 300 50;" xml:space="preserve">
<style type="text/css">
	.st0{fill:#E13274;}
	.st1{fill:#FFFFFF;}
	.st2{fill:#F9D5AA;}
	.st3{fill:#CECECE;}
</style>
<g id="Layer_1">
	<g>
		<g>
			<path class="st0" d="M49.3,21.2c-0.6-3.2-2.9-5.6-5.8-6.5c0.7-2.9-0.2-6.1-2.7-8.2c-2.5-2.1-5.8-2.4-8.6-1.2
				c-1.3-2.7-4.1-4.5-7.4-4.5c-3.2,0-6,1.9-7.4,4.5C14.8,4.1,11.5,4.5,9,6.5s-3.4,5.3-2.7,8.2c-2.9,0.9-5.2,3.3-5.8,6.5
				s0.8,6.2,3.2,8c-1.7,2.5-1.9,5.9-0.3,8.6s4.6,4.3,7.6,4.1c0.3,3,2.3,5.7,5.4,6.8c3,1.1,6.3,0.3,8.5-1.8c2.2,2.1,5.4,2.9,8.5,1.8
				c3-1.1,5-3.8,5.4-6.8c3,0.2,6-1.3,7.6-4.1c1.6-2.8,1.4-6.1-0.3-8.6C48.5,27.4,49.9,24.4,49.3,21.2z M24.9,39.5
				c-8,0-14.5-6.5-14.5-14.5s6.5-14.5,14.5-14.5S39.4,17,39.4,25S32.9,39.5,24.9,39.5z"/>
			<path class="st0" d="M25,10.3c-8.2,0-14.8,6.6-14.8,14.8S16.8,39.9,25,39.9c8.2,0,14.8-6.6,14.8-14.8S33.2,10.3,25,10.3z"/>
		</g>
	</g>
	<circle class="st1" cx="24.9" cy="25.5" r="20.2"/>
	<g>
		<g>
			<path class="st0" d="M99.6,21.2c-0.6-3.2-2.9-5.6-5.8-6.5c0.7-2.9-0.2-6.1-2.7-8.2c-2.5-2.1-5.8-2.4-8.6-1.2
				c-1.3-2.7-4.1-4.5-7.4-4.5c-3.2,0-6,1.9-7.4,4.5c-2.8-1.2-6.1-0.8-8.6,1.2c-2.5,2.1-3.4,5.3-2.7,8.2c-2.9,0.9-5.2,3.3-5.8,6.5
				c-0.6,3.2,0.8,6.2,3.2,8c-1.7,2.5-1.9,5.9-0.3,8.6c1.6,2.8,4.6,4.3,7.6,4.1c0.3,3,2.3,5.7,5.4,6.8c3,1.1,6.3,0.3,8.5-1.8
				c2.2,2.1,5.4,2.9,8.5,1.8c3-1.1,5-3.8,5.4-6.8c3,0.2,6-1.3,7.6-4.1c1.6-2.8,1.4-6.1-0.3-8.6C98.8,27.4,100.1,24.4,99.6,21.2z
				 M75.2,39.5c-8,0-14.5-6.5-14.5-14.5s6.5-14.5,14.5-14.5S89.6,17,89.6,25S83.2,39.5,75.2,39.5z"/>
			<path class="st0" d="M75.3,10.3c-8.2,0-14.8,6.6-14.8,14.8s6.6,14.8,14.8,14.8c8.2,0,14.8-6.6,14.8-14.8S83.4,10.3,75.3,10.3z"/>
		</g>
	</g>
	<circle class="st1" cx="75.2" cy="25.5" r="20.2"/>
	<g>
		<path class="st0" d="M77.3,29.3c0-0.6-0.2-1.2-0.6-1.5s-1-0.8-2-1.1c-1.8-0.6-3.1-1.3-3.9-2.1s-1.3-1.9-1.3-3.3
			c0-1.3,0.4-2.4,1.3-3.2s2-1.3,3.5-1.5V14h1.9v2.5c1.4,0.2,2.5,0.7,3.3,1.6s1.2,2.1,1.2,3.5l0,0.1h-3.3c0-0.9-0.2-1.5-0.6-2
			s-0.9-0.7-1.6-0.7c-0.7,0-1.3,0.2-1.6,0.6S73,20.6,73,21.2c0,0.6,0.2,1.1,0.5,1.4s1,0.7,2,1.2c1.7,0.6,3,1.3,3.9,2.1
			s1.3,1.9,1.3,3.4c0,1.4-0.4,2.4-1.3,3.3s-2,1.3-3.5,1.4v2.3h-1.9v-2.3c-1.5-0.1-2.7-0.6-3.7-1.5S69,30.3,69,28.7l0-0.1h3.3
			c0,1,0.2,1.7,0.7,2.1s1.1,0.6,1.9,0.6c0.8,0,1.3-0.2,1.7-0.6S77.3,29.9,77.3,29.3z"/>
	</g>
	<g>
		<g>
			<path class="st0" d="M149.3,21.2c-0.6-3.2-2.9-5.6-5.8-6.5c0.7-2.9-0.2-6.1-2.7-8.2c-2.5-2.1-5.8-2.4-8.6-1.2
				c-1.3-2.7-4.1-4.5-7.4-4.5c-3.2,0-6,1.9-7.4,4.5c-2.8-1.2-6.1-0.8-8.6,1.2s-3.4,5.3-2.7,8.2c-2.9,0.9-5.2,3.3-5.8,6.5
				c-0.6,3.2,0.8,6.2,3.2,8c-1.7,2.5-1.9,5.9-0.3,8.6s4.6,4.3,7.6,4.1c0.3,3,2.3,5.7,5.4,6.8c3,1.1,6.3,0.3,8.5-1.8
				c2.2,2.1,5.4,2.9,8.5,1.8c3-1.1,5-3.8,5.4-6.8c3,0.2,6-1.3,7.6-4.1c1.6-2.8,1.4-6.1-0.3-8.6C148.5,27.4,149.9,24.4,149.3,21.2z
				 M124.9,39.5c-8,0-14.5-6.5-14.5-14.5s6.5-14.5,14.5-14.5S139.4,17,139.4,25S132.9,39.5,124.9,39.5z"/>
			<path class="st0" d="M125,10.3c-8.2,0-14.8,6.6-14.8,14.8s6.6,14.8,14.8,14.8c8.2,0,14.8-6.6,14.8-14.8S133.2,10.3,125,10.3z"/>
		</g>
	</g>
	<circle class="st1" cx="124.9" cy="25.5" r="20.2"/>
	<polygon class="st0" points="124.9,10.9 129.5,20.1 139.6,21.5 132.2,28.7 134,38.8 124.9,34 115.9,38.8 117.6,28.7 110.3,21.5 
		120.4,20.1 	"/>
	<g>
		<g>
			<path class="st0" d="M299.3,21.2c-0.6-3.2-2.9-5.6-5.8-6.5c0.7-2.9-0.2-6.1-2.7-8.2c-2.5-2.1-5.8-2.4-8.6-1.2
				c-1.3-2.7-4.1-4.5-7.4-4.5c-3.2,0-6,1.9-7.4,4.5c-2.8-1.2-6.1-0.8-8.6,1.2c-2.5,2.1-3.4,5.3-2.7,8.2c-2.9,0.9-5.2,3.3-5.8,6.5
				s0.8,6.2,3.2,8c-1.7,2.5-1.9,5.9-0.3,8.6s4.6,4.3,7.6,4.1c0.3,3,2.3,5.7,5.4,6.8c3,1.1,6.3,0.3,8.5-1.8c2.2,2.1,5.4,2.9,8.5,1.8
				c3-1.1,5-3.8,5.4-6.8c3,0.2,6-1.3,7.6-4.1c1.6-2.8,1.4-6.1-0.3-8.6C298.5,27.4,299.9,24.4,299.3,21.2z M274.9,39.5
				c-8,0-14.5-6.5-14.5-14.5s6.5-14.5,14.5-14.5S289.4,17,289.4,25S282.9,39.5,274.9,39.5z"/>
			<path class="st0" d="M275,10.3c-8.2,0-14.8,6.6-14.8,14.8s6.6,14.8,14.8,14.8c8.2,0,14.8-6.6,14.8-14.8S283.2,10.3,275,10.3z"/>
		</g>
	</g>
	<circle class="st1" cx="274.9" cy="25.5" r="20.2"/>
	<g>
		<g>
			<path class="st2" d="M199.4,21.4c-0.6-3.2-2.9-5.6-5.8-6.5c0.7-2.9-0.2-6.1-2.7-8.2s-5.8-2.4-8.6-1.2c-1.3-2.7-4.1-4.5-7.4-4.5
				c-3.2,0-6,1.9-7.4,4.5c-2.8-1.2-6.1-0.8-8.6,1.2c-2.5,2.1-3.4,5.3-2.7,8.2c-2.9,0.9-5.2,3.3-5.8,6.5s0.8,6.2,3.2,8
				c-1.7,2.5-1.9,5.9-0.3,8.6c1.6,2.8,4.6,4.3,7.6,4.1c0.3,3,2.3,5.7,5.4,6.8c3,1.1,6.3,0.3,8.5-1.8c2.2,2.1,5.4,2.9,8.5,1.8
				c3-1.1,5-3.8,5.4-6.8c3,0.2,6-1.3,7.6-4.1c1.6-2.8,1.4-6.1-0.3-8.6C198.6,27.6,200,24.5,199.4,21.4z M175,39.6
				c-8,0-14.5-6.5-14.5-14.5S167,10.7,175,10.7s14.5,6.5,14.5,14.5S183,39.6,175,39.6z"/>
			<path class="st2" d="M175.1,10.4c-8.2,0-14.8,6.6-14.8,14.8S166.9,40,175.1,40c8.2,0,14.8-6.6,14.8-14.8S183.3,10.4,175.1,10.4z"
				/>
		</g>
	</g>
	<circle class="st1" cx="175" cy="25.7" r="20.2"/>
	<polygon class="st2" points="175,11.1 179.5,20.2 189.6,21.7 182.3,28.8 184.1,38.9 175,34.2 166,38.9 167.7,28.8 160.4,21.7 
		170.5,20.2 	"/>
	<g>
		<g>
			<path class="st3" d="M249.3,21c-0.6-3.2-2.9-5.6-5.8-6.5c0.7-2.9-0.2-6.1-2.7-8.2s-5.8-2.4-8.6-1.2c-1.3-2.7-4.1-4.5-7.4-4.5
				c-3.2,0-6,1.9-7.4,4.5c-2.8-1.2-6.1-0.8-8.6,1.2c-2.5,2.1-3.4,5.3-2.7,8.2c-2.9,0.9-5.2,3.3-5.8,6.5s0.8,6.2,3.2,8
				c-1.7,2.5-1.9,5.9-0.3,8.6c1.6,2.8,4.6,4.3,7.6,4.1c0.3,3,2.3,5.7,5.4,6.8c3,1.1,6.3,0.3,8.5-1.8c2.2,2.1,5.4,2.9,8.5,1.8
				c3-1.1,5-3.8,5.4-6.8c3,0.2,6-1.3,7.6-4.1c1.6-2.8,1.4-6.1-0.3-8.6C248.5,27.3,249.8,24.2,249.3,21z M224.9,39.3
				c-8,0-14.5-6.5-14.5-14.5s6.5-14.5,14.5-14.5s14.5,6.5,14.5,14.5S232.9,39.3,224.9,39.3z"/>
			<path class="st3" d="M225,10.1c-8.2,0-14.8,6.6-14.8,14.8s6.6,14.8,14.8,14.8c8.2,0,14.8-6.6,14.8-14.8S233.1,10.1,225,10.1z"/>
		</g>
	</g>
	<circle class="st1" cx="224.9" cy="25.3" r="20.2"/>
	<polygon class="st3" points="224.9,10.7 229.4,19.9 239.5,21.4 232.2,28.5 233.9,38.6 224.9,33.8 215.8,38.6 217.6,28.5 
		210.3,21.4 220.4,19.9 	"/>
	<g>
		<path class="st0" d="M277.1,36.8h-4.2V20.9c-1.5,1.4-3.4,2.5-5.5,3.2v-3.8c1.1-0.4,2.3-1,3.6-2.1c1.3-1,2.2-2.2,2.7-3.5h3.4V36.8z
			"/>
	</g>
</g>
<g id="Layer_2">
	<g>
		<path class="st0" d="M17.7,28.4l2.5-8.4h2.6l-3.9,11.2h-2.4L12.6,20h2.6L17.7,28.4z"/>
		<path class="st0" d="M26.3,31.2h-2.3V20h2.3V31.2z"/>
		<path class="st0" d="M30.7,27.2v3.9h-2.3V20h4.4c0.8,0,1.6,0.2,2.2,0.5c0.6,0.3,1.1,0.7,1.5,1.3s0.5,1.2,0.5,1.9
			c0,1.1-0.4,2-1.1,2.6c-0.7,0.6-1.8,0.9-3.1,0.9H30.7z M30.7,25.4h2.1c0.6,0,1.1-0.1,1.4-0.4c0.3-0.3,0.5-0.7,0.5-1.2
			c0-0.5-0.2-1-0.5-1.3c-0.3-0.3-0.8-0.5-1.3-0.5h-2.1V25.4z"/>
	</g>
</g>
</svg>
