<?xml version="1.0" encoding="utf-8"?>
<!-- Generator: Adobe Illustrator 18.0.0, SVG Export Plug-In . SVG Version: 6.00 Build 0)  -->
<!DOCTYPE svg PUBLIC "-//W3C//DTD SVG 1.1//EN" "http://www.w3.org/Graphics/SVG/1.1/DTD/svg11.dtd">
<svg version="1.1" id="Layer_1" xmlns="http://www.w3.org/2000/svg" xmlns:xlink="http://www.w3.org/1999/xlink" x="0px" y="0px"
	 width="60px" height="30px" viewBox="0 0 60 30" enable-background="new 0 0 60 30" xml:space="preserve">
<path fill="#E13274" d="M15.2,0.2C9.3,0.2,4.6,4.9,4.6,10.8c0,6.8,8.8,19.1,10.6,19.1c1.8,0,10.6-12.2,10.6-19.1
	C25.8,4.9,21,0.2,15.2,0.2z M15.2,16.7c-3.3,0-6-2.7-6-6c0-3.3,2.7-6,6-6c3.3,0,6,2.7,6,6C21.2,14,18.5,16.7,15.2,16.7z"/>
<g>
	<path fill="#E13274" d="M34.3,22.1l3.3-21.9h3.9l3.3,21.9h-3.1l-0.6-4.5h-3.1l-0.6,4.5H34.3z M39.8,7.3l-0.1-0.6h-0.2l-0.1,0.6
		l-0.9,6.9h2.2L39.8,7.3z"/>
	<path fill="#E13274" d="M46.4,22.1V0.1h2.8c1.9,0,3.4,0.4,4.4,1.3c1,0.9,1.5,2.4,1.5,4.5c0,1-0.1,1.8-0.4,2.5
		c-0.3,0.7-0.8,1.3-1.6,2c0.8,0.4,1.4,1.3,1.9,2.7c0.2,0.7,0.4,1.6,0.4,2.7c0,1.6-0.3,3.1-1,4.2s-2,1.9-3.9,2H46.4z M49.6,9.2
		c0.3,0,0.9,0,1.4-0.3c0.5-0.4,1-1.1,1-2.6S51.6,4,51,3.7c-0.5-0.4-1.2-0.3-1.4-0.3V9.2z M49.6,18.9c0.3,0,0.9,0.1,1.4-0.3
		c0.5-0.4,1-1.3,1-3s-0.4-2.7-1-3c-0.5-0.4-1.2-0.3-1.4-0.3V18.9z"/>
</g>
<g id="Icons_with_numbers">
	<g id="Group" transform="translate(-144.000000, -96.000000)">
		<path id="Shape" fill="#E13274" d="M192.1,124.2h-10.7v-3.7h10.7v-1.8l6.4,3.7l-6.4,3.7V124.2L192.1,124.2z"/>
	</g>
</g>
</svg>
