<?xml version="1.0" encoding="utf-8"?>
<!-- Generator: Adobe Illustrator 23.0.1, SVG Export Plug-In . SVG Version: 6.00 Build 0)  -->
<svg version="1.1" id="Layer_1" xmlns="http://www.w3.org/2000/svg" xmlns:xlink="http://www.w3.org/1999/xlink" x="0px" y="0px"
	 width="32px" height="16px" viewBox="0 0 32 16" style="enable-background:new 0 0 32 16;" xml:space="preserve">
<style type="text/css">
	.st0{fill:#FFFFFF;}
</style>
<g>
	<g>
		<g>
			<path class="st0" d="M15.4,12.9H0.6c-0.1,0-0.2,0-0.2,0.1c-0.1,0.1-0.1,0.2-0.1,0.2v2.1c0,0.1,0,0.2,0.1,0.2
				c0.1,0.1,0.2,0.1,0.2,0.1h14.8c0.1,0,0.2,0,0.2-0.1c0.1-0.1,0.1-0.2,0.1-0.2v-2.1c0-0.1,0-0.2-0.1-0.2
				C15.6,12.9,15.5,12.9,15.4,12.9z"/>
			<path class="st0" d="M15.4,8.7H0.6c-0.1,0-0.2,0-0.2,0.1C0.3,8.9,0.2,8.9,0.2,9v2.1c0,0.1,0,0.2,0.1,0.2c0.1,0.1,0.2,0.1,0.2,0.1
				h14.8c0.1,0,0.2,0,0.2-0.1c0.1-0.1,0.1-0.2,0.1-0.2V9c0-0.1,0-0.2-0.1-0.2C15.6,8.7,15.5,8.7,15.4,8.7z"/>
			<path class="st0" d="M15.7,0.4c-0.1-0.1-0.2-0.1-0.2-0.1H0.6c-0.1,0-0.2,0-0.2,0.1S0.2,0.6,0.2,0.7v2.1c0,0.1,0,0.2,0.1,0.2
				c0.1,0.1,0.2,0.1,0.2,0.1h14.8c0.1,0,0.2,0,0.2-0.1c0.1-0.1,0.1-0.2,0.1-0.2V0.7C15.8,0.6,15.7,0.5,15.7,0.4z"/>
			<path class="st0" d="M15.4,4.5H0.6c-0.1,0-0.2,0-0.2,0.1C0.3,4.7,0.2,4.8,0.2,4.9v2.1c0,0.1,0,0.2,0.1,0.2
				c0.1,0.1,0.2,0.1,0.2,0.1h14.8c0.1,0,0.2,0,0.2-0.1c0.1-0.1,0.1-0.2,0.1-0.2V4.9c0-0.1,0-0.2-0.1-0.2C15.6,4.5,15.5,4.5,15.4,4.5
				z"/>
		</g>
	</g>
	<g>
	</g>
	<g>
	</g>
	<g>
	</g>
	<g>
	</g>
	<g>
	</g>
	<g>
	</g>
	<g>
	</g>
	<g>
	</g>
	<g>
	</g>
	<g>
	</g>
	<g>
	</g>
	<g>
	</g>
	<g>
	</g>
	<g>
	</g>
	<g>
	</g>
</g>
<g>
	<g>
		<g>
			<g>
				<rect x="22" y="6.1" class="st0" width="3.8" height="3.8"/>
				<rect x="16.3" y="0.3" class="st0" width="3.8" height="3.8"/>
				<rect x="22" y="11.8" class="st0" width="3.8" height="3.8"/>
				<rect x="16.3" y="6.1" class="st0" width="3.8" height="3.8"/>
				<rect x="16.3" y="11.8" class="st0" width="3.8" height="3.8"/>
				<rect x="27.8" y="0.3" class="st0" width="3.8" height="3.8"/>
				<rect x="22" y="0.3" class="st0" width="3.8" height="3.8"/>
				<rect x="27.8" y="6.1" class="st0" width="3.8" height="3.8"/>
				<rect x="27.8" y="11.8" class="st0" width="3.8" height="3.8"/>
			</g>
		</g>
	</g>
	<g>
	</g>
	<g>
	</g>
	<g>
	</g>
	<g>
	</g>
	<g>
	</g>
	<g>
	</g>
	<g>
	</g>
	<g>
	</g>
	<g>
	</g>
	<g>
	</g>
	<g>
	</g>
	<g>
	</g>
	<g>
	</g>
	<g>
	</g>
	<g>
	</g>
</g>
</svg>
