<?xml version="1.0" encoding="utf-8"?>
<!-- Generator: Adobe Illustrator 18.0.0, SVG Export Plug-In . SVG Version: 6.00 Build 0)  -->
<!DOCTYPE svg PUBLIC "-//W3C//DTD SVG 1.1//EN" "http://www.w3.org/Graphics/SVG/1.1/DTD/svg11.dtd">
<svg version="1.1" id="Layer_1" xmlns="http://www.w3.org/2000/svg" xmlns:xlink="http://www.w3.org/1999/xlink" x="0px" y="0px"
	 width="160px" height="40px" viewBox="0 0 160 40" enable-background="new 0 0 160 40" xml:space="preserve">
<g id="Flat_copy">
	<path fill="#8F867F" d="M24.8,4.3c-3.5,1.3-5.7,4.5-5.5,8.1l0.1,1.4l-1.4-0.2C13,13,8.6,10.8,4.8,7.1L2.9,5.2L2.5,6.6
		c-1,3-0.4,6.2,1.7,8.4c1.1,1.2,0.9,1.4-1.1,0.6c-0.7-0.2-1.3-0.4-1.3-0.3c-0.2,0.2,0.5,2.8,1,3.8c0.7,1.4,2.2,2.8,3.8,3.6L8,23.4
		l-1.6,0c-1.6,0-1.6,0-1.5,0.6c0.6,1.8,2.8,3.8,5.2,4.6l1.7,0.6l-1.5,0.9c-2.2,1.3-4.9,2-7.5,2.1c-1.3,0-2.3,0.1-2.3,0.2
		c0,0.3,3.4,1.9,5.4,2.5c6,1.8,13,1,18.3-2.1c3.8-2.2,7.5-6.7,9.3-11c1-2.3,1.9-6.5,1.9-8.5c0-1.3,0.1-1.5,1.6-3
		c0.9-0.9,1.8-1.9,2-2.2c0.3-0.5,0.3-0.5-1.2-0.1c-2.4,0.8-2.7,0.7-1.5-0.5c0.9-0.9,1.9-2.5,1.9-3c0-0.1-0.4,0.1-0.9,0.3
		c-0.5,0.3-1.6,0.7-2.5,1l-1.5,0.5l-1.4-0.9c-0.8-0.5-1.8-1.1-2.4-1.2C28.3,3.8,26.1,3.8,24.8,4.3z"/>
</g>
<g id="Flat_copy_1_">
	<path fill="#8F867F" d="M54.7,39.4h7.9v-19h5.2l0.7-6.6h-5.9l0-3.3c0-1.7,0.2-2.6,2.6-2.6h3.3V1.3h-5.2c-6.3,0-8.5,3.2-8.5,8.5v3.9
		h-3.9v6.6h3.9V39.4z"/>
</g>
<g>
	<path fill="#8F867F" d="M118.5,16.7h-5.8v-5.8c0-0.4-0.4-0.8-0.8-0.8h-1.7c-0.4,0-0.8,0.4-0.8,0.8v5.8h-5.8c-0.4,0-0.8,0.4-0.8,0.8
		v1.7c0,0.4,0.4,0.8,0.8,0.8h5.8v5.8c0,0.4,0.4,0.8,0.8,0.8h1.7c0.4,0,0.8-0.4,0.8-0.8V20h5.8c0.4,0,0.8-0.4,0.8-0.8v-1.7
		C119.3,17.1,118.9,16.7,118.5,16.7z"/>
	<path fill="#8F867F" d="M98.9,21.8c-1.2-0.9-2.3-2.1-2.4-2.5c0-0.7,0.1-1,1.7-2.3c2.1-1.6,3.2-3.7,3.2-6c0-2-0.6-3.8-1.7-5.1h0.8
		c0.2,0,0.3-0.1,0.5-0.2l2.3-1.7c0.3-0.2,0.4-0.6,0.3-0.9c-0.1-0.3-0.4-0.6-0.8-0.6H92.6c-1.1,0-2.3,0.2-3.4,0.6
		C85.6,4.6,83,7.7,83,11c0,4.6,3.6,8.1,8.4,8.2c-0.1,0.4-0.1,0.7-0.1,1.1c0,0.7,0.2,1.4,0.6,2c0,0-0.1,0-0.1,0
		c-4.6,0-8.7,2.2-10.2,5.6c-0.4,0.9-0.6,1.7-0.6,2.6c0,0.8,0.2,1.6,0.6,2.4c1,1.8,3.1,3.1,5.9,3.8c1.5,0.4,3,0.6,4.7,0.6
		c1.5,0,2.9-0.2,4.2-0.6c4-1.2,6.7-4.2,6.7-7.6C102.9,25.8,101.8,23.9,98.9,21.8z M86,29.4c0-2.4,3.1-4.5,6.5-4.5h0.1
		c0.8,0,1.5,0.1,2.2,0.3c0.2,0.2,0.5,0.3,0.7,0.5c1.6,1.1,2.7,1.8,3,3c0.1,0.3,0.1,0.6,0.1,0.9c0,3-2.2,4.5-6.6,4.5
		C88.7,34.1,86,32,86,29.4z M89.2,6.7c0.5-0.6,1.3-0.9,2.1-0.9l0.1,0c2.3,0.1,4.4,2.6,4.8,5.6c0.2,1.7-0.2,3.3-1,4.3
		c-0.5,0.6-1.2,0.9-2.1,0.9c0,0,0,0,0,0h0c-2.2-0.1-4.4-2.7-4.8-5.7C88,9.2,88.4,7.7,89.2,6.7z"/>
</g>
<path fill="#8F867F" d="M139.9,21.5c-3.1,0-18.9-12.7-18.9-12.7V7.3c0-1.7,1.4-3.1,3.1-3.1h31.5c1.7,0,3.1,1.4,3.1,3.1l0,1.6
	C158.7,8.9,143.1,21.5,139.9,21.5z M139.9,25.8c3.4,0,18.9-12.2,18.9-12.2l0,18.9c0,1.7-1.4,3.1-3.1,3.1h-31.5
	c-1.7,0-3.1-1.4-3.1-3.1l0-18.9C121,13.6,136.8,25.8,139.9,25.8z"/>
</svg>
