<?xml version="1.0" encoding="utf-8"?>
<!-- Generator: Adobe Illustrator 18.0.0, SVG Export Plug-In . SVG Version: 6.00 Build 0)  -->
<!DOCTYPE svg PUBLIC "-//W3C//DTD SVG 1.1//EN" "http://www.w3.org/Graphics/SVG/1.1/DTD/svg11.dtd">
<svg version="1.1" id="Layer_1" xmlns="http://www.w3.org/2000/svg" xmlns:xlink="http://www.w3.org/1999/xlink" x="0px" y="0px"
	 width="108px" height="54px" viewBox="0 0 108 54" enable-background="new 0 0 108 54" xml:space="preserve">
<g>
	<path fill="#E13274" d="M54,50.6c0,1.9-1.5,3.4-3.4,3.4H3.4C1.5,54,0,52.5,0,50.6V3.4C0,1.5,1.5,0,3.4,0h47.3C52.5,0,54,1.5,54,3.4
		V50.6z"/>
	<path fill="#FFFFFF" d="M43.9,16.7c-1.2,0.5-2.6,0.9-4,1.1c1.4-0.8,2.5-2.2,3-3.8c-1.3,0.8-2.8,1.3-4.4,1.7
		c-1.3-1.3-3.1-2.2-5.1-2.2c-3.8,0-6.9,3.1-6.9,6.8c0,0.5,0.1,1.1,0.2,1.6c-5.8-0.3-10.9-3-14.3-7.1c-0.6,1-0.9,2.2-0.9,3.4
		c0,2.4,1.2,4.4,3.1,5.7c-1.1,0-2.2-0.3-3.1-0.9c0,0,0,0.1,0,0.1c0,3.3,2.4,6.1,5.6,6.7c-0.6,0.2-1.2,0.2-1.8,0.2
		c-0.4,0-0.9,0-1.3-0.1c0.9,2.7,3.4,4.7,6.5,4.7c-2.4,1.8-5.3,2.9-8.6,2.9c-0.6,0-1.1,0-1.7-0.1c3.1,1.9,6.7,3.1,10.6,3.1
		c12.7,0,19.7-10.4,19.7-19.4c0-0.3,0-0.6,0-0.9C41.8,19.3,42.9,18.1,43.9,16.7z"/>
</g>
<g>
	<path fill="#E13274" d="M108,50.6c0,1.9-1.5,3.4-3.4,3.4H57.4c-1.9,0-3.4-1.5-3.4-3.4V3.4c0-1.9,1.5-3.4,3.4-3.4h47.2
		c1.9,0,3.4,1.5,3.4,3.4V50.6z"/>
	<path id="f" fill="#FFFFFF" d="M91.2,54V33.7h6.7l1.7-8.4h-8.4v-3.4c0-3.4,1.7-5.1,5.1-5.1h3.4V8.4c-1.7,0-3.8,0-6.7,0
		c-6.2,0-10.1,4.9-10.1,11.8v5.1H76v8.4h6.7V54H91.2z"/>
</g>
</svg>
