<?xml version="1.0" encoding="utf-8"?>
<!-- Generator: Adobe Illustrator 23.0.4, SVG Export Plug-In . SVG Version: 6.00 Build 0)  -->
<svg version="1.1" xmlns="http://www.w3.org/2000/svg" xmlns:xlink="http://www.w3.org/1999/xlink" x="0px" y="0px" width="230px"
	 height="60px" viewBox="0 0 230 60" style="enable-background:new 0 0 230 60;" xml:space="preserve">
<style type="text/css">
	.st0{fill:#FFFFFF;}
	.st1{fill:#BBBBBF;}
	.st2{fill:#1A1A1A;}
	.st3{fill:#333333;}
	.st4{fill:#DADADB;}
	.st5{fill:#F6E8EF;}
	.st6{fill:#CD3A74;}
</style>
<g id="Layer_1">
	<rect x="128.4" y="20.6" class="st0" width="36.9" height="17.4"/>
	<path class="st1" d="M201.1,0.6h-57.7c-15.4,0-28,12.6-28,28v3.3c0,15.4,12.6,28,28,28h57.7c15.4,0,28-12.6,28-28v-3.3
		C229.1,13.2,216.5,0.6,201.1,0.6z M215.4,31.4c0,10.6-9.6,19.2-21.2,19.2h-31.8c-4.4,3.4-9.9,5.5-15.9,5.5
		c-14.3,0-25.8-11.6-25.8-25.8c0-14.3,11.6-25.8,25.8-25.8c6,0,11.5,2.1,15.9,5.5h31.8c11.7,0,21.2,8.6,21.2,19.2V31.4z"/>
	<path class="st2" d="M194.1,9.9h-31.8c0.7,0.6,1.5,1.2,2.1,1.9h28.5c10.8,0,19.6,7.9,19.6,17.4v2.1c0,9.6-8.8,17.4-19.6,17.4h-28.5
		c-0.7,0.7-1.4,1.3-2.1,1.9h31.8c11.7,0,21.2-8.6,21.2-19.2v-2.3C215.4,18.6,205.8,9.9,194.1,9.9z"/>
	<path class="st3" d="M172.3,30.3c0,7.2-3,13.8-7.8,18.5h28.5c10.8,0,19.6-7.9,19.6-17.4v-2.1c0-9.6-8.8-17.4-19.6-17.4h-28.5
		C169.3,16.5,172.3,23,172.3,30.3z"/>
	<path class="st4" d="M172.3,30.3c0-7.2-3-13.8-7.8-18.5c-0.7-0.7-1.4-1.3-2.1-1.9c-4.4-3.4-9.9-5.5-15.9-5.5
		c-14.3,0-25.8,11.6-25.8,25.8c0,14.3,11.6,25.8,25.8,25.8c6,0,11.5-2.1,15.9-5.5c0.7-0.6,1.5-1.2,2.1-1.9
		C169.3,44,172.3,37.5,172.3,30.3z M146.4,52.8c-12.4,0-22.5-10.1-22.5-22.5c0-12.4,10.1-22.5,22.5-22.5c12.4,0,22.5,10.1,22.5,22.5
		C169,42.7,158.9,52.8,146.4,52.8z"/>
	<path class="st2" d="M135.3,35.1c2.2,0,3.5-2.1,3.5-4.9c0-2.6-1.2-4.8-3.5-4.8c-2.2,0-3.5,2.1-3.5,4.9
		C131.8,33.1,133.2,35.1,135.3,35.1z"/>
	<path class="st2" d="M169,30.3c0-12.4-10.1-22.5-22.5-22.5c-12.4,0-22.5,10.1-22.5,22.5c0,12.4,10.1,22.5,22.5,22.5
		C158.9,52.8,169,42.7,169,30.3z M144.4,23h8.8v2.7h-5.5V29h5.2v2.7h-5.2v5.8h-3.3V23z M164.5,23v2.7H159V29h5.2v2.7H159v5.8h-3.3
		V23H164.5z M135.4,22.8c4.4,0,6.9,3.3,6.9,7.3c0,4.7-2.9,7.6-7.1,7.6c-4.3,0-6.8-3.2-6.8-7.3C128.4,26,131.1,22.8,135.4,22.8z"/>
	<path class="st0" d="M135.2,37.7c4.2,0,7.1-2.9,7.1-7.6c0-4-2.4-7.3-6.9-7.3c-4.3,0-7,3.2-7,7.6C128.4,34.5,130.9,37.7,135.2,37.7z
		 M135.3,25.4c2.2,0,3.5,2.2,3.5,4.8c0,2.8-1.3,4.9-3.5,4.9c-2.2,0-3.5-2-3.5-4.8C131.8,27.5,133.1,25.4,135.3,25.4z"/>
	<polygon class="st0" points="155.7,37.5 159,37.5 159,31.7 164.2,31.7 164.2,29 159,29 159,25.7 164.5,25.7 164.5,23 155.7,23 	"/>
	<path class="st1" d="M86.7,0.5H28.8C13.4,0.5,0.8,13.2,0.8,28.6v3.3C0.8,47.4,13.4,60,28.8,60h57.8c15.5,0,28.1-12.6,28.1-28.1
		v-3.3C114.8,13.2,102.1,0.5,86.7,0.5z M83.7,56.2c-6,0-11.5-2.1-15.9-5.5H35.8c-11.7,0-21.3-8.7-21.3-19.2v-2.3
		c0-10.6,9.6-19.2,21.3-19.2h31.9c4.4-3.4,9.9-5.5,15.9-5.5c14.3,0,25.9,11.6,25.9,25.9C109.5,44.6,97.9,56.2,83.7,56.2z"/>
	<path class="st5" d="M38.1,48.5c-10.8,0-19.6-7.9-19.6-17.5v-2.1c0-9.6,8.8-17.5,19.6-17.5h27.5c0.7-0.7,1.4-1.3,2.1-1.9H35.8
		c-11.7,0-21.3,8.7-21.3,19.2v2.3c0,10.6,9.6,19.2,21.3,19.2h31.9c-0.7-0.6-1.5-1.2-2.1-1.9H38.1z"/>
	<path class="st6" d="M18.5,28.9V31c0,9.6,8.8,17.5,19.6,17.5h27.5c-4.8-4.7-7.8-11.3-7.8-18.5c0-7.3,3-13.8,7.8-18.5H38.1
		C27.3,11.4,18.5,19.3,18.5,28.9z"/>
	<path class="st4" d="M83.7,4.4c-6,0-11.5,2.1-15.9,5.5c-0.7,0.6-1.5,1.2-2.1,1.9c-4.8,4.7-7.8,11.3-7.8,18.5c0,7.3,3,13.8,7.8,18.5
		c0.7,0.7,1.4,1.3,2.1,1.9c4.4,3.4,9.9,5.5,15.9,5.5c14.3,0,25.9-11.6,25.9-25.9C109.5,16,97.9,4.4,83.7,4.4z M83.7,52.8
		c-12.5,0-22.6-10.1-22.6-22.6c0-12.5,10.1-22.6,22.6-22.6c12.5,0,22.6,10.1,22.6,22.6C106.2,42.7,96.1,52.8,83.7,52.8z"/>
	<path class="st6" d="M83.7,7.7c-12.5,0-22.6,10.1-22.6,22.6c0,12.5,10.1,22.6,22.6,22.6c12.5,0,22.6-10.1,22.6-22.6
		C106.2,17.8,96.1,7.7,83.7,7.7z M64.2,30.4c0-5.8,3.7-10.1,9.4-10.1c5.9,0,9.1,4.4,9.1,9.7c0,6.3-3.8,10.1-9.5,10.1
		C67.5,40.2,64.2,35.9,64.2,30.4z M101.5,39.9h-4.6l-4.1-7.4c-1.1-2.1-2.4-4.5-3.3-6.8l-0.1,0c0.1,2.5,0.2,5.3,0.2,8.4v5.8h-4V20.6
		h5.1l4,7.1c1.1,2,2.3,4.4,3.1,6.6h0.1c-0.3-2.5-0.4-5.1-0.4-8v-5.6h4V39.9z"/>
	<g id="Layer_3">
		<circle class="st6" cx="83.1" cy="30.3" r="20.6"/>
	</g>
	<path class="st6" d="M78.1,29.9c0-3.5-1.7-6.4-4.7-6.4c-2.9,0-4.7,2.8-4.7,6.5c0,3.8,1.8,6.4,4.7,6.4
		C76.4,36.4,78.1,33.6,78.1,29.9z"/>
	<path class="st5" d="M83.3,30c0-4-2.4-7.3-6.9-7.3c-4.3,0-7,3.2-7,7.6c0,4.1,2.5,7.4,6.8,7.4C80.5,37.6,83.3,34.8,83.3,30z
		 M72.9,30.2c0-2.8,1.3-4.9,3.5-4.9c2.3,0,3.5,2.2,3.5,4.8c0,2.8-1.3,4.9-3.5,4.9C74.2,35,72.9,33.1,72.9,30.2z"/>
	<path class="st5" d="M94.7,22.7v4.4c0,2.3,0.1,4.3,0.3,6.3h-0.1c-0.7-1.7-1.6-3.6-2.5-5.2l-3.1-5.5h-4v15.1h3.1v-4.6
		c0-2.5,0-4.6-0.1-6.6l0.1,0c0.7,1.8,1.7,3.7,2.6,5.3l3.2,5.8h3.6V22.7H94.7z"/>
</g>
<g id="Layer_2">
</g>
</svg>
