<?xml version="1.0" encoding="utf-8"?>
<!-- Generator: Adobe Illustrator 22.1.0, SVG Export Plug-In . SVG Version: 6.00 Build 0)  -->
<svg version="1.1" id="Layer_1" xmlns="http://www.w3.org/2000/svg" xmlns:xlink="http://www.w3.org/1999/xlink" x="0px" y="0px"
	 width="42px" height="14.1px" viewBox="0 0 42 14.1" enable-background="new 0 0 42 14.1" xml:space="preserve">
<g>
	<g>
		<path fill="#00CC00" d="M13,2.9C13.6,2.2,14,1.4,14,0.8c0-0.2,0-0.3-0.1-0.4c0,0,0,0-0.1-0.1c0,0-0.1-0.1-0.1-0.1
			c-0.1-0.1-0.3-0.1-0.4-0.1c-0.6,0-1.4,0.3-2.1,0.9C10.5,1.5,9.9,2.1,9,3C8.9,3.2,8.8,3.4,8.6,3.5L6.9,3l0,0C7,3,7,2.9,7,2.8
			c0-0.1,0-0.2-0.1-0.3L6.6,2.2C6.6,2.1,6.5,2.1,6.4,2.1c-0.1,0-0.2,0-0.3,0.1L5.7,2.6L5.4,2.6c0.1-0.1,0.1-0.1,0.1-0.2
			c0-0.1,0-0.2-0.1-0.3L5.1,1.8C5,1.7,4.9,1.7,4.8,1.7c-0.1,0-0.2,0-0.3,0.1L4.2,2.2L2.5,1.7c0,0-0.1,0-0.1,0c-0.1,0-0.2,0-0.3,0.1
			L1.4,2.4C1.4,2.5,1.3,2.6,1.3,2.6c0,0.1,0.1,0.2,0.2,0.3l3.5,2c0,0,0.1,0,0.1,0.1l1,1C5.2,7,4.4,8,3.7,8.8C3.7,8.9,3.6,9,3.5,9
			L0.8,8.8c0,0,0,0,0,0c-0.1,0-0.2,0.1-0.3,0.1L0.1,9.2C0.1,9.3,0,9.4,0,9.4c0,0.1,0.1,0.3,0.2,0.3l1.9,0.9c0,0,0.1,0,0.1,0.1
			l0.2,0.2c-0.1,0.1-0.1,0.3-0.1,0.4c0,0.1,0,0.3,0.1,0.4l0,0l0,0c0.1,0.1,0.2,0.1,0.4,0.1c0.1,0,0.2,0,0.4-0.1l0.2,0.2
			c0,0,0,0.1,0.1,0.1l0.9,1.9C4.4,14,4.5,14,4.6,14h0c0.1,0,0.2,0,0.2-0.1l0.3-0.3c0.1-0.1,0.1-0.2,0.1-0.3c0,0,0,0,0,0L5,10.5
			c0.1-0.1,0.2-0.1,0.2-0.2c0.8-0.7,1.8-1.5,2.8-2.4l1,1c0,0,0.1,0.1,0.1,0.1l2,3.5c0.1,0.1,0.2,0.2,0.3,0.2c0.1,0,0.2,0,0.2-0.1
			l0.6-0.6c0.1-0.1,0.1-0.2,0.1-0.3c0,0,0-0.1,0-0.1l-0.5-1.7l0.4-0.4c0.1-0.1,0.1-0.2,0.1-0.3c0-0.1,0-0.2-0.1-0.3L12,8.7
			c-0.1-0.1-0.2-0.1-0.3-0.1c-0.1,0-0.2,0-0.2,0.1l-0.1-0.2L11.9,8C11.9,7.9,12,7.8,12,7.7c0-0.1,0-0.2-0.1-0.3l-0.3-0.3
			C11.5,7.1,11.4,7,11.3,7c-0.1,0-0.2,0-0.3,0.1l0,0l-0.5-1.7C10.7,5.3,10.9,5.2,11,5C11.9,4.2,12.6,3.5,13,2.9z"/>
	</g>
	<g>
	</g>
	<g>
	</g>
	<g>
	</g>
	<g>
	</g>
	<g>
	</g>
	<g>
	</g>
	<g>
	</g>
	<g>
	</g>
	<g>
	</g>
	<g>
	</g>
	<g>
	</g>
	<g>
	</g>
	<g>
	</g>
	<g>
	</g>
	<g>
	</g>
</g>
<g>
	<g>
		<path fill="#D1BA11" d="M27,2.9C27.6,2.2,28,1.4,28,0.8c0-0.2,0-0.3-0.1-0.4c0,0,0,0-0.1-0.1c0,0-0.1-0.1-0.1-0.1
			c-0.1-0.1-0.3-0.1-0.4-0.1c-0.6,0-1.4,0.3-2.1,0.9c-0.6,0.5-1.2,1.1-2.1,2c-0.1,0.2-0.3,0.3-0.5,0.5L20.9,3l0,0
			C21,3,21,2.9,21,2.8c0-0.1,0-0.2-0.1-0.3l-0.3-0.3c-0.1-0.1-0.2-0.1-0.3-0.1c-0.1,0-0.2,0-0.3,0.1l-0.4,0.4l-0.2-0.1
			c0.1-0.1,0.1-0.1,0.1-0.2c0-0.1,0-0.2-0.1-0.3l-0.3-0.3c-0.1-0.1-0.2-0.1-0.3-0.1c-0.1,0-0.2,0-0.3,0.1l-0.4,0.4l-1.7-0.5
			c0,0-0.1,0-0.1,0c-0.1,0-0.2,0-0.3,0.1l-0.6,0.6c-0.1,0.1-0.1,0.2-0.1,0.2c0,0.1,0.1,0.2,0.2,0.3l3.5,2c0,0,0.1,0,0.1,0.1l1,1
			c-0.9,1-1.8,2-2.4,2.8C17.7,8.9,17.6,9,17.5,9l-2.7-0.2c0,0,0,0,0,0c-0.1,0-0.2,0.1-0.3,0.1l-0.3,0.3C14.1,9.3,14,9.4,14,9.4
			c0,0.1,0.1,0.3,0.2,0.3l1.9,0.9c0,0,0.1,0,0.1,0.1l0.2,0.2c-0.1,0.1-0.1,0.3-0.1,0.4c0,0.1,0,0.3,0.1,0.4l0,0l0,0
			c0.1,0.1,0.2,0.1,0.4,0.1c0.1,0,0.2,0,0.4-0.1l0.2,0.2c0,0,0,0.1,0.1,0.1l0.9,1.9c0.1,0.1,0.2,0.2,0.3,0.2h0c0.1,0,0.2,0,0.2-0.1
			l0.3-0.3c0.1-0.1,0.1-0.2,0.1-0.3c0,0,0,0,0,0L19,10.5c0.1-0.1,0.2-0.1,0.2-0.2c0.8-0.7,1.8-1.5,2.8-2.4l1,1c0,0,0.1,0.1,0.1,0.1
			l2,3.5c0.1,0.1,0.2,0.2,0.3,0.2c0.1,0,0.2,0,0.2-0.1l0.6-0.6c0.1-0.1,0.1-0.2,0.1-0.3c0,0,0-0.1,0-0.1l-0.5-1.7l0.4-0.4
			c0.1-0.1,0.1-0.2,0.1-0.3c0-0.1,0-0.2-0.1-0.3L26,8.7c-0.1-0.1-0.2-0.1-0.3-0.1c-0.1,0-0.2,0-0.2,0.1l-0.1-0.2L25.9,8
			C25.9,7.9,26,7.8,26,7.7c0-0.1,0-0.2-0.1-0.3l-0.3-0.3C25.5,7.1,25.4,7,25.3,7c-0.1,0-0.2,0-0.3,0.1l0,0l-0.5-1.7
			C24.7,5.3,24.9,5.2,25,5C25.9,4.2,26.6,3.5,27,2.9z"/>
	</g>
	<g>
	</g>
	<g>
	</g>
	<g>
	</g>
	<g>
	</g>
	<g>
	</g>
	<g>
	</g>
	<g>
	</g>
	<g>
	</g>
	<g>
	</g>
	<g>
	</g>
	<g>
	</g>
	<g>
	</g>
	<g>
	</g>
	<g>
	</g>
	<g>
	</g>
</g>
<g>
	<g>
		<path fill="#6D6D6D" d="M41,2.9C41.6,2.2,42,1.4,42,0.8c0-0.2,0-0.3-0.1-0.4c0,0,0,0-0.1-0.1c0,0-0.1-0.1-0.1-0.1
			c-0.1-0.1-0.3-0.1-0.4-0.1c-0.6,0-1.4,0.3-2.1,0.9c-0.6,0.5-1.2,1.1-2.1,2c-0.1,0.2-0.3,0.3-0.5,0.5L34.9,3l0,0
			C35,3,35,2.9,35,2.8c0-0.1,0-0.2-0.1-0.3l-0.3-0.3c-0.1-0.1-0.2-0.1-0.3-0.1c-0.1,0-0.2,0-0.3,0.1l-0.4,0.4l-0.2-0.1
			c0.1-0.1,0.1-0.1,0.1-0.2c0-0.1,0-0.2-0.1-0.3l-0.3-0.3c-0.1-0.1-0.2-0.1-0.3-0.1c-0.1,0-0.2,0-0.3,0.1l-0.4,0.4l-1.7-0.5
			c0,0-0.1,0-0.1,0c-0.1,0-0.2,0-0.3,0.1l-0.6,0.6c-0.1,0.1-0.1,0.2-0.1,0.2c0,0.1,0.1,0.2,0.2,0.3l3.5,2c0,0,0.1,0,0.1,0.1l1,1
			c-0.9,1-1.8,2-2.4,2.8C31.7,8.9,31.6,9,31.5,9l-2.7-0.2c0,0,0,0,0,0c-0.1,0-0.2,0.1-0.3,0.1l-0.3,0.3C28.1,9.3,28,9.4,28,9.4
			c0,0.1,0.1,0.3,0.2,0.3l1.9,0.9c0,0,0.1,0,0.1,0.1l0.2,0.2c-0.1,0.1-0.1,0.3-0.1,0.4c0,0.1,0,0.3,0.1,0.4l0,0l0,0
			c0.1,0.1,0.2,0.1,0.4,0.1c0.1,0,0.2,0,0.4-0.1l0.2,0.2c0,0,0,0.1,0.1,0.1l0.9,1.9c0.1,0.1,0.2,0.2,0.3,0.2h0c0.1,0,0.2,0,0.2-0.1
			l0.3-0.3c0.1-0.1,0.1-0.2,0.1-0.3c0,0,0,0,0,0L33,10.5c0.1-0.1,0.2-0.1,0.2-0.2c0.8-0.7,1.8-1.5,2.8-2.4l1,1c0,0,0.1,0.1,0.1,0.1
			l2,3.5c0.1,0.1,0.2,0.2,0.3,0.2c0.1,0,0.2,0,0.2-0.1l0.6-0.6c0.1-0.1,0.1-0.2,0.1-0.3c0,0,0-0.1,0-0.1l-0.5-1.7l0.4-0.4
			c0.1-0.1,0.1-0.2,0.1-0.3c0-0.1,0-0.2-0.1-0.3L40,8.7c-0.1-0.1-0.2-0.1-0.3-0.1c-0.1,0-0.2,0-0.2,0.1l-0.1-0.2L39.9,8
			C39.9,7.9,40,7.8,40,7.7c0-0.1,0-0.2-0.1-0.3l-0.3-0.3C39.5,7.1,39.4,7,39.3,7c-0.1,0-0.2,0-0.3,0.1l0,0l-0.5-1.7
			C38.7,5.3,38.9,5.2,39,5C39.9,4.2,40.6,3.5,41,2.9z"/>
	</g>
	<g>
	</g>
	<g>
	</g>
	<g>
	</g>
	<g>
	</g>
	<g>
	</g>
	<g>
	</g>
	<g>
	</g>
	<g>
	</g>
	<g>
	</g>
	<g>
	</g>
	<g>
	</g>
	<g>
	</g>
	<g>
	</g>
	<g>
	</g>
	<g>
	</g>
</g>
</svg>
