<?xml version="1.0" encoding="utf-8"?>
<!-- Generator: Adobe Illustrator 22.1.0, SVG Export Plug-In . SVG Version: 6.00 Build 0)  -->
<svg version="1.1" id="Layer_1" xmlns="http://www.w3.org/2000/svg" xmlns:xlink="http://www.w3.org/1999/xlink" x="0px" y="0px"
	 width="345px" height="88.5px" viewBox="0 0 345 88.5" style="enable-background:new 0 0 345 88.5;" xml:space="preserve">
<style type="text/css">
	.st0{fill:#E13475;}
	.st1{fill:#FFFFFF;}
</style>
<g>
	<path class="st0" d="M0.7,14.1V1.2H37v12.9H25.1v72.4H12.6V14.1H0.7z"/>
	<path class="st0" d="M71.4,24c0-2.8-0.1-6-0.9-8.3c-0.8-2.4-2.1-3.9-4-3.9c-3.3,0.1-4.3,3.5-4.3,8.4c0,2.9,1.2,6,3.1,9.2
		c1.9,3.3,4.3,6.6,6.7,10.2c2.9,4.3,5.8,8.7,8,13s3.7,8.7,3.7,13.4c0,5.7-0.9,11-3.6,14.9c-2.7,3.9-7,6.5-13.8,6.5
		c-8,0-12.6-3-15.1-7.6c-2.6-4.6-3.1-10.8-3.1-17.2l12.4-1.1c0,3.6,0.1,7.2,1,9.9c0.8,2.8,2.2,4.6,4.8,4.6c3.7,0,5.1-3.9,5.1-9.4
		c0-2.8-1.3-6.1-3.3-9.4c-1-1.6-2.1-3.4-3.3-5.1c-2.5-3.5-5.1-7.4-7.9-11.7s-4.8-8.7-6.2-13.3c-0.7-2.2-1-4.5-1-6.9
		c0-4.6,1-9.7,3.7-13.5c2.7-3.7,6.7-6.4,12.7-6.5C73.6,0.2,78,3.2,80.5,7.8c2.5,4.6,3.1,10.3,3.1,15.1L71.4,24z"/>
	<path class="st1" d="M122.7,68h-19.3v-11l18.3-55.7h12.6v55.7h5.8v11h-5.8v18.5h-11.5V68H122.7z M114.1,56.9h8.7V27.7h-0.7
		l-0.7,2.6L114.1,56.9z"/>
	<path class="st0" d="M184.1,86.5l-6.5-36h-3.4v36h-12.6V1.2h12.6c14.9,0,21.4,8.4,21.4,24.6c0,8.4-2.2,16.2-7,19.4l8,41.2H184.1z
		 M174.2,39c1.7,0,4-0.2,6-1.9s3.4-4.7,3.4-10.8s-1.5-9.3-3.4-10.9s-4.2-1.7-6-1.7V39z"/>
	<path class="st0" d="M212.3,1.2H241v12.9h-16.2v22.4h11.6v13.7h-11.6v23.5H241v12.8h-28.7V1.2z"/>
	<path class="st0" d="M269.8,42.1l-1-3.9h-0.7v48.3h-11.5V1.2h11.1L280,45.7l1,3.9h0.7V1.2h11.6v85.3h-11.1L269.8,42.1z"/>
	<path class="st0" d="M306.8,14.1V1.2H343v12.9h-11.8v72.4h-12.6V14.1H306.8z"/>
</g>
</svg>
