<?xml version="1.0" encoding="utf-8"?>
<!-- Generator: Adobe Illustrator 22.0.1, SVG Export Plug-In . SVG Version: 6.00 Build 0)  -->
<svg version="1.1" id="Layer_1" xmlns="http://www.w3.org/2000/svg" xmlns:xlink="http://www.w3.org/1999/xlink" x="0px" y="0px"
	 width="26.625px" height="21px" viewBox="0 0 26.625 21" enable-background="new 0 0 26.625 21" xml:space="preserve">
<g>
	<g>
		<path fill="#E13274" d="M9.007,20.894c-2.582,0-5.141-0.715-7.398-2.067L0,17.864l1.875,0.032
			c0.061,0.003,0.159,0.008,0.313,0.008c0.714,0,2.988-0.115,5.319-1.431c-1.753-0.521-3.201-1.876-3.797-3.65l-0.295-0.878
			l0.805,0.209c-1.29-0.991-2.133-2.514-2.226-4.211L1.949,7.13l0.746,0.326c0.136,0.06,0.274,0.112,0.415,0.158
			C2.05,6.131,1.409,3.84,2.746,1.406l0.368-0.671L3.582,1.34c2.242,2.899,5.567,4.667,9.193,4.909
			c-0.022-0.225-0.038-0.432-0.038-0.497c0-2.691,2.048-5.474,5.474-5.474c1.438,0,2.823,0.571,3.842,1.577
			c1.367-0.321,2.673-1.118,2.687-1.127L25.926,0l-0.447,1.318c-0.215,0.631-0.542,1.212-0.961,1.72
			c0.229-0.075,0.453-0.161,0.685-0.261l1.423-0.695l-0.598,1.284c-0.494,1.061-1.317,1.936-2.339,2.496
			c0.225,3.512-1.219,7.43-3.817,10.307c-1.928,2.136-5.362,4.69-10.772,4.724L9.007,20.894z M3.734,18.792
			c1.672,0.722,3.466,1.099,5.272,1.099l0.086,0c5.044-0.032,8.241-2.407,10.034-4.393c2.5-2.77,3.856-6.556,3.536-9.883
			l-0.034-0.353l0.321-0.149c0.509-0.237,0.965-0.567,1.348-0.968c-0.428,0.108-0.885,0.189-1.412,0.253l-0.385,0.047l-0.3-0.76
			l0.349-0.269c0.489-0.286,0.915-0.66,1.26-1.097c-0.545,0.232-1.189,0.459-1.832,0.579l-0.275,0.051l-0.188-0.207
			c-0.846-0.928-2.049-1.46-3.303-1.46c-2.798,0-4.471,2.273-4.471,4.471c0,0.133,0.066,0.738,0.09,0.893l0.228,0.648l-0.724-0.016
			C9.452,7.194,5.839,5.492,3.304,2.58C2.3,5.215,3.985,7.32,4.789,7.95l1.176,0.922L4.471,8.846
			c-0.468-0.008-0.926-0.072-1.37-0.19c0.395,1.761,1.786,3.175,3.594,3.564l1.979,0.425l-1.948,0.548
			c-0.34,0.095-0.725,0.143-1.145,0.143c-0.197,0-0.385-0.011-0.558-0.027c0.784,1.379,2.243,2.307,3.857,2.385l1.411,0.069
			l-1.138,0.836C7.203,18.035,5.18,18.587,3.734,18.792z"/>
	</g>
	<g>
	</g>
	<g>
	</g>
	<g>
	</g>
	<g>
	</g>
	<g>
	</g>
	<g>
	</g>
	<g>
	</g>
	<g>
	</g>
	<g>
	</g>
	<g>
	</g>
	<g>
	</g>
	<g>
	</g>
	<g>
	</g>
	<g>
	</g>
	<g>
	</g>
</g>
</svg>
