<?xml version="1.0" encoding="utf-8"?>
<!-- Generator: Adobe Illustrator 21.1.0, SVG Export Plug-In . SVG Version: 6.00 Build 0)  -->
<svg version="1.1" id="Layer_1" xmlns="http://www.w3.org/2000/svg" xmlns:xlink="http://www.w3.org/1999/xlink" x="0px" y="0px"
	 width="100px" height="100px" viewBox="0 0 100 100" style="enable-background:new 0 0 100 100;" xml:space="preserve">
<style type="text/css">
	.st0{fill:#E13274;}
</style>
<g>
	<g>
		<g>
			<path class="st0" d="M93.3,25C86.6,13.4,75.8,5.2,62.9,1.7C50-1.7,36.6,0,25,6.7C13.4,13.4,5.2,24.2,1.7,37.1
				C-1.7,50,0,63.4,6.7,75c6.7,11.6,17.5,19.8,30.3,23.3c4.3,1.2,8.7,1.7,13,1.7c8.7,0,17.2-2.3,24.9-6.7
				c11.6-6.7,19.8-17.5,23.3-30.3C101.7,50,100,36.6,93.3,25z M93.2,61.6c-3.1,11.6-10.5,21.2-20.9,27.2c-10.4,6-22.4,7.6-34,4.5
				c-11.6-3.1-21.2-10.5-27.2-20.9C5.2,62,3.7,50,6.8,38.4c3.1-11.6,10.5-21.2,20.9-27.2c6.9-4,14.6-6,22.3-6
				c3.9,0,7.8,0.5,11.7,1.5c11.6,3.1,21.2,10.5,27.2,20.9C94.8,38,96.3,50,93.2,61.6z"/>
		</g>
	</g>
	<g>
		<g>
			<path class="st0" d="M74,45.3L41.8,26.7c-1.7-1-3.7-1-5.4,0c-1.7,1-2.7,2.7-2.7,4.7v37.1c0,2,1,3.7,2.7,4.7
				c0.9,0.5,1.8,0.7,2.7,0.7c0.9,0,1.9-0.2,2.7-0.7L74,54.7c1.7-1,2.7-2.7,2.7-4.7C76.7,48,75.7,46.3,74,45.3z M71.4,50.2L39.2,68.8
				c0,0-0.1,0.1-0.2,0c-0.1-0.1-0.1-0.2-0.1-0.2V31.4c0,0,0-0.1,0.1-0.2c0,0,0.1,0,0.1,0c0.1,0,0.1,0,0.1,0l32.1,18.6
				c0,0,0.1,0.1,0.1,0.2C71.5,50.1,71.4,50.2,71.4,50.2z"/>
		</g>
	</g>
	<g>
		<g>
			<path class="st0" d="M80.7,26.3c-6.2-8-15.5-13.4-25.5-14.7c-1.4-0.2-2.7,0.8-2.9,2.2c-0.2,1.4,0.8,2.7,2.2,2.9
				c8.7,1.2,16.8,5.8,22.1,12.8c0.5,0.7,1.3,1,2.1,1c0.6,0,1.1-0.2,1.6-0.5C81.4,29,81.6,27.4,80.7,26.3z"/>
		</g>
	</g>
	<g>
	</g>
	<g>
	</g>
	<g>
	</g>
	<g>
	</g>
	<g>
	</g>
	<g>
	</g>
	<g>
	</g>
	<g>
	</g>
	<g>
	</g>
	<g>
	</g>
	<g>
	</g>
	<g>
	</g>
	<g>
	</g>
	<g>
	</g>
	<g>
	</g>
</g>
</svg>
