<?xml version="1.0" encoding="utf-8"?>
<!-- Generator: Adobe Illustrator 25.3.1, SVG Export Plug-In . SVG Version: 6.00 Build 0)  -->
<svg version="1.1" id="Layer_1" xmlns="http://www.w3.org/2000/svg" xmlns:xlink="http://www.w3.org/1999/xlink" x="0px" y="0px"
	 viewBox="0 0 75 25" style="enable-background:new 0 0 75 25;" xml:space="preserve">
<style type="text/css">
	.st0{opacity:0.6;}
	.st1{fill:none;stroke:#4D4641;stroke-width:2;stroke-miterlimit:10;}
	.st2{fill:#FFFFFF;}
	.st3{fill:none;stroke:#E13274;stroke-width:2;stroke-miterlimit:10;}
</style>
<circle class="st0" cx="12.5" cy="12.7" r="11.4"/>
<circle class="st1" cx="12.5" cy="12.4" r="11.4"/>
<g>
	<g>
		<path class="st2" d="M12.5,9.8c-1.8,0-3.3,1.5-3.3,3.3s1.5,3.3,3.3,3.3s3.3-1.5,3.3-3.3S14.4,9.8,12.5,9.8z"/>
		<path class="st2" d="M19.5,8.4h-2.4L16,5.6h-7L7.9,8.4H7.6V7H5.9v1.4H5.6C4.9,8.4,4.3,9,4.3,9.7v8.1c0,0.7,0.6,1.3,1.3,1.3h13.9
			c0.7,0,1.3-0.6,1.3-1.3V9.7C20.8,9,20.2,8.4,19.5,8.4z M7,8.4H6.5V7.5H7V8.4z M12.5,18c-2.7,0-5-2.2-5-5s2.2-5,5-5s5,2.2,5,5
			S15.3,18,12.5,18z M18.6,11.7c-0.6,0-1.1-0.5-1.1-1.1s0.5-1.1,1.1-1.1c0.6,0,1.1,0.5,1.1,1.1S19.2,11.7,18.6,11.7z"/>
	</g>
</g>
<circle class="st0" cx="37.4" cy="12.7" r="11.4"/>
<circle class="st1" cx="37.4" cy="12.4" r="11.4"/>
<circle class="st0" cx="62.4" cy="12.7" r="11.4"/>
<circle class="st3" cx="62.4" cy="12.4" r="11.4"/>
<g>
	<g>
		<g>
			<path class="st2" d="M67.2,19v-2.7c0-0.9-0.4-1.8-1.1-2.4l-1.6-1.4l1.6-1.4c0.7-0.6,1.1-1.5,1.1-2.4V5.9c0.4-0.1,0.7-0.5,0.7-1
				c0-0.6-0.5-1.1-1.1-1.1h-8.6c-0.6,0-1.1,0.5-1.1,1.1c0,0.5,0.3,0.9,0.7,1v2.7c0,0.9,0.4,1.8,1.1,2.4l1.6,1.4l-1.6,1.4
				c-0.7,0.6-1.1,1.5-1.1,2.4V19c-0.4,0.1-0.7,0.5-0.7,1c0,0.6,0.5,1.1,1.1,1.1h8.6c0.6,0,1.1-0.5,1.1-1.1
				C67.9,19.5,67.6,19.1,67.2,19z M66.5,18.9h-7.9v-2.6c0-0.7,0.3-1.4,0.9-1.9l1.9-1.7c0.1-0.1,0.1-0.2,0.1-0.3s0-0.2-0.1-0.3
				l-1.9-1.7c-0.5-0.5-0.9-1.2-0.9-1.9V6h7.9v2.6c0,0.7-0.3,1.4-0.9,1.9l-1.9,1.7c-0.1,0.1-0.1,0.2-0.1,0.3s0,0.2,0.1,0.3l1.9,1.7
				c0.5,0.5,0.9,1.2,0.9,1.9L66.5,18.9L66.5,18.9z"/>
		</g>
	</g>
	<g>
		<g>
			<path class="st2" d="M65.7,17.6L62.8,14c-0.1-0.2-0.4-0.2-0.6,0l-2.9,3.6c-0.1,0.1-0.1,0.3,0,0.4c0.1,0.1,0.2,0.2,0.3,0.2h5.8
				c0.1,0,0.3-0.1,0.3-0.2C65.8,17.9,65.8,17.7,65.7,17.6z"/>
		</g>
	</g>
	<g>
		<g>
			<path class="st2" d="M64.3,9.8c-0.1-0.1-0.2-0.2-0.3-0.2h-2.9c-0.1,0-0.3,0.1-0.3,0.2c-0.1,0.1,0,0.3,0.1,0.4l1.4,1.4
				c0.1,0.1,0.2,0.1,0.3,0.1s0.2,0,0.3-0.1l1.4-1.4C64.3,10.1,64.3,9.9,64.3,9.8z"/>
		</g>
	</g>
</g>
<g>
	<path class="st2" d="M43.8,6.4H30.6c-1.1,0-2,0.8-2,1.9v8.5c0,1,0.9,1.9,2,1.9h13.2c1.1,0,2-0.8,2-1.9V8.2
		C45.8,7.2,44.9,6.4,43.8,6.4z M34,9.1c1,0,1.8,0.8,1.8,1.7c0,0.9-0.8,1.7-1.8,1.7s-1.8-0.8-1.8-1.7C32.2,9.8,33,9.1,34,9.1z
		 M37.2,15.4c0,0.3-0.2,0.5-0.5,0.5h-5.4c-0.3,0-0.5-0.2-0.5-0.5V15c0-1,0.9-1.9,2-1.9h2.5c1.1,0,2,0.8,2,1.9V15.4z M43.1,15.9h-3.9
		c-0.3,0-0.5-0.2-0.5-0.5s0.2-0.5,0.5-0.5h3.9c0.3,0,0.5,0.2,0.5,0.5S43.4,15.9,43.1,15.9z M43.1,13.1h-3.9c-0.3,0-0.5-0.2-0.5-0.5
		c0-0.3,0.2-0.5,0.5-0.5h3.9c0.3,0,0.5,0.2,0.5,0.5C43.7,12.9,43.4,13.1,43.1,13.1z M43.1,10.4h-3.9c-0.3,0-0.5-0.2-0.5-0.5
		c0-0.3,0.2-0.5,0.5-0.5h3.9c0.3,0,0.5,0.2,0.5,0.5C43.7,10.2,43.4,10.4,43.1,10.4z"/>
</g>
</svg>
