<?xml version="1.0" encoding="utf-8"?>
<!-- Generator: Adobe Illustrator 18.0.0, SVG Export Plug-In . SVG Version: 6.00 Build 0)  -->
<!DOCTYPE svg PUBLIC "-//W3C//DTD SVG 1.1//EN" "http://www.w3.org/Graphics/SVG/1.1/DTD/svg11.dtd">
<svg version="1.1" id="Layer_1" xmlns="http://www.w3.org/2000/svg" xmlns:xlink="http://www.w3.org/1999/xlink" x="0px" y="0px"
	 width="80px" height="20px" viewBox="0 0 80 20" enable-background="new 0 0 80 20" xml:space="preserve">
<path fill="#FFFFFF" d="M11.3,17.5l8.3-13.9c0.1-0.2,0.2-0.3,0.2-0.5c0-0.5-0.4-1-1-1v0H1.6v0c-0.5,0-1,0.4-1,1
	c0,0.2,0.1,0.4,0.2,0.6L9,17.5c0.3,0.3,0.7,0.5,1.2,0.5C10.6,18,11,17.8,11.3,17.5z"/>
<path fill="#FFFFFF" d="M28.9,2.5l-8.3,13.9c-0.1,0.2-0.2,0.3-0.2,0.5c0,0.5,0.4,1,1,1v0h17.2v0c0.5,0,1-0.4,1-1
	c0-0.2-0.1-0.4-0.2-0.6L31.2,2.5C31,2.2,30.6,2,30.1,2C29.6,2,29.2,2.2,28.9,2.5z"/>
<g>
	<path fill="#FFFFFF" d="M54.1,12.3c-0.8,0-1.6,0.4-2.1,0.9L47.4,11c0.1-0.3,0.2-0.6,0.2-1c0-0.3-0.1-0.7-0.2-1L52,6.9
		c0.5,0.6,1.3,0.9,2.1,0.9c1.6,0,2.9-1.3,2.9-2.9c0-1.6-1.3-2.9-2.9-2.9c-1.6,0-2.9,1.3-2.9,2.9c0,0.2,0,0.3,0,0.4l-4.8,2.3
		c-0.5-0.3-1.1-0.6-1.7-0.6c-1.6,0-2.9,1.3-2.9,2.9c0,1.6,1.3,2.9,2.9,2.9c0.6,0,1.2-0.2,1.7-0.6l4.8,2.3c0,0.1,0,0.3,0,0.4
		c0,1.6,1.3,2.9,2.9,2.9c1.6,0,2.9-1.3,2.9-2.9C57,13.5,55.7,12.3,54.1,12.3z"/>
</g>
<text transform="matrix(1 0 0 1 62.8428 18.0322)" fill="#FFFFFF" font-family="'Roboto-Black'" font-size="22.2644">X</text>
</svg>
