<?xml version="1.0" encoding="utf-8"?>
<!-- Generator: Adobe Illustrator 18.0.0, SVG Export Plug-In . SVG Version: 6.00 Build 0)  -->
<!DOCTYPE svg PUBLIC "-//W3C//DTD SVG 1.1//EN" "http://www.w3.org/Graphics/SVG/1.1/DTD/svg11.dtd">
<svg version="1.1" id="Layer_1" xmlns="http://www.w3.org/2000/svg" xmlns:xlink="http://www.w3.org/1999/xlink" x="0px" y="0px"
	 width="100px" height="25px" viewBox="0 0 100 25" enable-background="new 0 0 100 25" xml:space="preserve">
<g>
	<g>
		<path fill="#E13274" d="M23.3,15.3H21V13c0-0.8-0.6-1.5-1.4-1.5H19c-0.8,0-1.4,0.7-1.4,1.5v2.3h-2.3c-0.8,0-1.5,0.6-1.5,1.4v0.6
			c0,0.8,0.7,1.4,1.5,1.4h2.3V21c0,0.8,0.6,1.5,1.4,1.5h0.6c0.8,0,1.4-0.7,1.4-1.5v-2.3h2.3c0.8,0,1.5-0.6,1.5-1.4v-0.6
			C24.7,15.9,24,15.3,23.3,15.3z"/>
		<circle fill="#E13274" cx="10.8" cy="7.3" r="4.6"/>
		<path fill="#E13274" d="M15.8,20.5h-0.6c-1.8,0-3.2-1.4-3.2-3.1v-0.6c0-1.7,1.4-3.1,3.2-3.1h0.6v-0.3H5.9
			c-2.7,1.9-4.8,5.2-5.8,9.3h16.1c-0.2-0.4-0.4-0.9-0.4-1.5V20.5z"/>
	</g>
</g>
<g>
	<g>
		<circle fill="#E13274" cx="86" cy="7.3" r="4.6"/>
		<path fill="#E13274" d="M90.9,20.5h-0.6c-1.8,0-3.2-1.4-3.2-3.1v-0.6c0-1.7,1.4-3.1,3.2-3.1h0.6v-0.3H81c-2.7,1.9-4.8,5.2-5.8,9.3
			h16.1c-0.2-0.4-0.4-0.9-0.4-1.5V20.5z"/>
		<path fill="#E13274" d="M98.1,18.7h-7.7c-0.9,0-1.7-0.8-1.7-1.7v0c0-0.9,0.8-1.7,1.7-1.7h7.7c0.9,0,1.7,0.8,1.7,1.7v0
			C99.8,17.9,99,18.7,98.1,18.7z"/>
	</g>
</g>
<g>
	<g>
		<g id="Block_1_">
			<path id="Block_2_" fill="#E13274" d="M46,3.9c-4.7-4.7-12.4-4.7-17.1,0s-4.7,12.4,0,17.1s12.4,4.7,17.1,0
				C50.8,16.4,50.8,8.6,46,3.9z M43.9,6.1c3.2,3.2,3.5,8.1,1,11.7L32.2,5.1C35.7,2.6,40.7,2.9,43.9,6.1z M31,18.9
				c-3.2-3.2-3.5-8.2-1-11.7l12.7,12.7C39.2,22.4,34.2,22.1,31,18.9z"/>
		</g>
	</g>
</g>
<g>
	<g>
		<path fill="#E13274" d="M68.7,16.5c-0.9,0-1.7,0.3-2.4,0.8l-6.9-4.1c0-0.2,0.1-0.4,0.1-0.6c0-0.2,0-0.4-0.1-0.6l6.9-4.1
			c0.7,0.5,1.5,0.8,2.4,0.8c2.2,0,4-1.8,4-4s-1.8-4-4-4c-2.2,0-4,1.8-4,4c0,0.2,0,0.4,0.1,0.6L58,9.4c-0.7-0.5-1.5-0.8-2.4-0.8
			c-2.2,0-4,1.8-4,4s1.8,4,4,4c0.9,0,1.7-0.3,2.4-0.8l6.9,4.1c0,0.2-0.1,0.4-0.1,0.6c0,2.2,1.8,4,4,4c2.2,0,4-1.8,4-4
			S70.9,16.5,68.7,16.5z"/>
	</g>
</g>
</svg>
