<?xml version="1.0" encoding="utf-8"?>
<!-- Generator: Adobe Illustrator 21.0.0, SVG Export Plug-In . SVG Version: 6.00 Build 0)  -->
<svg version="1.1" id="Layer_1" xmlns="http://www.w3.org/2000/svg" xmlns:xlink="http://www.w3.org/1999/xlink" x="0px" y="0px"
	 width="31px" height="31px" viewBox="0 0 31 31" style="enable-background:new 0 0 31 31;" xml:space="preserve">
<style type="text/css">
	.st0{opacity:0.6;}
	.st1{fill:none;stroke:#72FF00;stroke-width:2;stroke-miterlimit:10;}
	.st2{fill:#FFFFFF;}
	.st3{fill:#00CC00;}
	.st4{fill:#FFFFFF;stroke:#438702;stroke-width:0.25;stroke-miterlimit:10;}
</style>
<circle class="st0" cx="13.5" cy="17.8" r="12.5"/>
<circle class="st1" cx="13.4" cy="17.7" r="12.3"/>
<g>
	<g>
		<path class="st2" d="M13.5,14.8c-2,0-3.6,1.6-3.6,3.6s1.6,3.6,3.6,3.6s3.6-1.6,3.6-3.6S15.5,14.8,13.5,14.8z"/>
		<path class="st2" d="M21.1,13.3h-2.6l-1.2-3H9.7l-1.2,3H8.1v-1.5H6.3v1.5H5.9c-0.8,0-1.4,0.6-1.4,1.4v8.9c0,0.8,0.7,1.5,1.5,1.5
			h15.2c0.8,0,1.5-0.7,1.5-1.5v-8.9C22.6,13.9,21.9,13.3,21.1,13.3z M7.5,13.3H6.9v-0.9h0.6V13.3z M13.5,23.9c-3,0-5.4-2.4-5.4-5.4
			s2.4-5.4,5.4-5.4s5.4,2.4,5.4,5.4S16.5,23.9,13.5,23.9z M20.2,16.9c-0.7,0-1.2-0.5-1.2-1.2c0-0.7,0.5-1.2,1.2-1.2s1.2,0.5,1.2,1.2
			C21.4,16.4,20.8,16.9,20.2,16.9z"/>
	</g>
	<g>
	</g>
	<g>
	</g>
	<g>
	</g>
	<g>
	</g>
	<g>
	</g>
	<g>
	</g>
	<g>
	</g>
	<g>
	</g>
	<g>
	</g>
	<g>
	</g>
	<g>
	</g>
	<g>
	</g>
	<g>
	</g>
	<g>
	</g>
	<g>
	</g>
</g>
<circle class="st3" cx="22" cy="9" r="8.8"/>
<g>
	<path class="st4" d="M14.9,10.1c-0.1-0.1-0.2-0.3-0.2-0.4c0-0.1,0.1-0.3,0.2-0.4l0.8-0.8c0.2-0.2,0.5-0.2,0.8,0l0.1,0.1l3,3.2
		c0.1,0.1,0.3,0.1,0.4,0l7.4-7.6h0.1l0,0C27.5,4,27.8,4,28,4.2L28.8,5c0.2,0.2,0.2,0.5,0,0.8l0,0L20,14.9C19.9,15,19.8,15,19.6,15
		s-0.3-0.1-0.4-0.2L15,10.3C15,10.3,14.9,10.1,14.9,10.1z"/>
</g>
</svg>
