<?xml version="1.0" encoding="utf-8"?>
<!-- Generator: Adobe Illustrator 18.0.0, SVG Export Plug-In . SVG Version: 6.00 Build 0)  -->
<!DOCTYPE svg PUBLIC "-//W3C//DTD SVG 1.1//EN" "http://www.w3.org/Graphics/SVG/1.1/DTD/svg11.dtd">
<svg version="1.1" id="Layer_1" xmlns="http://www.w3.org/2000/svg" xmlns:xlink="http://www.w3.org/1999/xlink" x="0px" y="0px"
	 width="108px" height="18px" viewBox="0 0 108 18" enable-background="new 0 0 108 18" xml:space="preserve">
<g>
	<path fill="#FAD749" d="M9.2,14.7c0.4,0,0.8,0.1,1.1,0.4c0.3,0.3,0.4,0.7,0.4,1.1s-0.2,0.8-0.5,1.1c-0.3,0.3-0.7,0.4-1.1,0.4
		c-0.4,0-0.8-0.1-1.1-0.4c-0.3-0.3-0.5-0.7-0.5-1.1s0.1-0.8,0.4-1.1C8.4,14.8,8.7,14.7,9.2,14.7z M8.6,13.4L7.7,2.5
		c0-0.3,0-0.5,0-0.6c0-0.6,0.1-1,0.4-1.3c0.3-0.3,0.6-0.4,1.2-0.4c0.4,0,0.8,0.1,1.1,0.4c0.3,0.3,0.4,0.6,0.4,1.1
		c0,0.1,0,0.4-0.1,0.7l-1,11H8.6z"/>
</g>
<g>
	<g>
		<g>
			<path fill="#E13274" d="M21.1,1.6c0-0.4-0.3-0.7-0.7-0.7h-0.7c-0.4,0-0.7,0.3-0.7,0.7v0.3h2.2V1.6z"/>
			<path fill="#E13274" d="M18.9,11.7h6.1l0.5-1.5c-0.1,0-0.3,0-0.4,0C23.4,10.2,22,8.7,22,7s1.4-3.3,3.2-3.3c1.5,0,2.8,1.1,3.1,2.6
				l3.9,1.4V3.3c0-0.4-0.4-0.8-0.8-0.8h-2.8l-0.3-1.7c-0.1-0.4-0.4-0.6-0.8-0.6h-2.2h-2.4c-0.4,0-0.7,0.3-0.8,0.6l-0.3,1.7h-0.6H19
				h0c-0.4,0-0.8,0.4-0.8,0.8v7.6C18.1,11.3,18.5,11.7,18.9,11.7z"/>
			<path fill="#E13274" d="M35.6,9.5l-2.8-1l-0.3-0.1l-0.3-0.1l-3.8-1.4l-0.3-0.1c-0.1,0-0.1,0-0.2,0c-0.3,0-0.5,0.2-0.6,0.4l-1,2.8
				l-0.6,1.7L25.5,12l-0.1,0.3l-0.8,2.1c-0.1,0.3,0.1,0.7,0.4,0.8l7.5,2.7c0.1,0,0.1,0,0.2,0c0.3,0,0.5-0.2,0.6-0.4l2.6-7.2
				C36.1,9.9,35.9,9.6,35.6,9.5z M26.7,12.2l1.5-4.1l6.4,2.3l-1.5,4.1L26.7,12.2z"/>
			<path fill="#E13274" d="M32.2,10.2c-0.1-0.1-0.3-0.2-0.5-0.2c-0.2,0-0.4,0.1-0.6,0.2C31,10,30.9,9.9,30.7,9.7
				c-0.5-0.3-1.2-0.2-1.5,0.3c0,0,0,0,0,0c-0.2,0.4-0.1,0.8,0.1,1.2c0.1,0.1,0.1,0.3,0.2,0.4c0.1,0.1,0.1,0.2,0.2,0.3
				c0.1,0.1,0.1,0.2,0.2,0.3c0,0.1,0.1,0.1,0.1,0.2c0.1,0.1,0.1,0.2,0.2,0.3c0.1-0.1,0.2-0.1,0.3-0.1c0.4-0.1,0.9-0.2,1.3-0.4
				c0,0,0.1,0,0.1,0c0.3-0.2,0.6-0.5,0.7-0.8c0,0,0,0,0,0c0.1-0.3,0-0.6-0.2-0.8C32.4,10.4,32.3,10.3,32.2,10.2z"/>
		</g>
	</g>
</g>
<g>
	<g>
		<g>
			<path fill="#E13274" d="M50.6,11.4c-1,0-1.9,0.5-2.5,1.2l-5.5-2.8c0.1-0.3,0.1-0.5,0.1-0.8c0-0.3-0.1-0.6-0.1-0.9l5.4-2.8
				c0.6,0.8,1.5,1.3,2.6,1.3c1.8,0,3.2-1.4,3.2-3.2c0-1.8-1.4-3.2-3.2-3.2c-1.8,0-3.2,1.4-3.2,3.2c0,0.3,0.1,0.6,0.1,0.8L42.1,7
				c-0.6-0.7-1.5-1.2-2.5-1.2c-1.8,0-3.2,1.4-3.2,3.2s1.4,3.2,3.2,3.2c1.1,0,2-0.5,2.6-1.3l5.4,2.8c-0.1,0.3-0.1,0.6-0.1,0.9
				c0,1.8,1.4,3.2,3.2,3.2c1.8,0,3.2-1.4,3.2-3.2C53.8,12.8,52.4,11.4,50.6,11.4z"/>
		</g>
	</g>
</g>
<g>
	<g>
		<polygon fill="#E13274" points="59.1,17.8 66.5,17.8 67.2,6.5 58.3,6.5 		"/>
		<path fill="#E13274" d="M66,2.9l0.5-1.3l-3.9-1.4L62,1.5l-2.9-1.1l-0.8,2.1l9.8,3.6L68.9,4L66,2.9z M63.2,1.6L65,2.3l-0.1,0.3
			l-1.9-0.7L63.2,1.6z"/>
	</g>
</g>
<g>
	<g>
		<path fill="#E13274" d="M89.8,14.4L82.2,1.7C82,1.2,81.5,1,81,1c-0.5,0-0.9,0.2-1.2,0.7l-7.6,12.7c-0.3,0.4-0.3,0.9,0,1.4
			c0.2,0.4,0.7,0.7,1.2,0.7h15.2c0.5,0,0.9-0.3,1.2-0.7C90.1,15.3,90.1,14.8,89.8,14.4z"/>
	</g>
</g>
<g>
	<g>
		<path fill="#E13274" d="M90.4,3.2l7.6,12.7c0.2,0.4,0.7,0.7,1.2,0.7c0.5,0,0.9-0.2,1.2-0.7l7.6-12.7c0.3-0.4,0.3-0.9,0-1.3
			c-0.2-0.4-0.7-0.7-1.2-0.7H91.5c-0.5,0-0.9,0.3-1.2,0.7C90.1,2.3,90.1,2.8,90.4,3.2z"/>
	</g>
</g>
</svg>
