<?xml version="1.0" encoding="utf-8"?>
<!-- Generator: Adobe Illustrator 23.0.4, SVG Export Plug-In . SVG Version: 6.00 Build 0)  -->
<svg version="1.1" id="Layer_1" xmlns="http://www.w3.org/2000/svg" xmlns:xlink="http://www.w3.org/1999/xlink" x="0px" y="0px"
	 width="35.3px" height="40px" viewBox="0 0 35.3 40" style="enable-background:new 0 0 35.3 40;" xml:space="preserve">
<style type="text/css">
	.st0{fill:#E13274;}
</style>
<g>
	<path class="st0" d="M27,16.4c-0.6-0.9-1.6-0.5-2.2-0.4c-0.1,0.1-0.3,0.1-0.4,0.1c0-0.1,0.1-0.3,0.1-0.4c0.2-0.7,0.5-1.6-0.3-2.2
		C23.4,13,22.6,13.6,22,14c-0.1,0.1-0.2,0.1-0.3,0.2c0-0.1,0-0.3,0-0.3c0-0.6-0.1-1.7-1.1-1.9c-0.9-0.2-1.5,0.7-1.9,1.2
		c-0.1,0.1-0.1,0.2-0.2,0.3c-0.1-0.1-0.1-0.2-0.1-0.3c-0.3-0.6-0.6-1.5-1.7-1.5c-1,0.1-1.2,1.1-1.3,1.7c0,0.1-0.1,0.2-0.1,0.3
		c-0.1-0.1-0.1-0.2-0.2-0.3c-0.5-0.5-1.1-1.3-2.1-0.9c-0.9,0.5-0.7,1.5-0.7,2.1c0,0.1,0.1,0.3,0.1,0.4c-0.1-0.1-0.2-0.1-0.3-0.1
		c-0.5-0.3-1.5-0.8-2.3-0.1c-0.7,0.7-0.2,1.6,0.1,2.2c0.1,0.1,0.1,0.3,0.2,0.5c-0.1,0-0.3,0-0.5,0c-0.7-0.1-1.7-0.1-2.1,0.9
		c-0.1,0.3,0,0.7,0.3,0.9c0.3,0.1,0.7,0,0.9-0.3c0.1-0.1,0.5-0.1,0.8-0.1c0.6,0.1,1.3,0.1,1.7-0.5c0.4-0.6,0.1-1.3-0.2-1.9
		c-0.1-0.2-0.3-0.5-0.3-0.7c0.1,0,0.5,0.2,0.7,0.3c0.5,0.3,1.2,0.6,1.8,0.2c0.6-0.4,0.5-1.2,0.4-1.8c0-0.2-0.1-0.5-0.1-0.7
		c0.1,0.1,0.3,0.3,0.5,0.5c0.4,0.5,0.9,1,1.6,0.8c0.7-0.2,0.9-0.9,1-1.5c0.1-0.2,0.1-0.5,0.1-0.6c0.1,0.1,0.2,0.4,0.3,0.6
		c0.2,0.6,0.5,1.3,1.2,1.3c0.7,0.1,1.1-0.6,1.5-1.1c0.1-0.1,0.3-0.4,0.3-0.5c0.1,0.2,0.1,0.5,0.1,0.7c0,0.6,0.1,1.4,0.7,1.7
		c0.7,0.3,1.3-0.1,1.7-0.5c0.1-0.1,0.4-0.3,0.5-0.4c0,0.2-0.1,0.5-0.2,0.7c-0.2,0.6-0.4,1.3,0.1,1.8c0.5,0.5,1.3,0.3,1.8,0.2
		c0.2-0.1,0.7-0.2,0.7-0.2c0,0.1-0.3,0.5-0.4,0.7c-0.3,0.5-0.9,1.1-0.5,1.8c0.1,0.3,0.3,0.4,0.6,0.4c0.1,0,0.2,0,0.3-0.1
		c0.3-0.1,0.5-0.5,0.3-0.8c0.1-0.1,0.2-0.4,0.3-0.5C26.9,18,27.5,17.2,27,16.4z"/>
	<path class="st0" d="M34.1,27.2c-0.7-0.5-1.7-0.3-2.3,0.2L30,26.3c0.7-1.3,1.1-2.7,1.4-4.2l2.7,0.3l0.1-1.3l-2.7-0.3
		c0-0.3,0.1-0.5,0.1-0.8s0-0.5-0.1-0.8l2.7-0.3L34,17.6l-2.7,0.3c-0.2-1.5-0.7-2.9-1.4-4.2l1.9-1.1c0.6,0.5,1.5,0.7,2.3,0.2
		c0.9-0.5,1.3-1.8,0.7-2.7c-0.5-0.9-1.8-1.3-2.7-0.7c-0.7,0.5-1.1,1.3-0.9,2.1l-1.9,1.1c-0.8-1.3-1.9-2.4-3-3.3l1.6-2.2l-1.1-0.8
		l-1.6,2.2c-0.5-0.3-0.9-0.5-1.4-0.8L24.9,5l-1.2-0.5l-1.1,2.5c-1.4-0.5-2.9-0.9-4.4-0.9V3.9c0.8-0.3,1.3-1,1.3-1.9c0-1.1-0.9-2-2-2
		s-2,0.9-2,2c0,0.9,0.5,1.6,1.3,1.9V6c-1.5,0.1-3,0.4-4.4,0.9l-1.1-2.5L10.3,5l1.1,2.5C10.9,7.7,10.4,8,10,8.3L8.4,6.1L7.3,6.9
		l1.6,2.2c-1.2,0.9-2.2,2.1-3,3.3L4,11.3c0.1-0.8-0.2-1.7-0.9-2.1c-1-0.5-2.3-0.2-2.8,0.7S0.1,12.2,1,12.7c0.7,0.5,1.7,0.3,2.3-0.2
		l1.9,1.1c-0.7,1.3-1.1,2.7-1.4,4.2l-2.7-0.3l-0.1,1.3l2.7,0.3c0,0.3-0.1,0.5-0.1,0.8s0,0.5,0.1,0.8L0.9,21l0.1,1.3l2.7-0.3
		c0.2,1.5,0.7,2.9,1.4,4.2l-1.9,1.1c-0.6-0.5-1.5-0.7-2.3-0.2c-0.9,0.5-1.3,1.8-0.7,2.7s1.8,1.3,2.7,0.7c0.7-0.5,1.1-1.3,0.9-2.1
		l1.9-1.1c0.8,1.3,1.9,2.4,3,3.3L7.2,33l1.1,0.8l1.6-2.2c0.5,0.3,0.9,0.5,1.4,0.8l-1.1,2.5l1.2,0.5l1.1-2.5c1.4,0.5,2.9,0.9,4.4,0.9
		V36c-0.8,0.3-1.3,1-1.3,1.9c0,1.1,0.9,2,2,2c1.1,0,2-0.9,2-2c0-0.9-0.5-1.6-1.3-1.9v-2.1c1.5-0.1,3-0.4,4.4-0.9l1.1,2.5l1.2-0.5
		l-1.1-2.5c0.5-0.3,0.9-0.5,1.4-0.8l1.6,2.2l1.1-0.8l-1.6-2.2c1.2-0.9,2.2-2.1,3-3.3l1.9,1.1c-0.1,0.8,0.2,1.7,0.9,2.1
		c0.9,0.5,2.2,0.2,2.7-0.7S35,27.7,34.1,27.2z M25.5,29.8l-0.8-1.1l-1.1,0.8l0.8,1.1c-0.4,0.3-0.7,0.5-1.1,0.7L22.8,30l-1.3,0.5
		l0.5,1.2c-1.2,0.5-2.5,0.7-3.9,0.8v-1.3h-1.3v1.3c-1.3-0.1-2.7-0.3-3.9-0.8l0.5-1.2L12.4,30l-0.5,1.2c-0.4-0.2-0.8-0.4-1.1-0.7
		l0.8-1.1l-1.1-0.8l-0.9,1.1c-1-0.9-1.9-1.8-2.7-2.9L8,26.2l-0.7-1.1l-1.1,0.7c-0.6-1.1-1-2.4-1.2-3.7l1.3-0.1l-0.1-1.3L5,20.6
		c0-0.2-0.1-0.5-0.1-0.7s0-0.5,0.1-0.7l1.3,0.1l0.1-1.3L5.1,18c0.2-1.3,0.6-2.6,1.2-3.7l1.1,0.7l0.7-1.1L7,13.1
		C7.7,12,8.6,11,9.6,10.2l0.8,1.1l1.1-0.8l-0.8-1.1c0.4-0.3,0.7-0.5,1.1-0.7l0.5,1.2l1.2-0.5L13,8.2c1.2-0.5,2.5-0.7,3.9-0.8v1.3
		h1.3V7.4c1.3,0.1,2.7,0.3,3.9,0.8l-0.5,1.2l1.2,0.5l0.5-1.2c0.4,0.2,0.8,0.4,1.1,0.7l-0.8,1.1l1.1,0.8l0.8-1.1
		c1,0.9,1.9,1.8,2.7,2.9L27,13.8l0.7,1.1l1.1-0.7c0.6,1.1,1,2.4,1.2,3.7l-1.3,0.1l0.1,1.3l1.3-0.1c0,0.2,0.1,0.5,0.1,0.7
		s0,0.5-0.1,0.7l-1.3-0.1l-0.1,1.3l1.3,0.1c-0.2,1.3-0.6,2.6-1.2,3.7L27.6,25L27,26.1l1.1,0.7C27.4,27.9,26.5,28.9,25.5,29.8z"/>
</g>
</svg>
