<?xml version="1.0" encoding="utf-8"?>
<!-- Generator: Adobe Illustrator 22.0.1, SVG Export Plug-In . SVG Version: 6.00 Build 0)  -->
<svg version="1.1" id="Layer_1" xmlns="http://www.w3.org/2000/svg" xmlns:xlink="http://www.w3.org/1999/xlink" x="0px" y="0px"
	 width="155px" height="140px" viewBox="0 0 155 140" style="enable-background:new 0 0 155 140;" xml:space="preserve">
<style type="text/css">
	.st0{fill:#C43156;}
</style>
<g>
	<g>
		<g>
			<path class="st0" d="M77.3,98.2c-4.3,0-7.8,3.6-7.8,7.8c0,4.3,3.6,7.8,7.8,7.8c4.1,0,7.8-3.6,7.7-7.7
				C85.2,101.7,81.6,98.2,77.3,98.2z"/>
			<path class="st0" d="M149.9,126c4.9-8.5,5-18.6,0.1-27.1l-49.1-85.1C96,5.2,87.2,0.1,77.3,0.1S58.7,5.2,53.8,13.7L4.6,98.9
				c-4.9,8.6-4.9,18.8,0.1,27.3c4.9,8.4,13.6,13.5,23.4,13.5h98.1C136.1,139.7,145,134.6,149.9,126z M139.3,119.8
				c-2.7,4.7-7.6,7.5-13,7.5H28.1c-5.3,0-10.1-2.7-12.8-7.3c-2.7-4.7-2.7-10.3,0-15l49.2-85.2c2.7-4.7,7.4-7.4,12.8-7.4
				c5.4,0,10.2,2.8,12.8,7.5l49.2,85.2C142,109.6,142,115.2,139.3,119.8z"/>
			<path class="st0" d="M75.4,43.1c-3.7,1.1-6.1,4.5-6.1,8.6c0.2,2.5,0.3,5,0.5,7.5c0.5,9.4,1.1,18.7,1.6,28.1
				c0.2,3.2,2.7,5.5,5.9,5.5c3.2,0,5.7-2.5,5.9-5.7c0-1.9,0-3.7,0.2-5.7c0.3-6.1,0.7-12.1,1.1-18.2c0.2-3.9,0.5-7.8,0.7-11.8
				c0-1.4-0.2-2.7-0.7-3.9C82.8,44,79.1,42.2,75.4,43.1z"/>
		</g>
	</g>
	<g>
	</g>
	<g>
	</g>
	<g>
	</g>
	<g>
	</g>
	<g>
	</g>
	<g>
	</g>
	<g>
	</g>
	<g>
	</g>
	<g>
	</g>
	<g>
	</g>
	<g>
	</g>
	<g>
	</g>
	<g>
	</g>
	<g>
	</g>
	<g>
	</g>
</g>
</svg>
